<svg width="186" height="70" viewBox="0 0 186 70" fill="none" xmlns="http://www.w3.org/2000/svg">
<path d="M9.2306 20L10.3109 16.772H15.2327L16.3194 20H18.8506L14.2356 6.90909H11.308L6.69935 20H9.2306ZM10.9501 14.8672L12.7207 9.59375H12.8229L14.5935 14.8672H10.9501ZM24.4565 20.1918C26.9238 20.1918 28.4962 18.728 28.6624 16.6442H26.4508C26.2526 17.6989 25.492 18.3061 24.4756 18.3061C23.031 18.3061 22.0978 17.098 22.0978 15.0909C22.0978 13.1094 23.0502 11.9205 24.4756 11.9205C25.5878 11.9205 26.2718 12.6364 26.4508 13.5824H28.6624C28.5026 11.4538 26.8407 10.054 24.4437 10.054C21.5672 10.054 19.7519 12.1314 19.7519 15.1293C19.7519 18.1016 21.5225 20.1918 24.4565 20.1918ZM34.8451 20.1918C37.3125 20.1918 38.8849 18.728 39.0511 16.6442H36.8394C36.6413 17.6989 35.8806 18.3061 34.8643 18.3061C33.4197 18.3061 32.4865 17.098 32.4865 15.0909C32.4865 13.1094 33.4389 11.9205 34.8643 11.9205C35.9765 11.9205 36.6605 12.6364 36.8394 13.5824H39.0511C38.8913 11.4538 37.2294 10.054 34.8323 10.054C31.9559 10.054 30.1406 12.1314 30.1406 15.1293C30.1406 18.1016 31.9112 20.1918 34.8451 20.1918ZM45.2338 20.1918C48.1102 20.1918 49.9383 18.1655 49.9383 15.1293C49.9383 12.0866 48.1102 10.054 45.2338 10.054C42.3574 10.054 40.5293 12.0866 40.5293 15.1293C40.5293 18.1655 42.3574 20.1918 45.2338 20.1918ZM45.2466 18.3381C43.655 18.3381 42.8751 16.919 42.8751 15.1229C42.8751 13.3267 43.655 11.8885 45.2466 11.8885C46.8126 11.8885 47.5925 13.3267 47.5925 15.1229C47.5925 16.919 46.8126 18.3381 45.2466 18.3381ZM58.1601 15.8707C58.1601 17.3665 57.0926 18.108 56.0699 18.108C54.9577 18.108 54.2162 17.3217 54.2162 16.0753V10.1818H51.9023V16.4332C51.9023 18.7919 53.2446 20.1278 55.175 20.1278C56.6452 20.1278 57.6807 19.3544 58.1282 18.255H58.2304V20H60.474V10.1818H58.1601V15.8707ZM65.1674 14.2472C65.1674 12.8281 66.0239 12.0099 67.2448 12.0099C68.4401 12.0099 69.156 12.7962 69.156 14.1065V20H71.4699V13.7486C71.4763 11.3963 70.134 10.054 68.1077 10.054C66.6376 10.054 65.6276 10.7571 65.1802 11.8501H65.0651V10.1818H62.8535V20H65.1674V14.2472ZM78.7249 10.1818H76.7881V7.82955H74.4742V10.1818H73.0807V11.9716H74.4742V17.4304C74.4614 19.2777 75.8038 20.1854 77.5424 20.1342C78.2008 20.1151 78.6546 19.9872 78.9039 19.9041L78.514 18.0952C78.3861 18.1271 78.1241 18.1847 77.8364 18.1847C77.2547 18.1847 76.7881 17.9801 76.7881 17.0469V11.9716H78.7249V10.1818ZM88.2794 12.777C87.9598 11.1151 86.6303 10.054 84.3291 10.054C81.9641 10.054 80.3533 11.2173 80.3597 13.0327C80.3533 14.4645 81.2354 15.4105 83.121 15.8004L84.7958 16.152C85.697 16.3501 86.1189 16.7145 86.1189 17.2706C86.1189 17.9418 85.3902 18.4467 84.2908 18.4467C83.2297 18.4467 82.5394 17.9865 82.3412 17.1044L80.0848 17.3217C80.3725 19.1243 81.8874 20.1918 84.2972 20.1918C86.7517 20.1918 88.484 18.9197 88.4904 17.0597C88.484 15.6598 87.5827 14.8033 85.729 14.4006L84.0543 14.0426C83.0571 13.8189 82.6608 13.4737 82.6672 12.9048C82.6608 12.2401 83.3959 11.7798 84.3611 11.7798C85.4286 11.7798 85.9911 12.3615 86.1701 13.0071L88.2794 12.777ZM98.7752 20.1918C99.9321 20.1918 101.217 19.8338 102.131 19.0412L102.968 20H105.474L103.556 17.7564C104.196 16.8999 104.694 15.6278 104.694 13.8317H102.706C102.706 14.6946 102.502 15.468 102.157 16.1136L99.7659 13.3139L100.591 12.7067C101.684 11.9141 102.329 10.9616 102.329 9.72159C102.329 8.12358 101.07 6.74929 99.0053 6.74929C96.9343 6.74929 95.5728 8.12358 95.5728 9.98366C95.5728 11.1534 96.1608 12.1058 96.9151 13.0391C95.4577 14.0426 94.4605 14.9822 94.4605 16.5227C94.4605 18.6065 96.0969 20.1918 98.7752 20.1918ZM100.872 17.5966C100.252 18.044 99.5422 18.2869 98.8455 18.2869C97.5607 18.2869 96.7297 17.456 96.7297 16.4205C96.7297 15.9666 97.0749 15.2827 97.9442 14.6435L98.1551 14.4901L100.872 17.5966ZM98.5834 11.9013C98.0337 11.2237 97.6374 10.6165 97.6374 10.0156C97.6374 9.30611 98.1999 8.64773 99.0372 8.64773C99.8618 8.64773 100.367 9.26136 100.367 9.82386C100.367 10.4886 100.009 10.9553 99.3249 11.3963L98.5834 11.9013ZM118.48 10.5078H120.762C120.717 8.29616 118.832 6.73011 116.045 6.73011C113.296 6.73011 111.232 8.27699 111.238 10.5909C111.238 12.4702 112.574 13.5504 114.728 14.1065L116.217 14.4901C117.63 14.848 118.563 15.2891 118.57 16.3054C118.563 17.424 117.502 18.1719 115.955 18.1719C114.472 18.1719 113.322 17.5071 113.226 16.1328H110.893C110.989 18.7344 112.926 20.1982 115.975 20.1982C119.113 20.1982 120.935 18.6321 120.941 16.3246C120.935 14.0554 119.062 13.0199 117.093 12.5533L115.866 12.2464C114.792 11.9908 113.629 11.5369 113.641 10.4439C113.648 9.45952 114.53 8.73722 116.013 8.73722C117.426 8.73722 118.359 9.3956 118.48 10.5078ZM125.778 20.1982C127.319 20.1982 128.239 19.4759 128.661 18.6513H128.738V20H130.962V13.429C130.962 10.8338 128.847 10.054 126.974 10.054C124.909 10.054 123.324 10.9744 122.812 12.7642L124.973 13.071C125.203 12.3999 125.855 11.8246 126.986 11.8246C128.06 11.8246 128.648 12.3743 128.648 13.3395V13.3778C128.648 14.0426 127.952 14.0746 126.219 14.2599C124.315 14.4645 122.493 15.0334 122.493 17.245C122.493 19.1754 123.905 20.1982 125.778 20.1982ZM126.379 18.4979C125.414 18.4979 124.724 18.0568 124.724 17.2067C124.724 16.3182 125.497 15.9474 126.533 15.8004C127.14 15.7173 128.354 15.5639 128.655 15.321V16.478C128.655 17.571 127.773 18.4979 126.379 18.4979ZM141.707 10.1818H139.246L136.984 17.4751H136.881L134.625 10.1818H132.158L135.654 20H138.211L141.707 10.1818ZM143.309 20H145.622V10.1818H143.309V20ZM144.472 8.78835C145.207 8.78835 145.808 8.22585 145.808 7.53551C145.808 6.83878 145.207 6.27628 144.472 6.27628C143.73 6.27628 143.13 6.83878 143.13 7.53551C143.13 8.22585 143.73 8.78835 144.472 8.78835ZM150.316 14.2472C150.316 12.8281 151.172 12.0099 152.393 12.0099C153.589 12.0099 154.304 12.7962 154.304 14.1065V20H156.618V13.7486C156.625 11.3963 155.282 10.054 153.256 10.054C151.786 10.054 150.776 10.7571 150.329 11.8501H150.214V10.1818H148.002V20H150.316V14.2472ZM163.241 23.8864C165.893 23.8864 167.849 22.6719 167.849 20.1598V10.1818H165.567V11.8054H165.439C165.088 11.0959 164.353 10.054 162.621 10.054C160.351 10.054 158.568 11.831 158.568 15.0589C158.568 18.2614 160.351 19.8594 162.614 19.8594C164.295 19.8594 165.081 18.9581 165.439 18.2358H165.554V20.0959C165.554 21.5405 164.596 22.1349 163.279 22.1349C161.885 22.1349 161.272 21.4766 160.991 20.9013L158.907 21.4062C159.329 22.7805 160.741 23.8864 163.241 23.8864ZM163.26 18.044C161.732 18.044 160.927 16.8551 160.927 15.0462C160.927 13.2628 161.719 11.9524 163.26 11.9524C164.749 11.9524 165.567 13.1861 165.567 15.0462C165.567 16.919 164.736 18.044 163.26 18.044ZM177.981 12.777C177.661 11.1151 176.331 10.054 174.03 10.054C171.665 10.054 170.054 11.2173 170.061 13.0327C170.054 14.4645 170.937 15.4105 172.822 15.8004L174.497 16.152C175.398 16.3501 175.82 16.7145 175.82 17.2706C175.82 17.9418 175.091 18.4467 173.992 18.4467C172.931 18.4467 172.241 17.9865 172.042 17.1044L169.786 17.3217C170.074 19.1243 171.589 20.1918 173.998 20.1918C176.453 20.1918 178.185 18.9197 178.192 17.0597C178.185 15.6598 177.284 14.8033 175.43 14.4006L173.755 14.0426C172.758 13.8189 172.362 13.4737 172.368 12.9048C172.362 12.2401 173.097 11.7798 174.062 11.7798C175.13 11.7798 175.692 12.3615 175.871 13.0071L177.981 12.777Z" fill="#2B5F4D"/>
<path opacity="0.7" d="M83.1008 38.1534C81.2088 38.1406 79.9517 39.4403 79.9517 41.1449C79.9559 42.7898 81.1278 43.9787 82.6576 43.9787C83.5994 43.9787 84.4176 43.5227 84.8394 42.7727H84.8991C84.8948 44.6392 84.2173 45.7514 83.0113 45.7514C82.2571 45.7514 81.75 45.3168 81.5923 44.6222H80.0369C80.2159 46.0668 81.3579 47.1193 83.0113 47.1193C85.1036 47.1193 86.4375 45.3722 86.4332 42.3679C86.4289 39.1889 84.7755 38.1619 83.1008 38.1534ZM83.1051 39.4318C84.0383 39.4318 84.7244 40.2074 84.7244 41.098C84.7286 42.0014 84.0085 42.777 83.088 42.777C82.159 42.777 81.49 42.044 81.4858 41.1108C81.4858 40.1733 82.1804 39.4318 83.1051 39.4318ZM90.9843 47.1193C92.8508 47.1193 94.2102 46.0497 94.2059 44.5753C94.2102 43.4844 93.5284 42.7003 92.3054 42.5256V42.4574C93.2514 42.2528 93.8863 41.5497 93.8821 40.5696C93.8863 39.2401 92.7528 38.1534 91.0099 38.1534C89.3139 38.1534 88.0014 39.1634 87.9673 40.625H89.4886C89.5142 39.892 90.196 39.4361 91.0014 39.4361C91.8153 39.4361 92.3565 39.9304 92.3522 40.6634C92.3565 41.4261 91.7258 41.9332 90.8224 41.9332H90.0511V43.152H90.8224C91.9261 43.152 92.5823 43.706 92.5781 44.4943C92.5823 45.2656 91.9133 45.794 90.9801 45.794C90.1022 45.794 89.4247 45.3381 89.3863 44.6264H87.784C87.8267 46.1009 89.1434 47.1193 90.9843 47.1193ZM98.8945 47.1662C101 47.1705 102.257 45.5085 102.257 42.6449C102.257 39.7983 100.991 38.1534 98.8945 38.1534C96.7979 38.1534 95.5365 39.794 95.5323 42.6449C95.5323 45.5043 96.7894 47.1662 98.8945 47.1662ZM98.8945 45.8324C97.8078 45.8324 97.126 44.7415 97.1303 42.6449C97.1345 40.5653 97.8121 39.4702 98.8945 39.4702C99.9811 39.4702 100.659 40.5653 100.663 42.6449C100.663 44.7415 99.9854 45.8324 98.8945 45.8324ZM68.9062 59C68.5823 57.2102 67.1505 56.1534 65.3948 56.1534C63.1619 56.1534 61.5426 57.875 61.5426 60.6364C61.5426 63.3977 63.1619 65.1193 65.3948 65.1193C67.1505 65.1193 68.5823 64.0625 68.9062 62.2727H67.8494C67.5937 63.483 66.5539 64.1307 65.3948 64.1307C63.8096 64.1307 62.5653 62.9034 62.5653 60.6364C62.5653 58.3693 63.8096 57.142 65.3948 57.142C66.5539 57.142 67.5937 57.7898 67.8494 59H68.9062ZM73.1367 65.1364C74.9094 65.1364 76.1026 63.7898 76.1026 61.7614C76.1026 59.7159 74.9094 58.3693 73.1367 58.3693C71.3639 58.3693 70.1708 59.7159 70.1708 61.7614C70.1708 63.7898 71.3639 65.1364 73.1367 65.1364ZM73.1367 64.233C71.7901 64.233 71.1764 63.0739 71.1764 61.7614C71.1764 60.4489 71.7901 59.2727 73.1367 59.2727C74.4833 59.2727 75.0969 60.4489 75.0969 61.7614C75.0969 63.0739 74.4833 64.233 73.1367 64.233ZM77.6377 65H78.6434V60.9091C78.6434 59.9503 79.3423 59.2727 80.1264 59.2727C80.8892 59.2727 81.4218 59.7713 81.4218 60.517V65H82.4446V60.7386C82.4446 59.8949 82.973 59.2727 83.8934 59.2727C84.6093 59.2727 85.223 59.652 85.223 60.6193V65H86.2286V60.6193C86.2286 59.081 85.4019 58.3693 84.2343 58.3693C83.2968 58.3693 82.6108 58.7997 82.2741 59.4773H82.2059C81.8821 58.7784 81.311 58.3693 80.4502 58.3693C79.598 58.3693 78.9673 58.7784 78.6946 59.4773H78.6093V58.4545H77.6377V65ZM88.0674 67.4545H89.0731V63.9943H89.1583C89.3799 64.3523 89.8061 65.1364 91.0674 65.1364C92.7038 65.1364 93.8458 63.8239 93.8458 61.7443C93.8458 59.6818 92.7038 58.3693 91.0504 58.3693C89.772 58.3693 89.3799 59.1534 89.1583 59.4943H89.039V58.4545H88.0674V67.4545ZM89.0561 61.7273C89.0561 60.2614 89.7038 59.2727 90.9311 59.2727C92.2095 59.2727 92.8402 60.3466 92.8402 61.7273C92.8402 63.125 92.1924 64.233 90.9311 64.233C89.7208 64.233 89.0561 63.2102 89.0561 61.7273ZM97.3061 65.1534C98.4481 65.1534 99.0447 64.5398 99.2492 64.1136H99.3004V65H100.306V60.6875C100.306 58.608 98.7208 58.3693 97.8856 58.3693C96.897 58.3693 95.772 58.7102 95.2606 59.9034L96.2152 60.2443C96.4367 59.767 96.9609 59.2557 97.9197 59.2557C98.8444 59.2557 99.3004 59.7457 99.3004 60.5852V60.6193C99.3004 61.1051 98.8061 61.0625 97.6129 61.2159C96.3984 61.3736 95.0731 61.642 95.0731 63.142C95.0731 64.4205 96.0617 65.1534 97.3061 65.1534ZM97.4595 64.25C96.6583 64.25 96.0788 63.892 96.0788 63.1932C96.0788 62.4261 96.7777 62.1875 97.5617 62.0852C97.9879 62.0341 99.1299 61.9148 99.3004 61.7102V62.6307C99.3004 63.4489 98.6527 64.25 97.4595 64.25ZM103.147 61.0625C103.147 59.9205 103.855 59.2727 104.818 59.2727C105.751 59.2727 106.318 59.8821 106.318 60.9091V65H107.323V60.8409C107.323 59.1705 106.433 58.3693 105.108 58.3693C104.119 58.3693 103.505 58.8125 103.198 59.4773H103.113V58.4545H102.142V65H103.147V61.0625ZM109.161 65H110.167V58.4545H109.161V65ZM109.673 57.3636C110.065 57.3636 110.388 57.0568 110.388 56.6818C110.388 56.3068 110.065 56 109.673 56C109.28 56 108.957 56.3068 108.957 56.6818C108.957 57.0568 109.28 57.3636 109.673 57.3636ZM114.753 65.1364C116.083 65.1364 117.054 64.4716 117.361 63.483L116.39 63.2102C116.134 63.892 115.542 64.233 114.753 64.233C113.573 64.233 112.759 63.4702 112.712 62.0682H117.463V61.642C117.463 59.2045 116.015 58.3693 114.651 58.3693C112.878 58.3693 111.702 59.767 111.702 61.7784C111.702 63.7898 112.861 65.1364 114.753 65.1364ZM112.712 61.1989C112.78 60.1804 113.5 59.2727 114.651 59.2727C115.742 59.2727 116.441 60.0909 116.441 61.1989H112.712ZM123.63 59.9205C123.314 58.9915 122.607 58.3693 121.311 58.3693C119.931 58.3693 118.908 59.1534 118.908 60.2614C118.908 61.1648 119.445 61.7699 120.647 62.0511L121.738 62.3068C122.398 62.4602 122.709 62.7756 122.709 63.2273C122.709 63.7898 122.113 64.25 121.175 64.25C120.353 64.25 119.837 63.8963 119.658 63.1932L118.703 63.4318C118.938 64.544 119.854 65.1364 121.192 65.1364C122.713 65.1364 123.749 64.3054 123.749 63.1761C123.749 62.2642 123.178 61.6889 122.01 61.4034L121.039 61.1648C120.263 60.973 119.914 60.7131 119.914 60.2102C119.914 59.6477 120.51 59.2386 121.311 59.2386C122.189 59.2386 122.551 59.7244 122.726 60.1761L123.63 59.9205Z" fill="#2B5F4D"/>
</svg>
