<svg width="114" height="114" viewBox="0 0 114 114" fill="none" xmlns="http://www.w3.org/2000/svg">
<path d="M51.9628 25.9667C52.0486 25.9636 52.1299 25.9272 52.1894 25.8652C52.2488 25.8032 52.2819 25.7206 52.2815 25.6347V22.5133C52.2815 22.4683 52.2724 22.4237 52.2548 22.3823C52.2371 22.3409 52.2112 22.3034 52.1787 22.2723C52.1462 22.2411 52.1077 22.2169 52.0655 22.201C52.0234 22.1852 51.9785 22.178 51.9335 22.18C51.4001 22.204 50.8668 22.216 50.3335 22.216C47.5299 22.2863 44.7347 21.8805 42.0668 21.016C42.0159 20.9966 41.9609 20.99 41.9069 20.9967C41.8528 21.0034 41.8012 21.0233 41.7565 21.0547C41.7119 21.086 41.6757 21.1278 41.651 21.1763C41.6263 21.2249 41.6138 21.2788 41.6148 21.3333V24.204C41.6148 25.2 45.5175 26 50.3335 26C50.8908 26 51.4339 25.9889 51.9628 25.9667Z" fill="#A66FD1"/>
<path d="M50.3334 10.216C53.2524 10.3652 56.1684 9.87038 58.8747 8.76667C58.9284 8.73843 58.9733 8.69603 59.0045 8.64409C59.0358 8.59214 59.0522 8.53263 59.0521 8.472V5.33334C59.0521 5.27907 59.0389 5.22562 59.0136 5.17762C58.9883 5.12962 58.9516 5.08853 58.9068 5.05791C58.862 5.0273 58.8104 5.00809 58.7565 5.00194C58.7026 4.9958 58.648 5.00292 58.5974 5.02267C55.9295 5.8872 53.1343 6.29296 50.3307 6.22267C47.5272 6.29296 44.732 5.8872 42.0641 5.02267C42.0138 5.00401 41.9598 4.99775 41.9066 5.00442C41.8534 5.01109 41.8026 5.03049 41.7585 5.06098C41.7144 5.09147 41.6783 5.13215 41.6533 5.17956C41.6283 5.22697 41.615 5.27972 41.6147 5.33334V8.47334C41.6148 8.53374 41.6314 8.59297 41.6626 8.64466C41.6939 8.69635 41.7386 8.73853 41.7921 8.76667C44.4984 9.87038 47.4145 10.3652 50.3334 10.216Z" fill="#A66FD1"/>
<path d="M50.3334 4.88267C53.2524 5.03185 56.1684 4.53704 58.8747 3.43333C58.9284 3.40509 58.9733 3.3627 59.0045 3.31075C59.0358 3.25881 59.0522 3.19929 59.0521 3.13867V2.57733C59.0521 1.584 55.1494 0.776001 50.3334 0.776001C45.5174 0.776001 41.6147 1.584 41.6147 2.57733V3.14C41.6148 3.2004 41.6314 3.25963 41.6626 3.31132C41.6939 3.36301 41.7386 3.4052 41.7921 3.43333C44.4984 4.53704 47.4145 5.03185 50.3334 4.88267Z" fill="#A66FD1"/>
<path d="M50.3334 20.8827C50.9027 20.8827 51.4454 20.868 51.9641 20.844C52.0497 20.8399 52.1304 20.803 52.1895 20.7409C52.2486 20.6788 52.2815 20.5964 52.2814 20.5107V18.468C52.2687 18.0658 52.3343 17.6651 52.4747 17.288C52.4952 17.2362 52.5023 17.1801 52.4953 17.1249C52.4883 17.0696 52.4675 17.017 52.4347 16.972C52.4014 16.9278 52.3577 16.8924 52.3075 16.8692C52.2572 16.8459 52.202 16.8354 52.1467 16.8387C51.5427 16.8707 50.9361 16.888 50.3334 16.888C47.5298 16.9583 44.7346 16.5525 42.0667 15.688C42.0162 15.6688 41.9618 15.6621 41.9081 15.6686C41.8545 15.675 41.8032 15.6945 41.7587 15.7252C41.7142 15.7559 41.6779 15.7969 41.6528 15.8448C41.6277 15.8927 41.6147 15.9459 41.6147 16V19.1453C41.6148 19.2057 41.6314 19.265 41.6626 19.3167C41.6939 19.3683 41.7386 19.4105 41.7921 19.4387C44.4988 20.5406 47.4149 21.0335 50.3334 20.8827Z" fill="#A66FD1"/>
<path d="M50.3334 15.5493C53.2358 15.5114 56.1146 15.0225 58.8667 14.1C58.9205 14.0718 58.9656 14.0295 58.9971 13.9775C59.0286 13.9256 59.0453 13.8661 59.0454 13.8053V10.6667C59.0454 10.6124 59.0322 10.5589 59.0069 10.5109C58.9816 10.4629 58.9449 10.4219 58.9001 10.3912C58.8553 10.3606 58.8037 10.3414 58.7498 10.3353C58.6959 10.3291 58.6413 10.3362 58.5907 10.356C55.9229 11.2205 53.1277 11.6263 50.3241 11.556C47.5205 11.6263 44.7253 11.2205 42.0574 10.356C42.0075 10.3387 41.9542 10.3334 41.9019 10.3408C41.8496 10.3481 41.7998 10.3677 41.7566 10.398C41.7133 10.4284 41.6779 10.4686 41.6533 10.5153C41.6286 10.562 41.6154 10.6139 41.6147 10.6667V13.812C41.6148 13.8724 41.6314 13.9316 41.6626 13.9833C41.6939 14.035 41.7386 14.0772 41.7921 14.1053C44.4988 15.2072 47.4149 15.7002 50.3334 15.5493Z" fill="#A66FD1"/>
<path d="M55.4002 20.908C55.3497 20.8882 55.2951 20.8811 55.2412 20.8873C55.1872 20.8934 55.1356 20.9126 55.0908 20.9432C55.046 20.9739 55.0094 21.015 54.9841 21.0629C54.9587 21.1109 54.9455 21.1644 54.9456 21.2187V24.3627C54.9454 24.4233 54.9618 24.4828 54.9931 24.5348C55.0244 24.5867 55.0692 24.6291 55.1229 24.6573C57.8301 25.7614 60.7471 26.2562 63.6669 26.1067C66.5858 26.2558 69.5019 25.761 72.2082 24.6573C72.2618 24.629 72.3066 24.5866 72.3378 24.5346C72.3691 24.4827 72.3856 24.4233 72.3856 24.3627V21.2187C72.3856 21.1644 72.3724 21.1109 72.3471 21.0629C72.3217 21.015 72.2851 20.9739 72.2403 20.9432C72.1955 20.9126 72.1439 20.8934 72.09 20.8873C72.036 20.8811 71.9814 20.8882 71.9309 20.908C69.263 21.7725 66.4678 22.1783 63.6642 22.108C60.8615 22.178 58.0673 21.7722 55.4002 20.908Z" fill="#A66FD1"/>
<path d="M63.6669 27.44C60.8633 27.5103 58.0681 27.1045 55.4002 26.24C55.3497 26.2202 55.2951 26.2131 55.2412 26.2193C55.1872 26.2254 55.1356 26.2446 55.0908 26.2752C55.046 26.3059 55.0094 26.347 54.9841 26.3949C54.9587 26.4429 54.9455 26.4964 54.9456 26.5507V29.4213C54.9456 30.4173 58.8482 31.2227 63.6642 31.2227C68.4802 31.2227 72.3829 30.4227 72.3829 29.4213V26.552C72.3829 26.4977 72.3697 26.4443 72.3444 26.3963C72.3191 26.3483 72.2824 26.3072 72.2376 26.2766C72.1928 26.246 72.1412 26.2268 72.0873 26.2206C72.0334 26.2145 71.9788 26.2216 71.9282 26.2413C69.262 27.1048 66.4686 27.5101 63.6669 27.44Z" fill="#A66FD1"/>
<path d="M54.948 18.468V19.0293C54.9478 19.09 54.9643 19.1495 54.9955 19.2014C55.0268 19.2534 55.0717 19.2958 55.1253 19.324C57.8317 20.4277 60.7477 20.9225 63.6667 20.7733C66.5856 20.9225 69.5016 20.4277 72.208 19.324C72.2616 19.2958 72.3065 19.2534 72.3378 19.2014C72.3691 19.1495 72.3855 19.09 72.3853 19.0293V18.468C72.3853 17.4747 68.4827 16.6667 63.6667 16.6667C58.8507 16.6667 54.948 17.4747 54.948 18.468Z" fill="#A66FD1"/>
<path d="M11.608 52.2898C11.25 49.7045 9.26136 48.2045 6.68182 48.2045C3.64205 48.2045 1.35227 50.4205 1.35227 54.1818C1.35227 57.9375 3.61364 60.1591 6.68182 60.1591C9.44886 60.1591 11.2841 58.3693 11.608 56.1477L9.48295 56.1364C9.21591 57.5 8.10227 58.267 6.71023 58.267C4.82386 58.267 3.47159 56.8523 3.47159 54.1818C3.47159 51.5568 4.8125 50.0966 6.71591 50.0966C8.13068 50.0966 9.23864 50.8977 9.48295 52.2898H11.608ZM15.9588 60.1761C17.3281 60.1761 18.1463 59.5341 18.5213 58.8011H18.5895V60H20.5668V54.1591C20.5668 51.8523 18.6861 51.1591 17.0213 51.1591C15.1861 51.1591 13.777 51.9773 13.3224 53.5682L15.2429 53.8409C15.4474 53.2443 16.027 52.733 17.0327 52.733C17.9872 52.733 18.5099 53.2216 18.5099 54.0795V54.1136C18.5099 54.7045 17.8906 54.733 16.3509 54.8977C14.6577 55.0795 13.0384 55.5852 13.0384 57.5511C13.0384 59.267 14.294 60.1761 15.9588 60.1761ZM16.4929 58.6648C15.6349 58.6648 15.0213 58.2727 15.0213 57.517C15.0213 56.7273 15.7088 56.3977 16.6293 56.267C17.169 56.1932 18.2486 56.0568 18.5156 55.8409V56.8693C18.5156 57.8409 17.7315 58.6648 16.4929 58.6648ZM22.6349 63.2727H24.6918V58.625H24.777C25.1009 59.2614 25.777 60.1534 27.277 60.1534C29.3338 60.1534 30.8736 58.5227 30.8736 55.6477C30.8736 52.7386 29.2884 51.1591 27.2713 51.1591C25.7315 51.1591 25.0895 52.0852 24.777 52.7159H24.6577V51.2727H22.6349V63.2727ZM24.652 55.6364C24.652 53.9432 25.3793 52.8466 26.7031 52.8466C28.0724 52.8466 28.777 54.0114 28.777 55.6364C28.777 57.2727 28.0611 58.4659 26.7031 58.4659C25.3906 58.4659 24.652 57.3295 24.652 55.6364ZM32.6349 60H34.6918V51.2727H32.6349V60ZM33.669 50.0341C34.3224 50.0341 34.8565 49.5341 34.8565 48.9205C34.8565 48.3011 34.3224 47.8011 33.669 47.8011C33.0099 47.8011 32.4759 48.3011 32.4759 48.9205C32.4759 49.5341 33.0099 50.0341 33.669 50.0341ZM41.1648 51.2727H39.4432V49.1818H37.3864V51.2727H36.1477V52.8636H37.3864V57.7159C37.375 59.358 38.5682 60.1648 40.1136 60.1193C40.6989 60.1023 41.1023 59.9886 41.3239 59.9148L40.9773 58.3068C40.8636 58.3352 40.6307 58.3864 40.375 58.3864C39.858 58.3864 39.4432 58.2045 39.4432 57.375V52.8636H41.1648V51.2727ZM45.3963 60.1761C46.7656 60.1761 47.5838 59.5341 47.9588 58.8011H48.027V60H50.0043V54.1591C50.0043 51.8523 48.1236 51.1591 46.4588 51.1591C44.6236 51.1591 43.2145 51.9773 42.7599 53.5682L44.6804 53.8409C44.8849 53.2443 45.4645 52.733 46.4702 52.733C47.4247 52.733 47.9474 53.2216 47.9474 54.0795V54.1136C47.9474 54.7045 47.3281 54.733 45.7884 54.8977C44.0952 55.0795 42.4759 55.5852 42.4759 57.5511C42.4759 59.267 43.7315 60.1761 45.3963 60.1761ZM45.9304 58.6648C45.0724 58.6648 44.4588 58.2727 44.4588 57.517C44.4588 56.7273 45.1463 56.3977 46.0668 56.267C46.6065 56.1932 47.6861 56.0568 47.9531 55.8409V56.8693C47.9531 57.8409 47.169 58.6648 45.9304 58.6648ZM54.1293 48.3636H52.0724V60H54.1293V48.3636ZM60.304 48.3636V60H62.3267V51.9886H62.4347L65.6506 59.9659H67.1619L70.3778 52.0057H70.4858V60H72.5085V48.3636H69.929L66.4744 56.7955H66.3381L62.8835 48.3636H60.304ZM77.2244 60.1761C78.5938 60.1761 79.4119 59.5341 79.7869 58.8011H79.8551V60H81.8324V54.1591C81.8324 51.8523 79.9517 51.1591 78.2869 51.1591C76.4517 51.1591 75.0426 51.9773 74.5881 53.5682L76.5085 53.8409C76.7131 53.2443 77.2926 52.733 78.2983 52.733C79.2528 52.733 79.7756 53.2216 79.7756 54.0795V54.1136C79.7756 54.7045 79.1562 54.733 77.6165 54.8977C75.9233 55.0795 74.304 55.5852 74.304 57.5511C74.304 59.267 75.5597 60.1761 77.2244 60.1761ZM77.7585 58.6648C76.9006 58.6648 76.2869 58.2727 76.2869 57.517C76.2869 56.7273 76.9744 56.3977 77.8949 56.267C78.4347 56.1932 79.5142 56.0568 79.7812 55.8409V56.8693C79.7812 57.8409 78.9972 58.6648 77.7585 58.6648ZM83.9006 60H85.9574V54.8693C85.9574 53.7614 86.7926 52.9773 87.9233 52.9773C88.2699 52.9773 88.7017 53.0398 88.8778 53.0966V51.2045C88.6903 51.1705 88.3665 51.1477 88.1392 51.1477C87.1392 51.1477 86.304 51.7159 85.9858 52.7273H85.8949V51.2727H83.9006V60ZM90.2443 60H92.3011V57.0682L93.0511 56.267L95.7216 60H98.1818L94.6023 55.0398L97.983 51.2727H95.5795L92.4432 54.7784H92.3011V48.3636H90.2443V60ZM102.858 60.1705C104.892 60.1705 106.29 59.1761 106.653 57.6591L104.733 57.4432C104.455 58.1818 103.773 58.5682 102.886 58.5682C101.557 58.5682 100.676 57.6932 100.659 56.1989H106.739V55.5682C106.739 52.5057 104.898 51.1591 102.75 51.1591C100.25 51.1591 98.6193 52.9943 98.6193 55.6875C98.6193 58.4261 100.227 60.1705 102.858 60.1705ZM100.665 54.8125C100.727 53.6989 101.551 52.7614 102.778 52.7614C103.96 52.7614 104.756 53.625 104.767 54.8125H100.665ZM112.837 51.2727H111.115V49.1818H109.058V51.2727H107.82V52.8636H109.058V57.7159C109.047 59.358 110.24 60.1648 111.786 60.1193C112.371 60.1023 112.774 59.9886 112.996 59.9148L112.649 58.3068C112.536 58.3352 112.303 58.3864 112.047 58.3864C111.53 58.3864 111.115 58.2045 111.115 57.375V52.8636H112.837V51.2727Z" fill="#A66FD1"/>
<path d="M40.2795 81H46.2624V79.679H42.4613V79.6193L43.9656 78.0895C45.6616 76.4616 46.1303 75.669 46.1303 74.6847C46.1303 73.223 44.9414 72.1534 43.1857 72.1534C41.4556 72.1534 40.2283 73.2273 40.2283 74.8849H41.7326C41.7326 73.9943 42.2951 73.4361 43.1644 73.4361C43.9954 73.4361 44.6133 73.9432 44.6133 74.7656C44.6133 75.4943 44.1701 76.0142 43.3093 76.8878L40.2795 79.858V81ZM49.5607 79.8068H48.1971L48.1673 80.2841C48.0948 81.4389 47.7923 82.6151 47.6687 83.1307H48.7085C48.913 82.5938 49.386 81.3494 49.5053 80.2756L49.5607 79.8068ZM51.114 79.3807H55.2773V81H56.7859V79.3807H57.9023V78.081H56.7859V72.2727H54.8171L51.114 78.1236V79.3807ZM55.2944 78.081H52.7333V78.0128L55.2262 74.0625H55.2944V78.081ZM62.4897 81.1662C64.5948 81.1705 65.8519 79.5085 65.8519 76.6449C65.8519 73.7983 64.5863 72.1534 62.4897 72.1534C60.3931 72.1534 59.1317 73.794 59.1275 76.6449C59.1275 79.5043 60.3846 81.1662 62.4897 81.1662ZM62.4897 79.8324C61.4031 79.8324 60.7212 78.7415 60.7255 76.6449C60.7298 74.5653 61.4073 73.4702 62.4897 73.4702C63.5763 73.4702 64.2539 74.5653 64.2582 76.6449C64.2582 78.7415 63.5806 79.8324 62.4897 79.8324ZM70.4936 81.1662C72.5987 81.1705 73.8558 79.5085 73.8558 76.6449C73.8558 73.7983 72.5902 72.1534 70.4936 72.1534C68.397 72.1534 67.1357 73.794 67.1314 76.6449C67.1314 79.5043 68.3885 81.1662 70.4936 81.1662ZM70.4936 79.8324C69.407 79.8324 68.7251 78.7415 68.7294 76.6449C68.7337 74.5653 69.4112 73.4702 70.4936 73.4702C71.5803 73.4702 72.2578 74.5653 72.2621 76.6449C72.2621 78.7415 71.5845 79.8324 70.4936 79.8324ZM33.3217 103C32.9979 101.21 31.5661 100.153 29.8104 100.153C27.5774 100.153 25.9581 101.875 25.9581 104.636C25.9581 107.398 27.5774 109.119 29.8104 109.119C31.5661 109.119 32.9979 108.062 33.3217 106.273H32.2649C32.0092 107.483 30.9695 108.131 29.8104 108.131C28.2251 108.131 26.9808 106.903 26.9808 104.636C26.9808 102.369 28.2251 101.142 29.8104 101.142C30.9695 101.142 32.0092 101.79 32.2649 103H33.3217ZM37.5522 109.136C39.3249 109.136 40.5181 107.79 40.5181 105.761C40.5181 103.716 39.3249 102.369 37.5522 102.369C35.7795 102.369 34.5863 103.716 34.5863 105.761C34.5863 107.79 35.7795 109.136 37.5522 109.136ZM37.5522 108.233C36.2056 108.233 35.592 107.074 35.592 105.761C35.592 104.449 36.2056 103.273 37.5522 103.273C38.8988 103.273 39.5124 104.449 39.5124 105.761C39.5124 107.074 38.8988 108.233 37.5522 108.233ZM42.0533 109H43.0589V104.909C43.0589 103.95 43.7578 103.273 44.5419 103.273C45.3047 103.273 45.8374 103.771 45.8374 104.517V109H46.8601V104.739C46.8601 103.895 47.3885 103.273 48.3089 103.273C49.0249 103.273 49.6385 103.652 49.6385 104.619V109H50.6442V104.619C50.6442 103.081 49.8175 102.369 48.6499 102.369C47.7124 102.369 47.0263 102.8 46.6896 103.477H46.6214C46.2976 102.778 45.7266 102.369 44.8658 102.369C44.0135 102.369 43.3828 102.778 43.1101 103.477H43.0249V102.455H42.0533V109ZM52.483 111.455H53.4886V107.994H53.5739C53.7955 108.352 54.2216 109.136 55.483 109.136C57.1193 109.136 58.2614 107.824 58.2614 105.744C58.2614 103.682 57.1193 102.369 55.4659 102.369C54.1875 102.369 53.7955 103.153 53.5739 103.494H53.4545V102.455H52.483V111.455ZM53.4716 105.727C53.4716 104.261 54.1193 103.273 55.3466 103.273C56.625 103.273 57.2557 104.347 57.2557 105.727C57.2557 107.125 56.608 108.233 55.3466 108.233C54.1364 108.233 53.4716 107.21 53.4716 105.727ZM61.7216 109.153C62.8636 109.153 63.4602 108.54 63.6648 108.114H63.7159V109H64.7216V104.688C64.7216 102.608 63.1364 102.369 62.3011 102.369C61.3125 102.369 60.1875 102.71 59.6761 103.903L60.6307 104.244C60.8523 103.767 61.3764 103.256 62.3352 103.256C63.2599 103.256 63.7159 103.746 63.7159 104.585V104.619C63.7159 105.105 63.2216 105.062 62.0284 105.216C60.8139 105.374 59.4886 105.642 59.4886 107.142C59.4886 108.42 60.4773 109.153 61.7216 109.153ZM61.875 108.25C61.0739 108.25 60.4943 107.892 60.4943 107.193C60.4943 106.426 61.1932 106.188 61.9773 106.085C62.4034 106.034 63.5455 105.915 63.7159 105.71V106.631C63.7159 107.449 63.0682 108.25 61.875 108.25ZM67.5629 105.062C67.5629 103.92 68.2702 103.273 69.2333 103.273C70.1665 103.273 70.7333 103.882 70.7333 104.909V109H71.739V104.841C71.739 103.17 70.8484 102.369 69.5231 102.369C68.5344 102.369 67.9208 102.812 67.614 103.477H67.5288V102.455H66.5572V109H67.5629V105.062ZM73.5767 109H74.5824V102.455H73.5767V109ZM74.0881 101.364C74.4801 101.364 74.804 101.057 74.804 100.682C74.804 100.307 74.4801 100 74.0881 100C73.696 100 73.3722 100.307 73.3722 100.682C73.3722 101.057 73.696 101.364 74.0881 101.364ZM79.1687 109.136C80.4982 109.136 81.4698 108.472 81.7766 107.483L80.805 107.21C80.5494 107.892 79.957 108.233 79.1687 108.233C77.9883 108.233 77.1744 107.47 77.1275 106.068H81.8789V105.642C81.8789 103.205 80.43 102.369 79.0664 102.369C77.2937 102.369 76.1175 103.767 76.1175 105.778C76.1175 107.79 77.2766 109.136 79.1687 109.136ZM77.1275 105.199C77.1957 104.18 77.9158 103.273 79.0664 103.273C80.1573 103.273 80.8562 104.091 80.8562 105.199H77.1275ZM88.0451 103.92C87.7298 102.991 87.0224 102.369 85.7269 102.369C84.3462 102.369 83.3235 103.153 83.3235 104.261C83.3235 105.165 83.8604 105.77 85.0621 106.051L86.1531 106.307C86.8136 106.46 87.1246 106.776 87.1246 107.227C87.1246 107.79 86.5281 108.25 85.5906 108.25C84.7681 108.25 84.2525 107.896 84.0735 107.193L83.119 107.432C83.3533 108.544 84.2695 109.136 85.6076 109.136C87.1289 109.136 88.1644 108.305 88.1644 107.176C88.1644 106.264 87.5934 105.689 86.4258 105.403L85.4542 105.165C84.6786 104.973 84.3292 104.713 84.3292 104.21C84.3292 103.648 84.9258 103.239 85.7269 103.239C86.6048 103.239 86.967 103.724 87.1417 104.176L88.0451 103.92Z" fill="#A66FD1"/>
</svg>
