<svg width="186" height="100" viewBox="0 0 186 100" fill="none" xmlns="http://www.w3.org/2000/svg">
<path d="M56.1068 11.826C55.7041 8.91761 53.4669 7.23011 50.5649 7.23011C47.1452 7.23011 44.5692 9.72301 44.5692 13.9545C44.5692 18.1797 47.1132 20.679 50.5649 20.679C53.6778 20.679 55.7425 18.6655 56.1068 16.1662L53.7162 16.1534C53.4157 17.6875 52.1629 18.5504 50.5969 18.5504C48.4747 18.5504 46.9534 16.9588 46.9534 13.9545C46.9534 11.0014 48.4619 9.35866 50.6032 9.35866C52.1949 9.35866 53.4413 10.2599 53.7162 11.826H56.1068ZM60.4901 14.7472C60.4901 13.3281 61.3722 12.5099 62.6123 12.5099C63.8268 12.5099 64.5427 13.2834 64.5427 14.6065V20.5H66.8566V14.2486C66.8566 11.8771 65.5143 10.554 63.4752 10.554C61.9667 10.554 61.0079 11.2379 60.5541 12.3501H60.439V7.40909H58.1762V20.5H60.4901V14.7472ZM72.0406 20.6982C73.5811 20.6982 74.5015 19.9759 74.9234 19.1513H75.0001V20.5H77.2245V13.929C77.2245 11.3338 75.1088 10.554 73.2359 10.554C71.1713 10.554 69.586 11.4744 69.0747 13.2642L71.2352 13.571C71.4653 12.8999 72.1173 12.3246 73.2487 12.3246C74.3225 12.3246 74.9106 12.8743 74.9106 13.8395V13.8778C74.9106 14.5426 74.2139 14.5746 72.4816 14.7599C70.5768 14.9645 68.7551 15.5334 68.7551 17.745C68.7551 19.6754 70.1677 20.6982 72.0406 20.6982ZM72.6414 18.9979C71.6762 18.9979 70.9859 18.5568 70.9859 17.7067C70.9859 16.8182 71.7593 16.4474 72.7948 16.3004C73.4021 16.2173 74.6166 16.0639 74.917 15.821V16.978C74.917 18.071 74.0349 18.9979 72.6414 18.9979ZM81.8651 7.40909H79.5512V20.5H81.8651V7.40909ZM86.5585 7.40909H84.2446V20.5H86.5585V7.40909ZM93.2845 20.6918C95.5729 20.6918 97.1453 19.5732 97.5544 17.8665L95.3939 17.6236C95.0807 18.4545 94.3137 18.8892 93.3165 18.8892C91.8208 18.8892 90.83 17.9048 90.8108 16.2237H97.6503V15.5142C97.6503 12.0689 95.5793 10.554 93.1631 10.554C90.3506 10.554 88.5161 12.6186 88.5161 15.6484C88.5161 18.7294 90.325 20.6918 93.2845 20.6918ZM90.8172 14.6641C90.8875 13.4112 91.8144 12.3565 93.195 12.3565C94.5246 12.3565 95.4195 13.3281 95.4323 14.6641H90.8172ZM101.922 14.7472C101.922 13.3281 102.778 12.5099 103.999 12.5099C105.195 12.5099 105.91 13.2962 105.91 14.6065V20.5H108.224V14.2486C108.231 11.8963 106.888 10.554 104.862 10.554C103.392 10.554 102.382 11.2571 101.935 12.3501H101.82V10.6818H99.6079V20.5H101.922V14.7472ZM114.847 24.3864C117.499 24.3864 119.455 23.1719 119.455 20.6598V10.6818H117.173V12.3054H117.045C116.694 11.5959 115.959 10.554 114.226 10.554C111.957 10.554 110.174 12.331 110.174 15.5589C110.174 18.7614 111.957 20.3594 114.22 20.3594C115.901 20.3594 116.687 19.4581 117.045 18.7358H117.16V20.5959C117.16 22.0405 116.202 22.6349 114.885 22.6349C113.491 22.6349 112.878 21.9766 112.597 21.4013L110.513 21.9062C110.935 23.2805 112.347 24.3864 114.847 24.3864ZM114.866 18.544C113.338 18.544 112.533 17.3551 112.533 15.5462C112.533 13.7628 113.325 12.4524 114.866 12.4524C116.355 12.4524 117.173 13.6861 117.173 15.5462C117.173 17.419 116.342 18.544 114.866 18.544ZM126.173 20.6918C128.462 20.6918 130.034 19.5732 130.443 17.8665L128.283 17.6236C127.969 18.4545 127.202 18.8892 126.205 18.8892C124.709 18.8892 123.719 17.9048 123.699 16.2237H130.539V15.5142C130.539 12.0689 128.468 10.554 126.052 10.554C123.239 10.554 121.405 12.6186 121.405 15.6484C121.405 18.7294 123.214 20.6918 126.173 20.6918ZM123.706 14.6641C123.776 13.4112 124.703 12.3565 126.084 12.3565C127.413 12.3565 128.308 13.3281 128.321 14.6641H123.706ZM132.497 20.5H134.81V14.728C134.81 13.4815 135.75 12.5994 137.022 12.5994C137.412 12.5994 137.898 12.6697 138.096 12.7337V10.6051C137.885 10.5668 137.521 10.5412 137.265 10.5412C136.14 10.5412 135.2 11.1804 134.842 12.3182H134.74V10.6818H132.497V20.5ZM67.9201 46.5H73.2191C76.217 46.5 77.6871 44.9723 77.6871 42.9332C77.6871 40.9517 76.2809 39.7884 74.8874 39.718V39.5902C76.1658 39.2898 77.1758 38.3949 77.1758 36.8033C77.1758 34.8537 75.7695 33.4091 72.9315 33.4091H67.9201V46.5ZM70.2915 44.5185V40.6832H72.9059C74.3697 40.6832 75.2773 41.5781 75.2773 42.7479C75.2773 43.7898 74.5614 44.5185 72.842 44.5185H70.2915ZM70.2915 38.9766V35.3651H72.6886C74.082 35.3651 74.8043 36.1001 74.8043 37.1101C74.8043 38.2607 73.8711 38.9766 72.6374 38.9766H70.2915ZM82.4732 46.6982C84.0137 46.6982 84.9341 45.9759 85.356 45.1513H85.4327V46.5H87.6571V39.929C87.6571 37.3338 85.5414 36.554 83.6685 36.554C81.6039 36.554 80.0186 37.4744 79.5073 39.2642L81.6678 39.571C81.8979 38.8999 82.5499 38.3246 83.6813 38.3246C84.7551 38.3246 85.3432 38.8743 85.3432 39.8395V39.8778C85.3432 40.5426 84.6465 40.5746 82.9142 40.7599C81.0094 40.9645 79.1877 41.5334 79.1877 43.745C79.1877 45.6754 80.6003 46.6982 82.4732 46.6982ZM83.074 44.9979C82.1088 44.9979 81.4185 44.5568 81.4185 43.7067C81.4185 42.8182 82.1919 42.4474 83.2275 42.3004C83.8347 42.2173 85.0492 42.0639 85.3496 41.821V42.978C85.3496 44.071 84.4675 44.9979 83.074 44.9979ZM92.2978 40.7472C92.2978 39.3281 93.1543 38.5099 94.3752 38.5099C95.5705 38.5099 96.2864 39.2962 96.2864 40.6065V46.5H98.6003V40.2486C98.6067 37.8963 97.2644 36.554 95.2381 36.554C93.7679 36.554 92.758 37.2571 92.3105 38.3501H92.1955V36.6818H89.9838V46.5H92.2978V40.7472ZM100.953 46.5H103.267V43.2017L104.11 42.3004L107.115 46.5H109.882L105.855 40.9197L109.659 36.6818H106.955L103.426 40.6257H103.267V33.4091H100.953V46.5ZM118.961 39.277C118.641 37.6151 117.311 36.554 115.01 36.554C112.645 36.554 111.034 37.7173 111.041 39.5327C111.034 40.9645 111.917 41.9105 113.802 42.3004L115.477 42.652C116.378 42.8501 116.8 43.2145 116.8 43.7706C116.8 44.4418 116.071 44.9467 114.972 44.9467C113.911 44.9467 113.221 44.4865 113.022 43.6044L110.766 43.8217C111.054 45.6243 112.569 46.6918 114.978 46.6918C117.433 46.6918 119.165 45.4197 119.172 43.5597C119.165 42.1598 118.264 41.3033 116.41 40.9006L114.735 40.5426C113.738 40.3189 113.342 39.9737 113.348 39.4048C113.342 38.7401 114.077 38.2798 115.042 38.2798C116.11 38.2798 116.672 38.8615 116.851 39.5071L118.961 39.277Z" fill="#2B5F4D"/>
<path opacity="0.7" d="M87.7314 76.6193C89.6149 76.6321 90.8805 75.3366 90.8762 73.6108C90.8805 71.9616 89.7044 70.7685 88.1745 70.7685C87.237 70.7685 86.4103 71.2244 85.9927 71.9744H85.9331C85.9373 70.1378 86.6106 69.0213 87.8208 69.0213C88.5708 69.0213 89.0779 69.456 89.2399 70.125H90.7953C90.6078 68.7145 89.47 67.6534 87.8208 67.6534C85.7243 67.6534 84.399 69.4006 84.399 72.3835C84.3947 75.5838 86.0566 76.6108 87.7314 76.6193ZM87.7228 75.3409C86.7896 75.3409 86.1078 74.5696 86.1035 73.6577C86.112 72.7415 86.8194 71.9744 87.7441 71.9744C88.6689 71.9744 89.3464 72.7074 89.3422 73.6449C89.3464 74.5994 88.6475 75.3409 87.7228 75.3409ZM95.4189 76.6193C97.3066 76.6193 98.6575 75.5795 98.6618 74.1605C98.6575 73.0696 97.8521 72.1577 96.8379 71.9872V71.9276C97.72 71.7315 98.3336 70.9389 98.3379 69.9929C98.3336 68.6506 97.0978 67.6534 95.4189 67.6534C93.7271 67.6534 92.4913 68.6463 92.4956 69.9929C92.4913 70.9389 93.0964 71.7315 93.9956 71.9276V71.9872C92.9643 72.1577 92.1674 73.0696 92.1717 74.1605C92.1674 75.5795 93.514 76.6193 95.4189 76.6193ZM95.4189 75.4006C94.4302 75.4006 93.791 74.8551 93.7995 74.0497C93.791 73.2145 94.4771 72.6222 95.4189 72.6222C96.3478 72.6222 97.0297 73.2188 97.0382 74.0497C97.0297 74.8551 96.3947 75.4006 95.4189 75.4006ZM95.4189 71.4247C94.6092 71.4247 94.0297 70.9006 94.0382 70.142C94.0297 69.392 94.5922 68.8892 95.4189 68.8892C96.2328 68.8892 96.791 69.392 96.7995 70.142C96.791 70.9048 96.2157 71.4247 95.4189 71.4247ZM69.5815 88.5C69.2576 86.7102 67.8258 85.6534 66.0701 85.6534C63.8372 85.6534 62.2179 87.375 62.2179 90.1364C62.2179 92.8977 63.8372 94.6193 66.0701 94.6193C67.8258 94.6193 69.2576 93.5625 69.5815 91.7727H68.5247C68.269 92.983 67.2292 93.6307 66.0701 93.6307C64.4849 93.6307 63.2406 92.4034 63.2406 90.1364C63.2406 87.8693 64.4849 86.642 66.0701 86.642C67.2292 86.642 68.269 87.2898 68.5247 88.5H69.5815ZM73.812 94.6364C75.5847 94.6364 76.7779 93.2898 76.7779 91.2614C76.7779 89.2159 75.5847 87.8693 73.812 87.8693C72.0392 87.8693 70.8461 89.2159 70.8461 91.2614C70.8461 93.2898 72.0392 94.6364 73.812 94.6364ZM73.812 93.733C72.4654 93.733 71.8517 92.5739 71.8517 91.2614C71.8517 89.9489 72.4654 88.7727 73.812 88.7727C75.1586 88.7727 75.7722 89.9489 75.7722 91.2614C75.7722 92.5739 75.1586 93.733 73.812 93.733ZM78.313 94.5H79.3187V90.4091C79.3187 89.4503 80.0176 88.7727 80.8017 88.7727C81.5645 88.7727 82.0971 89.2713 82.0971 90.017V94.5H83.1199V90.2386C83.1199 89.3949 83.6483 88.7727 84.5687 88.7727C85.2846 88.7727 85.8983 89.152 85.8983 90.1193V94.5H86.9039V90.1193C86.9039 88.581 86.0772 87.8693 84.9096 87.8693C83.9721 87.8693 83.286 88.2997 82.9494 88.9773H82.8812C82.5574 88.2784 81.9863 87.8693 81.1255 87.8693C80.2733 87.8693 79.6426 88.2784 79.3699 88.9773H79.2846V87.9545H78.313V94.5ZM88.7427 96.9545H89.7484V93.4943H89.8336C90.0552 93.8523 90.4814 94.6364 91.7427 94.6364C93.3791 94.6364 94.5211 93.3239 94.5211 91.2443C94.5211 89.1818 93.3791 87.8693 91.7257 87.8693C90.4473 87.8693 90.0552 88.6534 89.8336 88.9943H89.7143V87.9545H88.7427V96.9545ZM89.7314 91.2273C89.7314 89.7614 90.3791 88.7727 91.6064 88.7727C92.8848 88.7727 93.5154 89.8466 93.5154 91.2273C93.5154 92.625 92.8677 93.733 91.6064 93.733C90.3961 93.733 89.7314 92.7102 89.7314 91.2273ZM97.9814 94.6534C99.1234 94.6534 99.72 94.0398 99.9245 93.6136H99.9757V94.5H100.981V90.1875C100.981 88.108 99.3961 87.8693 98.5609 87.8693C97.5723 87.8693 96.4473 88.2102 95.9359 89.4034L96.8904 89.7443C97.112 89.267 97.6362 88.7557 98.595 88.7557C99.5197 88.7557 99.9757 89.2457 99.9757 90.0852V90.1193C99.9757 90.6051 99.4814 90.5625 98.2882 90.7159C97.0737 90.8736 95.7484 91.142 95.7484 92.642C95.7484 93.9205 96.737 94.6534 97.9814 94.6534ZM98.1348 93.75C97.3336 93.75 96.7541 93.392 96.7541 92.6932C96.7541 91.9261 97.4529 91.6875 98.237 91.5852C98.6632 91.5341 99.8052 91.4148 99.9757 91.2102V92.1307C99.9757 92.9489 99.3279 93.75 98.1348 93.75ZM103.823 90.5625C103.823 89.4205 104.53 88.7727 105.493 88.7727C106.426 88.7727 106.993 89.3821 106.993 90.4091V94.5H107.999V90.3409C107.999 88.6705 107.108 87.8693 105.783 87.8693C104.794 87.8693 104.181 88.3125 103.874 88.9773H103.789V87.9545H102.817V94.5H103.823V90.5625ZM109.836 94.5H110.842V87.9545H109.836V94.5ZM110.348 86.8636C110.74 86.8636 111.064 86.5568 111.064 86.1818C111.064 85.8068 110.74 85.5 110.348 85.5C109.956 85.5 109.632 85.8068 109.632 86.1818C109.632 86.5568 109.956 86.8636 110.348 86.8636ZM115.428 94.6364C116.758 94.6364 117.73 93.9716 118.036 92.983L117.065 92.7102C116.809 93.392 116.217 93.733 115.428 93.733C114.248 93.733 113.434 92.9702 113.387 91.5682H118.139V91.142C118.139 88.7045 116.69 87.8693 115.326 87.8693C113.553 87.8693 112.377 89.267 112.377 91.2784C112.377 93.2898 113.536 94.6364 115.428 94.6364ZM113.387 90.6989C113.455 89.6804 114.176 88.7727 115.326 88.7727C116.417 88.7727 117.116 89.5909 117.116 90.6989H113.387ZM124.305 89.4205C123.99 88.4915 123.282 87.8693 121.987 87.8693C120.606 87.8693 119.583 88.6534 119.583 89.7614C119.583 90.6648 120.12 91.2699 121.322 91.5511L122.413 91.8068C123.073 91.9602 123.384 92.2756 123.384 92.7273C123.384 93.2898 122.788 93.75 121.85 93.75C121.028 93.75 120.512 93.3963 120.333 92.6932L119.379 92.9318C119.613 94.044 120.529 94.6364 121.867 94.6364C123.389 94.6364 124.424 93.8054 124.424 92.6761C124.424 91.7642 123.853 91.1889 122.686 90.9034L121.714 90.6648C120.938 90.473 120.589 90.2131 120.589 89.7102C120.589 89.1477 121.186 88.7386 121.987 88.7386C122.865 88.7386 123.227 89.2244 123.401 89.6761L124.305 89.4205Z" fill="#2B5F4D"/>
</svg>
