<svg width="146" height="104" viewBox="0 0 146 104" fill="none" xmlns="http://www.w3.org/2000/svg">
<path d="M83.6666 0.666668H62.3333C61.8028 0.666668 61.2941 0.877382 60.919 1.25245C60.544 1.62753 60.3333 2.13623 60.3333 2.66667V29.3333C60.3333 29.8638 60.544 30.3725 60.919 30.7475C61.2941 31.1226 61.8028 31.3333 62.3333 31.3333H83.6666C84.197 31.3333 84.7057 31.1226 85.0808 30.7475C85.4559 30.3725 85.6666 29.8638 85.6666 29.3333V2.66667C85.6666 2.13623 85.4559 1.62753 85.0808 1.25245C84.7057 0.877382 84.197 0.666668 83.6666 0.666668ZM72.3333 27.3333H64.9999C64.8231 27.3333 64.6535 27.2631 64.5285 27.1381C64.4035 27.0131 64.3333 26.8435 64.3333 26.6667C64.3333 26.4899 64.4035 26.3203 64.5285 26.1953C64.6535 26.0702 64.8231 26 64.9999 26H72.3333C72.5101 26 72.6796 26.0702 72.8047 26.1953C72.9297 26.3203 72.9999 26.4899 72.9999 26.6667C72.9999 26.8435 72.9297 27.0131 72.8047 27.1381C72.6796 27.2631 72.5101 27.3333 72.3333 27.3333ZM80.9999 23.3333H64.9999C64.8231 23.3333 64.6535 23.2631 64.5285 23.1381C64.4035 23.0131 64.3333 22.8435 64.3333 22.6667C64.3333 22.4899 64.4035 22.3203 64.5285 22.1953C64.6535 22.0702 64.8231 22 64.9999 22H80.9999C81.1767 22 81.3463 22.0702 81.4713 22.1953C81.5963 22.3203 81.6666 22.4899 81.6666 22.6667C81.6666 22.8435 81.5963 23.0131 81.4713 23.1381C81.3463 23.2631 81.1767 23.3333 80.9999 23.3333ZM80.9999 19.3333H64.9999C64.8231 19.3333 64.6535 19.2631 64.5285 19.1381C64.4035 19.0131 64.3333 18.8435 64.3333 18.6667C64.3333 18.4899 64.4035 18.3203 64.5285 18.1953C64.6535 18.0702 64.8231 18 64.9999 18H80.9999C81.1767 18 81.3463 18.0702 81.4713 18.1953C81.5963 18.3203 81.6666 18.4899 81.6666 18.6667C81.6666 18.8435 81.5963 19.0131 81.4713 19.1381C81.3463 19.2631 81.1767 19.3333 80.9999 19.3333ZM80.9999 15.3333H70.3333C70.1564 15.3333 69.9869 15.2631 69.8618 15.1381C69.7368 15.013 69.6666 14.8435 69.6666 14.6667C69.6666 14.4899 69.7368 14.3203 69.8618 14.1953C69.9869 14.0702 70.1564 14 70.3333 14H70.9999V10H72.3333V14H73.6666V10H74.9999V14H76.3333V10H77.6666V14H78.9999V10H80.3333V14H80.9999C81.1767 14 81.3463 14.0702 81.4713 14.1953C81.5963 14.3203 81.6666 14.4899 81.6666 14.6667C81.6666 14.8435 81.5963 15.013 81.4713 15.1381C81.3463 15.2631 81.1767 15.3333 80.9999 15.3333ZM81.6666 8C81.6666 8.17681 81.5963 8.34638 81.4713 8.47141C81.3463 8.59643 81.1767 8.66667 80.9999 8.66667H70.3333C70.1564 8.66667 69.9869 8.59643 69.8618 8.47141C69.7368 8.34638 69.6666 8.17681 69.6666 8V7.33333C69.6665 7.20945 69.701 7.08799 69.7661 6.9826C69.8312 6.87721 69.9244 6.79205 70.0353 6.73667L75.3686 4.07C75.4611 4.02376 75.5631 3.99969 75.6666 3.99969C75.77 3.99969 75.8721 4.02376 75.9646 4.07L81.2979 6.73667C81.4087 6.79205 81.5019 6.87721 81.5671 6.9826C81.6322 7.08799 81.6666 7.20945 81.6666 7.33333V8Z" fill="#2E7B9D"/>
<path d="M11.6158 52.2898C11.2578 49.7045 9.26918 48.2045 6.68963 48.2045C3.64986 48.2045 1.36009 50.4205 1.36009 54.1818C1.36009 57.9375 3.62145 60.1591 6.68963 60.1591C9.45668 60.1591 11.2919 58.3693 11.6158 56.1477L9.49077 56.1364C9.22372 57.5 8.11009 58.267 6.71804 58.267C4.83168 58.267 3.4794 56.8523 3.4794 54.1818C3.4794 51.5568 4.82031 50.0966 6.72372 50.0966C8.13849 50.0966 9.24645 50.8977 9.49077 52.2898H11.6158ZM17.2621 60.1705C19.8189 60.1705 21.4439 58.3693 21.4439 55.6705C21.4439 52.9659 19.8189 51.1591 17.2621 51.1591C14.7053 51.1591 13.0803 52.9659 13.0803 55.6705C13.0803 58.3693 14.7053 60.1705 17.2621 60.1705ZM17.2734 58.5227C15.8587 58.5227 15.1655 57.2614 15.1655 55.6648C15.1655 54.0682 15.8587 52.7898 17.2734 52.7898C18.6655 52.7898 19.3587 54.0682 19.3587 55.6648C19.3587 57.2614 18.6655 58.5227 17.2734 58.5227ZM23.1896 60H25.2464V54.8693C25.2464 53.7614 26.0817 52.9773 27.2124 52.9773C27.5589 52.9773 27.9908 53.0398 28.1669 53.0966V51.2045C27.9794 51.1705 27.6555 51.1477 27.4283 51.1477C26.4283 51.1477 25.593 51.7159 25.2749 52.7273H25.1839V51.2727H23.1896V60ZM29.5334 63.2727H31.5902V58.625H31.6754C31.9993 59.2614 32.6754 60.1534 34.1754 60.1534C36.2322 60.1534 37.772 58.5227 37.772 55.6477C37.772 52.7386 36.1868 51.1591 34.1697 51.1591C32.63 51.1591 31.9879 52.0852 31.6754 52.7159H31.5561V51.2727H29.5334V63.2727ZM31.5504 55.6364C31.5504 53.9432 32.2777 52.8466 33.6016 52.8466C34.9709 52.8466 35.6754 54.0114 35.6754 55.6364C35.6754 57.2727 34.9595 58.4659 33.6016 58.4659C32.2891 58.4659 31.5504 57.3295 31.5504 55.6364ZM43.3402 60.1705C45.897 60.1705 47.522 58.3693 47.522 55.6705C47.522 52.9659 45.897 51.1591 43.3402 51.1591C40.7834 51.1591 39.1584 52.9659 39.1584 55.6705C39.1584 58.3693 40.7834 60.1705 43.3402 60.1705ZM43.3516 58.5227C41.9368 58.5227 41.2436 57.2614 41.2436 55.6648C41.2436 54.0682 41.9368 52.7898 43.3516 52.7898C44.7436 52.7898 45.4368 54.0682 45.4368 55.6648C45.4368 57.2614 44.7436 58.5227 43.3516 58.5227ZM49.2678 60H51.3246V54.8693C51.3246 53.7614 52.1598 52.9773 53.2905 52.9773C53.6371 52.9773 54.0689 53.0398 54.245 53.0966V51.2045C54.0575 51.1705 53.7337 51.1477 53.5064 51.1477C52.5064 51.1477 51.6712 51.7159 51.353 52.7273H51.2621V51.2727H49.2678V60ZM57.951 60.1761C59.3203 60.1761 60.1385 59.5341 60.5135 58.8011H60.5817V60H62.5589V54.1591C62.5589 51.8523 60.6783 51.1591 59.0135 51.1591C57.1783 51.1591 55.7692 51.9773 55.3146 53.5682L57.2351 53.8409C57.4396 53.2443 58.0192 52.733 59.0249 52.733C59.9794 52.733 60.5021 53.2216 60.5021 54.0795V54.1136C60.5021 54.7045 59.8828 54.733 58.343 54.8977C56.6499 55.0795 55.0305 55.5852 55.0305 57.5511C55.0305 59.267 56.2862 60.1761 57.951 60.1761ZM58.4851 58.6648C57.6271 58.6648 57.0135 58.2727 57.0135 57.517C57.0135 56.7273 57.701 56.3977 58.6214 56.267C59.1612 56.1932 60.2408 56.0568 60.5078 55.8409V56.8693C60.5078 57.8409 59.7237 58.6648 58.4851 58.6648ZM68.9851 51.2727H67.2635V49.1818H65.2067V51.2727H63.968V52.8636H65.2067V57.7159C65.1953 59.358 66.3885 60.1648 67.9339 60.1193C68.5192 60.1023 68.9226 59.9886 69.1442 59.9148L68.7976 58.3068C68.6839 58.3352 68.451 58.3864 68.1953 58.3864C67.6783 58.3864 67.2635 58.2045 67.2635 57.375V52.8636H68.9851V51.2727ZM74.4751 60.1705C76.5092 60.1705 77.907 59.1761 78.2706 57.6591L76.3501 57.4432C76.0717 58.1818 75.3899 58.5682 74.5036 58.5682C73.174 58.5682 72.2933 57.6932 72.2763 56.1989H78.3558V55.5682C78.3558 52.5057 76.5149 51.1591 74.3672 51.1591C71.8672 51.1591 70.2365 52.9943 70.2365 55.6875C70.2365 58.4261 71.8445 60.1705 74.4751 60.1705ZM72.282 54.8125C72.3445 53.6989 73.1683 52.7614 74.3956 52.7614C75.5774 52.7614 76.3729 53.625 76.3842 54.8125H72.282ZM84.1555 60H88.8658C91.5305 60 92.8374 58.642 92.8374 56.8295C92.8374 55.0682 91.5874 54.0341 90.3487 53.9716V53.858C91.4851 53.5909 92.3828 52.7955 92.3828 51.3807C92.3828 49.6477 91.1328 48.3636 88.6101 48.3636H84.1555V60ZM86.2635 58.2386V54.8295H88.5874C89.8885 54.8295 90.6953 55.625 90.6953 56.6648C90.6953 57.5909 90.0589 58.2386 88.5305 58.2386H86.2635ZM86.2635 53.3125V50.1023H88.3942C89.6328 50.1023 90.2749 50.7557 90.2749 51.6534C90.2749 52.6761 89.4453 53.3125 88.3487 53.3125H86.2635ZM97.0916 60.1761C98.4609 60.1761 99.2791 59.5341 99.6541 58.8011H99.7223V60H101.7V54.1591C101.7 51.8523 99.8189 51.1591 98.1541 51.1591C96.3189 51.1591 94.9098 51.9773 94.4553 53.5682L96.3757 53.8409C96.5803 53.2443 97.1598 52.733 98.1655 52.733C99.12 52.733 99.6428 53.2216 99.6428 54.0795V54.1136C99.6428 54.7045 99.0234 54.733 97.4837 54.8977C95.7905 55.0795 94.1712 55.5852 94.1712 57.5511C94.1712 59.267 95.4268 60.1761 97.0916 60.1761ZM97.6257 58.6648C96.7678 58.6648 96.1541 58.2727 96.1541 57.517C96.1541 56.7273 96.8416 56.3977 97.7621 56.267C98.3018 56.1932 99.3814 56.0568 99.6484 55.8409V56.8693C99.6484 57.8409 98.8643 58.6648 97.6257 58.6648ZM105.825 54.8864C105.825 53.625 106.586 52.8977 107.671 52.8977C108.734 52.8977 109.37 53.5966 109.37 54.7614V60H111.427V54.4432C111.433 52.3523 110.239 51.1591 108.438 51.1591C107.131 51.1591 106.234 51.7841 105.836 52.7557H105.734V51.2727H103.768V60H105.825V54.8864ZM113.518 60H115.575V57.0682L116.325 56.267L118.995 60H121.455L117.876 55.0398L121.256 51.2727H118.853L115.717 54.7784H115.575V48.3636H113.518V60ZM122.627 60H124.684V51.2727H122.627V60ZM123.661 50.0341C124.315 50.0341 124.849 49.5341 124.849 48.9205C124.849 48.3011 124.315 47.8011 123.661 47.8011C123.002 47.8011 122.468 48.3011 122.468 48.9205C122.468 49.5341 123.002 50.0341 123.661 50.0341ZM128.856 54.8864C128.856 53.625 129.617 52.8977 130.702 52.8977C131.765 52.8977 132.401 53.5966 132.401 54.7614V60H134.458V54.4432C134.464 52.3523 133.271 51.1591 131.469 51.1591C130.163 51.1591 129.265 51.7841 128.867 52.7557H128.765V51.2727H126.799V60H128.856V54.8864ZM140.344 63.4545C142.702 63.4545 144.441 62.375 144.441 60.142V51.2727H142.413V52.7159H142.299C141.987 52.0852 141.333 51.1591 139.793 51.1591C137.776 51.1591 136.191 52.7386 136.191 55.608C136.191 58.4545 137.776 59.875 139.788 59.875C141.282 59.875 141.981 59.0739 142.299 58.4318H142.401V60.0852C142.401 61.3693 141.549 61.8977 140.379 61.8977C139.14 61.8977 138.594 61.3125 138.344 60.8011L136.492 61.25C136.867 62.4716 138.123 63.4545 140.344 63.4545ZM140.362 58.2614C139.004 58.2614 138.288 57.2045 138.288 55.5966C138.288 54.0114 138.992 52.8466 140.362 52.8466C141.685 52.8466 142.413 53.9432 142.413 55.5966C142.413 57.2614 141.674 58.2614 140.362 58.2614Z" fill="#2E7B9D"/>
<path d="M62.5655 72.2727H61.0613L58.8922 73.6662V75.1151L60.9334 73.8111H60.9846V81H62.5655V72.2727ZM66.1291 79.8068H64.7654L64.7356 80.2841C64.6632 81.4389 64.3606 82.6151 64.237 83.1307H65.2768C65.4814 82.5938 65.9544 81.3494 66.0737 80.2756L66.1291 79.8068ZM70.3116 72.2727H68.8074L66.6383 73.6662V75.1151L68.6795 73.8111H68.7306V81H70.3116V72.2727ZM75.7534 81.1662C77.8585 81.1705 79.1156 79.5085 79.1156 76.6449C79.1156 73.7983 77.85 72.1534 75.7534 72.1534C73.6568 72.1534 72.3954 73.794 72.3912 76.6449C72.3912 79.5043 73.6483 81.1662 75.7534 81.1662ZM75.7534 79.8324C74.6667 79.8324 73.9849 78.7415 73.9892 76.6449C73.9934 74.5653 74.671 73.4702 75.7534 73.4702C76.84 73.4702 77.5176 74.5653 77.5218 76.6449C77.5218 78.7415 76.8443 79.8324 75.7534 79.8324ZM83.7573 81.1662C85.8624 81.1705 87.1195 79.5085 87.1195 76.6449C87.1195 73.7983 85.8539 72.1534 83.7573 72.1534C81.6607 72.1534 80.3993 73.794 80.3951 76.6449C80.3951 79.5043 81.6522 81.1662 83.7573 81.1662ZM83.7573 79.8324C82.6706 79.8324 81.9888 78.7415 81.9931 76.6449C81.9973 74.5653 82.6749 73.4702 83.7573 73.4702C84.8439 73.4702 85.5215 74.5653 85.5257 76.6449C85.5257 78.7415 84.8482 79.8324 83.7573 79.8324ZM49.3217 93C48.9979 91.2102 47.5661 90.1534 45.8104 90.1534C43.5774 90.1534 41.9581 91.875 41.9581 94.6364C41.9581 97.3977 43.5774 99.1193 45.8104 99.1193C47.5661 99.1193 48.9979 98.0625 49.3217 96.2727H48.2649C48.0092 97.483 46.9695 98.1307 45.8104 98.1307C44.2251 98.1307 42.9808 96.9034 42.9808 94.6364C42.9808 92.3693 44.2251 91.142 45.8104 91.142C46.9695 91.142 48.0092 91.7898 48.2649 93H49.3217ZM53.5522 99.1364C55.3249 99.1364 56.5181 97.7898 56.5181 95.7614C56.5181 93.7159 55.3249 92.3693 53.5522 92.3693C51.7795 92.3693 50.5863 93.7159 50.5863 95.7614C50.5863 97.7898 51.7795 99.1364 53.5522 99.1364ZM53.5522 98.233C52.2056 98.233 51.592 97.0739 51.592 95.7614C51.592 94.4489 52.2056 93.2727 53.5522 93.2727C54.8988 93.2727 55.5124 94.4489 55.5124 95.7614C55.5124 97.0739 54.8988 98.233 53.5522 98.233ZM58.0533 99H59.0589V94.9091C59.0589 93.9503 59.7578 93.2727 60.5419 93.2727C61.3047 93.2727 61.8374 93.7713 61.8374 94.517V99H62.8601V94.7386C62.8601 93.8949 63.3885 93.2727 64.3089 93.2727C65.0249 93.2727 65.6385 93.652 65.6385 94.6193V99H66.6442V94.6193C66.6442 93.081 65.8175 92.3693 64.6499 92.3693C63.7124 92.3693 63.0263 92.7997 62.6896 93.4773H62.6214C62.2976 92.7784 61.7266 92.3693 60.8658 92.3693C60.0135 92.3693 59.3828 92.7784 59.1101 93.4773H59.0249V92.4545H58.0533V99ZM68.483 101.455H69.4886V97.9943H69.5739C69.7955 98.3523 70.2216 99.1364 71.483 99.1364C73.1193 99.1364 74.2614 97.8239 74.2614 95.7443C74.2614 93.6818 73.1193 92.3693 71.4659 92.3693C70.1875 92.3693 69.7955 93.1534 69.5739 93.4943H69.4545V92.4545H68.483V101.455ZM69.4716 95.7273C69.4716 94.2614 70.1193 93.2727 71.3466 93.2727C72.625 93.2727 73.2557 94.3466 73.2557 95.7273C73.2557 97.125 72.608 98.233 71.3466 98.233C70.1364 98.233 69.4716 97.2102 69.4716 95.7273ZM77.7216 99.1534C78.8636 99.1534 79.4602 98.5398 79.6648 98.1136H79.7159V99H80.7216V94.6875C80.7216 92.608 79.1364 92.3693 78.3011 92.3693C77.3125 92.3693 76.1875 92.7102 75.6761 93.9034L76.6307 94.2443C76.8523 93.767 77.3764 93.2557 78.3352 93.2557C79.2599 93.2557 79.7159 93.7457 79.7159 94.5852V94.6193C79.7159 95.1051 79.2216 95.0625 78.0284 95.2159C76.8139 95.3736 75.4886 95.642 75.4886 97.142C75.4886 98.4205 76.4773 99.1534 77.7216 99.1534ZM77.875 98.25C77.0739 98.25 76.4943 97.892 76.4943 97.1932C76.4943 96.4261 77.1932 96.1875 77.9773 96.0852C78.4034 96.0341 79.5455 95.9148 79.7159 95.7102V96.6307C79.7159 97.4489 79.0682 98.25 77.875 98.25ZM83.5629 95.0625C83.5629 93.9205 84.2702 93.2727 85.2333 93.2727C86.1665 93.2727 86.7333 93.8821 86.7333 94.9091V99H87.739V94.8409C87.739 93.1705 86.8484 92.3693 85.5231 92.3693C84.5344 92.3693 83.9208 92.8125 83.614 93.4773H83.5288V92.4545H82.5572V99H83.5629V95.0625ZM89.5767 99H90.5824V92.4545H89.5767V99ZM90.0881 91.3636C90.4801 91.3636 90.804 91.0568 90.804 90.6818C90.804 90.3068 90.4801 90 90.0881 90C89.696 90 89.3722 90.3068 89.3722 90.6818C89.3722 91.0568 89.696 91.3636 90.0881 91.3636ZM95.1687 99.1364C96.4982 99.1364 97.4698 98.4716 97.7766 97.483L96.805 97.2102C96.5494 97.892 95.957 98.233 95.1687 98.233C93.9883 98.233 93.1744 97.4702 93.1275 96.0682H97.8789V95.642C97.8789 93.2045 96.43 92.3693 95.0664 92.3693C93.2937 92.3693 92.1175 93.767 92.1175 95.7784C92.1175 97.7898 93.2766 99.1364 95.1687 99.1364ZM93.1275 95.1989C93.1957 94.1804 93.9158 93.2727 95.0664 93.2727C96.1573 93.2727 96.8562 94.0909 96.8562 95.1989H93.1275ZM104.045 93.9205C103.73 92.9915 103.022 92.3693 101.727 92.3693C100.346 92.3693 99.3235 93.1534 99.3235 94.2614C99.3235 95.1648 99.8604 95.7699 101.062 96.0511L102.153 96.3068C102.814 96.4602 103.125 96.7756 103.125 97.2273C103.125 97.7898 102.528 98.25 101.591 98.25C100.768 98.25 100.252 97.8963 100.074 97.1932L99.119 97.4318C99.3533 98.544 100.27 99.1364 101.608 99.1364C103.129 99.1364 104.164 98.3054 104.164 97.1761C104.164 96.2642 103.593 95.6889 102.426 95.4034L101.454 95.1648C100.679 94.973 100.329 94.7131 100.329 94.2102C100.329 93.6477 100.926 93.2386 101.727 93.2386C102.605 93.2386 102.967 93.7244 103.142 94.1761L104.045 93.9205Z" fill="#2E7B9D"/>
</svg>
