<svg width="186" height="96" viewBox="0 0 186 96" fill="none" xmlns="http://www.w3.org/2000/svg">
<path d="M21.6291 20C25.6178 20 27.9828 17.5327 27.9828 13.4418C27.9828 9.36364 25.6178 6.90909 21.7186 6.90909H17.193V20H21.6291ZM19.5645 17.9482V8.96094H21.5844C24.2435 8.96094 25.6305 10.4439 25.6305 13.4418C25.6305 16.4524 24.2435 17.9482 21.5141 17.9482H19.5645ZM30.1337 20H32.4477V10.1818H30.1337V20ZM31.2971 8.78835C32.0322 8.78835 32.633 8.22585 32.633 7.53551C32.633 6.83878 32.0322 6.27628 31.2971 6.27628C30.5556 6.27628 29.9548 6.83878 29.9548 7.53551C29.9548 8.22585 30.5556 8.78835 31.2971 8.78835ZM39.097 23.8864C41.7497 23.8864 43.7057 22.6719 43.7057 20.1598V10.1818H41.4237V11.8054H41.2959C40.9443 11.0959 40.2092 10.054 38.477 10.054C36.2078 10.054 34.4244 11.831 34.4244 15.0589C34.4244 18.2614 36.2078 19.8594 38.4706 19.8594C40.1517 19.8594 40.9379 18.9581 41.2959 18.2358H41.4109V20.0959C41.4109 21.5405 40.4521 22.1349 39.1353 22.1349C37.7419 22.1349 37.1282 21.4766 36.847 20.9013L34.7632 21.4062C35.1851 22.7805 36.5977 23.8864 39.097 23.8864ZM39.1162 18.044C37.5885 18.044 36.7831 16.8551 36.7831 15.0462C36.7831 13.2628 37.5757 11.9524 39.1162 11.9524C40.6055 11.9524 41.4237 13.1861 41.4237 15.0462C41.4237 16.919 40.5927 18.044 39.1162 18.044ZM46.0771 20H48.391V10.1818H46.0771V20ZM47.2405 8.78835C47.9755 8.78835 48.5764 8.22585 48.5764 7.53551C48.5764 6.83878 47.9755 6.27628 47.2405 6.27628C46.499 6.27628 45.8981 6.83878 45.8981 7.53551C45.8981 8.22585 46.499 8.78835 47.2405 8.78835ZM55.6732 10.1818H53.7364V7.82955H51.4225V10.1818H50.029V11.9716H51.4225V17.4304C51.4097 19.2777 52.752 20.1854 54.4906 20.1342C55.149 20.1151 55.6029 19.9872 55.8521 19.9041L55.4622 18.0952C55.3344 18.1271 55.0723 18.1847 54.7847 18.1847C54.203 18.1847 53.7364 17.9801 53.7364 17.0469V11.9716H55.6732V10.1818ZM60.4336 20.1982C61.9741 20.1982 62.8946 19.4759 63.3165 18.6513H63.3932V20H65.6176V13.429C65.6176 10.8338 63.5018 10.054 61.629 10.054C59.5643 10.054 57.9791 10.9744 57.4677 12.7642L59.6282 13.071C59.8584 12.3999 60.5103 11.8246 61.6417 11.8246C62.7156 11.8246 63.3037 12.3743 63.3037 13.3395V13.3778C63.3037 14.0426 62.6069 14.0746 60.8747 14.2599C58.9699 14.4645 57.1481 15.0334 57.1481 17.245C57.1481 19.1754 58.5608 20.1982 60.4336 20.1982ZM61.0345 18.4979C60.0693 18.4979 59.379 18.0568 59.379 17.2067C59.379 16.3182 60.1524 15.9474 61.1879 15.8004C61.7951 15.7173 63.0096 15.5639 63.3101 15.321V16.478C63.3101 17.571 62.428 18.4979 61.0345 18.4979ZM70.2582 6.90909H67.9443V20H70.2582V6.90909ZM88.41 11.326C88.0073 8.41761 85.7701 6.73011 82.8681 6.73011C79.4484 6.73011 76.8724 9.22301 76.8724 13.4545C76.8724 17.6797 79.4164 20.179 82.8681 20.179C85.981 20.179 88.0457 18.1655 88.41 15.6662L86.0194 15.6534C85.719 17.1875 84.4661 18.0504 82.9001 18.0504C80.7779 18.0504 79.2566 16.4588 79.2566 13.4545C79.2566 10.5014 80.7651 8.85866 82.9065 8.85866C84.4981 8.85866 85.7445 9.75994 86.0194 11.326H88.41ZM92.7934 14.2472C92.7934 12.8281 93.6755 12.0099 94.9155 12.0099C96.13 12.0099 96.8459 12.7834 96.8459 14.1065V20H99.1598V13.7486C99.1598 11.3771 97.8175 10.054 95.7785 10.054C94.2699 10.054 93.3111 10.7379 92.8573 11.8501H92.7422V6.90909H90.4794V20H92.7934V14.2472ZM104.344 20.1982C105.884 20.1982 106.805 19.4759 107.227 18.6513H107.303V20H109.528V13.429C109.528 10.8338 107.412 10.054 105.539 10.054C103.474 10.054 101.889 10.9744 101.378 12.7642L103.538 13.071C103.769 12.3999 104.42 11.8246 105.552 11.8246C106.626 11.8246 107.214 12.3743 107.214 13.3395V13.3778C107.214 14.0426 106.517 14.0746 104.785 14.2599C102.88 14.4645 101.058 15.0334 101.058 17.245C101.058 19.1754 102.471 20.1982 104.344 20.1982ZM104.945 18.4979C103.979 18.4979 103.289 18.0568 103.289 17.2067C103.289 16.3182 104.063 15.9474 105.098 15.8004C105.705 15.7173 106.92 15.5639 107.22 15.321V16.478C107.22 17.571 106.338 18.4979 104.945 18.4979ZM114.168 6.90909H111.854V20H114.168V6.90909ZM118.862 6.90909H116.548V20H118.862V6.90909ZM125.588 20.1918C127.876 20.1918 129.449 19.0732 129.858 17.3665L127.697 17.1236C127.384 17.9545 126.617 18.3892 125.62 18.3892C124.124 18.3892 123.133 17.4048 123.114 15.7237H129.954V15.0142C129.954 11.5689 127.883 10.054 125.466 10.054C122.654 10.054 120.819 12.1186 120.819 15.1484C120.819 18.2294 122.628 20.1918 125.588 20.1918ZM123.12 14.1641C123.191 12.9112 124.118 11.8565 125.498 11.8565C126.828 11.8565 127.723 12.8281 127.735 14.1641H123.12ZM134.225 14.2472C134.225 12.8281 135.082 12.0099 136.302 12.0099C137.498 12.0099 138.214 12.7962 138.214 14.1065V20H140.528V13.7486C140.534 11.3963 139.192 10.054 137.165 10.054C135.695 10.054 134.685 10.7571 134.238 11.8501H134.123V10.1818H131.911V20H134.225V14.2472ZM147.15 23.8864C149.802 23.8864 151.758 22.6719 151.758 20.1598V10.1818H149.476V11.8054H149.349C148.997 11.0959 148.262 10.054 146.53 10.054C144.261 10.054 142.477 11.831 142.477 15.0589C142.477 18.2614 144.261 19.8594 146.523 19.8594C148.204 19.8594 148.991 18.9581 149.349 18.2358H149.464V20.0959C149.464 21.5405 148.505 22.1349 147.188 22.1349C145.795 22.1349 145.181 21.4766 144.9 20.9013L142.816 21.4062C143.238 22.7805 144.65 23.8864 147.15 23.8864ZM147.169 18.044C145.641 18.044 144.836 16.8551 144.836 15.0462C144.836 13.2628 145.628 11.9524 147.169 11.9524C148.658 11.9524 149.476 13.1861 149.476 15.0462C149.476 16.919 148.645 18.044 147.169 18.044ZM158.476 20.1918C160.765 20.1918 162.337 19.0732 162.746 17.3665L160.586 17.1236C160.273 17.9545 159.506 18.3892 158.508 18.3892C157.013 18.3892 156.022 17.4048 156.003 15.7237H162.842V15.0142C162.842 11.5689 160.771 10.054 158.355 10.054C155.542 10.054 153.708 12.1186 153.708 15.1484C153.708 18.2294 155.517 20.1918 158.476 20.1918ZM156.009 14.1641C156.079 12.9112 157.006 11.8565 158.387 11.8565C159.716 11.8565 160.611 12.8281 160.624 14.1641H156.009ZM164.8 20H167.114V14.228C167.114 12.9815 168.053 12.0994 169.325 12.0994C169.715 12.0994 170.201 12.1697 170.399 12.2337V10.1051C170.188 10.0668 169.824 10.0412 169.568 10.0412C168.443 10.0412 167.504 10.6804 167.146 11.8182H167.043V10.1818H164.8V20ZM67.985 46H73.284C76.2819 46 77.7521 44.4723 77.7521 42.4332C77.7521 40.4517 76.3458 39.2884 74.9524 39.218V39.0902C76.2308 38.7898 77.2407 37.8949 77.2407 36.3033C77.2407 34.3537 75.8345 32.9091 72.9964 32.9091H67.985V46ZM70.3565 44.0185V40.1832H72.9708C74.4346 40.1832 75.3423 41.0781 75.3423 42.2479C75.3423 43.2898 74.6264 44.0185 72.9069 44.0185H70.3565ZM70.3565 38.4766V34.8651H72.7535C74.147 34.8651 74.8693 35.6001 74.8693 36.6101C74.8693 37.7607 73.936 38.4766 72.7024 38.4766H70.3565ZM82.5381 46.1982C84.0786 46.1982 84.9991 45.4759 85.4209 44.6513H85.4976V46H87.7221V39.429C87.7221 36.8338 85.6063 36.054 83.7334 36.054C81.6688 36.054 80.0836 36.9744 79.5722 38.7642L81.7327 39.071C81.9628 38.3999 82.6148 37.8246 83.7462 37.8246C84.8201 37.8246 85.4082 38.3743 85.4082 39.3395V39.3778C85.4082 40.0426 84.7114 40.0746 82.9792 40.2599C81.0744 40.4645 79.2526 41.0334 79.2526 43.245C79.2526 45.1754 80.6653 46.1982 82.5381 46.1982ZM83.139 44.4979C82.1738 44.4979 81.4834 44.0568 81.4834 43.2067C81.4834 42.3182 82.2569 41.9474 83.2924 41.8004C83.8996 41.7173 85.1141 41.5639 85.4146 41.321V42.478C85.4146 43.571 84.5324 44.4979 83.139 44.4979ZM92.3627 40.2472C92.3627 38.8281 93.2192 38.0099 94.4401 38.0099C95.6354 38.0099 96.3513 38.7962 96.3513 40.1065V46H98.6653V39.7486C98.6717 37.3963 97.3293 36.054 95.303 36.054C93.8329 36.054 92.8229 36.7571 92.3755 37.8501H92.2604V36.1818H90.0488V46H92.3627V40.2472ZM101.018 46H103.331V42.7017L104.175 41.8004L107.179 46H109.947L105.92 40.4197L109.724 36.1818H107.02L103.491 40.1257H103.331V32.9091H101.018V46ZM119.026 38.777C118.706 37.1151 117.376 36.054 115.075 36.054C112.71 36.054 111.099 37.2173 111.106 39.0327C111.099 40.4645 111.981 41.4105 113.867 41.8004L115.542 42.152C116.443 42.3501 116.865 42.7145 116.865 43.2706C116.865 43.9418 116.136 44.4467 115.037 44.4467C113.976 44.4467 113.285 43.9865 113.087 43.1044L110.831 43.3217C111.119 45.1243 112.633 46.1918 115.043 46.1918C117.498 46.1918 119.23 44.9197 119.236 43.0597C119.23 41.6598 118.329 40.8033 116.475 40.4006L114.8 40.0426C113.803 39.8189 113.407 39.4737 113.413 38.9048C113.407 38.2401 114.142 37.7798 115.107 37.7798C116.175 37.7798 116.737 38.3615 116.916 39.0071L119.026 38.777Z" fill="#2B5F4D"/>
<path opacity="0.7" d="M86.8746 64.2727H85.3703L83.2013 65.6662V67.1151L85.2425 65.8111H85.2936V73H86.8746V64.2727ZM92.1203 64.1534C90.2283 64.1406 88.9712 65.4403 88.9712 67.1449C88.9755 68.7898 90.1473 69.9787 91.6772 69.9787C92.6189 69.9787 93.4371 69.5227 93.859 68.7727H93.9186C93.9144 70.6392 93.2368 71.7514 92.0309 71.7514C91.2766 71.7514 90.7695 71.3168 90.6118 70.6222H89.0564C89.2354 72.0668 90.3774 73.1193 92.0309 73.1193C94.1232 73.1193 95.457 71.3722 95.4527 68.3679C95.4485 65.1889 93.7951 64.1619 92.1203 64.1534ZM92.1246 65.4318C93.0578 65.4318 93.7439 66.2074 93.7439 67.098C93.7482 68.0014 93.028 68.777 92.1076 68.777C91.1786 68.777 90.5095 68.044 90.5053 67.1108C90.5053 66.1733 91.1999 65.4318 92.1246 65.4318ZM100.098 73.1662C102.203 73.1705 103.46 71.5085 103.46 68.6449C103.46 65.7983 102.194 64.1534 100.098 64.1534C98.001 64.1534 96.7397 65.794 96.7354 68.6449C96.7354 71.5043 97.9925 73.1662 100.098 73.1662ZM100.098 71.8324C99.011 71.8324 98.3291 70.7415 98.3334 68.6449C98.3377 66.5653 99.0152 65.4702 100.098 65.4702C101.184 65.4702 101.862 66.5653 101.866 68.6449C101.866 70.7415 101.189 71.8324 100.098 71.8324ZM69.6464 85C69.3226 83.2102 67.8908 82.1534 66.1351 82.1534C63.9021 82.1534 62.2828 83.875 62.2828 86.6364C62.2828 89.3977 63.9021 91.1193 66.1351 91.1193C67.8908 91.1193 69.3226 90.0625 69.6464 88.2727H68.5896C68.3339 89.483 67.2942 90.1307 66.1351 90.1307C64.5498 90.1307 63.3055 88.9034 63.3055 86.6364C63.3055 84.3693 64.5498 83.142 66.1351 83.142C67.2942 83.142 68.3339 83.7898 68.5896 85H69.6464ZM73.8769 91.1364C75.6496 91.1364 76.8428 89.7898 76.8428 87.7614C76.8428 85.7159 75.6496 84.3693 73.8769 84.3693C72.1042 84.3693 70.911 85.7159 70.911 87.7614C70.911 89.7898 72.1042 91.1364 73.8769 91.1364ZM73.8769 90.233C72.5303 90.233 71.9167 89.0739 71.9167 87.7614C71.9167 86.4489 72.5303 85.2727 73.8769 85.2727C75.2235 85.2727 75.8371 86.4489 75.8371 87.7614C75.8371 89.0739 75.2235 90.233 73.8769 90.233ZM78.378 91H79.3837V86.9091C79.3837 85.9503 80.0825 85.2727 80.8666 85.2727C81.6294 85.2727 82.1621 85.7713 82.1621 86.517V91H83.1848V86.7386C83.1848 85.8949 83.7132 85.2727 84.6337 85.2727C85.3496 85.2727 85.9632 85.652 85.9632 86.6193V91H86.9689V86.6193C86.9689 85.081 86.1422 84.3693 84.9746 84.3693C84.0371 84.3693 83.351 84.7997 83.0143 85.4773H82.9462C82.6223 84.7784 82.0513 84.3693 81.1905 84.3693C80.3382 84.3693 79.7075 84.7784 79.4348 85.4773H79.3496V84.4545H78.378V91ZM88.8077 93.4545H89.8133V89.9943H89.8986C90.1202 90.3523 90.5463 91.1364 91.8077 91.1364C93.444 91.1364 94.5861 89.8239 94.5861 87.7443C94.5861 85.6818 93.444 84.3693 91.7906 84.3693C90.5122 84.3693 90.1202 85.1534 89.8986 85.4943H89.7793V84.4545H88.8077V93.4545ZM89.7963 87.7273C89.7963 86.2614 90.444 85.2727 91.6713 85.2727C92.9497 85.2727 93.5804 86.3466 93.5804 87.7273C93.5804 89.125 92.9327 90.233 91.6713 90.233C90.4611 90.233 89.7963 89.2102 89.7963 87.7273ZM98.0463 91.1534C99.1883 91.1534 99.7849 90.5398 99.9895 90.1136H100.041V91H101.046V86.6875C101.046 84.608 99.4611 84.3693 98.6258 84.3693C97.6372 84.3693 96.5122 84.7102 96.0008 85.9034L96.9554 86.2443C97.177 85.767 97.7011 85.2557 98.6599 85.2557C99.5847 85.2557 100.041 85.7457 100.041 86.5852V86.6193C100.041 87.1051 99.5463 87.0625 98.3531 87.2159C97.1386 87.3736 95.8133 87.642 95.8133 89.142C95.8133 90.4205 96.802 91.1534 98.0463 91.1534ZM98.1997 90.25C97.3986 90.25 96.819 89.892 96.819 89.1932C96.819 88.4261 97.5179 88.1875 98.302 88.0852C98.7281 88.0341 99.8702 87.9148 100.041 87.7102V88.6307C100.041 89.4489 99.3929 90.25 98.1997 90.25ZM103.888 87.0625C103.888 85.9205 104.595 85.2727 105.558 85.2727C106.491 85.2727 107.058 85.8821 107.058 86.9091V91H108.064V86.8409C108.064 85.1705 107.173 84.3693 105.848 84.3693C104.859 84.3693 104.246 84.8125 103.939 85.4773H103.853V84.4545H102.882V91H103.888V87.0625ZM109.901 91H110.907V84.4545H109.901V91ZM110.413 83.3636C110.805 83.3636 111.129 83.0568 111.129 82.6818C111.129 82.3068 110.805 82 110.413 82C110.021 82 109.697 82.3068 109.697 82.6818C109.697 83.0568 110.021 83.3636 110.413 83.3636ZM115.493 91.1364C116.823 91.1364 117.795 90.4716 118.101 89.483L117.13 89.2102C116.874 89.892 116.282 90.233 115.493 90.233C114.313 90.233 113.499 89.4702 113.452 88.0682H118.204V87.642C118.204 85.2045 116.755 84.3693 115.391 84.3693C113.618 84.3693 112.442 85.767 112.442 87.7784C112.442 89.7898 113.601 91.1364 115.493 91.1364ZM113.452 87.1989C113.52 86.1804 114.241 85.2727 115.391 85.2727C116.482 85.2727 117.181 86.0909 117.181 87.1989H113.452ZM124.37 85.9205C124.054 84.9915 123.347 84.3693 122.052 84.3693C120.671 84.3693 119.648 85.1534 119.648 86.2614C119.648 87.1648 120.185 87.7699 121.387 88.0511L122.478 88.3068C123.138 88.4602 123.449 88.7756 123.449 89.2273C123.449 89.7898 122.853 90.25 121.915 90.25C121.093 90.25 120.577 89.8963 120.398 89.1932L119.444 89.4318C119.678 90.544 120.594 91.1364 121.932 91.1364C123.454 91.1364 124.489 90.3054 124.489 89.1761C124.489 88.2642 123.918 87.6889 122.75 87.4034L121.779 87.1648C121.003 86.973 120.654 86.7131 120.654 86.2102C120.654 85.6477 121.25 85.2386 122.052 85.2386C122.929 85.2386 123.292 85.7244 123.466 86.1761L124.37 85.9205Z" fill="#2B5F4D"/>
</svg>
