<svg width="186" height="70" viewBox="0 0 186 70" fill="none" xmlns="http://www.w3.org/2000/svg">
<path d="M18.4235 20H20.795V14.4389H26.2346V12.451H20.795V8.89702H26.8099V6.90909H18.4235V20ZM28.8681 20H31.182V10.1818H28.8681V20ZM30.0315 8.78835C30.7666 8.78835 31.3674 8.22585 31.3674 7.53551C31.3674 6.83878 30.7666 6.27628 30.0315 6.27628C29.29 6.27628 28.6891 6.83878 28.6891 7.53551C28.6891 8.22585 29.29 8.78835 30.0315 8.78835ZM35.8754 14.2472C35.8754 12.8281 36.7319 12.0099 37.9528 12.0099C39.1481 12.0099 39.864 12.7962 39.864 14.1065V20H42.178V13.7486C42.1843 11.3963 40.842 10.054 38.8157 10.054C37.3456 10.054 36.3356 10.7571 35.8882 11.8501H35.7731V10.1818H33.5615V20H35.8754V14.2472ZM47.3555 20.1982C48.896 20.1982 49.8165 19.4759 50.2383 18.6513H50.315V20H52.5395V13.429C52.5395 10.8338 50.4237 10.054 48.5508 10.054C46.4862 10.054 44.901 10.9744 44.3896 12.7642L46.5501 13.071C46.7802 12.3999 47.4322 11.8246 48.5636 11.8246C49.6375 11.8246 50.2255 12.3743 50.2255 13.3395V13.3778C50.2255 14.0426 49.5288 14.0746 47.7966 14.2599C45.8917 14.4645 44.07 15.0334 44.07 17.245C44.07 19.1754 45.4826 20.1982 47.3555 20.1982ZM47.9564 18.4979C46.9912 18.4979 46.3008 18.0568 46.3008 17.2067C46.3008 16.3182 47.0743 15.9474 48.1098 15.8004C48.717 15.7173 49.9315 15.5639 50.2319 15.321V16.478C50.2319 17.571 49.3498 18.4979 47.9564 18.4979ZM57.1801 14.2472C57.1801 12.8281 58.0366 12.0099 59.2575 12.0099C60.4528 12.0099 61.1687 12.7962 61.1687 14.1065V20H63.4826V13.7486C63.489 11.3963 62.1467 10.054 60.1204 10.054C58.6503 10.054 57.6403 10.7571 57.1929 11.8501H57.0778V10.1818H54.8662V20H57.1801V14.2472ZM70.1176 20.1918C72.5849 20.1918 74.1574 18.728 74.3236 16.6442H72.1119C71.9138 17.6989 71.1531 18.3061 70.1368 18.3061C68.6922 18.3061 67.7589 17.098 67.7589 15.0909C67.7589 13.1094 68.7113 11.9205 70.1368 11.9205C71.249 11.9205 71.9329 12.6364 72.1119 13.5824H74.3236C74.1638 11.4538 72.5018 10.054 70.1048 10.054C67.2284 10.054 65.413 12.1314 65.413 15.1293C65.413 18.1016 67.1836 20.1918 70.1176 20.1918ZM76.2236 20H78.5375V10.1818H76.2236V20ZM77.3869 8.78835C78.122 8.78835 78.7229 8.22585 78.7229 7.53551C78.7229 6.83878 78.122 6.27628 77.3869 6.27628C76.6455 6.27628 76.0446 6.83878 76.0446 7.53551C76.0446 8.22585 76.6455 8.78835 77.3869 8.78835ZM83.7422 20.1982C85.2827 20.1982 86.2032 19.4759 86.625 18.6513H86.7017V20H88.9262V13.429C88.9262 10.8338 86.8104 10.054 84.9375 10.054C82.8729 10.054 81.2877 10.9744 80.7763 12.7642L82.9368 13.071C83.1669 12.3999 83.8189 11.8246 84.9503 11.8246C86.0242 11.8246 86.6123 12.3743 86.6123 13.3395V13.3778C86.6123 14.0426 85.9155 14.0746 84.1833 14.2599C82.2785 14.4645 80.4567 15.0334 80.4567 17.245C80.4567 19.1754 81.8694 20.1982 83.7422 20.1982ZM84.3431 18.4979C83.3779 18.4979 82.6875 18.0568 82.6875 17.2067C82.6875 16.3182 83.461 15.9474 84.4965 15.8004C85.1037 15.7173 86.3182 15.5639 86.6187 15.321V16.478C86.6187 17.571 85.7366 18.4979 84.3431 18.4979ZM93.5668 6.90909H91.2529V20H93.5668V6.90909ZM100.513 20H105.812C108.81 20 110.28 18.4723 110.28 16.4332C110.28 14.4517 108.874 13.2884 107.481 13.218V13.0902C108.759 12.7898 109.769 11.8949 109.769 10.3033C109.769 8.35369 108.363 6.90909 105.525 6.90909H100.513V20ZM102.885 18.0185V14.1832H105.499C106.963 14.1832 107.871 15.0781 107.871 16.2479C107.871 17.2898 107.155 18.0185 105.435 18.0185H102.885ZM102.885 12.4766V8.86506H105.282C106.675 8.86506 107.398 9.60014 107.398 10.6101C107.398 11.7607 106.464 12.4766 105.231 12.4766H102.885ZM115.066 20.1982C116.607 20.1982 117.527 19.4759 117.949 18.6513H118.026V20H120.25V13.429C120.25 10.8338 118.135 10.054 116.262 10.054C114.197 10.054 112.612 10.9744 112.101 12.7642L114.261 13.071C114.491 12.3999 115.143 11.8246 116.275 11.8246C117.348 11.8246 117.936 12.3743 117.936 13.3395V13.3778C117.936 14.0426 117.24 14.0746 115.508 14.2599C113.603 14.4645 111.781 15.0334 111.781 17.245C111.781 19.1754 113.194 20.1982 115.066 20.1982ZM115.667 18.4979C114.702 18.4979 114.012 18.0568 114.012 17.2067C114.012 16.3182 114.785 15.9474 115.821 15.8004C116.428 15.7173 117.642 15.5639 117.943 15.321V16.478C117.943 17.571 117.061 18.4979 115.667 18.4979ZM124.891 14.2472C124.891 12.8281 125.748 12.0099 126.968 12.0099C128.164 12.0099 128.88 12.7962 128.88 14.1065V20H131.194V13.7486C131.2 11.3963 129.858 10.054 127.831 10.054C126.361 10.054 125.351 10.7571 124.904 11.8501H124.789V10.1818H122.577V20H124.891V14.2472ZM133.546 20H135.86V16.7017L136.704 15.8004L139.708 20H142.476L138.449 14.4197L142.252 10.1818H139.548L136.02 14.1257H135.86V6.90909H133.546V20ZM143.794 20H146.108V10.1818H143.794V20ZM144.957 8.78835C145.692 8.78835 146.293 8.22585 146.293 7.53551C146.293 6.83878 145.692 6.27628 144.957 6.27628C144.216 6.27628 143.615 6.83878 143.615 7.53551C143.615 8.22585 144.216 8.78835 144.957 8.78835ZM150.801 14.2472C150.801 12.8281 151.658 12.0099 152.879 12.0099C154.074 12.0099 154.79 12.7962 154.79 14.1065V20H157.104V13.7486C157.11 11.3963 155.768 10.054 153.742 10.054C152.271 10.054 151.261 10.7571 150.814 11.8501H150.699V10.1818H148.487V20H150.801V14.2472ZM163.726 23.8864C166.379 23.8864 168.335 22.6719 168.335 20.1598V10.1818H166.053V11.8054H165.925C165.573 11.0959 164.838 10.054 163.106 10.054C160.837 10.054 159.053 11.831 159.053 15.0589C159.053 18.2614 160.837 19.8594 163.099 19.8594C164.781 19.8594 165.567 18.9581 165.925 18.2358H166.04V20.0959C166.04 21.5405 165.081 22.1349 163.764 22.1349C162.371 22.1349 161.757 21.4766 161.476 20.9013L159.392 21.4062C159.814 22.7805 161.227 23.8864 163.726 23.8864ZM163.745 18.044C162.217 18.044 161.412 16.8551 161.412 15.0462C161.412 13.2628 162.205 11.9524 163.745 11.9524C165.234 11.9524 166.053 13.1861 166.053 15.0462C166.053 16.919 165.222 18.044 163.745 18.044Z" fill="#2B5F4D"/>
<path opacity="0.7" d="M85.3863 38.2727H83.8821L81.713 39.6662V41.1151L83.7542 39.8111H83.8054V47H85.3863V38.2727ZM90.6321 38.1534C88.74 38.1406 87.4829 39.4403 87.4829 41.1449C87.4872 42.7898 88.659 43.9787 90.1889 43.9787C91.1306 43.9787 91.9488 43.5227 92.3707 42.7727H92.4304C92.4261 44.6392 91.7485 45.7514 90.5426 45.7514C89.7883 45.7514 89.2812 45.3168 89.1235 44.6222H87.5681C87.7471 46.0668 88.8892 47.1193 90.5426 47.1193C92.6349 47.1193 93.9687 45.3722 93.9644 42.3679C93.9602 39.1889 92.3068 38.1619 90.6321 38.1534ZM90.6363 39.4318C91.5696 39.4318 92.2556 40.2074 92.2556 41.098C92.2599 42.0014 91.5397 42.777 90.6193 42.777C89.6903 42.777 89.0213 42.044 89.017 41.1108C89.017 40.1733 89.7116 39.4318 90.6363 39.4318ZM98.6093 47.1662C100.714 47.1705 101.972 45.5085 101.972 42.6449C101.972 39.7983 100.706 38.1534 98.6093 38.1534C96.5127 38.1534 95.2514 39.794 95.2471 42.6449C95.2471 45.5043 96.5042 47.1662 98.6093 47.1662ZM98.6093 45.8324C97.5227 45.8324 96.8409 44.7415 96.8451 42.6449C96.8494 40.5653 97.5269 39.4702 98.6093 39.4702C99.696 39.4702 100.374 40.5653 100.378 42.6449C100.378 44.7415 99.7002 45.8324 98.6093 45.8324ZM69.6464 59C69.3226 57.2102 67.8908 56.1534 66.1351 56.1534C63.9021 56.1534 62.2828 57.875 62.2828 60.6364C62.2828 63.3977 63.9021 65.1193 66.1351 65.1193C67.8908 65.1193 69.3226 64.0625 69.6464 62.2727H68.5896C68.3339 63.483 67.2942 64.1307 66.1351 64.1307C64.5498 64.1307 63.3055 62.9034 63.3055 60.6364C63.3055 58.3693 64.5498 57.142 66.1351 57.142C67.2942 57.142 68.3339 57.7898 68.5896 59H69.6464ZM73.8769 65.1364C75.6496 65.1364 76.8428 63.7898 76.8428 61.7614C76.8428 59.7159 75.6496 58.3693 73.8769 58.3693C72.1042 58.3693 70.911 59.7159 70.911 61.7614C70.911 63.7898 72.1042 65.1364 73.8769 65.1364ZM73.8769 64.233C72.5303 64.233 71.9167 63.0739 71.9167 61.7614C71.9167 60.4489 72.5303 59.2727 73.8769 59.2727C75.2235 59.2727 75.8371 60.4489 75.8371 61.7614C75.8371 63.0739 75.2235 64.233 73.8769 64.233ZM78.378 65H79.3837V60.9091C79.3837 59.9503 80.0825 59.2727 80.8666 59.2727C81.6294 59.2727 82.1621 59.7713 82.1621 60.517V65H83.1848V60.7386C83.1848 59.8949 83.7132 59.2727 84.6337 59.2727C85.3496 59.2727 85.9632 59.652 85.9632 60.6193V65H86.9689V60.6193C86.9689 59.081 86.1422 58.3693 84.9746 58.3693C84.0371 58.3693 83.351 58.7997 83.0143 59.4773H82.9462C82.6223 58.7784 82.0513 58.3693 81.1905 58.3693C80.3382 58.3693 79.7075 58.7784 79.4348 59.4773H79.3496V58.4545H78.378V65ZM88.8077 67.4545H89.8133V63.9943H89.8986C90.1202 64.3523 90.5463 65.1364 91.8077 65.1364C93.444 65.1364 94.5861 63.8239 94.5861 61.7443C94.5861 59.6818 93.444 58.3693 91.7906 58.3693C90.5122 58.3693 90.1202 59.1534 89.8986 59.4943H89.7793V58.4545H88.8077V67.4545ZM89.7963 61.7273C89.7963 60.2614 90.444 59.2727 91.6713 59.2727C92.9497 59.2727 93.5804 60.3466 93.5804 61.7273C93.5804 63.125 92.9327 64.233 91.6713 64.233C90.4611 64.233 89.7963 63.2102 89.7963 61.7273ZM98.0463 65.1534C99.1883 65.1534 99.7849 64.5398 99.9895 64.1136H100.041V65H101.046V60.6875C101.046 58.608 99.4611 58.3693 98.6258 58.3693C97.6372 58.3693 96.5122 58.7102 96.0008 59.9034L96.9554 60.2443C97.177 59.767 97.7011 59.2557 98.6599 59.2557C99.5847 59.2557 100.041 59.7457 100.041 60.5852V60.6193C100.041 61.1051 99.5463 61.0625 98.3531 61.2159C97.1386 61.3736 95.8133 61.642 95.8133 63.142C95.8133 64.4205 96.802 65.1534 98.0463 65.1534ZM98.1997 64.25C97.3986 64.25 96.819 63.892 96.819 63.1932C96.819 62.4261 97.5179 62.1875 98.302 62.0852C98.7281 62.0341 99.8702 61.9148 100.041 61.7102V62.6307C100.041 63.4489 99.3929 64.25 98.1997 64.25ZM103.888 61.0625C103.888 59.9205 104.595 59.2727 105.558 59.2727C106.491 59.2727 107.058 59.8821 107.058 60.9091V65H108.064V60.8409C108.064 59.1705 107.173 58.3693 105.848 58.3693C104.859 58.3693 104.246 58.8125 103.939 59.4773H103.853V58.4545H102.882V65H103.888V61.0625ZM109.901 65H110.907V58.4545H109.901V65ZM110.413 57.3636C110.805 57.3636 111.129 57.0568 111.129 56.6818C111.129 56.3068 110.805 56 110.413 56C110.021 56 109.697 56.3068 109.697 56.6818C109.697 57.0568 110.021 57.3636 110.413 57.3636ZM115.493 65.1364C116.823 65.1364 117.795 64.4716 118.101 63.483L117.13 63.2102C116.874 63.892 116.282 64.233 115.493 64.233C114.313 64.233 113.499 63.4702 113.452 62.0682H118.204V61.642C118.204 59.2045 116.755 58.3693 115.391 58.3693C113.618 58.3693 112.442 59.767 112.442 61.7784C112.442 63.7898 113.601 65.1364 115.493 65.1364ZM113.452 61.1989C113.52 60.1804 114.241 59.2727 115.391 59.2727C116.482 59.2727 117.181 60.0909 117.181 61.1989H113.452ZM124.37 59.9205C124.054 58.9915 123.347 58.3693 122.052 58.3693C120.671 58.3693 119.648 59.1534 119.648 60.2614C119.648 61.1648 120.185 61.7699 121.387 62.0511L122.478 62.3068C123.138 62.4602 123.449 62.7756 123.449 63.2273C123.449 63.7898 122.853 64.25 121.915 64.25C121.093 64.25 120.577 63.8963 120.398 63.1932L119.444 63.4318C119.678 64.544 120.594 65.1364 121.932 65.1364C123.454 65.1364 124.489 64.3054 124.489 63.1761C124.489 62.2642 123.918 61.6889 122.75 61.4034L121.779 61.1648C121.003 60.973 120.654 60.7131 120.654 60.2102C120.654 59.6477 121.25 59.2386 122.052 59.2386C122.929 59.2386 123.292 59.7244 123.466 60.1761L124.37 59.9205Z" fill="#2B5F4D"/>
</svg>
