<svg width="78" height="114" viewBox="0 0 78 114" fill="none" xmlns="http://www.w3.org/2000/svg">
<path d="M53.6667 4.85733C49.7127 4.85733 43.8807 3.786 39.3701 0.778665C39.2605 0.705572 39.1318 0.666565 39.0001 0.666565C38.8684 0.666565 38.7396 0.705572 38.6301 0.778665C34.1194 3.786 28.2874 4.85733 24.3334 4.85733C24.1566 4.85733 23.987 4.92757 23.862 5.05259C23.737 5.17762 23.6667 5.34719 23.6667 5.524C23.6667 17.6073 29.3007 27.2353 38.7374 31.2793C38.8204 31.3149 38.9098 31.3333 39.0001 31.3333C39.0904 31.3333 39.1797 31.3149 39.2627 31.2793C48.6994 27.2353 54.3334 17.6073 54.3334 5.524C54.3334 5.34719 54.2632 5.17762 54.1382 5.05259C54.0131 4.92757 53.8436 4.85733 53.6667 4.85733ZM38.3334 2.53333V15.3333H26.4521C25.5327 12.3678 25.0457 9.28519 25.0061 6.18067C29.6762 6.04789 34.2465 4.79714 38.3334 2.53333ZM39.6667 29.614V16.6667H51.0881C49.1201 22.309 45.0201 26.9559 39.6667 29.6113V29.614Z" fill="#D38120"/>
<path d="M4.01349 48.3636H1.90554V60H4.01349V48.3636ZM8.26207 54.8864C8.26207 53.625 9.02344 52.8977 10.1087 52.8977C11.1712 52.8977 11.8075 53.5966 11.8075 54.7614V60H13.8643V54.4432C13.87 52.3523 12.6768 51.1591 10.8757 51.1591C9.56889 51.1591 8.67116 51.7841 8.27344 52.7557H8.17116V51.2727H6.20526V60H8.26207V54.8864ZM22.853 53.5795C22.5689 52.1023 21.3871 51.1591 19.3416 51.1591C17.2393 51.1591 15.8075 52.1932 15.8132 53.8068C15.8075 55.0795 16.5916 55.9205 18.2678 56.267L19.7564 56.5795C20.5575 56.7557 20.9325 57.0795 20.9325 57.5739C20.9325 58.1705 20.2848 58.6193 19.3075 58.6193C18.3643 58.6193 17.7507 58.2102 17.5746 57.4261L15.5689 57.6193C15.8246 59.2216 17.1712 60.1705 19.3132 60.1705C21.495 60.1705 23.0348 59.0398 23.0405 57.3864C23.0348 56.142 22.2337 55.3807 20.5859 55.0227L19.0973 54.7045C18.2109 54.5057 17.8587 54.1989 17.8643 53.6932C17.8587 53.1023 18.5121 52.6932 19.37 52.6932C20.3189 52.6932 20.8189 53.2102 20.978 53.7841L22.853 53.5795ZM30.299 56.3295C30.299 57.6591 29.3501 58.3182 28.4411 58.3182C27.4524 58.3182 26.7933 57.6193 26.7933 56.5114V51.2727H24.7365V56.8295C24.7365 58.9261 25.9297 60.1136 27.6456 60.1136C28.9524 60.1136 29.8729 59.4261 30.2706 58.4489H30.3615V60H32.3558V51.2727H30.299V56.3295ZM34.4709 60H36.5277V54.8693C36.5277 53.7614 37.3629 52.9773 38.4936 52.9773C38.8402 52.9773 39.272 53.0398 39.4482 53.0966V51.2045C39.2607 51.1705 38.9368 51.1477 38.7095 51.1477C37.7095 51.1477 36.8743 51.7159 36.5561 52.7273H36.4652V51.2727H34.4709V60ZM43.1541 60.1761C44.5234 60.1761 45.3416 59.5341 45.7166 58.8011H45.7848V60H47.7621V54.1591C47.7621 51.8523 45.8814 51.1591 44.2166 51.1591C42.3814 51.1591 40.9723 51.9773 40.5178 53.5682L42.4382 53.8409C42.6428 53.2443 43.2223 52.733 44.228 52.733C45.1825 52.733 45.7053 53.2216 45.7053 54.0795V54.1136C45.7053 54.7045 45.0859 54.733 43.5462 54.8977C41.853 55.0795 40.2337 55.5852 40.2337 57.5511C40.2337 59.267 41.4893 60.1761 43.1541 60.1761ZM43.6882 58.6648C42.8303 58.6648 42.2166 58.2727 42.2166 57.517C42.2166 56.7273 42.9041 56.3977 43.8246 56.267C44.3643 56.1932 45.4439 56.0568 45.7109 55.8409V56.8693C45.7109 57.8409 44.9268 58.6648 43.6882 58.6648ZM51.8871 54.8864C51.8871 53.625 52.6484 52.8977 53.7337 52.8977C54.7962 52.8977 55.4325 53.5966 55.4325 54.7614V60H57.4893V54.4432C57.495 52.3523 56.3018 51.1591 54.5007 51.1591C53.1939 51.1591 52.2962 51.7841 51.8984 52.7557H51.7962V51.2727H49.8303V60H51.8871V54.8864ZM63.3871 60.1705C65.5803 60.1705 66.978 58.8693 67.1257 57.017H65.1598C64.9837 57.9545 64.3075 58.4943 63.4041 58.4943C62.12 58.4943 61.2905 57.4205 61.2905 55.6364C61.2905 53.875 62.1371 52.8182 63.4041 52.8182C64.3928 52.8182 65.0007 53.4545 65.1598 54.2955H67.1257C66.9837 52.4034 65.5064 51.1591 63.3757 51.1591C60.8189 51.1591 59.2053 53.0057 59.2053 55.6705C59.2053 58.3125 60.7791 60.1705 63.3871 60.1705ZM72.6783 60.1705C74.7124 60.1705 76.1101 59.1761 76.4737 57.6591L74.5533 57.4432C74.2749 58.1818 73.593 58.5682 72.7067 58.5682C71.3771 58.5682 70.4964 57.6932 70.4794 56.1989H76.5589V55.5682C76.5589 52.5057 74.718 51.1591 72.5703 51.1591C70.0703 51.1591 68.4396 52.9943 68.4396 55.6875C68.4396 58.4261 70.0476 60.1705 72.6783 60.1705ZM70.4851 54.8125C70.5476 53.6989 71.3714 52.7614 72.5987 52.7614C73.7805 52.7614 74.576 53.625 74.5874 54.8125H70.4851Z" fill="#D38120"/>
<path d="M22.4435 81H28.4265V79.679H24.6254V79.6193L26.1296 78.0895C27.8256 76.4616 28.2944 75.669 28.2944 74.6847C28.2944 73.223 27.1055 72.1534 25.3498 72.1534C23.6197 72.1534 22.3924 73.2273 22.3924 74.8849H23.8967C23.8967 73.9943 24.4592 73.4361 25.3285 73.4361C26.1594 73.4361 26.7773 73.9432 26.7773 74.7656C26.7773 75.4943 26.3342 76.0142 25.4734 76.8878L22.4435 79.858V81ZM31.7248 79.8068H30.3612L30.3313 80.2841C30.2589 81.4389 29.9563 82.6151 29.8327 83.1307H30.8725C31.0771 82.5938 31.5501 81.3494 31.6694 80.2756L31.7248 79.8068ZM36.3217 81.1662C38.4268 81.1705 39.6839 79.5085 39.6839 76.6449C39.6839 73.7983 38.4183 72.1534 36.3217 72.1534C34.2251 72.1534 32.9638 73.794 32.9595 76.6449C32.9595 79.5043 34.2166 81.1662 36.3217 81.1662ZM36.3217 79.8324C35.2351 79.8324 34.5533 78.7415 34.5575 76.6449C34.5618 74.5653 35.2393 73.4702 36.3217 73.4702C37.4084 73.4702 38.0859 74.5653 38.0902 76.6449C38.0902 78.7415 37.4126 79.8324 36.3217 79.8324ZM44.3256 81.1662C46.4308 81.1705 47.6879 79.5085 47.6879 76.6449C47.6879 73.7983 46.4222 72.1534 44.3256 72.1534C42.229 72.1534 40.9677 73.794 40.9634 76.6449C40.9634 79.5043 42.2205 81.1662 44.3256 81.1662ZM44.3256 79.8324C43.239 79.8324 42.5572 78.7415 42.5614 76.6449C42.5657 74.5653 43.2433 73.4702 44.3256 73.4702C45.4123 73.4702 46.0898 74.5653 46.0941 76.6449C46.0941 78.7415 45.4165 79.8324 44.3256 79.8324ZM52.3295 81.1662C54.4347 81.1705 55.6918 79.5085 55.6918 76.6449C55.6918 73.7983 54.4261 72.1534 52.3295 72.1534C50.233 72.1534 48.9716 73.794 48.9673 76.6449C48.9673 79.5043 50.2244 81.1662 52.3295 81.1662ZM52.3295 79.8324C51.2429 79.8324 50.5611 78.7415 50.5653 76.6449C50.5696 74.5653 51.2472 73.4702 52.3295 73.4702C53.4162 73.4702 54.0938 74.5653 54.098 76.6449C54.098 78.7415 53.4205 79.8324 52.3295 79.8324ZM15.3217 103C14.9979 101.21 13.5661 100.153 11.8104 100.153C9.57741 100.153 7.9581 101.875 7.9581 104.636C7.9581 107.398 9.57741 109.119 11.8104 109.119C13.5661 109.119 14.9979 108.062 15.3217 106.273H14.2649C14.0092 107.483 12.9695 108.131 11.8104 108.131C10.2251 108.131 8.98082 106.903 8.98082 104.636C8.98082 102.369 10.2251 101.142 11.8104 101.142C12.9695 101.142 14.0092 101.79 14.2649 103H15.3217ZM19.5522 109.136C21.3249 109.136 22.5181 107.79 22.5181 105.761C22.5181 103.716 21.3249 102.369 19.5522 102.369C17.7795 102.369 16.5863 103.716 16.5863 105.761C16.5863 107.79 17.7795 109.136 19.5522 109.136ZM19.5522 108.233C18.2056 108.233 17.592 107.074 17.592 105.761C17.592 104.449 18.2056 103.273 19.5522 103.273C20.8988 103.273 21.5124 104.449 21.5124 105.761C21.5124 107.074 20.8988 108.233 19.5522 108.233ZM24.0533 109H25.0589V104.909C25.0589 103.95 25.7578 103.273 26.5419 103.273C27.3047 103.273 27.8374 103.771 27.8374 104.517V109H28.8601V104.739C28.8601 103.895 29.3885 103.273 30.3089 103.273C31.0249 103.273 31.6385 103.652 31.6385 104.619V109H32.6442V104.619C32.6442 103.081 31.8175 102.369 30.6499 102.369C29.7124 102.369 29.0263 102.8 28.6896 103.477H28.6214C28.2976 102.778 27.7266 102.369 26.8658 102.369C26.0135 102.369 25.3828 102.778 25.1101 103.477H25.0249V102.455H24.0533V109ZM34.483 111.455H35.4886V107.994H35.5739C35.7955 108.352 36.2216 109.136 37.483 109.136C39.1193 109.136 40.2614 107.824 40.2614 105.744C40.2614 103.682 39.1193 102.369 37.4659 102.369C36.1875 102.369 35.7955 103.153 35.5739 103.494H35.4545V102.455H34.483V111.455ZM35.4716 105.727C35.4716 104.261 36.1193 103.273 37.3466 103.273C38.625 103.273 39.2557 104.347 39.2557 105.727C39.2557 107.125 38.608 108.233 37.3466 108.233C36.1364 108.233 35.4716 107.21 35.4716 105.727ZM43.7216 109.153C44.8636 109.153 45.4602 108.54 45.6648 108.114H45.7159V109H46.7216V104.688C46.7216 102.608 45.1364 102.369 44.3011 102.369C43.3125 102.369 42.1875 102.71 41.6761 103.903L42.6307 104.244C42.8523 103.767 43.3764 103.256 44.3352 103.256C45.2599 103.256 45.7159 103.746 45.7159 104.585V104.619C45.7159 105.105 45.2216 105.062 44.0284 105.216C42.8139 105.374 41.4886 105.642 41.4886 107.142C41.4886 108.42 42.4773 109.153 43.7216 109.153ZM43.875 108.25C43.0739 108.25 42.4943 107.892 42.4943 107.193C42.4943 106.426 43.1932 106.188 43.9773 106.085C44.4034 106.034 45.5455 105.915 45.7159 105.71V106.631C45.7159 107.449 45.0682 108.25 43.875 108.25ZM49.5629 105.062C49.5629 103.92 50.2702 103.273 51.2333 103.273C52.1665 103.273 52.7333 103.882 52.7333 104.909V109H53.739V104.841C53.739 103.17 52.8484 102.369 51.5231 102.369C50.5344 102.369 49.9208 102.812 49.614 103.477H49.5288V102.455H48.5572V109H49.5629V105.062ZM55.5767 109H56.5824V102.455H55.5767V109ZM56.0881 101.364C56.4801 101.364 56.804 101.057 56.804 100.682C56.804 100.307 56.4801 100 56.0881 100C55.696 100 55.3722 100.307 55.3722 100.682C55.3722 101.057 55.696 101.364 56.0881 101.364ZM61.1687 109.136C62.4982 109.136 63.4698 108.472 63.7766 107.483L62.805 107.21C62.5494 107.892 61.957 108.233 61.1687 108.233C59.9883 108.233 59.1744 107.47 59.1275 106.068H63.8789V105.642C63.8789 103.205 62.43 102.369 61.0664 102.369C59.2937 102.369 58.1175 103.767 58.1175 105.778C58.1175 107.79 59.2766 109.136 61.1687 109.136ZM59.1275 105.199C59.1957 104.18 59.9158 103.273 61.0664 103.273C62.1573 103.273 62.8562 104.091 62.8562 105.199H59.1275ZM70.0451 103.92C69.7298 102.991 69.0224 102.369 67.7269 102.369C66.3462 102.369 65.3235 103.153 65.3235 104.261C65.3235 105.165 65.8604 105.77 67.0621 106.051L68.1531 106.307C68.8136 106.46 69.1246 106.776 69.1246 107.227C69.1246 107.79 68.5281 108.25 67.5906 108.25C66.7681 108.25 66.2525 107.896 66.0735 107.193L65.119 107.432C65.3533 108.544 66.2695 109.136 67.6076 109.136C69.1289 109.136 70.1644 108.305 70.1644 107.176C70.1644 106.264 69.5934 105.689 68.4258 105.403L67.4542 105.165C66.6786 104.973 66.3292 104.713 66.3292 104.21C66.3292 103.648 66.9258 103.239 67.7269 103.239C68.6048 103.239 68.967 103.724 69.1417 104.176L70.0451 103.92Z" fill="#D38120"/>
</svg>
