<svg width="186" height="100" viewBox="0 0 186 100" fill="none" xmlns="http://www.w3.org/2000/svg">
<path d="M51.0475 20.5H59.1846V18.5121H53.419V7.40909H51.0475V20.5ZM65.4872 20.6918C67.7755 20.6918 69.348 19.5732 69.7571 17.8665L67.5965 17.6236C67.2833 18.4545 66.5163 18.8892 65.5191 18.8892C64.0234 18.8892 63.0326 17.9048 63.0135 16.2237H69.8529V15.5142C69.8529 12.0689 67.7819 10.554 65.3657 10.554C62.5532 10.554 60.7187 12.6186 60.7187 15.6484C60.7187 18.7294 62.5277 20.6918 65.4872 20.6918ZM63.0198 14.6641C63.0902 13.4112 64.017 12.3565 65.3977 12.3565C66.7272 12.3565 67.6221 13.3281 67.6349 14.6641H63.0198ZM74.1244 14.7472C74.1244 13.3281 74.981 12.5099 76.2018 12.5099C77.3972 12.5099 78.1131 13.2962 78.1131 14.6065V20.5H80.427V14.2486C80.4334 11.8963 79.091 10.554 77.0648 10.554C75.5946 10.554 74.5847 11.2571 74.1372 12.3501H74.0222V10.6818H71.8105V20.5H74.1244V14.7472ZM86.4227 20.6726C88.1102 20.6726 88.8709 19.669 89.2352 18.9531H89.3758V20.5H91.6514V7.40909H89.3311V12.3054H89.2352C88.8837 11.5959 88.1614 10.554 86.4291 10.554C84.1599 10.554 82.3766 12.331 82.3766 15.6037C82.3766 18.8381 84.1088 20.6726 86.4227 20.6726ZM87.0683 18.7741C85.5406 18.7741 84.7352 17.4318 84.7352 15.5909C84.7352 13.7628 85.5278 12.4524 87.0683 12.4524C88.5577 12.4524 89.3758 13.6861 89.3758 15.5909C89.3758 17.4957 88.5449 18.7741 87.0683 18.7741ZM94.1171 20.5H96.4311V10.6818H94.1171V20.5ZM95.2805 9.28835C96.0156 9.28835 96.6164 8.72585 96.6164 8.03551C96.6164 7.33878 96.0156 6.77628 95.2805 6.77628C94.539 6.77628 93.9382 7.33878 93.9382 8.03551C93.9382 8.72585 94.539 9.28835 95.2805 9.28835ZM101.124 14.7472C101.124 13.3281 101.981 12.5099 103.202 12.5099C104.397 12.5099 105.113 13.2962 105.113 14.6065V20.5H107.427V14.2486C107.433 11.8963 106.091 10.554 104.065 10.554C102.595 10.554 101.585 11.2571 101.137 12.3501H101.022V10.6818H98.8105V20.5H101.124V14.7472ZM114.049 24.3864C116.702 24.3864 118.658 23.1719 118.658 20.6598V10.6818H116.376V12.3054H116.248C115.896 11.5959 115.161 10.554 113.429 10.554C111.16 10.554 109.377 12.331 109.377 15.5589C109.377 18.7614 111.16 20.3594 113.423 20.3594C115.104 20.3594 115.89 19.4581 116.248 18.7358H116.363V20.5959C116.363 22.0405 115.404 22.6349 114.087 22.6349C112.694 22.6349 112.08 21.9766 111.799 21.4013L109.715 21.9062C110.137 23.2805 111.55 24.3864 114.049 24.3864ZM114.068 18.544C112.541 18.544 111.735 17.3551 111.735 15.5462C111.735 13.7628 112.528 12.4524 114.068 12.4524C115.558 12.4524 116.376 13.6861 116.376 15.5462C116.376 17.419 115.545 18.544 114.068 18.544ZM129.406 20.6918C130.563 20.6918 131.848 20.3338 132.762 19.5412L133.599 20.5H136.105L134.187 18.2564C134.826 17.3999 135.325 16.1278 135.325 14.3317H133.337C133.337 15.1946 133.133 15.968 132.787 16.6136L130.397 13.8139L131.221 13.2067C132.314 12.4141 132.96 11.4616 132.96 10.2216C132.96 8.62358 131.701 7.24929 129.636 7.24929C127.565 7.24929 126.204 8.62358 126.204 10.4837C126.204 11.6534 126.792 12.6058 127.546 13.5391C126.089 14.5426 125.091 15.4822 125.091 17.0227C125.091 19.1065 126.728 20.6918 129.406 20.6918ZM131.503 18.0966C130.883 18.544 130.173 18.7869 129.476 18.7869C128.192 18.7869 127.361 17.956 127.361 16.9205C127.361 16.4666 127.706 15.7827 128.575 15.1435L128.786 14.9901L131.503 18.0966ZM129.214 12.4013C128.665 11.7237 128.268 11.1165 128.268 10.5156C128.268 9.80611 128.831 9.14773 129.668 9.14773C130.493 9.14773 130.998 9.76136 130.998 10.3239C130.998 10.9886 130.64 11.4553 129.956 11.8963L129.214 12.4013ZM43.5497 37.826C43.147 34.9176 40.9098 33.2301 38.0078 33.2301C34.588 33.2301 32.012 35.723 32.012 39.9545C32.012 44.1797 34.5561 46.679 38.0078 46.679C41.1207 46.679 43.1853 44.6655 43.5497 42.1662L41.159 42.1534C40.8586 43.6875 39.6058 44.5504 38.0397 44.5504C35.9176 44.5504 34.3963 42.9588 34.3963 39.9545C34.3963 37.0014 35.9048 35.3587 38.0461 35.3587C39.6377 35.3587 40.8842 36.2599 41.159 37.826H43.5497ZM45.6191 46.5H47.933V40.728C47.933 39.4815 48.8726 38.5994 50.1447 38.5994C50.5346 38.5994 51.0204 38.6697 51.2185 38.7337V36.6051C51.0076 36.5668 50.6432 36.5412 50.3876 36.5412C49.2626 36.5412 48.3229 37.1804 47.965 38.3182H47.8627V36.6818H45.6191V46.5ZM56.6342 46.6918C59.5106 46.6918 61.3387 44.6655 61.3387 41.6293C61.3387 38.5866 59.5106 36.554 56.6342 36.554C53.7578 36.554 51.9296 38.5866 51.9296 41.6293C51.9296 44.6655 53.7578 46.6918 56.6342 46.6918ZM56.647 44.8381C55.0554 44.8381 54.2755 43.419 54.2755 41.6229C54.2755 39.8267 55.0554 38.3885 56.647 38.3885C58.213 38.3885 58.9929 39.8267 58.9929 41.6229C58.9929 43.419 58.213 44.8381 56.647 44.8381ZM65.0653 46.5H67.4815L69.3224 39.8651H69.4566L71.2975 46.5H73.7073L76.4879 36.6818H74.1228L72.4225 43.5469H72.3267L70.5625 36.6818H68.2294L66.4652 43.5852H66.3757L64.6498 36.6818H62.2911L65.0653 46.5ZM81.4833 46.6726C83.1708 46.6726 83.9314 45.669 84.2958 44.9531H84.4364V46.5H86.712V33.4091H84.3916V38.3054H84.2958C83.9442 37.5959 83.2219 36.554 81.4897 36.554C79.2205 36.554 77.4371 38.331 77.4371 41.6037C77.4371 44.8381 79.1693 46.6726 81.4833 46.6726ZM82.1289 44.7741C80.6012 44.7741 79.7958 43.4318 79.7958 41.5909C79.7958 39.7628 80.5884 38.4524 82.1289 38.4524C83.6182 38.4524 84.4364 39.6861 84.4364 41.5909C84.4364 43.4957 83.6054 44.7741 82.1289 44.7741ZM94.1507 36.6818H92.1116V35.9084C92.1116 35.1413 92.4312 34.7131 93.2942 34.7131C93.6585 34.7131 93.9653 34.7962 94.1571 34.8537L94.6237 33.0639C94.3233 32.9616 93.6649 32.7955 92.8659 32.7955C91.1592 32.7955 89.7977 33.7734 89.7977 35.755V36.6818H88.3467V38.4716H89.7977V46.5H92.1116V38.4716H94.1507V36.6818ZM102.221 42.3707C102.221 43.8665 101.153 44.608 100.13 44.608C99.0182 44.608 98.2768 43.8217 98.2768 42.5753V36.6818H95.9628V42.9332C95.9628 45.2919 97.3052 46.6278 99.2356 46.6278C100.706 46.6278 101.741 45.8544 102.189 44.755H102.291V46.5H104.535V36.6818H102.221V42.3707ZM109.228 40.7472C109.228 39.3281 110.084 38.5099 111.305 38.5099C112.501 38.5099 113.217 39.2962 113.217 40.6065V46.5H115.53V40.2486C115.537 37.8963 114.195 36.554 112.168 36.554C110.698 36.554 109.688 37.2571 109.241 38.3501H109.126V36.6818H106.914V46.5H109.228V40.7472ZM121.526 46.6726C123.214 46.6726 123.974 45.669 124.339 44.9531H124.479V46.5H126.755V33.4091H124.435V38.3054H124.339C123.987 37.5959 123.265 36.554 121.533 36.554C119.263 36.554 117.48 38.331 117.48 41.6037C117.48 44.8381 119.212 46.6726 121.526 46.6726ZM122.172 44.7741C120.644 44.7741 119.839 43.4318 119.839 41.5909C119.839 39.7628 120.631 38.4524 122.172 38.4524C123.661 38.4524 124.479 39.6861 124.479 41.5909C124.479 43.4957 123.648 44.7741 122.172 44.7741ZM129.221 46.5H131.535V36.6818H129.221V46.5ZM130.384 35.2884C131.119 35.2884 131.72 34.7259 131.72 34.0355C131.72 33.3388 131.119 32.7763 130.384 32.7763C129.643 32.7763 129.042 33.3388 129.042 34.0355C129.042 34.7259 129.643 35.2884 130.384 35.2884ZM136.228 40.7472C136.228 39.3281 137.084 38.5099 138.305 38.5099C139.501 38.5099 140.217 39.2962 140.217 40.6065V46.5H142.53V40.2486C142.537 37.8963 141.195 36.554 139.168 36.554C137.698 36.554 136.688 37.2571 136.241 38.3501H136.126V36.6818H133.914V46.5H136.228V40.7472ZM149.153 50.3864C151.805 50.3864 153.761 49.1719 153.761 46.6598V36.6818H151.479V38.3054H151.352C151 37.5959 150.265 36.554 148.533 36.554C146.263 36.554 144.48 38.331 144.48 41.5589C144.48 44.7614 146.263 46.3594 148.526 46.3594C150.207 46.3594 150.994 45.4581 151.352 44.7358H151.467V46.5959C151.467 48.0405 150.508 48.6349 149.191 48.6349C147.798 48.6349 147.184 47.9766 146.903 47.4013L144.819 47.9062C145.241 49.2805 146.653 50.3864 149.153 50.3864ZM149.172 44.544C147.644 44.544 146.839 43.3551 146.839 41.5462C146.839 39.7628 147.631 38.4524 149.172 38.4524C150.661 38.4524 151.479 39.6861 151.479 41.5462C151.479 43.419 150.648 44.544 149.172 44.544Z" fill="#2B5F4D"/>
<path opacity="0.7" d="M74.7761 76.5H80.759V75.179H76.9579V75.1193L78.4621 73.5895C80.1582 71.9616 80.6269 71.169 80.6269 70.1847C80.6269 68.723 79.438 67.6534 77.6823 67.6534C75.9522 67.6534 74.7249 68.7273 74.7249 70.3849H76.2292C76.2292 69.4943 76.7917 68.9361 77.661 68.9361C78.492 68.9361 79.1099 69.4432 79.1099 70.2656C79.1099 70.9943 78.6667 71.5142 77.8059 72.3878L74.7761 75.358V76.5ZM84.0573 75.3068H82.6937L82.6638 75.7841C82.5914 76.9389 82.2888 78.1151 82.1653 78.6307H83.205C83.4096 78.0938 83.8826 76.8494 84.0019 75.7756L84.0573 75.3068ZM88.6074 76.6193C90.4739 76.6193 91.8332 75.5497 91.829 74.0753C91.8332 72.9844 91.1514 72.2003 89.9284 72.0256V71.9574C90.8744 71.7528 91.5094 71.0497 91.5051 70.0696C91.5094 68.7401 90.3758 67.6534 88.6329 67.6534C86.9369 67.6534 85.6244 68.6634 85.5903 70.125H87.1116C87.1372 69.392 87.819 68.9361 88.6244 68.9361C89.4383 68.9361 89.9795 69.4304 89.9753 70.1634C89.9795 70.9261 89.3489 71.4332 88.4454 71.4332H87.6741V72.652H88.4454C89.5491 72.652 90.2054 73.206 90.2011 73.9943C90.2054 74.7656 89.5364 75.294 88.6031 75.294C87.7253 75.294 87.0477 74.8381 87.0094 74.1264H85.4071C85.4497 75.6009 86.7665 76.6193 88.6074 76.6193ZM96.5175 76.6662C98.6226 76.6705 99.8797 75.0085 99.8797 72.1449C99.8797 69.2983 98.6141 67.6534 96.5175 67.6534C94.4209 67.6534 93.1596 69.294 93.1553 72.1449C93.1553 75.0043 94.4124 76.6662 96.5175 76.6662ZM96.5175 75.3324C95.4309 75.3324 94.7491 74.2415 94.7533 72.1449C94.7576 70.0653 95.4351 68.9702 96.5175 68.9702C97.6042 68.9702 98.2817 70.0653 98.286 72.1449C98.286 74.2415 97.6084 75.3324 96.5175 75.3324ZM104.521 76.6662C106.627 76.6705 107.884 75.0085 107.884 72.1449C107.884 69.2983 106.618 67.6534 104.521 67.6534C102.425 67.6534 101.163 69.294 101.159 72.1449C101.159 75.0043 102.416 76.6662 104.521 76.6662ZM104.521 75.3324C103.435 75.3324 102.753 74.2415 102.757 72.1449C102.761 70.0653 103.439 68.9702 104.521 68.9702C105.608 68.9702 106.286 70.0653 106.29 72.1449C106.29 74.2415 105.612 75.3324 104.521 75.3324ZM69.3203 88.5C68.9964 86.7102 67.5646 85.6534 65.8089 85.6534C63.576 85.6534 61.9566 87.375 61.9566 90.1364C61.9566 92.8977 63.576 94.6193 65.8089 94.6193C67.5646 94.6193 68.9964 93.5625 69.3203 91.7727H68.2635C68.0078 92.983 66.968 93.6307 65.8089 93.6307C64.2237 93.6307 62.9794 92.4034 62.9794 90.1364C62.9794 87.8693 64.2237 86.642 65.8089 86.642C66.968 86.642 68.0078 87.2898 68.2635 88.5H69.3203ZM73.5507 94.6364C75.3235 94.6364 76.5166 93.2898 76.5166 91.2614C76.5166 89.2159 75.3235 87.8693 73.5507 87.8693C71.778 87.8693 70.5848 89.2159 70.5848 91.2614C70.5848 93.2898 71.778 94.6364 73.5507 94.6364ZM73.5507 93.733C72.2041 93.733 71.5905 92.5739 71.5905 91.2614C71.5905 89.9489 72.2041 88.7727 73.5507 88.7727C74.8973 88.7727 75.511 89.9489 75.511 91.2614C75.511 92.5739 74.8973 93.733 73.5507 93.733ZM78.0518 94.5H79.0575V90.4091C79.0575 89.4503 79.7563 88.7727 80.5404 88.7727C81.3032 88.7727 81.8359 89.2713 81.8359 90.017V94.5H82.8586V90.2386C82.8586 89.3949 83.387 88.7727 84.3075 88.7727C85.0234 88.7727 85.637 89.152 85.637 90.1193V94.5H86.6427V90.1193C86.6427 88.581 85.816 87.8693 84.6484 87.8693C83.7109 87.8693 83.0248 88.2997 82.6882 88.9773H82.62C82.2961 88.2784 81.7251 87.8693 80.8643 87.8693C80.012 87.8693 79.3813 88.2784 79.1086 88.9773H79.0234V87.9545H78.0518V94.5ZM88.4815 96.9545H89.4872V93.4943H89.5724C89.794 93.8523 90.2201 94.6364 91.4815 94.6364C93.1179 94.6364 94.2599 93.3239 94.2599 91.2443C94.2599 89.1818 93.1179 87.8693 91.4644 87.8693C90.186 87.8693 89.794 88.6534 89.5724 88.9943H89.4531V87.9545H88.4815V96.9545ZM89.4701 91.2273C89.4701 89.7614 90.1179 88.7727 91.3451 88.7727C92.6235 88.7727 93.2542 89.8466 93.2542 91.2273C93.2542 92.625 92.6065 93.733 91.3451 93.733C90.1349 93.733 89.4701 92.7102 89.4701 91.2273ZM97.7201 94.6534C98.8622 94.6534 99.4588 94.0398 99.6633 93.6136H99.7144V94.5H100.72V90.1875C100.72 88.108 99.1349 87.8693 98.2997 87.8693C97.311 87.8693 96.186 88.2102 95.6747 89.4034L96.6292 89.7443C96.8508 89.267 97.375 88.7557 98.3338 88.7557C99.2585 88.7557 99.7144 89.2457 99.7144 90.0852V90.1193C99.7144 90.6051 99.2201 90.5625 98.0269 90.7159C96.8125 90.8736 95.4872 91.142 95.4872 92.642C95.4872 93.9205 96.4758 94.6534 97.7201 94.6534ZM97.8735 93.75C97.0724 93.75 96.4929 93.392 96.4929 92.6932C96.4929 91.9261 97.1917 91.6875 97.9758 91.5852C98.4019 91.5341 99.544 91.4148 99.7144 91.2102V92.1307C99.7144 92.9489 99.0667 93.75 97.8735 93.75ZM103.561 90.5625C103.561 89.4205 104.269 88.7727 105.232 88.7727C106.165 88.7727 106.732 89.3821 106.732 90.4091V94.5H107.738V90.3409C107.738 88.6705 106.847 87.8693 105.522 87.8693C104.533 87.8693 103.919 88.3125 103.613 88.9773H103.527V87.9545H102.556V94.5H103.561V90.5625ZM109.575 94.5H110.581V87.9545H109.575V94.5ZM110.087 86.8636C110.479 86.8636 110.803 86.5568 110.803 86.1818C110.803 85.8068 110.479 85.5 110.087 85.5C109.695 85.5 109.371 85.8068 109.371 86.1818C109.371 86.5568 109.695 86.8636 110.087 86.8636ZM115.167 94.6364C116.497 94.6364 117.468 93.9716 117.775 92.983L116.804 92.7102C116.548 93.392 115.956 93.733 115.167 93.733C113.987 93.733 113.173 92.9702 113.126 91.5682H117.877V91.142C117.877 88.7045 116.429 87.8693 115.065 87.8693C113.292 87.8693 112.116 89.267 112.116 91.2784C112.116 93.2898 113.275 94.6364 115.167 94.6364ZM113.126 90.6989C113.194 89.6804 113.914 88.7727 115.065 88.7727C116.156 88.7727 116.855 89.5909 116.855 90.6989H113.126ZM124.044 89.4205C123.728 88.4915 123.021 87.8693 121.725 87.8693C120.345 87.8693 119.322 88.6534 119.322 89.7614C119.322 90.6648 119.859 91.2699 121.061 91.5511L122.152 91.8068C122.812 91.9602 123.123 92.2756 123.123 92.7273C123.123 93.2898 122.527 93.75 121.589 93.75C120.767 93.75 120.251 93.3963 120.072 92.6932L119.117 92.9318C119.352 94.044 120.268 94.6364 121.606 94.6364C123.127 94.6364 124.163 93.8054 124.163 92.6761C124.163 91.7642 123.592 91.1889 122.424 90.9034L121.453 90.6648C120.677 90.473 120.328 90.2131 120.328 89.7102C120.328 89.1477 120.924 88.7386 121.725 88.7386C122.603 88.7386 122.966 89.2244 123.14 89.6761L124.044 89.4205Z" fill="#2B5F4D"/>
</svg>
