<svg width="186" height="70" viewBox="0 0 186 70" fill="none" xmlns="http://www.w3.org/2000/svg">
<path d="M61.6374 6.90909H59.2787V15.8324H59.1637L53.0017 6.90909H50.8796V20H53.251V11.0831H53.3597L59.528 20H61.6374V6.90909ZM68.4657 20.1918C70.754 20.1918 72.3265 19.0732 72.7356 17.3665L70.5751 17.1236C70.2619 17.9545 69.4948 18.3892 68.4976 18.3892C67.0019 18.3892 66.0111 17.4048 65.992 15.7237H72.8315V15.0142C72.8315 11.5689 70.7604 10.054 68.3442 10.054C65.5317 10.054 63.6972 12.1186 63.6972 15.1484C63.6972 18.2294 65.5062 20.1918 68.4657 20.1918ZM65.9984 14.1641C66.0687 12.9112 66.9955 11.8565 68.3762 11.8565C69.7057 11.8565 70.6006 12.8281 70.6134 14.1641H65.9984ZM79.0717 20.1918C81.9481 20.1918 83.7762 18.1655 83.7762 15.1293C83.7762 12.0866 81.9481 10.054 79.0717 10.054C76.1953 10.054 74.3671 12.0866 74.3671 15.1293C74.3671 18.1655 76.1953 20.1918 79.0717 20.1918ZM79.0845 18.3381C77.4929 18.3381 76.713 16.919 76.713 15.1229C76.713 13.3267 77.4929 11.8885 79.0845 11.8885C80.6505 11.8885 81.4304 13.3267 81.4304 15.1229C81.4304 16.919 80.6505 18.3381 79.0845 18.3381ZM85.8425 20H88.118V18.4531H88.2523C88.6166 19.169 89.3773 20.1726 91.0648 20.1726C93.3787 20.1726 95.1109 18.3381 95.1109 15.1037C95.1109 11.831 93.3275 10.054 91.0584 10.054C89.3261 10.054 88.6038 11.0959 88.2523 11.8054H88.1564V6.90909H85.8425V20ZM88.1116 15.0909C88.1116 13.1861 88.9298 11.9524 90.4192 11.9524C91.9597 11.9524 92.7523 13.2628 92.7523 15.0909C92.7523 16.9318 91.9469 18.2741 90.4192 18.2741C88.9426 18.2741 88.1116 16.9957 88.1116 15.0909ZM99.9034 20.1982C101.444 20.1982 102.364 19.4759 102.786 18.6513H102.863V20H105.087V13.429C105.087 10.8338 102.972 10.054 101.099 10.054C99.034 10.054 97.4488 10.9744 96.9375 12.7642L99.098 13.071C99.3281 12.3999 99.9801 11.8246 101.111 11.8246C102.185 11.8246 102.773 12.3743 102.773 13.3395V13.3778C102.773 14.0426 102.077 14.0746 100.344 14.2599C98.4396 14.4645 96.6179 15.0334 96.6179 17.245C96.6179 19.1754 98.0305 20.1982 99.9034 20.1982ZM100.504 18.4979C99.539 18.4979 98.8487 18.0568 98.8487 17.2067C98.8487 16.3182 99.6221 15.9474 100.658 15.8004C101.265 15.7173 102.479 15.5639 102.78 15.321V16.478C102.78 17.571 101.898 18.4979 100.504 18.4979ZM109.728 14.2472C109.728 12.8281 110.584 12.0099 111.805 12.0099C113.001 12.0099 113.717 12.7962 113.717 14.1065V20H116.03V13.7486C116.037 11.3963 114.695 10.054 112.668 10.054C111.198 10.054 110.188 10.7571 109.741 11.8501H109.626V10.1818H107.414V20H109.728V14.2472ZM118.383 20H120.697V16.7017L121.54 15.8004L124.545 20H127.312L123.285 14.4197L127.089 10.1818H124.385L120.856 14.1257H120.697V6.90909H118.383V20ZM136.391 12.777C136.071 11.1151 134.742 10.054 132.44 10.054C130.075 10.054 128.465 11.2173 128.471 13.0327C128.465 14.4645 129.347 15.4105 131.232 15.8004L132.907 16.152C133.808 16.3501 134.23 16.7145 134.23 17.2706C134.23 17.9418 133.502 18.4467 132.402 18.4467C131.341 18.4467 130.651 17.9865 130.453 17.1044L128.196 17.3217C128.484 19.1243 129.999 20.1918 132.409 20.1918C134.863 20.1918 136.595 18.9197 136.602 17.0597C136.595 15.6598 135.694 14.8033 133.84 14.4006L132.166 14.0426C131.168 13.8189 130.772 13.4737 130.779 12.9048C130.772 12.2401 131.507 11.7798 132.472 11.7798C133.54 11.7798 134.102 12.3615 134.281 13.0071L136.391 12.777Z" fill="#2B5F4D"/>
<path opacity="0.7" d="M85.9557 38.2727H84.4514L82.2824 39.6662V41.1151L84.3236 39.8111H84.3747V47H85.9557V38.2727ZM88.1716 47H94.1545V45.679H90.3534V45.6193L91.8576 44.0895C93.5537 42.4616 94.0224 41.669 94.0224 40.6847C94.0224 39.223 92.8335 38.1534 91.0778 38.1534C89.3477 38.1534 88.1204 39.2273 88.1204 40.8849H89.6247C89.6247 39.9943 90.1872 39.4361 91.0565 39.4361C91.8875 39.4361 92.5054 39.9432 92.5054 40.7656C92.5054 41.4943 92.0622 42.0142 91.2014 42.8878L88.1716 45.858V47ZM95.6247 47H101.608V45.679H97.8065V45.6193L99.3108 44.0895C101.007 42.4616 101.476 41.669 101.476 40.6847C101.476 39.223 100.287 38.1534 98.5309 38.1534C96.8008 38.1534 95.5736 39.2273 95.5736 40.8849H97.0778C97.0778 39.9943 97.6403 39.4361 98.5096 39.4361C99.3406 39.4361 99.9585 39.9432 99.9585 40.7656C99.9585 41.4943 99.5153 42.0142 98.6545 42.8878L95.6247 45.858V47ZM69.7763 59C69.4525 57.2102 68.0206 56.1534 66.265 56.1534C64.032 56.1534 62.4127 57.875 62.4127 60.6364C62.4127 63.3977 64.032 65.1193 66.265 65.1193C68.0206 65.1193 69.4525 64.0625 69.7763 62.2727H68.7195C68.4638 63.483 67.4241 64.1307 66.265 64.1307C64.6797 64.1307 63.4354 62.9034 63.4354 60.6364C63.4354 58.3693 64.6797 57.142 66.265 57.142C67.4241 57.142 68.4638 57.7898 68.7195 59H69.7763ZM74.0068 65.1364C75.7795 65.1364 76.9727 63.7898 76.9727 61.7614C76.9727 59.7159 75.7795 58.3693 74.0068 58.3693C72.2341 58.3693 71.0409 59.7159 71.0409 61.7614C71.0409 63.7898 72.2341 65.1364 74.0068 65.1364ZM74.0068 64.233C72.6602 64.233 72.0466 63.0739 72.0466 61.7614C72.0466 60.4489 72.6602 59.2727 74.0068 59.2727C75.3534 59.2727 75.967 60.4489 75.967 61.7614C75.967 63.0739 75.3534 64.233 74.0068 64.233ZM78.5079 65H79.5135V60.9091C79.5135 59.9503 80.2124 59.2727 80.9965 59.2727C81.7593 59.2727 82.2919 59.7713 82.2919 60.517V65H83.3147V60.7386C83.3147 59.8949 83.8431 59.2727 84.7635 59.2727C85.4794 59.2727 86.0931 59.652 86.0931 60.6193V65H87.0988V60.6193C87.0988 59.081 86.2721 58.3693 85.1044 58.3693C84.1669 58.3693 83.4809 58.7997 83.1442 59.4773H83.076C82.7522 58.7784 82.1812 58.3693 81.3204 58.3693C80.4681 58.3693 79.8374 58.7784 79.5647 59.4773H79.4794V58.4545H78.5079V65ZM88.9375 67.4545H89.9432V63.9943H90.0285C90.25 64.3523 90.6762 65.1364 91.9375 65.1364C93.5739 65.1364 94.716 63.8239 94.716 61.7443C94.716 59.6818 93.5739 58.3693 91.9205 58.3693C90.6421 58.3693 90.25 59.1534 90.0285 59.4943H89.9091V58.4545H88.9375V67.4545ZM89.9262 61.7273C89.9262 60.2614 90.5739 59.2727 91.8012 59.2727C93.0796 59.2727 93.7103 60.3466 93.7103 61.7273C93.7103 63.125 93.0625 64.233 91.8012 64.233C90.591 64.233 89.9262 63.2102 89.9262 61.7273ZM98.1762 65.1534C99.3182 65.1534 99.9148 64.5398 100.119 64.1136H100.17V65H101.176V60.6875C101.176 58.608 99.591 58.3693 98.7557 58.3693C97.7671 58.3693 96.6421 58.7102 96.1307 59.9034L97.0853 60.2443C97.3069 59.767 97.831 59.2557 98.7898 59.2557C99.7145 59.2557 100.17 59.7457 100.17 60.5852V60.6193C100.17 61.1051 99.6762 61.0625 98.483 61.2159C97.2685 61.3736 95.9432 61.642 95.9432 63.142C95.9432 64.4205 96.9319 65.1534 98.1762 65.1534ZM98.3296 64.25C97.5285 64.25 96.9489 63.892 96.9489 63.1932C96.9489 62.4261 97.6478 62.1875 98.4319 62.0852C98.858 62.0341 100 61.9148 100.17 61.7102V62.6307C100.17 63.4489 99.5228 64.25 98.3296 64.25ZM104.017 61.0625C104.017 59.9205 104.725 59.2727 105.688 59.2727C106.621 59.2727 107.188 59.8821 107.188 60.9091V65H108.194V60.8409C108.194 59.1705 107.303 58.3693 105.978 58.3693C104.989 58.3693 104.375 58.8125 104.069 59.4773H103.983V58.4545H103.012V65H104.017V61.0625ZM110.031 65H111.037V58.4545H110.031V65ZM110.543 57.3636C110.935 57.3636 111.259 57.0568 111.259 56.6818C111.259 56.3068 110.935 56 110.543 56C110.151 56 109.827 56.3068 109.827 56.6818C109.827 57.0568 110.151 57.3636 110.543 57.3636ZM115.623 65.1364C116.953 65.1364 117.924 64.4716 118.231 63.483L117.26 63.2102C117.004 63.892 116.412 64.233 115.623 64.233C114.443 64.233 113.629 63.4702 113.582 62.0682H118.333V61.642C118.333 59.2045 116.885 58.3693 115.521 58.3693C113.748 58.3693 112.572 59.767 112.572 61.7784C112.572 63.7898 113.731 65.1364 115.623 65.1364ZM113.582 61.1989C113.65 60.1804 114.37 59.2727 115.521 59.2727C116.612 59.2727 117.311 60.0909 117.311 61.1989H113.582ZM124.5 59.9205C124.184 58.9915 123.477 58.3693 122.182 58.3693C120.801 58.3693 119.778 59.1534 119.778 60.2614C119.778 61.1648 120.315 61.7699 121.517 62.0511L122.608 62.3068C123.268 62.4602 123.579 62.7756 123.579 63.2273C123.579 63.7898 122.983 64.25 122.045 64.25C121.223 64.25 120.707 63.8963 120.528 63.1932L119.574 63.4318C119.808 64.544 120.724 65.1364 122.062 65.1364C123.583 65.1364 124.619 64.3054 124.619 63.1761C124.619 62.2642 124.048 61.6889 122.88 61.4034L121.909 61.1648C121.133 60.973 120.784 60.7131 120.784 60.2102C120.784 59.6477 121.38 59.2386 122.182 59.2386C123.059 59.2386 123.422 59.7244 123.596 60.1761L124.5 59.9205Z" fill="#2B5F4D"/>
</svg>
