<svg width="186" height="71" viewBox="0 0 186 71" fill="none" xmlns="http://www.w3.org/2000/svg">
<path d="M51.2824 20.5H53.6539V16.0767H56.1595C59.183 16.0767 60.8066 14.2614 60.8066 11.7429C60.8066 9.24361 59.2021 7.40909 56.1915 7.40909H51.2824V20.5ZM53.6539 14.1271V9.39062H55.8271C57.6041 9.39062 58.3904 10.3494 58.3904 11.7429C58.3904 13.1364 57.6041 14.1271 55.8399 14.1271H53.6539ZM65.4136 20.6982C66.9541 20.6982 67.8746 19.9759 68.2964 19.1513H68.3731V20.5H70.5976V13.929C70.5976 11.3338 68.4818 10.554 66.6089 10.554C64.5443 10.554 62.9591 11.4744 62.4477 13.2642L64.6082 13.571C64.8383 12.8999 65.4903 12.3246 66.6217 12.3246C67.6956 12.3246 68.2836 12.8743 68.2836 13.8395V13.8778C68.2836 14.5426 67.5869 14.5746 65.8547 14.7599C63.9498 14.9645 62.1281 15.5334 62.1281 17.745C62.1281 19.6754 63.5407 20.6982 65.4136 20.6982ZM66.0145 18.9979C65.0493 18.9979 64.3589 18.5568 64.3589 17.7067C64.3589 16.8182 65.1324 16.4474 66.1679 16.3004C66.7751 16.2173 67.9896 16.0639 68.29 15.821V16.978C68.29 18.071 67.4079 18.9979 66.0145 18.9979ZM74.0109 24.1818C75.8135 24.1818 76.8554 23.255 77.4115 21.6889L81.3554 10.6946L78.8817 10.6818L76.6125 18.0966H76.5102L74.2474 10.6818H71.7929L75.3532 20.7045L75.1551 21.2351C74.7268 22.3537 74.0493 22.4304 73.0393 22.1364L72.5024 23.9389C72.8156 24.0668 73.3781 24.1818 74.0109 24.1818ZM82.9614 20.5H85.2753V14.5298C85.2753 13.3217 86.0807 12.5036 87.0779 12.5036C88.0558 12.5036 88.727 13.1619 88.727 14.1719V20.5H90.9962V14.3764C90.9962 13.2706 91.6546 12.5036 92.7732 12.5036C93.7064 12.5036 94.4479 13.0533 94.4479 14.2678V20.5H96.7682V13.9098C96.7682 11.7173 95.5026 10.554 93.7 10.554C92.2746 10.554 91.1879 11.2571 90.7533 12.3501H90.651C90.2739 11.2379 89.3215 10.554 87.9983 10.554C86.6816 10.554 85.6972 11.2315 85.2881 12.3501H85.173V10.6818H82.9614V20.5ZM103.462 20.6918C105.751 20.6918 107.323 19.5732 107.732 17.8665L105.572 17.6236C105.258 18.4545 104.491 18.8892 103.494 18.8892C101.998 18.8892 101.008 17.9048 100.989 16.2237H107.828V15.5142C107.828 12.0689 105.757 10.554 103.341 10.554C100.528 10.554 98.6938 12.6186 98.6938 15.6484C98.6938 18.7294 100.503 20.6918 103.462 20.6918ZM100.995 14.6641C101.065 13.4112 101.992 12.3565 103.373 12.3565C104.702 12.3565 105.597 13.3281 105.61 14.6641H100.995ZM112.1 14.7472C112.1 13.3281 112.956 12.5099 114.177 12.5099C115.372 12.5099 116.088 13.2962 116.088 14.6065V20.5H118.402V14.2486C118.408 11.8963 117.066 10.554 115.04 10.554C113.57 10.554 112.56 11.2571 112.112 12.3501H111.997V10.6818H109.786V20.5H112.1V14.7472ZM125.657 10.6818H123.72V8.32955H121.406V10.6818H120.013V12.4716H121.406V17.9304C121.394 19.7777 122.736 20.6854 124.475 20.6342C125.133 20.6151 125.587 20.4872 125.836 20.4041L125.446 18.5952C125.318 18.6271 125.056 18.6847 124.769 18.6847C124.187 18.6847 123.72 18.4801 123.72 17.5469V12.4716H125.657V10.6818ZM135.212 13.277C134.892 11.6151 133.562 10.554 131.261 10.554C128.896 10.554 127.285 11.7173 127.292 13.5327C127.285 14.9645 128.168 15.9105 130.053 16.3004L131.728 16.652C132.629 16.8501 133.051 17.2145 133.051 17.7706C133.051 18.4418 132.322 18.9467 131.223 18.9467C130.162 18.9467 129.472 18.4865 129.273 17.6044L127.017 17.8217C127.305 19.6243 128.82 20.6918 131.229 20.6918C133.684 20.6918 135.416 19.4197 135.422 17.5597C135.416 16.1598 134.515 15.3033 132.661 14.9006L130.986 14.5426C129.989 14.3189 129.593 13.9737 129.599 13.4048C129.593 12.7401 130.328 12.2798 131.293 12.2798C132.361 12.2798 132.923 12.8615 133.102 13.5071L135.212 13.277Z" fill="#2B5F4D"/>
<path opacity="0.7" d="M78.2124 47.6193C80.0788 47.6193 81.4382 46.5497 81.4339 45.0753C81.4382 43.9844 80.7564 43.2003 79.5334 43.0256V42.9574C80.4794 42.7528 81.1143 42.0497 81.1101 41.0696C81.1143 39.7401 79.9808 38.6534 78.2379 38.6534C76.5419 38.6534 75.2294 39.6634 75.1953 41.125H76.7166C76.7422 40.392 77.424 39.9361 78.2294 39.9361C79.0433 39.9361 79.5845 40.4304 79.5803 41.1634C79.5845 41.9261 78.9538 42.4332 78.0504 42.4332H77.2791V43.652H78.0504C79.1541 43.652 79.8104 44.206 79.8061 44.9943C79.8104 45.7656 79.1413 46.294 78.2081 46.294C77.3303 46.294 76.6527 45.8381 76.6143 45.1264H75.0121C75.0547 46.6009 76.3714 47.6193 78.2124 47.6193ZM84.467 46.3068H83.1033L83.0735 46.7841C83.0011 47.9389 82.6985 49.1151 82.5749 49.6307H83.6147C83.8192 49.0938 84.2923 47.8494 84.4116 46.7756L84.467 46.3068ZM89.0341 47.6193C90.9176 47.6321 92.1832 46.3366 92.179 44.6108C92.1832 42.9616 91.0071 41.7685 89.4773 41.7685C88.5398 41.7685 87.7131 42.2244 87.2955 42.9744H87.2358C87.2401 41.1378 87.9134 40.0213 89.1236 40.0213C89.8736 40.0213 90.3807 40.456 90.5426 41.125H92.098C91.9105 39.7145 90.7727 38.6534 89.1236 38.6534C87.027 38.6534 85.7017 40.4006 85.7017 43.3835C85.6974 46.5838 87.3594 47.6108 89.0341 47.6193ZM89.0256 46.3409C88.0923 46.3409 87.4105 45.5696 87.4062 44.6577C87.4148 43.7415 88.1222 42.9744 89.0469 42.9744C89.9716 42.9744 90.6491 43.7074 90.6449 44.6449C90.6491 45.5994 89.9503 46.3409 89.0256 46.3409ZM96.8452 47.6662C98.9503 47.6705 100.207 46.0085 100.207 43.1449C100.207 40.2983 98.9418 38.6534 96.8452 38.6534C94.7486 38.6534 93.4872 40.294 93.483 43.1449C93.483 46.0043 94.7401 47.6662 96.8452 47.6662ZM96.8452 46.3324C95.7585 46.3324 95.0767 45.2415 95.081 43.1449C95.0852 41.0653 95.7628 39.9702 96.8452 39.9702C97.9318 39.9702 98.6094 41.0653 98.6136 43.1449C98.6136 45.2415 97.9361 46.3324 96.8452 46.3324ZM104.849 47.6662C106.954 47.6705 108.211 46.0085 108.211 43.1449C108.211 40.2983 106.946 38.6534 104.849 38.6534C102.752 38.6534 101.491 40.294 101.487 43.1449C101.487 46.0043 102.744 47.6662 104.849 47.6662ZM104.849 46.3324C103.762 46.3324 103.081 45.2415 103.085 43.1449C103.089 41.0653 103.767 39.9702 104.849 39.9702C105.936 39.9702 106.613 41.0653 106.618 43.1449C106.618 45.2415 105.94 46.3324 104.849 46.3324ZM69.3881 59.5C69.0643 57.7102 67.6325 56.6534 65.8768 56.6534C63.6438 56.6534 62.0245 58.375 62.0245 61.1364C62.0245 63.8977 63.6438 65.6193 65.8768 65.6193C67.6325 65.6193 69.0643 64.5625 69.3881 62.7727H68.3313C68.0756 63.983 67.0359 64.6307 65.8768 64.6307C64.2915 64.6307 63.0472 63.4034 63.0472 61.1364C63.0472 58.8693 64.2915 57.642 65.8768 57.642C67.0359 57.642 68.0756 58.2898 68.3313 59.5H69.3881ZM73.6186 65.6364C75.3913 65.6364 76.5845 64.2898 76.5845 62.2614C76.5845 60.2159 75.3913 58.8693 73.6186 58.8693C71.8459 58.8693 70.6527 60.2159 70.6527 62.2614C70.6527 64.2898 71.8459 65.6364 73.6186 65.6364ZM73.6186 64.733C72.272 64.733 71.6584 63.5739 71.6584 62.2614C71.6584 60.9489 72.272 59.7727 73.6186 59.7727C74.9652 59.7727 75.5788 60.9489 75.5788 62.2614C75.5788 63.5739 74.9652 64.733 73.6186 64.733ZM78.1197 65.5H79.1254V61.4091C79.1254 60.4503 79.8242 59.7727 80.6083 59.7727C81.3711 59.7727 81.9038 60.2713 81.9038 61.017V65.5H82.9265V61.2386C82.9265 60.3949 83.4549 59.7727 84.3754 59.7727C85.0913 59.7727 85.7049 60.152 85.7049 61.1193V65.5H86.7106V61.1193C86.7106 59.581 85.8839 58.8693 84.7163 58.8693C83.7788 58.8693 83.0927 59.2997 82.756 59.9773H82.6879C82.364 59.2784 81.793 58.8693 80.9322 58.8693C80.0799 58.8693 79.4492 59.2784 79.1765 59.9773H79.0913V58.9545H78.1197V65.5ZM88.5494 67.9545H89.555V64.4943H89.6403C89.8619 64.8523 90.288 65.6364 91.5494 65.6364C93.1857 65.6364 94.3278 64.3239 94.3278 62.2443C94.3278 60.1818 93.1857 58.8693 91.5323 58.8693C90.2539 58.8693 89.8619 59.6534 89.6403 59.9943H89.521V58.9545H88.5494V67.9545ZM89.538 62.2273C89.538 60.7614 90.1857 59.7727 91.413 59.7727C92.6914 59.7727 93.3221 60.8466 93.3221 62.2273C93.3221 63.625 92.6744 64.733 91.413 64.733C90.2028 64.733 89.538 63.7102 89.538 62.2273ZM97.788 65.6534C98.93 65.6534 99.5266 65.0398 99.7312 64.6136H99.7823V65.5H100.788V61.1875C100.788 59.108 99.2028 58.8693 98.3675 58.8693C97.3789 58.8693 96.2539 59.2102 95.7425 60.4034L96.6971 60.7443C96.9187 60.267 97.4428 59.7557 98.4016 59.7557C99.3263 59.7557 99.7823 60.2457 99.7823 61.0852V61.1193C99.7823 61.6051 99.288 61.5625 98.0948 61.7159C96.8803 61.8736 95.555 62.142 95.555 63.642C95.555 64.9205 96.5437 65.6534 97.788 65.6534ZM97.9414 64.75C97.1403 64.75 96.5607 64.392 96.5607 63.6932C96.5607 62.9261 97.2596 62.6875 98.0437 62.5852C98.4698 62.5341 99.6119 62.4148 99.7823 62.2102V63.1307C99.7823 63.9489 99.1346 64.75 97.9414 64.75ZM103.629 61.5625C103.629 60.4205 104.337 59.7727 105.3 59.7727C106.233 59.7727 106.8 60.3821 106.8 61.4091V65.5H107.805V61.3409C107.805 59.6705 106.915 58.8693 105.589 58.8693C104.601 58.8693 103.987 59.3125 103.68 59.9773H103.595V58.9545H102.624V65.5H103.629V61.5625ZM109.643 65.5H110.649V58.9545H109.643V65.5ZM110.154 57.8636C110.547 57.8636 110.87 57.5568 110.87 57.1818C110.87 56.8068 110.547 56.5 110.154 56.5C109.762 56.5 109.439 56.8068 109.439 57.1818C109.439 57.5568 109.762 57.8636 110.154 57.8636ZM115.235 65.6364C116.565 65.6364 117.536 64.9716 117.843 63.983L116.871 63.7102C116.616 64.392 116.023 64.733 115.235 64.733C114.055 64.733 113.241 63.9702 113.194 62.5682H117.945V62.142C117.945 59.7045 116.496 58.8693 115.133 58.8693C113.36 58.8693 112.184 60.267 112.184 62.2784C112.184 64.2898 113.343 65.6364 115.235 65.6364ZM113.194 61.6989C113.262 60.6804 113.982 59.7727 115.133 59.7727C116.224 59.7727 116.923 60.5909 116.923 61.6989H113.194ZM124.112 60.4205C123.796 59.4915 123.089 58.8693 121.793 58.8693C120.413 58.8693 119.39 59.6534 119.39 60.7614C119.39 61.6648 119.927 62.2699 121.129 62.5511L122.219 62.8068C122.88 62.9602 123.191 63.2756 123.191 63.7273C123.191 64.2898 122.594 64.75 121.657 64.75C120.835 64.75 120.319 64.3963 120.14 63.6932L119.185 63.9318C119.42 65.044 120.336 65.6364 121.674 65.6364C123.195 65.6364 124.231 64.8054 124.231 63.6761C124.231 62.7642 123.66 62.1889 122.492 61.9034L121.521 61.6648C120.745 61.473 120.396 61.2131 120.396 60.7102C120.396 60.1477 120.992 59.7386 121.793 59.7386C122.671 59.7386 123.033 60.2244 123.208 60.6761L124.112 60.4205Z" fill="#2B5F4D"/>
</svg>
