<svg width="186" height="74" viewBox="0 0 186 74" fill="none" xmlns="http://www.w3.org/2000/svg">
<path d="M26.6135 20.5H28.9849V15.706H31.4011L33.9707 20.5H36.617L33.7853 15.3097C35.3258 14.6896 36.1376 13.3729 36.1376 11.5959C36.1376 9.09659 34.5268 7.40909 31.5226 7.40909H26.6135V20.5ZM28.9849 13.7372V9.39062H31.1582C32.9288 9.39062 33.7214 10.2024 33.7214 11.5959C33.7214 12.9893 32.9288 13.7372 31.171 13.7372H28.9849ZM42.4242 20.6918C44.7125 20.6918 46.285 19.5732 46.6941 17.8665L44.5336 17.6236C44.2203 18.4545 43.4533 18.8892 42.4561 18.8892C40.9604 18.8892 39.9696 17.9048 39.9505 16.2237H46.79V15.5142C46.79 12.0689 44.7189 10.554 42.3027 10.554C39.4902 10.554 37.6557 12.6186 37.6557 15.6484C37.6557 18.7294 39.4647 20.6918 42.4242 20.6918ZM39.9569 14.6641C40.0272 13.4112 40.954 12.3565 42.3347 12.3565C43.6642 12.3565 44.5591 13.3281 44.5719 14.6641H39.9569ZM53.6502 10.6818H51.7134V8.32955H49.3995V10.6818H48.006V12.4716H49.3995V17.9304C49.3867 19.7777 50.729 20.6854 52.4677 20.6342C53.1261 20.6151 53.5799 20.4872 53.8292 20.4041L53.4393 18.5952C53.3114 18.6271 53.0494 18.6847 52.7617 18.6847C52.18 18.6847 51.7134 18.4801 51.7134 17.5469V12.4716H53.6502V10.6818ZM58.4107 20.6982C59.9512 20.6982 60.8716 19.9759 61.2935 19.1513H61.3702V20.5H63.5946V13.929C63.5946 11.3338 61.4789 10.554 59.606 10.554C57.5414 10.554 55.9561 11.4744 55.4448 13.2642L57.6053 13.571C57.8354 12.8999 58.4874 12.3246 59.6188 12.3246C60.6926 12.3246 61.2807 12.8743 61.2807 13.8395V13.8778C61.2807 14.5426 60.584 14.5746 58.8517 14.7599C56.9469 14.9645 55.1252 15.5334 55.1252 17.745C55.1252 19.6754 56.5378 20.6982 58.4107 20.6982ZM59.0115 18.9979C58.0463 18.9979 57.356 18.5568 57.356 17.7067C57.356 16.8182 58.1294 16.4474 59.165 16.3004C59.7722 16.2173 60.9867 16.0639 61.2871 15.821V16.978C61.2871 18.071 60.405 18.9979 59.0115 18.9979ZM65.9213 20.5H68.2353V10.6818H65.9213V20.5ZM67.0847 9.28835C67.8198 9.28835 68.4206 8.72585 68.4206 8.03551C68.4206 7.33878 67.8198 6.77628 67.0847 6.77628C66.3432 6.77628 65.7424 7.33878 65.7424 8.03551C65.7424 8.72585 66.3432 9.28835 67.0847 9.28835ZM72.9286 7.40909H70.6147V20.5H72.9286V7.40909ZM81.5563 20.5L82.6365 17.272H87.5584L88.6451 20.5H91.1763L86.5613 7.40909H83.6337L79.025 20.5H81.5563ZM83.2757 15.3672L85.0463 10.0938H85.1486L86.9192 15.3672H83.2757ZM96.7821 20.6918C99.2495 20.6918 100.822 19.228 100.988 17.1442H98.7765C98.5783 18.1989 97.8176 18.8061 96.8013 18.8061C95.3567 18.8061 94.4235 17.598 94.4235 15.5909C94.4235 13.6094 95.3759 12.4205 96.8013 12.4205C97.9135 12.4205 98.5975 13.1364 98.7765 14.0824H100.988C100.828 11.9538 99.1664 10.554 96.7694 10.554C93.8929 10.554 92.0776 12.6314 92.0776 15.6293C92.0776 18.6016 93.8482 20.6918 96.7821 20.6918ZM107.171 20.6918C109.638 20.6918 111.211 19.228 111.377 17.1442H109.165C108.967 18.1989 108.206 18.8061 107.19 18.8061C105.745 18.8061 104.812 17.598 104.812 15.5909C104.812 13.6094 105.765 12.4205 107.19 12.4205C108.302 12.4205 108.986 13.1364 109.165 14.0824H111.377C111.217 11.9538 109.555 10.554 107.158 10.554C104.282 10.554 102.466 12.6314 102.466 15.6293C102.466 18.6016 104.237 20.6918 107.171 20.6918ZM117.559 20.6918C120.436 20.6918 122.264 18.6655 122.264 15.6293C122.264 12.5866 120.436 10.554 117.559 10.554C114.683 10.554 112.855 12.5866 112.855 15.6293C112.855 18.6655 114.683 20.6918 117.559 20.6918ZM117.572 18.8381C115.981 18.8381 115.201 17.419 115.201 15.6229C115.201 13.8267 115.981 12.3885 117.572 12.3885C119.138 12.3885 119.918 13.8267 119.918 15.6229C119.918 17.419 119.138 18.8381 117.572 18.8381ZM130.486 16.3707C130.486 17.8665 129.418 18.608 128.396 18.608C127.283 18.608 126.542 17.8217 126.542 16.5753V10.6818H124.228V16.9332C124.228 19.2919 125.57 20.6278 127.501 20.6278C128.971 20.6278 130.006 19.8544 130.454 18.755H130.556V20.5H132.8V10.6818H130.486V16.3707ZM137.493 14.7472C137.493 13.3281 138.35 12.5099 139.57 12.5099C140.766 12.5099 141.482 13.2962 141.482 14.6065V20.5H143.796V14.2486C143.802 11.8963 142.46 10.554 140.433 10.554C138.963 10.554 137.953 11.2571 137.506 12.3501H137.391V10.6818H135.179V20.5H137.493V14.7472ZM151.051 10.6818H149.114V8.32955H146.8V10.6818H145.406V12.4716H146.8V17.9304C146.787 19.7777 148.129 20.6854 149.868 20.6342C150.526 20.6151 150.98 20.4872 151.23 20.4041L150.84 18.5952C150.712 18.6271 150.45 18.6847 150.162 18.6847C149.58 18.6847 149.114 18.4801 149.114 17.5469V12.4716H151.051V10.6818ZM160.605 13.277C160.286 11.6151 158.956 10.554 156.655 10.554C154.29 10.554 152.679 11.7173 152.685 13.5327C152.679 14.9645 153.561 15.9105 155.447 16.3004L157.121 16.652C158.023 16.8501 158.445 17.2145 158.445 17.7706C158.445 18.4418 157.716 18.9467 156.616 18.9467C155.555 18.9467 154.865 18.4865 154.667 17.6044L152.411 17.8217C152.698 19.6243 154.213 20.6918 156.623 20.6918C159.077 20.6918 160.81 19.4197 160.816 17.5597C160.81 16.1598 159.908 15.3033 158.055 14.9006L156.38 14.5426C155.383 14.3189 154.987 13.9737 154.993 13.4048C154.987 12.7401 155.722 12.2798 156.687 12.2798C157.754 12.2798 158.317 12.8615 158.496 13.5071L160.605 13.277Z" fill="#2B5F4D"/>
<path opacity="0.7" d="M80.3087 41.7727H78.8044L76.6354 43.1662V44.6151L78.6766 43.3111H78.7277V50.5H80.3087V41.7727ZM83.8722 49.3068H82.5086L82.4788 49.7841C82.4063 50.9389 82.1038 52.1151 81.9802 52.6307H83.02C83.2245 52.0938 83.6975 50.8494 83.8169 49.7756L83.8722 49.3068ZM85.6333 50.5H87.2739L90.9813 43.1236V41.7727H85.0367V43.0938H89.3449V43.1534L85.6333 50.5ZM95.395 50.6662C97.5001 50.6705 98.7572 49.0085 98.7572 46.1449C98.7572 43.2983 97.4916 41.6534 95.395 41.6534C93.2984 41.6534 92.037 43.294 92.0328 46.1449C92.0328 49.0043 93.2899 50.6662 95.395 50.6662ZM95.395 49.3324C94.3083 49.3324 93.6265 48.2415 93.6308 46.1449C93.635 44.0653 94.3126 42.9702 95.395 42.9702C96.4816 42.9702 97.1592 44.0653 97.1634 46.1449C97.1634 48.2415 96.4859 49.3324 95.395 49.3324ZM103.399 50.6662C105.504 50.6705 106.761 49.0085 106.761 46.1449C106.761 43.2983 105.495 41.6534 103.399 41.6534C101.302 41.6534 100.041 43.294 100.037 46.1449C100.037 49.0043 101.294 50.6662 103.399 50.6662ZM103.399 49.3324C102.312 49.3324 101.63 48.2415 101.635 46.1449C101.639 44.0653 102.316 42.9702 103.399 42.9702C104.486 42.9702 105.163 44.0653 105.167 46.1449C105.167 48.2415 104.49 49.3324 103.399 49.3324ZM69.7504 62.5C69.4266 60.7102 67.9948 59.6534 66.2391 59.6534C64.0061 59.6534 62.3868 61.375 62.3868 64.1364C62.3868 66.8977 64.0061 68.6193 66.2391 68.6193C67.9948 68.6193 69.4266 67.5625 69.7504 65.7727H68.6936C68.4379 66.983 67.3982 67.6307 66.2391 67.6307C64.6539 67.6307 63.4095 66.4034 63.4095 64.1364C63.4095 61.8693 64.6539 60.642 66.2391 60.642C67.3982 60.642 68.4379 61.2898 68.6936 62.5H69.7504ZM73.9809 68.6364C75.7536 68.6364 76.9468 67.2898 76.9468 65.2614C76.9468 63.2159 75.7536 61.8693 73.9809 61.8693C72.2082 61.8693 71.015 63.2159 71.015 65.2614C71.015 67.2898 72.2082 68.6364 73.9809 68.6364ZM73.9809 67.733C72.6343 67.733 72.0207 66.5739 72.0207 65.2614C72.0207 63.9489 72.6343 62.7727 73.9809 62.7727C75.3275 62.7727 75.9411 63.9489 75.9411 65.2614C75.9411 66.5739 75.3275 67.733 73.9809 67.733ZM78.482 68.5H79.4877V64.4091C79.4877 63.4503 80.1865 62.7727 80.9706 62.7727C81.7334 62.7727 82.2661 63.2713 82.2661 64.017V68.5H83.2888V64.2386C83.2888 63.3949 83.8172 62.7727 84.7377 62.7727C85.4536 62.7727 86.0672 63.152 86.0672 64.1193V68.5H87.0729V64.1193C87.0729 62.581 86.2462 61.8693 85.0786 61.8693C84.1411 61.8693 83.455 62.2997 83.1183 62.9773H83.0502C82.7263 62.2784 82.1553 61.8693 81.2945 61.8693C80.4422 61.8693 79.8115 62.2784 79.5388 62.9773H79.4536V61.9545H78.482V68.5ZM88.9117 70.9545H89.9173V67.4943H90.0026C90.2242 67.8523 90.6503 68.6364 91.9117 68.6364C93.548 68.6364 94.6901 67.3239 94.6901 65.2443C94.6901 63.1818 93.548 61.8693 91.8946 61.8693C90.6162 61.8693 90.2242 62.6534 90.0026 62.9943H89.8833V61.9545H88.9117V70.9545ZM89.9003 65.2273C89.9003 63.7614 90.548 62.7727 91.7753 62.7727C93.0537 62.7727 93.6844 63.8466 93.6844 65.2273C93.6844 66.625 93.0367 67.733 91.7753 67.733C90.5651 67.733 89.9003 66.7102 89.9003 65.2273ZM98.1503 68.6534C99.2923 68.6534 99.8889 68.0398 100.093 67.6136H100.145V68.5H101.15V64.1875C101.15 62.108 99.5651 61.8693 98.7298 61.8693C97.7412 61.8693 96.6162 62.2102 96.1048 63.4034L97.0594 63.7443C97.281 63.267 97.8051 62.7557 98.7639 62.7557C99.6887 62.7557 100.145 63.2457 100.145 64.0852V64.1193C100.145 64.6051 99.6503 64.5625 98.4571 64.7159C97.2426 64.8736 95.9173 65.142 95.9173 66.642C95.9173 67.9205 96.906 68.6534 98.1503 68.6534ZM98.3037 67.75C97.5026 67.75 96.923 67.392 96.923 66.6932C96.923 65.9261 97.6219 65.6875 98.406 65.5852C98.8321 65.5341 99.9742 65.4148 100.145 65.2102V66.1307C100.145 66.9489 99.4969 67.75 98.3037 67.75ZM103.992 64.5625C103.992 63.4205 104.699 62.7727 105.662 62.7727C106.595 62.7727 107.162 63.3821 107.162 64.4091V68.5H108.168V64.3409C108.168 62.6705 107.277 61.8693 105.952 61.8693C104.963 61.8693 104.35 62.3125 104.043 62.9773H103.957V61.9545H102.986V68.5H103.992V64.5625ZM110.005 68.5H111.011V61.9545H110.005V68.5ZM110.517 60.8636C110.909 60.8636 111.233 60.5568 111.233 60.1818C111.233 59.8068 110.909 59.5 110.517 59.5C110.125 59.5 109.801 59.8068 109.801 60.1818C109.801 60.5568 110.125 60.8636 110.517 60.8636ZM115.597 68.6364C116.927 68.6364 117.899 67.9716 118.205 66.983L117.234 66.7102C116.978 67.392 116.386 67.733 115.597 67.733C114.417 67.733 113.603 66.9702 113.556 65.5682H118.308V65.142C118.308 62.7045 116.859 61.8693 115.495 61.8693C113.722 61.8693 112.546 63.267 112.546 65.2784C112.546 67.2898 113.705 68.6364 115.597 68.6364ZM113.556 64.6989C113.624 63.6804 114.345 62.7727 115.495 62.7727C116.586 62.7727 117.285 63.5909 117.285 64.6989H113.556ZM124.474 63.4205C124.158 62.4915 123.451 61.8693 122.156 61.8693C120.775 61.8693 119.752 62.6534 119.752 63.7614C119.752 64.6648 120.289 65.2699 121.491 65.5511L122.582 65.8068C123.242 65.9602 123.553 66.2756 123.553 66.7273C123.553 67.2898 122.957 67.75 122.019 67.75C121.197 67.75 120.681 67.3963 120.502 66.6932L119.548 66.9318C119.782 68.044 120.698 68.6364 122.036 68.6364C123.558 68.6364 124.593 67.8054 124.593 66.6761C124.593 65.7642 124.022 65.1889 122.854 64.9034L121.883 64.6648C121.107 64.473 120.758 64.2131 120.758 63.7102C120.758 63.1477 121.354 62.7386 122.156 62.7386C123.033 62.7386 123.396 63.2244 123.57 63.6761L124.474 63.4205Z" fill="#2B5F4D"/>
</svg>
