<svg width="186" height="70" viewBox="0 0 186 70" fill="none" xmlns="http://www.w3.org/2000/svg">
<path d="M30.0325 10.5078H32.3145C32.2697 8.29616 30.3841 6.73011 27.5971 6.73011C24.8485 6.73011 22.7839 8.27699 22.7903 10.5909C22.7903 12.4702 24.1262 13.5504 26.2804 14.1065L27.7697 14.4901C29.1824 14.848 30.1156 15.2891 30.122 16.3054C30.1156 17.424 29.0545 18.1719 27.5076 18.1719C26.0247 18.1719 24.8741 17.5071 24.7782 16.1328H22.4451C22.541 18.7344 24.4778 20.1982 27.5268 20.1982C30.6653 20.1982 32.487 18.6321 32.4934 16.3246C32.487 14.0554 30.6142 13.0199 28.6454 12.5533L27.4181 12.2464C26.3443 11.9908 25.1809 11.5369 25.1937 10.4439C25.2001 9.45952 26.0822 8.73722 27.5652 8.73722C28.9778 8.73722 29.911 9.3956 30.0325 10.5078ZM34.6076 6.90909V20H36.8832V10.9872H37.0046L40.6225 19.9616H42.3228L45.9407 11.0064H46.0621V20H48.3377V6.90909H45.4357L41.5494 16.3949H41.396L37.5096 6.90909H34.6076ZM50.9201 20H59.4854V18.0121H53.2915V14.4389H58.9933V12.451H53.2915V8.89702H59.4343V6.90909H50.9201V20ZM67.9996 20L69.0799 16.772H74.0018L75.0884 20H77.6197L73.0046 6.90909H70.0771L65.4684 20H67.9996ZM69.7191 14.8672L71.4897 9.59375H71.592L73.3626 14.8672H69.7191ZM83.2255 20.1918C85.6928 20.1918 87.2653 18.728 87.4315 16.6442H85.2198C85.0217 17.6989 84.261 18.3061 83.2447 18.3061C81.8001 18.3061 80.8668 17.098 80.8668 15.0909C80.8668 13.1094 81.8192 11.9205 83.2447 11.9205C84.3569 11.9205 85.0408 12.6364 85.2198 13.5824H87.4315C87.2717 11.4538 85.6097 10.054 83.2127 10.054C80.3363 10.054 78.521 12.1314 78.521 15.1293C78.521 18.1016 80.2915 20.1918 83.2255 20.1918ZM93.6142 20.1918C96.0815 20.1918 97.6539 18.728 97.8201 16.6442H95.6085C95.4103 17.6989 94.6497 18.3061 93.6333 18.3061C92.1887 18.3061 91.2555 17.098 91.2555 15.0909C91.2555 13.1094 92.2079 11.9205 93.6333 11.9205C94.7456 11.9205 95.4295 12.6364 95.6085 13.5824H97.8201C97.6603 11.4538 95.9984 10.054 93.6014 10.054C90.725 10.054 88.9096 12.1314 88.9096 15.1293C88.9096 18.1016 90.6802 20.1918 93.6142 20.1918ZM104.003 20.1918C106.879 20.1918 108.707 18.1655 108.707 15.1293C108.707 12.0866 106.879 10.054 104.003 10.054C101.126 10.054 99.2983 12.0866 99.2983 15.1293C99.2983 18.1655 101.126 20.1918 104.003 20.1918ZM104.016 18.3381C102.424 18.3381 101.644 16.919 101.644 15.1229C101.644 13.3267 102.424 11.8885 104.016 11.8885C105.582 11.8885 106.362 13.3267 106.362 15.1229C106.362 16.919 105.582 18.3381 104.016 18.3381ZM116.929 15.8707C116.929 17.3665 115.862 18.108 114.839 18.108C113.727 18.108 112.985 17.3217 112.985 16.0753V10.1818H110.671V16.4332C110.671 18.7919 112.014 20.1278 113.944 20.1278C115.414 20.1278 116.45 19.3544 116.897 18.255H116.999V20H119.243V10.1818H116.929V15.8707ZM123.936 14.2472C123.936 12.8281 124.793 12.0099 126.014 12.0099C127.209 12.0099 127.925 12.7962 127.925 14.1065V20H130.239V13.7486C130.245 11.3963 128.903 10.054 126.877 10.054C125.407 10.054 124.397 10.7571 123.949 11.8501H123.834V10.1818H121.623V20H123.936V14.2472ZM137.494 10.1818H135.557V7.82955H133.243V10.1818H131.85V11.9716H133.243V17.4304C133.23 19.2777 134.573 20.1854 136.311 20.1342C136.97 20.1151 137.424 19.9872 137.673 19.9041L137.283 18.0952C137.155 18.1271 136.893 18.1847 136.605 18.1847C136.024 18.1847 135.557 17.9801 135.557 17.0469V11.9716H137.494V10.1818ZM139.429 20H141.743V10.1818H139.429V20ZM140.593 8.78835C141.328 8.78835 141.928 8.22585 141.928 7.53551C141.928 6.83878 141.328 6.27628 140.593 6.27628C139.851 6.27628 139.25 6.83878 139.25 7.53551C139.25 8.22585 139.851 8.78835 140.593 8.78835ZM146.436 14.2472C146.436 12.8281 147.293 12.0099 148.514 12.0099C149.709 12.0099 150.425 12.7962 150.425 14.1065V20H152.739V13.7486C152.745 11.3963 151.403 10.054 149.377 10.054C147.907 10.054 146.897 10.7571 146.449 11.8501H146.334V10.1818H144.123V20H146.436V14.2472ZM159.361 23.8864C162.014 23.8864 163.97 22.6719 163.97 20.1598V10.1818H161.688V11.8054H161.56C161.208 11.0959 160.473 10.054 158.741 10.054C156.472 10.054 154.689 11.831 154.689 15.0589C154.689 18.2614 156.472 19.8594 158.735 19.8594C160.416 19.8594 161.202 18.9581 161.56 18.2358H161.675V20.0959C161.675 21.5405 160.716 22.1349 159.4 22.1349C158.006 22.1349 157.392 21.4766 157.111 20.9013L155.027 21.4062C155.449 22.7805 156.862 23.8864 159.361 23.8864ZM159.38 18.044C157.853 18.044 157.047 16.8551 157.047 15.0462C157.047 13.2628 157.84 11.9524 159.38 11.9524C160.87 11.9524 161.688 13.1861 161.688 15.0462C161.688 16.919 160.857 18.044 159.38 18.044Z" fill="#2B5F4D"/>
<path opacity="0.7" d="M85.4965 47.1193C87.363 47.1193 88.7224 46.0497 88.7181 44.5753C88.7224 43.4844 88.0406 42.7003 86.8176 42.5256V42.4574C87.7636 42.2528 88.3985 41.5497 88.3943 40.5696C88.3985 39.2401 87.265 38.1534 85.5221 38.1534C83.8261 38.1534 82.5136 39.1634 82.4795 40.625H84.0008C84.0264 39.892 84.7082 39.4361 85.5136 39.4361C86.3275 39.4361 86.8687 39.9304 86.8644 40.6634C86.8687 41.4261 86.238 41.9332 85.3346 41.9332H84.5633V43.152H85.3346C86.4383 43.152 87.0945 43.706 87.0903 44.4943C87.0945 45.2656 86.4255 45.794 85.4923 45.794C84.6144 45.794 83.9369 45.3381 83.8985 44.6264H82.2963C82.3389 46.1009 83.6556 47.1193 85.4965 47.1193ZM93.2107 38.1534C91.3186 38.1406 90.0615 39.4403 90.0615 41.1449C90.0658 42.7898 91.2377 43.9787 92.7675 43.9787C93.7093 43.9787 94.5274 43.5227 94.9493 42.7727H95.009C95.0047 44.6392 94.3271 45.7514 93.1212 45.7514C92.3669 45.7514 91.8598 45.3168 91.7021 44.6222H90.1468C90.3257 46.0668 91.4678 47.1193 93.1212 47.1193C95.2135 47.1193 96.5473 45.3722 96.5431 42.3679C96.5388 39.1889 94.8854 38.1619 93.2107 38.1534ZM93.2149 39.4318C94.1482 39.4318 94.8343 40.2074 94.8343 41.098C94.8385 42.0014 94.1183 42.777 93.1979 42.777C92.2689 42.777 91.5999 42.044 91.5956 41.1108C91.5956 40.1733 92.2902 39.4318 93.2149 39.4318ZM101.188 47.1662C103.293 47.1705 104.55 45.5085 104.55 42.6449C104.55 39.7983 103.285 38.1534 101.188 38.1534C99.0914 38.1534 97.83 39.794 97.8257 42.6449C97.8257 45.5043 99.0828 47.1662 101.188 47.1662ZM101.188 45.8324C100.101 45.8324 99.4195 44.7415 99.4237 42.6449C99.428 40.5653 100.106 39.4702 101.188 39.4702C102.275 39.4702 102.952 40.5653 102.956 42.6449C102.956 44.7415 102.279 45.8324 101.188 45.8324ZM69.7114 59C69.3875 57.2102 67.9557 56.1534 66.2 56.1534C63.9671 56.1534 62.3477 57.875 62.3477 60.6364C62.3477 63.3977 63.9671 65.1193 66.2 65.1193C67.9557 65.1193 69.3875 64.0625 69.7114 62.2727H68.6546C68.3989 63.483 67.3591 64.1307 66.2 64.1307C64.6148 64.1307 63.3705 62.9034 63.3705 60.6364C63.3705 58.3693 64.6148 57.142 66.2 57.142C67.3591 57.142 68.3989 57.7898 68.6546 59H69.7114ZM73.9419 65.1364C75.7146 65.1364 76.9078 63.7898 76.9078 61.7614C76.9078 59.7159 75.7146 58.3693 73.9419 58.3693C72.1691 58.3693 70.9759 59.7159 70.9759 61.7614C70.9759 63.7898 72.1691 65.1364 73.9419 65.1364ZM73.9419 64.233C72.5953 64.233 71.9816 63.0739 71.9816 61.7614C71.9816 60.4489 72.5953 59.2727 73.9419 59.2727C75.2884 59.2727 75.9021 60.4489 75.9021 61.7614C75.9021 63.0739 75.2884 64.233 73.9419 64.233ZM78.4429 65H79.4486V60.9091C79.4486 59.9503 80.1475 59.2727 80.9316 59.2727C81.6943 59.2727 82.227 59.7713 82.227 60.517V65H83.2497V60.7386C83.2497 59.8949 83.7781 59.2727 84.6986 59.2727C85.4145 59.2727 86.0281 59.652 86.0281 60.6193V65H87.0338V60.6193C87.0338 59.081 86.2071 58.3693 85.0395 58.3693C84.102 58.3693 83.4159 58.7997 83.0793 59.4773H83.0111C82.6872 58.7784 82.1162 58.3693 81.2554 58.3693C80.4031 58.3693 79.7725 58.7784 79.4997 59.4773H79.4145V58.4545H78.4429V65ZM88.8726 67.4545H89.8783V63.9943H89.9635C90.1851 64.3523 90.6112 65.1364 91.8726 65.1364C93.509 65.1364 94.651 63.8239 94.651 61.7443C94.651 59.6818 93.509 58.3693 91.8556 58.3693C90.5771 58.3693 90.1851 59.1534 89.9635 59.4943H89.8442V58.4545H88.8726V67.4545ZM89.8612 61.7273C89.8612 60.2614 90.509 59.2727 91.7362 59.2727C93.0146 59.2727 93.6453 60.3466 93.6453 61.7273C93.6453 63.125 92.9976 64.233 91.7362 64.233C90.526 64.233 89.8612 63.2102 89.8612 61.7273ZM98.1112 65.1534C99.2533 65.1534 99.8499 64.5398 100.054 64.1136H100.106V65H101.111V60.6875C101.111 58.608 99.526 58.3693 98.6908 58.3693C97.7021 58.3693 96.5771 58.7102 96.0658 59.9034L97.0203 60.2443C97.2419 59.767 97.7661 59.2557 98.7249 59.2557C99.6496 59.2557 100.106 59.7457 100.106 60.5852V60.6193C100.106 61.1051 99.6112 61.0625 98.4181 61.2159C97.2036 61.3736 95.8783 61.642 95.8783 63.142C95.8783 64.4205 96.8669 65.1534 98.1112 65.1534ZM98.2646 64.25C97.4635 64.25 96.884 63.892 96.884 63.1932C96.884 62.4261 97.5828 62.1875 98.3669 62.0852C98.7931 62.0341 99.9351 61.9148 100.106 61.7102V62.6307C100.106 63.4489 99.4578 64.25 98.2646 64.25ZM103.953 61.0625C103.953 59.9205 104.66 59.2727 105.623 59.2727C106.556 59.2727 107.123 59.8821 107.123 60.9091V65H108.129V60.8409C108.129 59.1705 107.238 58.3693 105.913 58.3693C104.924 58.3693 104.31 58.8125 104.004 59.4773H103.918V58.4545H102.947V65H103.953V61.0625ZM109.966 65H110.972V58.4545H109.966V65ZM110.478 57.3636C110.87 57.3636 111.194 57.0568 111.194 56.6818C111.194 56.3068 110.87 56 110.478 56C110.086 56 109.762 56.3068 109.762 56.6818C109.762 57.0568 110.086 57.3636 110.478 57.3636ZM115.558 65.1364C116.888 65.1364 117.859 64.4716 118.166 63.483L117.195 63.2102C116.939 63.892 116.347 64.233 115.558 64.233C114.378 64.233 113.564 63.4702 113.517 62.0682H118.269V61.642C118.269 59.2045 116.82 58.3693 115.456 58.3693C113.683 58.3693 112.507 59.767 112.507 61.7784C112.507 63.7898 113.666 65.1364 115.558 65.1364ZM113.517 61.1989C113.585 60.1804 114.305 59.2727 115.456 59.2727C116.547 59.2727 117.246 60.0909 117.246 61.1989H113.517ZM124.435 59.9205C124.119 58.9915 123.412 58.3693 122.117 58.3693C120.736 58.3693 119.713 59.1534 119.713 60.2614C119.713 61.1648 120.25 61.7699 121.452 62.0511L122.543 62.3068C123.203 62.4602 123.514 62.7756 123.514 63.2273C123.514 63.7898 122.918 64.25 121.98 64.25C121.158 64.25 120.642 63.8963 120.463 63.1932L119.509 63.4318C119.743 64.544 120.659 65.1364 121.997 65.1364C123.519 65.1364 124.554 64.3054 124.554 63.1761C124.554 62.2642 123.983 61.6889 122.815 61.4034L121.844 61.1648C121.068 60.973 120.719 60.7131 120.719 60.2102C120.719 59.6477 121.315 59.2386 122.117 59.2386C122.994 59.2386 123.357 59.7244 123.531 60.1761L124.435 59.9205Z" fill="#2B5F4D"/>
</svg>
