<svg width="102" height="104" viewBox="0 0 102 104" fill="none" xmlns="http://www.w3.org/2000/svg">
<path d="M65.6956 18.3478H63.1594V17.376C63.1594 15.6409 61.8532 14.1235 60.122 14.0075C58.2235 13.88 56.6376 15.3891 56.6376 17.2608V18.3478H54.1014C53.701 18.3478 53.3767 18.672 53.3767 19.0724V29.942C53.3767 30.3424 53.701 30.6667 54.1014 30.6667H65.6956C66.096 30.6667 66.4203 30.3424 66.4203 29.942V19.0724C66.4203 18.672 66.096 18.3478 65.6956 18.3478ZM57.3622 17.2608C57.3622 15.8623 58.4999 14.7246 59.8985 14.7246C61.297 14.7246 62.4347 15.8623 62.4347 17.2608V18.3478H57.3622V17.2608Z" fill="#E93C55"/>
<path d="M51 22.4015C51.0013 21.7129 51 19.9191 51 19.2772C50.5986 18.8624 50.2651 18.6726 49.1587 18.6667C45.9893 18.6814 42.908 19.7298 40.3671 21.6581C37.8262 23.5864 35.9595 26.293 35.041 29.3807C34.9973 29.5299 34.9884 29.6875 35.015 29.8409C35.0417 29.9943 35.1032 30.1392 35.1946 30.2641C35.286 30.389 35.4048 30.4904 35.5416 30.5603C35.6783 30.6302 35.8292 30.6666 35.9822 30.6667L50.0176 30.4015C50.2781 30.4015 50.528 30.2961 50.7123 30.1086C50.8965 29.921 51 29.6667 51 29.4015V22.4015Z" fill="#E93C55"/>
<path d="M48.9999 16C52.6818 16 55.6666 13.0152 55.6666 9.33334C55.6666 5.65144 52.6818 2.66667 48.9999 2.66667C45.318 2.66667 42.3333 5.65144 42.3333 9.33334C42.3333 13.0152 45.318 16 48.9999 16Z" fill="#E93C55"/>
<path d="M7.94034 51.5625H9.96875C9.92898 49.5966 8.25284 48.2045 5.77557 48.2045C3.33239 48.2045 1.49716 49.5795 1.50284 51.6364C1.50284 53.3068 2.69034 54.267 4.60511 54.7614L5.92898 55.1023C7.18466 55.4205 8.0142 55.8125 8.01989 56.7159C8.0142 57.7102 7.07102 58.375 5.69602 58.375C4.37784 58.375 3.35511 57.7841 3.26989 56.5625H1.19602C1.28125 58.875 3.00284 60.1761 5.71307 60.1761C8.50284 60.1761 10.1222 58.7841 10.1278 56.733C10.1222 54.7159 8.45739 53.7955 6.70739 53.3807L5.61648 53.108C4.66193 52.8807 3.62784 52.4773 3.6392 51.5057C3.64489 50.6307 4.42898 49.9886 5.74716 49.9886C7.00284 49.9886 7.83239 50.5739 7.94034 51.5625ZM12.0071 48.3636V60H14.0298V51.9886H14.1378L17.3537 59.9659H18.8651L22.081 52.0057H22.1889V60H24.2116V48.3636H21.6321L18.1776 56.7955H18.0412L14.5866 48.3636H12.0071ZM26.5071 60H34.1207V58.233H28.6151V55.0568H33.6832V53.2898H28.6151V50.1307H34.0753V48.3636H26.5071V60ZM40.1946 60H44.9048C47.5696 60 48.8764 58.642 48.8764 56.8295C48.8764 55.0682 47.6264 54.0341 46.3878 53.9716V53.858C47.5241 53.5909 48.4219 52.7955 48.4219 51.3807C48.4219 49.6477 47.1719 48.3636 44.6491 48.3636H40.1946V60ZM42.3026 58.2386V54.8295H44.6264C45.9276 54.8295 46.7344 55.625 46.7344 56.6648C46.7344 57.5909 46.098 58.2386 44.5696 58.2386H42.3026ZM42.3026 53.3125V50.1023H44.4332C45.6719 50.1023 46.3139 50.7557 46.3139 51.6534C46.3139 52.6761 45.4844 53.3125 44.3878 53.3125H42.3026ZM53.1307 60.1761C54.5 60.1761 55.3182 59.5341 55.6932 58.8011H55.7614V60H57.7386V54.1591C57.7386 51.8523 55.858 51.1591 54.1932 51.1591C52.358 51.1591 50.9489 51.9773 50.4943 53.5682L52.4148 53.8409C52.6193 53.2443 53.1989 52.733 54.2045 52.733C55.1591 52.733 55.6818 53.2216 55.6818 54.0795V54.1136C55.6818 54.7045 55.0625 54.733 53.5227 54.8977C51.8295 55.0795 50.2102 55.5852 50.2102 57.5511C50.2102 59.267 51.4659 60.1761 53.1307 60.1761ZM53.6648 58.6648C52.8068 58.6648 52.1932 58.2727 52.1932 57.517C52.1932 56.7273 52.8807 56.3977 53.8011 56.267C54.3409 56.1932 55.4205 56.0568 55.6875 55.8409V56.8693C55.6875 57.8409 54.9034 58.6648 53.6648 58.6648ZM61.8636 54.8864C61.8636 53.625 62.625 52.8977 63.7102 52.8977C64.7727 52.8977 65.4091 53.5966 65.4091 54.7614V60H67.4659V54.4432C67.4716 52.3523 66.2784 51.1591 64.4773 51.1591C63.1705 51.1591 62.2727 51.7841 61.875 52.7557H61.7727V51.2727H59.8068V60H61.8636V54.8864ZM69.5568 60H71.6136V57.0682L72.3636 56.267L75.0341 60H77.4943L73.9148 55.0398L77.2955 51.2727H74.892L71.7557 54.7784H71.6136V48.3636H69.5568V60ZM78.6662 60H80.723V51.2727H78.6662V60ZM79.7003 50.0341C80.3537 50.0341 80.8878 49.5341 80.8878 48.9205C80.8878 48.3011 80.3537 47.8011 79.7003 47.8011C79.0412 47.8011 78.5071 48.3011 78.5071 48.9205C78.5071 49.5341 79.0412 50.0341 79.7003 50.0341ZM84.8949 54.8864C84.8949 53.625 85.6562 52.8977 86.7415 52.8977C87.804 52.8977 88.4403 53.5966 88.4403 54.7614V60H90.4972V54.4432C90.5028 52.3523 89.3097 51.1591 87.5085 51.1591C86.2017 51.1591 85.304 51.7841 84.9062 52.7557H84.804V51.2727H82.8381V60H84.8949V54.8864ZM96.3835 63.4545C98.7415 63.4545 100.48 62.375 100.48 60.142V51.2727H98.4517V52.7159H98.3381C98.0256 52.0852 97.3722 51.1591 95.8324 51.1591C93.8153 51.1591 92.2301 52.7386 92.2301 55.608C92.2301 58.4545 93.8153 59.875 95.8267 59.875C97.321 59.875 98.0199 59.0739 98.3381 58.4318H98.4403V60.0852C98.4403 61.3693 97.5881 61.8977 96.4176 61.8977C95.179 61.8977 94.6335 61.3125 94.3835 60.8011L92.5312 61.25C92.9062 62.4716 94.1619 63.4545 96.3835 63.4545ZM96.4006 58.2614C95.0426 58.2614 94.3267 57.2045 94.3267 55.5966C94.3267 54.0114 95.0312 52.8466 96.4006 52.8466C97.7244 52.8466 98.4517 53.9432 98.4517 55.5966C98.4517 57.2614 97.7131 58.2614 96.4006 58.2614Z" fill="#E93C55"/>
<path d="M37.6342 81.1193C39.5007 81.1193 40.8601 80.0497 40.8558 78.5753C40.8601 77.4844 40.1783 76.7003 38.9553 76.5256V76.4574C39.9013 76.2528 40.5362 75.5497 40.532 74.5696C40.5362 73.2401 39.4027 72.1534 37.6598 72.1534C35.9638 72.1534 34.6513 73.1634 34.6172 74.625H36.1385C36.1641 73.892 36.8459 73.4361 37.6513 73.4361C38.4652 73.4361 39.0064 73.9304 39.0021 74.6634C39.0064 75.4261 38.3757 75.9332 37.4723 75.9332H36.701V77.152H37.4723C38.576 77.152 39.2322 77.706 39.228 78.4943C39.2322 79.2656 38.5632 79.794 37.63 79.794C36.7521 79.794 36.0746 79.3381 36.0362 78.6264H34.4339C34.4766 80.1009 35.7933 81.1193 37.6342 81.1193ZM43.8888 79.8068H42.5252L42.4954 80.2841C42.4229 81.4389 42.1204 82.6151 41.9968 83.1307H43.0366C43.2411 82.5938 43.7141 81.3494 43.8335 80.2756L43.8888 79.8068ZM48.456 81.1193C50.3395 81.1321 51.6051 79.8366 51.6009 78.1108C51.6051 76.4616 50.429 75.2685 48.8991 75.2685C47.9616 75.2685 47.1349 75.7244 46.7173 76.4744H46.6577C46.6619 74.6378 47.3352 73.5213 48.5455 73.5213C49.2955 73.5213 49.8026 73.956 49.9645 74.625H51.5199C51.3324 73.2145 50.1946 72.1534 48.5455 72.1534C46.4489 72.1534 45.1236 73.9006 45.1236 76.8835C45.1193 80.0838 46.7812 81.1108 48.456 81.1193ZM48.4474 79.8409C47.5142 79.8409 46.8324 79.0696 46.8281 78.1577C46.8366 77.2415 47.544 76.4744 48.4688 76.4744C49.3935 76.4744 50.071 77.2074 50.0668 78.1449C50.071 79.0994 49.3722 79.8409 48.4474 79.8409ZM56.267 81.1662C58.3722 81.1705 59.6293 79.5085 59.6293 76.6449C59.6293 73.7983 58.3636 72.1534 56.267 72.1534C54.1705 72.1534 52.9091 73.794 52.9048 76.6449C52.9048 79.5043 54.1619 81.1662 56.267 81.1662ZM56.267 79.8324C55.1804 79.8324 54.4986 78.7415 54.5028 76.6449C54.5071 74.5653 55.1847 73.4702 56.267 73.4702C57.3537 73.4702 58.0312 74.5653 58.0355 76.6449C58.0355 78.7415 57.358 79.8324 56.267 79.8324ZM64.271 81.1662C66.3761 81.1705 67.6332 79.5085 67.6332 76.6449C67.6332 73.7983 66.3675 72.1534 64.271 72.1534C62.1744 72.1534 60.913 73.794 60.9087 76.6449C60.9087 79.5043 62.1658 81.1662 64.271 81.1662ZM64.271 79.8324C63.1843 79.8324 62.5025 78.7415 62.5067 76.6449C62.511 74.5653 63.1886 73.4702 64.271 73.4702C65.3576 73.4702 66.0352 74.5653 66.0394 76.6449C66.0394 78.7415 65.3619 79.8324 64.271 79.8324Z" fill="#E93C55"/>
<path d="M27.3217 93C26.9979 91.2102 25.5661 90.1534 23.8104 90.1534C21.5774 90.1534 19.9581 91.875 19.9581 94.6364C19.9581 97.3977 21.5774 99.1193 23.8104 99.1193C25.5661 99.1193 26.9979 98.0625 27.3217 96.2727H26.2649C26.0092 97.483 24.9695 98.1307 23.8104 98.1307C22.2251 98.1307 20.9808 96.9034 20.9808 94.6364C20.9808 92.3693 22.2251 91.142 23.8104 91.142C24.9695 91.142 26.0092 91.7898 26.2649 93H27.3217ZM31.5522 99.1364C33.3249 99.1364 34.5181 97.7898 34.5181 95.7614C34.5181 93.7159 33.3249 92.3693 31.5522 92.3693C29.7795 92.3693 28.5863 93.7159 28.5863 95.7614C28.5863 97.7898 29.7795 99.1364 31.5522 99.1364ZM31.5522 98.233C30.2056 98.233 29.592 97.0739 29.592 95.7614C29.592 94.4489 30.2056 93.2727 31.5522 93.2727C32.8988 93.2727 33.5124 94.4489 33.5124 95.7614C33.5124 97.0739 32.8988 98.233 31.5522 98.233ZM36.0533 99H37.0589V94.9091C37.0589 93.9503 37.7578 93.2727 38.5419 93.2727C39.3047 93.2727 39.8374 93.7713 39.8374 94.517V99H40.8601V94.7386C40.8601 93.8949 41.3885 93.2727 42.3089 93.2727C43.0249 93.2727 43.6385 93.652 43.6385 94.6193V99H44.6442V94.6193C44.6442 93.081 43.8175 92.3693 42.6499 92.3693C41.7124 92.3693 41.0263 92.7997 40.6896 93.4773H40.6214C40.2976 92.7784 39.7266 92.3693 38.8658 92.3693C38.0135 92.3693 37.3828 92.7784 37.1101 93.4773H37.0249V92.4545H36.0533V99ZM46.483 101.455H47.4886V97.9943H47.5739C47.7955 98.3523 48.2216 99.1364 49.483 99.1364C51.1193 99.1364 52.2614 97.8239 52.2614 95.7443C52.2614 93.6818 51.1193 92.3693 49.4659 92.3693C48.1875 92.3693 47.7955 93.1534 47.5739 93.4943H47.4545V92.4545H46.483V101.455ZM47.4716 95.7273C47.4716 94.2614 48.1193 93.2727 49.3466 93.2727C50.625 93.2727 51.2557 94.3466 51.2557 95.7273C51.2557 97.125 50.608 98.233 49.3466 98.233C48.1364 98.233 47.4716 97.2102 47.4716 95.7273ZM55.7216 99.1534C56.8636 99.1534 57.4602 98.5398 57.6648 98.1136H57.7159V99H58.7216V94.6875C58.7216 92.608 57.1364 92.3693 56.3011 92.3693C55.3125 92.3693 54.1875 92.7102 53.6761 93.9034L54.6307 94.2443C54.8523 93.767 55.3764 93.2557 56.3352 93.2557C57.2599 93.2557 57.7159 93.7457 57.7159 94.5852V94.6193C57.7159 95.1051 57.2216 95.0625 56.0284 95.2159C54.8139 95.3736 53.4886 95.642 53.4886 97.142C53.4886 98.4205 54.4773 99.1534 55.7216 99.1534ZM55.875 98.25C55.0739 98.25 54.4943 97.892 54.4943 97.1932C54.4943 96.4261 55.1932 96.1875 55.9773 96.0852C56.4034 96.0341 57.5455 95.9148 57.7159 95.7102V96.6307C57.7159 97.4489 57.0682 98.25 55.875 98.25ZM61.5629 95.0625C61.5629 93.9205 62.2702 93.2727 63.2333 93.2727C64.1665 93.2727 64.7333 93.8821 64.7333 94.9091V99H65.739V94.8409C65.739 93.1705 64.8484 92.3693 63.5231 92.3693C62.5344 92.3693 61.9208 92.8125 61.614 93.4773H61.5288V92.4545H60.5572V99H61.5629V95.0625ZM67.5767 99H68.5824V92.4545H67.5767V99ZM68.0881 91.3636C68.4801 91.3636 68.804 91.0568 68.804 90.6818C68.804 90.3068 68.4801 90 68.0881 90C67.696 90 67.3722 90.3068 67.3722 90.6818C67.3722 91.0568 67.696 91.3636 68.0881 91.3636ZM73.1687 99.1364C74.4982 99.1364 75.4698 98.4716 75.7766 97.483L74.805 97.2102C74.5494 97.892 73.957 98.233 73.1687 98.233C71.9883 98.233 71.1744 97.4702 71.1275 96.0682H75.8789V95.642C75.8789 93.2045 74.43 92.3693 73.0664 92.3693C71.2937 92.3693 70.1175 93.767 70.1175 95.7784C70.1175 97.7898 71.2766 99.1364 73.1687 99.1364ZM71.1275 95.1989C71.1957 94.1804 71.9158 93.2727 73.0664 93.2727C74.1573 93.2727 74.8562 94.0909 74.8562 95.1989H71.1275ZM82.0451 93.9205C81.7298 92.9915 81.0224 92.3693 79.7269 92.3693C78.3462 92.3693 77.3235 93.1534 77.3235 94.2614C77.3235 95.1648 77.8604 95.7699 79.0621 96.0511L80.1531 96.3068C80.8136 96.4602 81.1246 96.7756 81.1246 97.2273C81.1246 97.7898 80.5281 98.25 79.5906 98.25C78.7681 98.25 78.2525 97.8963 78.0735 97.1932L77.119 97.4318C77.3533 98.544 78.2695 99.1364 79.6076 99.1364C81.1289 99.1364 82.1644 98.3054 82.1644 97.1761C82.1644 96.2642 81.5934 95.6889 80.4258 95.4034L79.4542 95.1648C78.6786 94.973 78.3292 94.7131 78.3292 94.2102C78.3292 93.6477 78.9258 93.2386 79.7269 93.2386C80.6048 93.2386 80.967 93.7244 81.1417 94.1761L82.0451 93.9205Z" fill="#E93C55"/>
</svg>
