<svg width="78" height="104" viewBox="0 0 78 104" fill="none" xmlns="http://www.w3.org/2000/svg">
<path d="M54 0.5H37C36.7235 0.5 36.5 0.724 36.5 1V15C36.5 15.192 36.6105 15.3675 36.783 15.4505C36.8525 15.4835 36.9265 15.5 37 15.5C37.1115 15.5 37.222 15.4625 37.3125 15.3905L42.1755 11.5H54C54.2765 11.5 54.5 11.276 54.5 11V1C54.5 0.724 54.2765 0.5 54 0.5Z" fill="#D463B3"/>
<path d="M48 21.5C49.933 21.5 51.5 19.933 51.5 18C51.5 16.067 49.933 14.5 48 14.5C46.067 14.5 44.5 16.067 44.5 18C44.5 19.933 46.067 21.5 48 21.5Z" fill="#D463B3"/>
<path d="M30 21.5C31.933 21.5 33.5 19.933 33.5 18C33.5 16.067 31.933 14.5 30 14.5C28.067 14.5 26.5 16.067 26.5 18C26.5 19.933 28.067 21.5 30 21.5Z" fill="#D463B3"/>
<path d="M35.2715 24.863C34.221 24.241 32.4535 23.5 30 23.5C27.514 23.5 25.7555 24.239 24.718 24.8585C23.967 25.3065 23.5 26.13 23.5 27.007V30C23.5 30.2765 23.7235 30.5 24 30.5H36C36.2765 30.5 36.5 30.2765 36.5 30V27.0175C36.5 26.136 36.0295 25.3105 35.2715 24.863Z" fill="#D463B3"/>
<path d="M53.2715 24.863C52.221 24.241 50.4535 23.5 48 23.5C45.514 23.5 43.7555 24.239 42.718 24.8585C41.967 25.3065 41.5 26.13 41.5 27.007V30C41.5 30.2765 41.7235 30.5 42 30.5H54C54.2765 30.5 54.5 30.2765 54.5 30V27.0175C54.5 26.136 54.0295 25.3105 53.2715 24.863Z" fill="#D463B3"/>
<path d="M15.0966 51.5625H17.125C17.0852 49.5966 15.4091 48.2045 12.9318 48.2045C10.4886 48.2045 8.65341 49.5795 8.65909 51.6364C8.65909 53.3068 9.84659 54.267 11.7614 54.7614L13.0852 55.1023C14.3409 55.4205 15.1705 55.8125 15.1761 56.7159C15.1705 57.7102 14.2273 58.375 12.8523 58.375C11.5341 58.375 10.5114 57.7841 10.4261 56.5625H8.35227C8.4375 58.875 10.1591 60.1761 12.8693 60.1761C15.6591 60.1761 17.2784 58.7841 17.2841 56.733C17.2784 54.7159 15.6136 53.7955 13.8636 53.3807L12.7727 53.108C11.8182 52.8807 10.7841 52.4773 10.7955 51.5057C10.8011 50.6307 11.5852 49.9886 12.9034 49.9886C14.1591 49.9886 14.9886 50.5739 15.0966 51.5625ZM24.6349 56.3295C24.6349 57.6591 23.6861 58.3182 22.777 58.3182C21.7884 58.3182 21.1293 57.6193 21.1293 56.5114V51.2727H19.0724V56.8295C19.0724 58.9261 20.2656 60.1136 21.9815 60.1136C23.2884 60.1136 24.2088 59.4261 24.6065 58.4489H24.6974V60H26.6918V51.2727H24.6349V56.3295ZM28.8068 63.2727H30.8636V58.625H30.9489C31.2727 59.2614 31.9489 60.1534 33.4489 60.1534C35.5057 60.1534 37.0455 58.5227 37.0455 55.6477C37.0455 52.7386 35.4602 51.1591 33.4432 51.1591C31.9034 51.1591 31.2614 52.0852 30.9489 52.7159H30.8295V51.2727H28.8068V63.2727ZM30.8239 55.6364C30.8239 53.9432 31.5511 52.8466 32.875 52.8466C34.2443 52.8466 34.9489 54.0114 34.9489 55.6364C34.9489 57.2727 34.233 58.4659 32.875 58.4659C31.5625 58.4659 30.8239 57.3295 30.8239 55.6364ZM38.8068 63.2727H40.8636V58.625H40.9489C41.2727 59.2614 41.9489 60.1534 43.4489 60.1534C45.5057 60.1534 47.0455 58.5227 47.0455 55.6477C47.0455 52.7386 45.4602 51.1591 43.4432 51.1591C41.9034 51.1591 41.2614 52.0852 40.9489 52.7159H40.8295V51.2727H38.8068V63.2727ZM40.8239 55.6364C40.8239 53.9432 41.5511 52.8466 42.875 52.8466C44.2443 52.8466 44.9489 54.0114 44.9489 55.6364C44.9489 57.2727 44.233 58.4659 42.875 58.4659C41.5625 58.4659 40.8239 57.3295 40.8239 55.6364ZM52.6136 60.1705C55.1705 60.1705 56.7955 58.3693 56.7955 55.6705C56.7955 52.9659 55.1705 51.1591 52.6136 51.1591C50.0568 51.1591 48.4318 52.9659 48.4318 55.6705C48.4318 58.3693 50.0568 60.1705 52.6136 60.1705ZM52.625 58.5227C51.2102 58.5227 50.517 57.2614 50.517 55.6648C50.517 54.0682 51.2102 52.7898 52.625 52.7898C54.017 52.7898 54.7102 54.0682 54.7102 55.6648C54.7102 57.2614 54.017 58.5227 52.625 58.5227ZM58.5412 60H60.598V54.8693C60.598 53.7614 61.4332 52.9773 62.5639 52.9773C62.9105 52.9773 63.3423 53.0398 63.5185 53.0966V51.2045C63.331 51.1705 63.0071 51.1477 62.7798 51.1477C61.7798 51.1477 60.9446 51.7159 60.6264 52.7273H60.5355V51.2727H58.5412V60ZM69.7116 51.2727H67.9901V49.1818H65.9332V51.2727H64.6946V52.8636H65.9332V57.7159C65.9219 59.358 67.1151 60.1648 68.6605 60.1193C69.2457 60.1023 69.6491 59.9886 69.8707 59.9148L69.5241 58.3068C69.4105 58.3352 69.1776 58.3864 68.9219 58.3864C68.4048 58.3864 67.9901 58.2045 67.9901 57.375V52.8636H69.7116V51.2727Z" fill="#D463B3"/>
<path d="M22.5666 81H28.5495V79.679H24.7484V79.6193L26.2527 78.0895C27.9487 76.4616 28.4174 75.669 28.4174 74.6847C28.4174 73.223 27.2285 72.1534 25.4728 72.1534C23.7427 72.1534 22.5154 73.2273 22.5154 74.8849H24.0197C24.0197 73.9943 24.5822 73.4361 25.4515 73.4361C26.2825 73.4361 26.9004 73.9432 26.9004 74.7656C26.9004 75.4943 26.4572 76.0142 25.5964 76.8878L22.5666 79.858V81ZM31.8478 79.8068H30.4842L30.4544 80.2841C30.3819 81.4389 30.0794 82.6151 29.9558 83.1307H30.9956C31.2001 82.5938 31.6731 81.3494 31.7924 80.2756L31.8478 79.8068ZM36.3329 81.1193C38.2207 81.1193 39.5716 80.0795 39.5758 78.6605C39.5716 77.5696 38.7662 76.6577 37.752 76.4872V76.4276C38.6341 76.2315 39.2477 75.4389 39.252 74.4929C39.2477 73.1506 38.0119 72.1534 36.3329 72.1534C34.6412 72.1534 33.4054 73.1463 33.4096 74.4929C33.4054 75.4389 34.0105 76.2315 34.9096 76.4276V76.4872C33.8784 76.6577 33.0815 77.5696 33.0858 78.6605C33.0815 80.0795 34.4281 81.1193 36.3329 81.1193ZM36.3329 79.9006C35.3443 79.9006 34.7051 79.3551 34.7136 78.5497C34.7051 77.7145 35.3912 77.1222 36.3329 77.1222C37.2619 77.1222 37.9437 77.7188 37.9522 78.5497C37.9437 79.3551 37.3088 79.9006 36.3329 79.9006ZM36.3329 75.9247C35.5233 75.9247 34.9437 75.4006 34.9522 74.642C34.9437 73.892 35.5062 73.3892 36.3329 73.3892C37.1468 73.3892 37.7051 73.892 37.7136 74.642C37.7051 75.4048 37.1298 75.9247 36.3329 75.9247ZM44.2026 81.1662C46.3077 81.1705 47.5648 79.5085 47.5648 76.6449C47.5648 73.7983 46.2992 72.1534 44.2026 72.1534C42.106 72.1534 40.8446 73.794 40.8404 76.6449C40.8404 79.5043 42.0975 81.1662 44.2026 81.1662ZM44.2026 79.8324C43.1159 79.8324 42.4341 78.7415 42.4384 76.6449C42.4426 74.5653 43.1202 73.4702 44.2026 73.4702C45.2892 73.4702 45.9668 74.5653 45.9711 76.6449C45.9711 78.7415 45.2935 79.8324 44.2026 79.8324ZM52.2065 81.1662C54.3116 81.1705 55.5687 79.5085 55.5687 76.6449C55.5687 73.7983 54.3031 72.1534 52.2065 72.1534C50.1099 72.1534 48.8485 73.794 48.8443 76.6449C48.8443 79.5043 50.1014 81.1662 52.2065 81.1662ZM52.2065 79.8324C51.1199 79.8324 50.438 78.7415 50.4423 76.6449C50.4466 74.5653 51.1241 73.4702 52.2065 73.4702C53.2931 73.4702 53.9707 74.5653 53.975 76.6449C53.975 78.7415 53.2974 79.8324 52.2065 79.8324Z" fill="#D563B3"/>
<path d="M15.3217 93C14.9979 91.2102 13.5661 90.1534 11.8104 90.1534C9.57741 90.1534 7.9581 91.875 7.9581 94.6364C7.9581 97.3977 9.57741 99.1193 11.8104 99.1193C13.5661 99.1193 14.9979 98.0625 15.3217 96.2727H14.2649C14.0092 97.483 12.9695 98.1307 11.8104 98.1307C10.2251 98.1307 8.98082 96.9034 8.98082 94.6364C8.98082 92.3693 10.2251 91.142 11.8104 91.142C12.9695 91.142 14.0092 91.7898 14.2649 93H15.3217ZM19.5522 99.1364C21.3249 99.1364 22.5181 97.7898 22.5181 95.7614C22.5181 93.7159 21.3249 92.3693 19.5522 92.3693C17.7795 92.3693 16.5863 93.7159 16.5863 95.7614C16.5863 97.7898 17.7795 99.1364 19.5522 99.1364ZM19.5522 98.233C18.2056 98.233 17.592 97.0739 17.592 95.7614C17.592 94.4489 18.2056 93.2727 19.5522 93.2727C20.8988 93.2727 21.5124 94.4489 21.5124 95.7614C21.5124 97.0739 20.8988 98.233 19.5522 98.233ZM24.0533 99H25.0589V94.9091C25.0589 93.9503 25.7578 93.2727 26.5419 93.2727C27.3047 93.2727 27.8374 93.7713 27.8374 94.517V99H28.8601V94.7386C28.8601 93.8949 29.3885 93.2727 30.3089 93.2727C31.0249 93.2727 31.6385 93.652 31.6385 94.6193V99H32.6442V94.6193C32.6442 93.081 31.8175 92.3693 30.6499 92.3693C29.7124 92.3693 29.0263 92.7997 28.6896 93.4773H28.6214C28.2976 92.7784 27.7266 92.3693 26.8658 92.3693C26.0135 92.3693 25.3828 92.7784 25.1101 93.4773H25.0249V92.4545H24.0533V99ZM34.483 101.455H35.4886V97.9943H35.5739C35.7955 98.3523 36.2216 99.1364 37.483 99.1364C39.1193 99.1364 40.2614 97.8239 40.2614 95.7443C40.2614 93.6818 39.1193 92.3693 37.4659 92.3693C36.1875 92.3693 35.7955 93.1534 35.5739 93.4943H35.4545V92.4545H34.483V101.455ZM35.4716 95.7273C35.4716 94.2614 36.1193 93.2727 37.3466 93.2727C38.625 93.2727 39.2557 94.3466 39.2557 95.7273C39.2557 97.125 38.608 98.233 37.3466 98.233C36.1364 98.233 35.4716 97.2102 35.4716 95.7273ZM43.7216 99.1534C44.8636 99.1534 45.4602 98.5398 45.6648 98.1136H45.7159V99H46.7216V94.6875C46.7216 92.608 45.1364 92.3693 44.3011 92.3693C43.3125 92.3693 42.1875 92.7102 41.6761 93.9034L42.6307 94.2443C42.8523 93.767 43.3764 93.2557 44.3352 93.2557C45.2599 93.2557 45.7159 93.7457 45.7159 94.5852V94.6193C45.7159 95.1051 45.2216 95.0625 44.0284 95.2159C42.8139 95.3736 41.4886 95.642 41.4886 97.142C41.4886 98.4205 42.4773 99.1534 43.7216 99.1534ZM43.875 98.25C43.0739 98.25 42.4943 97.892 42.4943 97.1932C42.4943 96.4261 43.1932 96.1875 43.9773 96.0852C44.4034 96.0341 45.5455 95.9148 45.7159 95.7102V96.6307C45.7159 97.4489 45.0682 98.25 43.875 98.25ZM49.5629 95.0625C49.5629 93.9205 50.2702 93.2727 51.2333 93.2727C52.1665 93.2727 52.7333 93.8821 52.7333 94.9091V99H53.739V94.8409C53.739 93.1705 52.8484 92.3693 51.5231 92.3693C50.5344 92.3693 49.9208 92.8125 49.614 93.4773H49.5288V92.4545H48.5572V99H49.5629V95.0625ZM55.5767 99H56.5824V92.4545H55.5767V99ZM56.0881 91.3636C56.4801 91.3636 56.804 91.0568 56.804 90.6818C56.804 90.3068 56.4801 90 56.0881 90C55.696 90 55.3722 90.3068 55.3722 90.6818C55.3722 91.0568 55.696 91.3636 56.0881 91.3636ZM61.1687 99.1364C62.4982 99.1364 63.4698 98.4716 63.7766 97.483L62.805 97.2102C62.5494 97.892 61.957 98.233 61.1687 98.233C59.9883 98.233 59.1744 97.4702 59.1275 96.0682H63.8789V95.642C63.8789 93.2045 62.43 92.3693 61.0664 92.3693C59.2937 92.3693 58.1175 93.767 58.1175 95.7784C58.1175 97.7898 59.2766 99.1364 61.1687 99.1364ZM59.1275 95.1989C59.1957 94.1804 59.9158 93.2727 61.0664 93.2727C62.1573 93.2727 62.8562 94.0909 62.8562 95.1989H59.1275ZM70.0451 93.9205C69.7298 92.9915 69.0224 92.3693 67.7269 92.3693C66.3462 92.3693 65.3235 93.1534 65.3235 94.2614C65.3235 95.1648 65.8604 95.7699 67.0621 96.0511L68.1531 96.3068C68.8136 96.4602 69.1246 96.7756 69.1246 97.2273C69.1246 97.7898 68.5281 98.25 67.5906 98.25C66.7681 98.25 66.2525 97.8963 66.0735 97.1932L65.119 97.4318C65.3533 98.544 66.2695 99.1364 67.6076 99.1364C69.1289 99.1364 70.1644 98.3054 70.1644 97.1761C70.1644 96.2642 69.5934 95.6889 68.4258 95.4034L67.4542 95.1648C66.6786 94.973 66.3292 94.7131 66.3292 94.2102C66.3292 93.6477 66.9258 93.2386 67.7269 93.2386C68.6048 93.2386 68.967 93.7244 69.1417 94.1761L70.0451 93.9205Z" fill="#D463B3"/>
</svg>
