<svg width="92" height="104" viewBox="0 0 92 104" fill="none" xmlns="http://www.w3.org/2000/svg">
<path d="M46.0001 20.6667C45.3408 20.6667 44.6963 20.4712 44.1482 20.1049C43.6 19.7386 43.1728 19.218 42.9205 18.6089C42.6682 17.9999 42.6022 17.3296 42.7308 16.683C42.8594 16.0364 43.1769 15.4425 43.6431 14.9763C44.1092 14.5101 44.7032 14.1927 45.3498 14.0641C45.9964 13.9354 46.6666 14.0014 47.2757 14.2537C47.8848 14.506 48.4054 14.9333 48.7716 15.4814C49.1379 16.0296 49.3334 16.6741 49.3334 17.3333C49.3324 18.2171 48.9808 19.0643 48.3559 19.6892C47.731 20.3141 46.8838 20.6656 46.0001 20.6667Z" fill="#2F4498"/>
<path d="M58.0001 10C57.2074 10.003 56.4424 10.2913 55.8447 10.812L48.9781 5.47067C49.2091 5.01469 49.3308 4.51117 49.3334 4.00001C49.3334 3.11595 48.9822 2.2681 48.3571 1.64298C47.732 1.01786 46.8841 0.666672 46.0001 0.666672C45.116 0.666672 44.2682 1.01786 43.6431 1.64298C43.0179 2.2681 42.6667 3.11595 42.6667 4.00001C42.67 4.51133 42.7923 5.01486 43.0241 5.47067L36.1574 10.812C35.5593 10.2908 34.7934 10.0026 34.0001 10C33.116 10 32.2682 10.3512 31.6431 10.9763C31.0179 11.6014 30.6667 12.4493 30.6667 13.3333C30.6667 14.2174 31.0179 15.0652 31.6431 15.6904C32.2682 16.3155 33.116 16.6667 34.0001 16.6667C34.0727 16.6667 34.1407 16.65 34.2121 16.6453L36.5014 25.0387C35.999 25.2936 35.5695 25.6719 35.2533 26.1381C34.9371 26.6044 34.7444 27.1433 34.6934 27.7044C34.6425 28.2654 34.7348 28.8303 34.9618 29.3459C35.1888 29.8615 35.5431 30.311 35.9913 30.6523C36.4396 30.9935 36.9672 31.2154 37.5246 31.297C38.082 31.3786 38.6511 31.3173 39.1783 31.1188C39.7056 30.9204 40.1738 30.5913 40.5391 30.1624C40.9044 29.7335 41.1548 29.2188 41.2667 28.6667H50.7334C50.8435 29.2216 51.093 29.7393 51.4585 30.1712C51.8239 30.603 52.2933 30.9347 52.8223 31.1351C53.3514 31.3355 53.9227 31.398 54.4825 31.3166C55.0424 31.2352 55.5723 31.0127 56.0224 30.6699C56.4725 30.3272 56.8279 29.8756 57.0553 29.3576C57.2826 28.8396 57.3744 28.2722 57.322 27.7089C57.2695 27.1456 57.0746 26.6049 56.7555 26.1378C56.4364 25.6707 56.0037 25.2924 55.4981 25.0387L57.7874 16.6453C57.8587 16.65 57.9267 16.6667 57.9994 16.6667C58.8835 16.6667 59.7313 16.3155 60.3564 15.6904C60.9816 15.0652 61.3327 14.2174 61.3327 13.3333C61.3327 12.4493 60.9816 11.6014 60.3564 10.9763C59.7313 10.3512 58.8835 10 57.9994 10H58.0001ZM54.2127 24.688C54.1407 24.6833 54.0727 24.6667 54.0001 24.6667C53.4841 24.67 52.9762 24.7947 52.5174 25.0307L49.3334 20.596C49.0204 20.9153 48.6635 21.1883 48.2734 21.4067L51.4667 25.856C51.1019 26.2789 50.8496 26.787 50.7334 27.3333H41.2667C41.1509 26.7867 40.8987 26.2782 40.5334 25.8553L43.7287 21.4067C43.3378 21.1886 42.9802 20.9156 42.6667 20.596L39.4821 25.03C39.0233 24.7946 38.5157 24.6702 38.0001 24.6667C37.9274 24.6667 37.8594 24.6833 37.7874 24.688L35.4981 16.2947C36.039 16.0219 36.4955 15.6071 36.8187 15.0947L41.4187 16.4473C41.5035 16.0083 41.6515 15.5839 41.8581 15.1873L37.2821 13.84C37.4089 13.1653 37.3009 12.4675 36.9761 11.8627L43.8427 6.52134C44.2677 6.89323 44.7809 7.14986 45.3334 7.26667V12.72C45.775 12.6489 46.2251 12.6489 46.6667 12.72V7.26667C47.2184 7.14973 47.731 6.89335 48.1554 6.52201L55.0221 11.8633C54.7912 12.3191 54.6696 12.8224 54.6667 13.3333C54.6706 13.5031 54.6878 13.6723 54.7181 13.8393L50.1407 15.186C50.3473 15.5826 50.4953 16.007 50.5801 16.446L55.1801 15.0927C55.5035 15.6052 55.9602 16.02 56.5014 16.2927L54.2127 24.688Z" fill="#2F4498"/>
<path d="M1.4098 50.1307H5.00639V60H7.0973V50.1307H10.6939V48.3636H1.4098V50.1307ZM14.9908 60.1705C17.0249 60.1705 18.4226 59.1761 18.7862 57.6591L16.8658 57.4432C16.5874 58.1818 15.9055 58.5682 15.0192 58.5682C13.6896 58.5682 12.8089 57.6932 12.7919 56.1989H18.8714V55.5682C18.8714 52.5057 17.0305 51.1591 14.8828 51.1591C12.3828 51.1591 10.7521 52.9943 10.7521 55.6875C10.7521 58.4261 12.3601 60.1705 14.9908 60.1705ZM12.7976 54.8125C12.8601 53.6989 13.6839 52.7614 14.9112 52.7614C16.093 52.7614 16.8885 53.625 16.8999 54.8125H12.7976ZM24.4183 60.1705C26.6115 60.1705 28.0092 58.8693 28.157 57.017H26.1911C26.0149 57.9545 25.3388 58.4943 24.4354 58.4943C23.1513 58.4943 22.3217 57.4205 22.3217 55.6364C22.3217 53.875 23.1683 52.8182 24.4354 52.8182C25.424 52.8182 26.032 53.4545 26.1911 54.2955H28.157C28.0149 52.4034 26.5376 51.1591 24.407 51.1591C21.8501 51.1591 20.2365 53.0057 20.2365 55.6705C20.2365 58.3125 21.8104 60.1705 24.4183 60.1705ZM31.9027 54.8864C31.9027 53.625 32.6868 52.8977 33.7891 52.8977C34.8686 52.8977 35.505 53.5852 35.505 54.7614V60H37.5618V54.4432C37.5618 52.3352 36.3686 51.1591 34.5561 51.1591C33.2152 51.1591 32.3629 51.767 31.9595 52.7557H31.8572V48.3636H29.8459V60H31.9027V54.8864ZM41.7152 54.8864C41.7152 53.625 42.4766 52.8977 43.5618 52.8977C44.6243 52.8977 45.2607 53.5966 45.2607 54.7614V60H47.3175V54.4432C47.3232 52.3523 46.13 51.1591 44.3288 51.1591C43.022 51.1591 42.1243 51.7841 41.7266 52.7557H41.6243V51.2727H39.6584V60H41.7152V54.8864ZM53.2152 60.1705C55.772 60.1705 57.397 58.3693 57.397 55.6705C57.397 52.9659 55.772 51.1591 53.2152 51.1591C50.6584 51.1591 49.0334 52.9659 49.0334 55.6705C49.0334 58.3693 50.6584 60.1705 53.2152 60.1705ZM53.2266 58.5227C51.8118 58.5227 51.1186 57.2614 51.1186 55.6648C51.1186 54.0682 51.8118 52.7898 53.2266 52.7898C54.6186 52.7898 55.3118 54.0682 55.3118 55.6648C55.3118 57.2614 54.6186 58.5227 53.2266 58.5227ZM61.1996 48.3636H59.1428V60H61.1996V48.3636ZM67.1214 60.1705C69.6783 60.1705 71.3033 58.3693 71.3033 55.6705C71.3033 52.9659 69.6783 51.1591 67.1214 51.1591C64.5646 51.1591 62.9396 52.9659 62.9396 55.6705C62.9396 58.3693 64.5646 60.1705 67.1214 60.1705ZM67.1328 58.5227C65.718 58.5227 65.0249 57.2614 65.0249 55.6648C65.0249 54.0682 65.718 52.7898 67.1328 52.7898C68.5249 52.7898 69.218 54.0682 69.218 55.6648C69.218 57.2614 68.5249 58.5227 67.1328 58.5227ZM76.8445 63.4545C79.2024 63.4545 80.9411 62.375 80.9411 60.142V51.2727H78.9126V52.7159H78.799C78.4865 52.0852 77.8331 51.1591 76.2933 51.1591C74.2763 51.1591 72.6911 52.7386 72.6911 55.608C72.6911 58.4545 74.2763 59.875 76.2876 59.875C77.782 59.875 78.4808 59.0739 78.799 58.4318H78.9013V60.0852C78.9013 61.3693 78.049 61.8977 76.8786 61.8977C75.6399 61.8977 75.0945 61.3125 74.8445 60.8011L72.9922 61.25C73.3672 62.4716 74.6229 63.4545 76.8445 63.4545ZM76.8615 58.2614C75.5036 58.2614 74.7876 57.2045 74.7876 55.5966C74.7876 54.0114 75.4922 52.8466 76.8615 52.8466C78.1854 52.8466 78.9126 53.9432 78.9126 55.5966C78.9126 57.2614 78.174 58.2614 76.8615 58.2614ZM84.3274 63.2727C85.9297 63.2727 86.8558 62.4489 87.3501 61.0568L90.8558 51.2841L88.657 51.2727L86.6399 57.8636H86.549L84.5376 51.2727H82.3558L85.5206 60.1818L85.3445 60.6534C84.9638 61.6477 84.3615 61.7159 83.4638 61.4545L82.9865 63.0568C83.2649 63.1705 83.7649 63.2727 84.3274 63.2727Z" fill="#2F4498"/>
<path d="M29.2097 79.3807H33.373V81H34.8816V79.3807H35.998V78.081H34.8816V72.2727H32.9128L29.2097 78.1236V79.3807ZM33.3901 78.081H30.829V78.0128L33.3219 74.0625H33.3901V78.081ZM38.9416 79.8068H37.5779L37.5481 80.2841C37.4757 81.4389 37.1731 82.6151 37.0495 83.1307H38.0893C38.2939 82.5938 38.7669 81.3494 38.8862 80.2756L38.9416 79.8068ZM43.4917 81.1193C45.3581 81.1193 46.7175 80.0497 46.7132 78.5753C46.7175 77.4844 46.0357 76.7003 44.8127 76.5256V76.4574C45.7587 76.2528 46.3936 75.5497 46.3894 74.5696C46.3936 73.2401 45.2601 72.1534 43.5172 72.1534C41.8212 72.1534 40.5087 73.1634 40.4746 74.625H41.9959C42.0215 73.892 42.7033 73.4361 43.5087 73.4361C44.3226 73.4361 44.8638 73.9304 44.8596 74.6634C44.8638 75.4261 44.2331 75.9332 43.3297 75.9332H42.5584V77.152H43.3297C44.4334 77.152 45.0897 77.706 45.0854 78.4943C45.0897 79.2656 44.4206 79.794 43.4874 79.794C42.6096 79.794 41.932 79.3381 41.8936 78.6264H40.2914C40.334 80.1009 41.6507 81.1193 43.4917 81.1193ZM51.4018 81.1662C53.5069 81.1705 54.764 79.5085 54.764 76.6449C54.764 73.7983 53.4984 72.1534 51.4018 72.1534C49.3052 72.1534 48.0439 73.794 48.0396 76.6449C48.0396 79.5043 49.2967 81.1662 51.4018 81.1662ZM51.4018 79.8324C50.3152 79.8324 49.6333 78.7415 49.6376 76.6449C49.6419 74.5653 50.3194 73.4702 51.4018 73.4702C52.4885 73.4702 53.166 74.5653 53.1703 76.6449C53.1703 78.7415 52.4927 79.8324 51.4018 79.8324ZM59.4057 81.1662C61.5108 81.1705 62.7679 79.5085 62.7679 76.6449C62.7679 73.7983 61.5023 72.1534 59.4057 72.1534C57.3091 72.1534 56.0478 73.794 56.0435 76.6449C56.0435 79.5043 57.3006 81.1662 59.4057 81.1662ZM59.4057 79.8324C58.3191 79.8324 57.6373 78.7415 57.6415 76.6449C57.6458 74.5653 58.3233 73.4702 59.4057 73.4702C60.4924 73.4702 61.1699 74.5653 61.1742 76.6449C61.1742 78.7415 60.4966 79.8324 59.4057 79.8324Z" fill="#2F4498"/>
<path d="M22.3217 93C21.9979 91.2102 20.5661 90.1534 18.8104 90.1534C16.5774 90.1534 14.9581 91.875 14.9581 94.6364C14.9581 97.3977 16.5774 99.1193 18.8104 99.1193C20.5661 99.1193 21.9979 98.0625 22.3217 96.2727H21.2649C21.0092 97.483 19.9695 98.1307 18.8104 98.1307C17.2251 98.1307 15.9808 96.9034 15.9808 94.6364C15.9808 92.3693 17.2251 91.142 18.8104 91.142C19.9695 91.142 21.0092 91.7898 21.2649 93H22.3217ZM26.5522 99.1364C28.3249 99.1364 29.5181 97.7898 29.5181 95.7614C29.5181 93.7159 28.3249 92.3693 26.5522 92.3693C24.7795 92.3693 23.5863 93.7159 23.5863 95.7614C23.5863 97.7898 24.7795 99.1364 26.5522 99.1364ZM26.5522 98.233C25.2056 98.233 24.592 97.0739 24.592 95.7614C24.592 94.4489 25.2056 93.2727 26.5522 93.2727C27.8988 93.2727 28.5124 94.4489 28.5124 95.7614C28.5124 97.0739 27.8988 98.233 26.5522 98.233ZM31.0533 99H32.0589V94.9091C32.0589 93.9503 32.7578 93.2727 33.5419 93.2727C34.3047 93.2727 34.8374 93.7713 34.8374 94.517V99H35.8601V94.7386C35.8601 93.8949 36.3885 93.2727 37.3089 93.2727C38.0249 93.2727 38.6385 93.652 38.6385 94.6193V99H39.6442V94.6193C39.6442 93.081 38.8175 92.3693 37.6499 92.3693C36.7124 92.3693 36.0263 92.7997 35.6896 93.4773H35.6214C35.2976 92.7784 34.7266 92.3693 33.8658 92.3693C33.0135 92.3693 32.3828 92.7784 32.1101 93.4773H32.0249V92.4545H31.0533V99ZM41.483 101.455H42.4886V97.9943H42.5739C42.7955 98.3523 43.2216 99.1364 44.483 99.1364C46.1193 99.1364 47.2614 97.8239 47.2614 95.7443C47.2614 93.6818 46.1193 92.3693 44.4659 92.3693C43.1875 92.3693 42.7955 93.1534 42.5739 93.4943H42.4545V92.4545H41.483V101.455ZM42.4716 95.7273C42.4716 94.2614 43.1193 93.2727 44.3466 93.2727C45.625 93.2727 46.2557 94.3466 46.2557 95.7273C46.2557 97.125 45.608 98.233 44.3466 98.233C43.1364 98.233 42.4716 97.2102 42.4716 95.7273ZM50.7216 99.1534C51.8636 99.1534 52.4602 98.5398 52.6648 98.1136H52.7159V99H53.7216V94.6875C53.7216 92.608 52.1364 92.3693 51.3011 92.3693C50.3125 92.3693 49.1875 92.7102 48.6761 93.9034L49.6307 94.2443C49.8523 93.767 50.3764 93.2557 51.3352 93.2557C52.2599 93.2557 52.7159 93.7457 52.7159 94.5852V94.6193C52.7159 95.1051 52.2216 95.0625 51.0284 95.2159C49.8139 95.3736 48.4886 95.642 48.4886 97.142C48.4886 98.4205 49.4773 99.1534 50.7216 99.1534ZM50.875 98.25C50.0739 98.25 49.4943 97.892 49.4943 97.1932C49.4943 96.4261 50.1932 96.1875 50.9773 96.0852C51.4034 96.0341 52.5455 95.9148 52.7159 95.7102V96.6307C52.7159 97.4489 52.0682 98.25 50.875 98.25ZM56.5629 95.0625C56.5629 93.9205 57.2702 93.2727 58.2333 93.2727C59.1665 93.2727 59.7333 93.8821 59.7333 94.9091V99H60.739V94.8409C60.739 93.1705 59.8484 92.3693 58.5231 92.3693C57.5344 92.3693 56.9208 92.8125 56.614 93.4773H56.5288V92.4545H55.5572V99H56.5629V95.0625ZM62.5767 99H63.5824V92.4545H62.5767V99ZM63.0881 91.3636C63.4801 91.3636 63.804 91.0568 63.804 90.6818C63.804 90.3068 63.4801 90 63.0881 90C62.696 90 62.3722 90.3068 62.3722 90.6818C62.3722 91.0568 62.696 91.3636 63.0881 91.3636ZM68.1687 99.1364C69.4982 99.1364 70.4698 98.4716 70.7766 97.483L69.805 97.2102C69.5494 97.892 68.957 98.233 68.1687 98.233C66.9883 98.233 66.1744 97.4702 66.1275 96.0682H70.8789V95.642C70.8789 93.2045 69.43 92.3693 68.0664 92.3693C66.2937 92.3693 65.1175 93.767 65.1175 95.7784C65.1175 97.7898 66.2766 99.1364 68.1687 99.1364ZM66.1275 95.1989C66.1957 94.1804 66.9158 93.2727 68.0664 93.2727C69.1573 93.2727 69.8562 94.0909 69.8562 95.1989H66.1275ZM77.0451 93.9205C76.7298 92.9915 76.0224 92.3693 74.7269 92.3693C73.3462 92.3693 72.3235 93.1534 72.3235 94.2614C72.3235 95.1648 72.8604 95.7699 74.0621 96.0511L75.1531 96.3068C75.8136 96.4602 76.1246 96.7756 76.1246 97.2273C76.1246 97.7898 75.5281 98.25 74.5906 98.25C73.7681 98.25 73.2525 97.8963 73.0735 97.1932L72.119 97.4318C72.3533 98.544 73.2695 99.1364 74.6076 99.1364C76.1289 99.1364 77.1644 98.3054 77.1644 97.1761C77.1644 96.2642 76.5934 95.6889 75.4258 95.4034L74.4542 95.1648C73.6786 94.973 73.3292 94.7131 73.3292 94.2102C73.3292 93.6477 73.9258 93.2386 74.7269 93.2386C75.6048 93.2386 75.967 93.7244 76.1417 94.1761L77.0451 93.9205Z" fill="#2F4498"/>
</svg>
