<svg width="102" height="128" viewBox="0 0 102 128" fill="none" xmlns="http://www.w3.org/2000/svg">
<path d="M59.0251 11.7813C58.9523 11.7813 58.8814 11.8051 58.8234 11.8492C58.7653 11.8933 58.7233 11.9551 58.7038 12.0253L54.1878 28.1587C54.1672 28.234 54.1738 28.3142 54.2063 28.3852C54.2388 28.4563 54.2952 28.5136 54.3657 28.5473C54.4362 28.5809 54.5163 28.5888 54.592 28.5694C54.6677 28.55 54.7341 28.5047 54.7798 28.4413L66.2998 12.316C66.3364 12.2663 66.3586 12.2075 66.3639 12.1461C66.3692 12.0846 66.3574 12.0228 66.3298 11.9677C66.3022 11.9125 66.2599 11.866 66.2075 11.8333C66.1552 11.8007 66.0948 11.7832 66.0331 11.7827L59.0251 11.7813Z" fill="#937B54"/>
<path d="M56.5759 12.2053C56.5899 12.1558 56.5923 12.1037 56.5828 12.0532C56.5733 12.0026 56.5522 11.9549 56.5212 11.9139C56.4902 11.8728 56.4502 11.8395 56.4041 11.8165C56.3581 11.7935 56.3074 11.7815 56.2559 11.7813H45.7453C45.6937 11.7812 45.6428 11.7931 45.5966 11.816C45.5504 11.8389 45.5102 11.8722 45.479 11.9133C45.4479 11.9544 45.4267 12.0022 45.4172 12.0529C45.4076 12.1035 45.4099 12.1557 45.4239 12.2053L50.6786 30.9747C50.698 31.045 50.74 31.107 50.798 31.1512C50.856 31.1954 50.927 31.2194 50.9999 31.2194C51.0729 31.2194 51.1438 31.1954 51.2019 31.1512C51.2599 31.107 51.3019 31.045 51.3213 30.9747L56.5759 12.2053Z" fill="#937B54"/>
<path d="M54.9173 9.78133C54.9736 9.78134 55.0289 9.76714 55.0781 9.74003C55.1274 9.71292 55.169 9.6738 55.1991 9.62629C55.2291 9.57879 55.2467 9.52445 55.2501 9.46833C55.2536 9.41222 55.2427 9.35614 55.2187 9.30533L51.232 0.933333C51.2119 0.888486 51.1794 0.850338 51.1382 0.823402C51.0971 0.796465 51.0492 0.781867 51 0.781333C50.9516 0.781326 50.9042 0.79512 50.8633 0.821096C50.8225 0.847072 50.7899 0.884156 50.7693 0.928L46.7813 9.30533C46.7573 9.35614 46.7465 9.41222 46.7499 9.46833C46.7533 9.52445 46.7709 9.57879 46.801 9.62629C46.831 9.6738 46.8726 9.71292 46.9219 9.74003C46.9711 9.76714 47.0265 9.78134 47.0827 9.78133H54.9173Z" fill="#937B54"/>
<path d="M47.2199 28.436C47.2656 28.4994 47.3321 28.5447 47.4077 28.5641C47.4834 28.5834 47.5635 28.5756 47.634 28.5419C47.7045 28.5083 47.7609 28.4509 47.7934 28.3799C47.8259 28.3089 47.8325 28.2287 47.8119 28.1533L43.2959 12.0253C43.2766 11.9552 43.2349 11.8934 43.1771 11.8493C43.1193 11.8052 43.0486 11.7814 42.9759 11.7813H35.9719C35.9102 11.7818 35.8498 11.7994 35.7975 11.832C35.7451 11.8646 35.7028 11.9111 35.6752 11.9663C35.6476 12.0215 35.6358 12.0833 35.6411 12.1447C35.6464 12.2062 35.6686 12.265 35.7052 12.3147L47.2199 28.436Z" fill="#937B54"/>
<path d="M59.4506 9.35867C59.4365 9.40821 59.4342 9.46035 59.4438 9.51096C59.4533 9.56158 59.4745 9.60927 59.5057 9.65027C59.5369 9.69127 59.5771 9.72446 59.6234 9.7472C59.6696 9.76995 59.7204 9.78164 59.7719 9.78133H66.0066C66.0685 9.78133 66.1292 9.76409 66.1819 9.73155C66.2345 9.69901 66.2771 9.65244 66.3048 9.59707C66.3324 9.5417 66.3442 9.47972 66.3386 9.41806C66.333 9.35641 66.3104 9.29752 66.2733 9.248L61.7493 3.14133C61.7121 3.09144 61.6618 3.05295 61.6039 3.03019C61.546 3.00743 61.4829 3.00133 61.4217 3.01257C61.3605 3.0238 61.3037 3.05193 61.2577 3.09377C61.2117 3.13562 61.1783 3.1895 61.1613 3.24933L59.4506 9.35867Z" fill="#937B54"/>
<path d="M42.2294 9.78133C42.2808 9.78143 42.3315 9.76959 42.3775 9.74676C42.4235 9.72392 42.4637 9.69071 42.4947 9.64974C42.5257 9.60876 42.5468 9.56115 42.5563 9.51064C42.5658 9.46013 42.5634 9.40811 42.5494 9.35867L40.84 3.24933C40.8232 3.18919 40.7898 3.13498 40.7437 3.09288C40.6976 3.05079 40.6405 3.0225 40.5791 3.01124C40.5177 2.99998 40.4543 3.00621 40.3962 3.02921C40.3382 3.05221 40.2877 3.09106 40.2507 3.14133L35.7254 9.25067C35.6882 9.30019 35.6656 9.35908 35.66 9.42073C35.6545 9.48239 35.6662 9.54437 35.6939 9.59974C35.7216 9.65511 35.7641 9.70167 35.8168 9.73422C35.8694 9.76676 35.9301 9.784 35.992 9.784L42.2294 9.78133Z" fill="#937B54"/>
<path d="M44.3546 8.38933C44.3734 8.45438 44.4115 8.51221 44.4638 8.55519C44.5161 8.59816 44.5802 8.62426 44.6476 8.63004C44.7151 8.63582 44.7827 8.621 44.8416 8.58755C44.9004 8.5541 44.9478 8.50358 44.9773 8.44267L48.396 1.25867C48.4203 1.2079 48.4314 1.15181 48.4281 1.09561C48.4249 1.03941 48.4075 0.984948 48.3776 0.937291C48.3476 0.889634 48.3061 0.850338 48.2569 0.823067C48.2076 0.795796 48.1523 0.781438 48.096 0.781333H42.66C42.6083 0.781936 42.5575 0.79425 42.5113 0.817345C42.4651 0.840441 42.4248 0.873717 42.3933 0.914666C42.3643 0.955498 42.3447 1.00234 42.3362 1.05172C42.3277 1.10111 42.3303 1.15178 42.344 1.2L44.3546 8.38933Z" fill="#937B54"/>
<path d="M57.0227 8.44267C57.0517 8.50419 57.0989 8.55535 57.1579 8.58928C57.2168 8.62321 57.2848 8.63828 57.3525 8.63247C57.4203 8.62667 57.4847 8.60026 57.537 8.5568C57.5894 8.51333 57.6272 8.4549 57.6453 8.38933L59.656 1.2C59.6699 1.15092 59.6723 1.09931 59.6631 1.04914C59.6539 0.998973 59.6333 0.951585 59.6029 0.910627C59.5725 0.869669 59.5331 0.836233 59.4878 0.812892C59.4424 0.789552 59.3923 0.776931 59.3413 0.776H53.904C53.8477 0.776105 53.7924 0.790463 53.7431 0.817734C53.6939 0.845005 53.6524 0.884301 53.6224 0.931958C53.5924 0.979615 53.5751 1.03408 53.5718 1.09028C53.5686 1.14647 53.5797 1.20257 53.604 1.25333L57.0227 8.44267Z" fill="#937B54"/>
<path d="M25.5419 60H27.6214L29.9567 51.8352H30.0476L32.3771 60H34.4567L37.7408 48.3636H35.4737L33.3771 56.9205H33.2749L31.0305 48.3636H28.968L26.7294 56.9148H26.6214L24.5249 48.3636H22.2578L25.5419 60ZM42.0845 60.1705C44.1186 60.1705 45.5163 59.1761 45.88 57.6591L43.9595 57.4432C43.6811 58.1818 42.9993 58.5682 42.1129 58.5682C40.7834 58.5682 39.9027 57.6932 39.8857 56.1989H45.9652V55.5682C45.9652 52.5057 44.1243 51.1591 41.9766 51.1591C39.4766 51.1591 37.8459 52.9943 37.8459 55.6875C37.8459 58.4261 39.4538 60.1705 42.0845 60.1705ZM39.8913 54.8125C39.9538 53.6989 40.7777 52.7614 42.005 52.7614C43.1868 52.7614 43.9822 53.625 43.9936 54.8125H39.8913ZM50.2166 60.1761C51.5859 60.1761 52.4041 59.5341 52.7791 58.8011H52.8473V60H54.8246V54.1591C54.8246 51.8523 52.9439 51.1591 51.2791 51.1591C49.4439 51.1591 48.0348 51.9773 47.5803 53.5682L49.5007 53.8409C49.7053 53.2443 50.2848 52.733 51.2905 52.733C52.245 52.733 52.7678 53.2216 52.7678 54.0795V54.1136C52.7678 54.7045 52.1484 54.733 50.6087 54.8977C48.9155 55.0795 47.2962 55.5852 47.2962 57.5511C47.2962 59.267 48.5518 60.1761 50.2166 60.1761ZM50.7507 58.6648C49.8928 58.6648 49.2791 58.2727 49.2791 57.517C49.2791 56.7273 49.9666 56.3977 50.8871 56.267C51.4268 56.1932 52.5064 56.0568 52.7734 55.8409V56.8693C52.7734 57.8409 51.9893 58.6648 50.7507 58.6648ZM58.9496 48.3636H56.8928V60H58.9496V48.3636ZM65.4226 51.2727H63.701V49.1818H61.6442V51.2727H60.4055V52.8636H61.6442V57.7159C61.6328 59.358 62.826 60.1648 64.3714 60.1193C64.9567 60.1023 65.3601 59.9886 65.5817 59.9148L65.2351 58.3068C65.1214 58.3352 64.8885 58.3864 64.6328 58.3864C64.1158 58.3864 63.701 58.2045 63.701 57.375V52.8636H65.4226V51.2727ZM69.3871 54.8864C69.3871 53.625 70.1712 52.8977 71.2734 52.8977C72.353 52.8977 72.9893 53.5852 72.9893 54.7614V60H75.0462V54.4432C75.0462 52.3352 73.853 51.1591 72.0405 51.1591C70.6996 51.1591 69.8473 51.767 69.4439 52.7557H69.3416V48.3636H67.3303V60H69.3871V54.8864ZM1.2571 72.3636V84H3.27983V75.9886H3.38778L6.60369 83.9659H8.11506L11.331 76.0057H11.4389V84H13.4616V72.3636H10.8821L7.42756 80.7955H7.29119L3.83665 72.3636H1.2571ZM18.1776 84.1761C19.5469 84.1761 20.3651 83.5341 20.7401 82.8011H20.8082V84H22.7855V78.1591C22.7855 75.8523 20.9048 75.1591 19.2401 75.1591C17.4048 75.1591 15.9957 75.9773 15.5412 77.5682L17.4616 77.8409C17.6662 77.2443 18.2457 76.733 19.2514 76.733C20.206 76.733 20.7287 77.2216 20.7287 78.0795V78.1136C20.7287 78.7045 20.1094 78.733 18.5696 78.8977C16.8764 79.0795 15.2571 79.5852 15.2571 81.5511C15.2571 83.267 16.5128 84.1761 18.1776 84.1761ZM18.7116 82.6648C17.8537 82.6648 17.2401 82.2727 17.2401 81.517C17.2401 80.7273 17.9276 80.3977 18.848 80.267C19.3878 80.1932 20.4673 80.0568 20.7344 79.8409V80.8693C20.7344 81.8409 19.9503 82.6648 18.7116 82.6648ZM26.9105 78.8864C26.9105 77.625 27.6719 76.8977 28.7571 76.8977C29.8196 76.8977 30.456 77.5966 30.456 78.7614V84H32.5128V78.4432C32.5185 76.3523 31.3253 75.1591 29.5241 75.1591C28.2173 75.1591 27.3196 75.7841 26.9219 76.7557H26.8196V75.2727H24.8537V84H26.9105V78.8864ZM37.1151 84.1761C38.4844 84.1761 39.3026 83.5341 39.6776 82.8011H39.7457V84H41.723V78.1591C41.723 75.8523 39.8423 75.1591 38.1776 75.1591C36.3423 75.1591 34.9332 75.9773 34.4787 77.5682L36.3991 77.8409C36.6037 77.2443 37.1832 76.733 38.1889 76.733C39.1435 76.733 39.6662 77.2216 39.6662 78.0795V78.1136C39.6662 78.7045 39.0469 78.733 37.5071 78.8977C35.8139 79.0795 34.1946 79.5852 34.1946 81.5511C34.1946 83.267 35.4503 84.1761 37.1151 84.1761ZM37.6491 82.6648C36.7912 82.6648 36.1776 82.2727 36.1776 81.517C36.1776 80.7273 36.8651 80.3977 37.7855 80.267C38.3253 80.1932 39.4048 80.0568 39.6719 79.8409V80.8693C39.6719 81.8409 38.8878 82.6648 37.6491 82.6648ZM47.5866 87.4545C49.9446 87.4545 51.6832 86.375 51.6832 84.142V75.2727H49.6548V76.7159H49.5412C49.2287 76.0852 48.5753 75.1591 47.0355 75.1591C45.0185 75.1591 43.4332 76.7386 43.4332 79.608C43.4332 82.4545 45.0185 83.875 47.0298 83.875C48.5241 83.875 49.223 83.0739 49.5412 82.4318H49.6435V84.0852C49.6435 85.3693 48.7912 85.8977 47.6207 85.8977C46.3821 85.8977 45.8366 85.3125 45.5866 84.8011L43.7344 85.25C44.1094 86.4716 45.3651 87.4545 47.5866 87.4545ZM47.6037 82.2614C46.2457 82.2614 45.5298 81.2045 45.5298 79.5966C45.5298 78.0114 46.2344 76.8466 47.6037 76.8466C48.9276 76.8466 49.6548 77.9432 49.6548 79.5966C49.6548 81.2614 48.9162 82.2614 47.6037 82.2614ZM57.6548 84.1705C59.6889 84.1705 61.0866 83.1761 61.4503 81.6591L59.5298 81.4432C59.2514 82.1818 58.5696 82.5682 57.6832 82.5682C56.3537 82.5682 55.473 81.6932 55.456 80.1989H61.5355V79.5682C61.5355 76.5057 59.6946 75.1591 57.5469 75.1591C55.0469 75.1591 53.4162 76.9943 53.4162 79.6875C53.4162 82.4261 55.0241 84.1705 57.6548 84.1705ZM55.4616 78.8125C55.5241 77.6989 56.348 76.7614 57.5753 76.7614C58.7571 76.7614 59.5526 77.625 59.5639 78.8125H55.4616ZM63.2756 84H65.3324V78.6932C65.3324 77.6193 66.0483 76.892 66.9347 76.892C67.804 76.892 68.4006 77.4773 68.4006 78.375V84H70.4176V78.5568C70.4176 77.5739 71.0028 76.892 71.9972 76.892C72.8267 76.892 73.4858 77.3807 73.4858 78.4602V84H75.5483V78.142C75.5483 76.1932 74.4233 75.1591 72.821 75.1591C71.554 75.1591 70.5881 75.7841 70.2017 76.7557H70.1108C69.7756 75.767 68.929 75.1591 67.7528 75.1591C66.5824 75.1591 65.7074 75.7614 65.3438 76.7557H65.2415V75.2727H63.2756V84ZM81.4986 84.1705C83.5327 84.1705 84.9304 83.1761 85.294 81.6591L83.3736 81.4432C83.0952 82.1818 82.4134 82.5682 81.527 82.5682C80.1974 82.5682 79.3168 81.6932 79.2997 80.1989H85.3793V79.5682C85.3793 76.5057 83.5384 75.1591 81.3906 75.1591C78.8906 75.1591 77.2599 76.9943 77.2599 79.6875C77.2599 82.4261 78.8679 84.1705 81.4986 84.1705ZM79.3054 78.8125C79.3679 77.6989 80.1918 76.7614 81.419 76.7614C82.6009 76.7614 83.3963 77.625 83.4077 78.8125H79.3054ZM89.1761 78.8864C89.1761 77.625 89.9375 76.8977 91.0227 76.8977C92.0852 76.8977 92.7216 77.5966 92.7216 78.7614V84H94.7784V78.4432C94.7841 76.3523 93.5909 75.1591 91.7898 75.1591C90.483 75.1591 89.5852 75.7841 89.1875 76.7557H89.0852V75.2727H87.1193V84H89.1761V78.8864ZM101.227 75.2727H99.5057V73.1818H97.4489V75.2727H96.2102V76.8636H97.4489V81.7159C97.4375 83.358 98.6307 84.1648 100.176 84.1193C100.761 84.1023 101.165 83.9886 101.386 83.9148L101.04 82.3068C100.926 82.3352 100.693 82.3864 100.438 82.3864C99.9205 82.3864 99.5057 82.2045 99.5057 81.375V76.8636H101.227V75.2727Z" fill="#937B54"/>
<path d="M39.2003 96.2727H37.696L35.527 97.6662V99.1151L37.5682 97.8111H37.6193V105H39.2003V96.2727ZM42.7638 103.807H41.4002L41.3704 104.284C41.2979 105.439 40.9954 106.615 40.8718 107.131H41.9116C42.1161 106.594 42.5891 105.349 42.7085 104.276L42.7638 103.807ZM47.2489 105.119C49.1367 105.119 50.4876 104.08 50.4918 102.661C50.4876 101.57 49.6822 100.658 48.668 100.487V100.428C49.5501 100.232 50.1637 99.4389 50.168 98.4929C50.1637 97.1506 48.9279 96.1534 47.2489 96.1534C45.5572 96.1534 44.3214 97.1463 44.3256 98.4929C44.3214 99.4389 44.9265 100.232 45.8256 100.428V100.487C44.7944 100.658 43.9975 101.57 44.0018 102.661C43.9975 104.08 45.3441 105.119 47.2489 105.119ZM47.2489 103.901C46.2603 103.901 45.6211 103.355 45.6296 102.55C45.6211 101.714 46.3072 101.122 47.2489 101.122C48.1779 101.122 48.8597 101.719 48.8683 102.55C48.8597 103.355 48.2248 103.901 47.2489 103.901ZM47.2489 99.9247C46.4393 99.9247 45.8597 99.4006 45.8683 98.642C45.8597 97.892 46.4222 97.3892 47.2489 97.3892C48.0629 97.3892 48.6211 97.892 48.6296 98.642C48.6211 99.4048 48.0458 99.9247 47.2489 99.9247ZM55.1186 105.166C57.2237 105.17 58.4808 103.509 58.4808 100.645C58.4808 97.7983 57.2152 96.1534 55.1186 96.1534C53.022 96.1534 51.7607 97.794 51.7564 100.645C51.7564 103.504 53.0135 105.166 55.1186 105.166ZM55.1186 103.832C54.032 103.832 53.3501 102.741 53.3544 100.645C53.3587 98.5653 54.0362 97.4702 55.1186 97.4702C56.2053 97.4702 56.8828 98.5653 56.8871 100.645C56.8871 102.741 56.2095 103.832 55.1186 103.832ZM63.1225 105.166C65.2276 105.17 66.4847 103.509 66.4847 100.645C66.4847 97.7983 65.2191 96.1534 63.1225 96.1534C61.0259 96.1534 59.7646 97.794 59.7603 100.645C59.7603 103.504 61.0174 105.166 63.1225 105.166ZM63.1225 103.832C62.0359 103.832 61.354 102.741 61.3583 100.645C61.3626 98.5653 62.0401 97.4702 63.1225 97.4702C64.2092 97.4702 64.8867 98.5653 64.891 100.645C64.891 102.741 64.2134 103.832 63.1225 103.832ZM27.3217 117C26.9979 115.21 25.5661 114.153 23.8104 114.153C21.5774 114.153 19.9581 115.875 19.9581 118.636C19.9581 121.398 21.5774 123.119 23.8104 123.119C25.5661 123.119 26.9979 122.062 27.3217 120.273H26.2649C26.0092 121.483 24.9695 122.131 23.8104 122.131C22.2251 122.131 20.9808 120.903 20.9808 118.636C20.9808 116.369 22.2251 115.142 23.8104 115.142C24.9695 115.142 26.0092 115.79 26.2649 117H27.3217ZM31.5522 123.136C33.3249 123.136 34.5181 121.79 34.5181 119.761C34.5181 117.716 33.3249 116.369 31.5522 116.369C29.7795 116.369 28.5863 117.716 28.5863 119.761C28.5863 121.79 29.7795 123.136 31.5522 123.136ZM31.5522 122.233C30.2056 122.233 29.592 121.074 29.592 119.761C29.592 118.449 30.2056 117.273 31.5522 117.273C32.8988 117.273 33.5124 118.449 33.5124 119.761C33.5124 121.074 32.8988 122.233 31.5522 122.233ZM36.0533 123H37.0589V118.909C37.0589 117.95 37.7578 117.273 38.5419 117.273C39.3047 117.273 39.8374 117.771 39.8374 118.517V123H40.8601V118.739C40.8601 117.895 41.3885 117.273 42.3089 117.273C43.0249 117.273 43.6385 117.652 43.6385 118.619V123H44.6442V118.619C44.6442 117.081 43.8175 116.369 42.6499 116.369C41.7124 116.369 41.0263 116.8 40.6896 117.477H40.6214C40.2976 116.778 39.7266 116.369 38.8658 116.369C38.0135 116.369 37.3828 116.778 37.1101 117.477H37.0249V116.455H36.0533V123ZM46.483 125.455H47.4886V121.994H47.5739C47.7955 122.352 48.2216 123.136 49.483 123.136C51.1193 123.136 52.2614 121.824 52.2614 119.744C52.2614 117.682 51.1193 116.369 49.4659 116.369C48.1875 116.369 47.7955 117.153 47.5739 117.494H47.4545V116.455H46.483V125.455ZM47.4716 119.727C47.4716 118.261 48.1193 117.273 49.3466 117.273C50.625 117.273 51.2557 118.347 51.2557 119.727C51.2557 121.125 50.608 122.233 49.3466 122.233C48.1364 122.233 47.4716 121.21 47.4716 119.727ZM55.7216 123.153C56.8636 123.153 57.4602 122.54 57.6648 122.114H57.7159V123H58.7216V118.688C58.7216 116.608 57.1364 116.369 56.3011 116.369C55.3125 116.369 54.1875 116.71 53.6761 117.903L54.6307 118.244C54.8523 117.767 55.3764 117.256 56.3352 117.256C57.2599 117.256 57.7159 117.746 57.7159 118.585V118.619C57.7159 119.105 57.2216 119.062 56.0284 119.216C54.8139 119.374 53.4886 119.642 53.4886 121.142C53.4886 122.42 54.4773 123.153 55.7216 123.153ZM55.875 122.25C55.0739 122.25 54.4943 121.892 54.4943 121.193C54.4943 120.426 55.1932 120.188 55.9773 120.085C56.4034 120.034 57.5455 119.915 57.7159 119.71V120.631C57.7159 121.449 57.0682 122.25 55.875 122.25ZM61.5629 119.062C61.5629 117.92 62.2702 117.273 63.2333 117.273C64.1665 117.273 64.7333 117.882 64.7333 118.909V123H65.739V118.841C65.739 117.17 64.8484 116.369 63.5231 116.369C62.5344 116.369 61.9208 116.812 61.614 117.477H61.5288V116.455H60.5572V123H61.5629V119.062ZM67.5767 123H68.5824V116.455H67.5767V123ZM68.0881 115.364C68.4801 115.364 68.804 115.057 68.804 114.682C68.804 114.307 68.4801 114 68.0881 114C67.696 114 67.3722 114.307 67.3722 114.682C67.3722 115.057 67.696 115.364 68.0881 115.364ZM73.1687 123.136C74.4982 123.136 75.4698 122.472 75.7766 121.483L74.805 121.21C74.5494 121.892 73.957 122.233 73.1687 122.233C71.9883 122.233 71.1744 121.47 71.1275 120.068H75.8789V119.642C75.8789 117.205 74.43 116.369 73.0664 116.369C71.2937 116.369 70.1175 117.767 70.1175 119.778C70.1175 121.79 71.2766 123.136 73.1687 123.136ZM71.1275 119.199C71.1957 118.18 71.9158 117.273 73.0664 117.273C74.1573 117.273 74.8562 118.091 74.8562 119.199H71.1275ZM82.0451 117.92C81.7298 116.991 81.0224 116.369 79.7269 116.369C78.3462 116.369 77.3235 117.153 77.3235 118.261C77.3235 119.165 77.8604 119.77 79.0621 120.051L80.1531 120.307C80.8136 120.46 81.1246 120.776 81.1246 121.227C81.1246 121.79 80.5281 122.25 79.5906 122.25C78.7681 122.25 78.2525 121.896 78.0735 121.193L77.119 121.432C77.3533 122.544 78.2695 123.136 79.6076 123.136C81.1289 123.136 82.1644 122.305 82.1644 121.176C82.1644 120.264 81.5934 119.689 80.4258 119.403L79.4542 119.165C78.6786 118.973 78.3292 118.713 78.3292 118.21C78.3292 117.648 78.9258 117.239 79.7269 117.239C80.6048 117.239 80.967 117.724 81.1417 118.176L82.0451 117.92Z" fill="#937B54"/>
</svg>
