<svg width="212" height="22" viewBox="0 0 212 22" fill="none" xmlns="http://www.w3.org/2000/svg">
<g clip-path="url(#clip0)">
<path d="M14 19C14.6 19 15 18.6 15 18V9.00001C15 8.70001 14.9 8.40001 14.6 8.20001L8.6 3.20001C8.2 2.90001 7.7 2.90001 7.3 3.20001L1.3 8.20001C1.1 8.40001 1 8.70001 1 9.00001V18C1 18.6 1.4 19 2 19H6V14H10V19H14Z" fill="#6C809D"/>
</g>
<path d="M27.75 15.25L32.25 10.75L27.75 6.25" stroke="#94A3B8" stroke-width="2" stroke-linejoin="round"/>
<path d="M53.7195 9.25355C53.4062 6.99148 51.6662 5.67898 49.4091 5.67898C46.7493 5.67898 44.7457 7.6179 44.7457 10.9091C44.7457 14.1953 46.7244 16.1392 49.4091 16.1392C51.8303 16.1392 53.4361 14.5732 53.7195 12.6293L51.8601 12.6193C51.6264 13.8125 50.652 14.4837 49.4339 14.4837C47.7834 14.4837 46.6001 13.2457 46.6001 10.9091C46.6001 8.61222 47.7734 7.33452 49.4389 7.33452C50.6768 7.33452 51.6463 8.03551 51.8601 9.25355H53.7195ZM58.66 16.1491C60.8972 16.1491 62.3191 14.5732 62.3191 12.2116C62.3191 9.84517 60.8972 8.2642 58.66 8.2642C56.4228 8.2642 55.0009 9.84517 55.0009 12.2116C55.0009 14.5732 56.4228 16.1491 58.66 16.1491ZM58.6699 14.7074C57.432 14.7074 56.8255 13.6037 56.8255 12.2067C56.8255 10.8097 57.432 9.69105 58.6699 9.69105C59.888 9.69105 60.4945 10.8097 60.4945 12.2067C60.4945 13.6037 59.888 14.7074 58.6699 14.7074ZM63.8466 16H65.6463V11.3565C65.6463 10.4169 66.2727 9.78054 67.0483 9.78054C67.8089 9.78054 68.331 10.2926 68.331 11.0781V16H70.0959V11.2372C70.0959 10.3771 70.608 9.78054 71.478 9.78054C72.2038 9.78054 72.7805 10.2081 72.7805 11.1527V16H74.5852V10.8743C74.5852 9.16903 73.6009 8.2642 72.1989 8.2642C71.0902 8.2642 70.245 8.81108 69.907 9.66122H69.8274C69.5341 8.79616 68.7933 8.2642 67.7642 8.2642C66.7401 8.2642 65.9744 8.79119 65.6562 9.66122H65.5668V8.36364H63.8466V16ZM76.411 18.8636H78.2108V14.7969H78.2853C78.5687 15.3537 79.1603 16.1342 80.4728 16.1342C82.2725 16.1342 83.6199 14.7074 83.6199 12.1918C83.6199 9.64631 82.2328 8.2642 80.4679 8.2642C79.1206 8.2642 78.5588 9.07457 78.2853 9.62642H78.1809V8.36364H76.411V18.8636ZM78.176 12.1818C78.176 10.7003 78.8123 9.74077 79.9707 9.74077C81.1689 9.74077 81.7853 10.7599 81.7853 12.1818C81.7853 13.6136 81.1589 14.6577 79.9707 14.6577C78.8223 14.6577 78.176 13.6634 78.176 12.1818ZM87.3585 16.1541C88.5566 16.1541 89.2725 15.5923 89.6007 14.951H89.6603V16H91.3904V10.8892C91.3904 8.87074 89.7449 8.2642 88.2882 8.2642C86.6824 8.2642 85.4494 8.98011 85.0517 10.3722L86.7321 10.6108C86.911 10.0888 87.4181 9.64134 88.2981 9.64134C89.1333 9.64134 89.5907 10.0689 89.5907 10.8196V10.8494C89.5907 11.3665 89.0488 11.3913 87.7015 11.5355C86.22 11.6946 84.8031 12.1371 84.8031 13.8572C84.8031 15.3587 85.9018 16.1541 87.3585 16.1541ZM87.8258 14.8317C87.0751 14.8317 86.5382 14.4886 86.5382 13.8274C86.5382 13.1364 87.1397 12.848 87.9451 12.7337C88.4174 12.669 89.362 12.5497 89.5957 12.3608V13.2607C89.5957 14.1108 88.9096 14.8317 87.8258 14.8317ZM93.2001 16H94.9998V11.5107C94.9998 10.5412 95.7306 9.85511 96.72 9.85511C97.0233 9.85511 97.4011 9.9098 97.5552 9.95952V8.30398C97.3912 8.27415 97.1078 8.25426 96.9089 8.25426C96.0339 8.25426 95.3031 8.75142 95.0247 9.63636H94.9451V8.36364H93.2001V16ZM98.7509 16H100.551V8.36364H98.7509V16ZM99.6557 7.27983C100.227 7.27983 100.695 6.84233 100.695 6.3054C100.695 5.76349 100.227 5.32599 99.6557 5.32599C99.079 5.32599 98.6117 5.76349 98.6117 6.3054C98.6117 6.84233 99.079 7.27983 99.6557 7.27983ZM108.437 10.3821C108.188 9.08949 107.154 8.2642 105.364 8.2642C103.525 8.2642 102.272 9.16903 102.277 10.581C102.272 11.6946 102.958 12.4304 104.425 12.7337L105.727 13.0071C106.428 13.1612 106.756 13.4446 106.756 13.8771C106.756 14.3991 106.19 14.7919 105.335 14.7919C104.509 14.7919 103.972 14.4339 103.818 13.7479L102.063 13.9169C102.287 15.3189 103.465 16.1491 105.339 16.1491C107.249 16.1491 108.596 15.1598 108.601 13.7131C108.596 12.6243 107.895 11.9581 106.453 11.6449L105.151 11.3665C104.375 11.1925 104.067 10.924 104.072 10.4815C104.067 9.96449 104.638 9.60653 105.389 9.60653C106.219 9.60653 106.657 10.0589 106.796 10.5611L108.437 10.3821ZM113.416 16.1491C115.653 16.1491 117.075 14.5732 117.075 12.2116C117.075 9.84517 115.653 8.2642 113.416 8.2642C111.179 8.2642 109.757 9.84517 109.757 12.2116C109.757 14.5732 111.179 16.1491 113.416 16.1491ZM113.426 14.7074C112.188 14.7074 111.581 13.6037 111.581 12.2067C111.581 10.8097 112.188 9.69105 113.426 9.69105C114.644 9.69105 115.25 10.8097 115.25 12.2067C115.25 13.6037 114.644 14.7074 113.426 14.7074ZM120.402 11.5256C120.402 10.4219 121.068 9.78551 122.018 9.78551C122.948 9.78551 123.504 10.397 123.504 11.4162V16H125.304V11.1378C125.309 9.30824 124.265 8.2642 122.689 8.2642C121.546 8.2642 120.76 8.81108 120.412 9.66122H120.323V8.36364H118.602V16H120.402V11.5256Z" fill="#6C809D"/>
<path d="M138.75 15.25L143.25 10.75L138.75 6.25" stroke="#94A3B8" stroke-width="2" stroke-linejoin="round"/>
<path d="M162.423 5.81818V12.3161C162.423 13.5938 161.533 14.5085 160.136 14.5085C158.734 14.5085 157.849 13.5938 157.849 12.3161V5.81818H156.004V12.4702C156.004 14.6577 157.645 16.1541 160.136 16.1541C162.616 16.1541 164.267 14.6577 164.267 12.4702V5.81818H162.423ZM166.192 18.8636H167.992V14.7969H168.067C168.35 15.3537 168.942 16.1342 170.254 16.1342C172.054 16.1342 173.401 14.7074 173.401 12.1918C173.401 9.64631 172.014 8.2642 170.249 8.2642C168.902 8.2642 168.34 9.07457 168.067 9.62642H167.962V8.36364H166.192V18.8636ZM167.957 12.1818C167.957 10.7003 168.594 9.74077 169.752 9.74077C170.95 9.74077 171.567 10.7599 171.567 12.1818C171.567 13.6136 170.94 14.6577 169.752 14.6577C168.604 14.6577 167.957 13.6634 167.957 12.1818ZM178.494 16H182.616C184.948 16 186.091 14.8118 186.091 13.2259C186.091 11.6847 184.997 10.7798 183.914 10.7251V10.6257C184.908 10.392 185.693 9.69602 185.693 8.4581C185.693 6.94176 184.6 5.81818 182.392 5.81818H178.494V16ZM180.339 14.4588V11.4759H182.372C183.511 11.4759 184.217 12.1719 184.217 13.0817C184.217 13.892 183.66 14.4588 182.323 14.4588H180.339ZM180.339 10.1484V7.33949H182.203C183.287 7.33949 183.849 7.91122 183.849 8.69673C183.849 9.59162 183.123 10.1484 182.164 10.1484H180.339ZM189.814 16.1541C191.012 16.1541 191.728 15.5923 192.056 14.951H192.115V16H193.846V10.8892C193.846 8.87074 192.2 8.2642 190.743 8.2642C189.137 8.2642 187.904 8.98011 187.507 10.3722L189.187 10.6108C189.366 10.0888 189.873 9.64134 190.753 9.64134C191.588 9.64134 192.046 10.0689 192.046 10.8196V10.8494C192.046 11.3665 191.504 11.3913 190.157 11.5355C188.675 11.6946 187.258 12.1371 187.258 13.8572C187.258 15.3587 188.357 16.1541 189.814 16.1541ZM190.281 14.8317C189.53 14.8317 188.993 14.4886 188.993 13.8274C188.993 13.1364 189.595 12.848 190.4 12.7337C190.873 12.669 191.817 12.5497 192.051 12.3608V13.2607C192.051 14.1108 191.365 14.8317 190.281 14.8317ZM197.455 11.5256C197.455 10.4219 198.121 9.78551 199.071 9.78551C200 9.78551 200.557 10.397 200.557 11.4162V16H202.357V11.1378C202.362 9.30824 201.318 8.2642 199.742 8.2642C198.598 8.2642 197.813 8.81108 197.465 9.66122H197.375V8.36364H195.655V16H197.455V11.5256ZM204.186 16H205.986V13.4347L206.642 12.7337L208.979 16H211.132L208 11.6598L210.958 8.36364H208.855L206.11 11.4311H205.986V5.81818H204.186V16Z" fill="#94A3B8"/>
<defs>
<clipPath id="clip0">
<rect width="16" height="16" fill="white" transform="translate(0 3)"/>
</clipPath>
</defs>
</svg>
