<svg width="108" height="100" viewBox="0 0 108 100" fill="none" xmlns="http://www.w3.org/2000/svg">
<path d="M68.6956 16.3478H66.1594V15.376C66.1594 13.6409 64.8532 12.1235 63.122 12.0075C61.2235 11.88 59.6376 13.3891 59.6376 15.2608V16.3478H57.1014C56.701 16.3478 56.3767 16.672 56.3767 17.0724V27.942C56.3767 28.3424 56.701 28.6667 57.1014 28.6667H68.6956C69.096 28.6667 69.4203 28.3424 69.4203 27.942V17.0724C69.4203 16.672 69.096 16.3478 68.6956 16.3478ZM60.3622 15.2608C60.3622 13.8623 61.4999 12.7246 62.8985 12.7246C64.297 12.7246 65.4347 13.8623 65.4347 15.2608V16.3478H60.3622V15.2608Z" fill="#2B5F4D"/>
<path d="M54 20.4014C54.0013 19.7129 54 17.9191 54 17.2771C53.5986 16.8624 53.2651 16.6726 52.1587 16.6667C48.9893 16.6813 45.908 17.7298 43.3671 19.6581C40.8262 21.5864 38.9595 24.293 38.041 27.3807C37.9973 27.5299 37.9884 27.6875 38.015 27.8409C38.0417 27.9942 38.1032 28.1392 38.1946 28.2641C38.286 28.389 38.4048 28.4904 38.5416 28.5603C38.6783 28.6302 38.8292 28.6666 38.9822 28.6667L53.0176 28.4014C53.2781 28.4014 53.528 28.2961 53.7123 28.1086C53.8965 27.921 54 27.6667 54 27.4014V20.4014Z" fill="#2B5F4D"/>
<path d="M51.9999 14C55.6818 14 58.6666 11.0152 58.6666 7.33333C58.6666 3.65143 55.6818 0.666664 51.9999 0.666664C48.318 0.666664 45.3333 3.65143 45.3333 7.33333C45.3333 11.0152 48.318 14 51.9999 14Z" fill="#2B5F4D"/>
<path d="M0.233665 58V46.3636H4.5973C5.49124 46.3636 6.24124 46.5189 6.8473 46.8295C7.45715 47.1402 7.91738 47.5758 8.22798 48.1364C8.54238 48.6932 8.69957 49.3428 8.69957 50.0852C8.69957 50.8314 8.54048 51.4792 8.2223 52.0284C7.90791 52.5739 7.44389 52.9962 6.83026 53.2955C6.21662 53.5909 5.46283 53.7386 4.56889 53.7386H1.46094V51.9886H4.2848C4.80753 51.9886 5.23556 51.9167 5.56889 51.7727C5.90223 51.625 6.14844 51.411 6.30753 51.1307C6.47041 50.8466 6.55185 50.4981 6.55185 50.0852C6.55185 49.6723 6.47041 49.3201 6.30753 49.0284C6.14465 48.733 5.89654 48.5095 5.56321 48.358C5.22988 48.2027 4.79995 48.125 4.27344 48.125H2.34162V58H0.233665ZM6.24503 52.7273L9.12571 58H6.77344L3.94389 52.7273H6.24503ZM14.2876 58.1705C13.4126 58.1705 12.657 57.9886 12.0206 57.625C11.388 57.2576 10.9013 56.7386 10.5604 56.0682C10.2195 55.3939 10.049 54.6004 10.049 53.6875C10.049 52.7898 10.2195 52.0019 10.5604 51.3239C10.9051 50.642 11.3861 50.1117 12.0036 49.733C12.621 49.3504 13.3464 49.1591 14.1797 49.1591C14.7176 49.1591 15.2251 49.2462 15.7024 49.4205C16.1835 49.5909 16.6077 49.8561 16.9751 50.2159C17.3464 50.5758 17.638 51.0341 17.8501 51.5909C18.0623 52.1439 18.1683 52.803 18.1683 53.5682V54.1989H11.0149V52.8125H16.1967C16.1929 52.4186 16.1077 52.0682 15.9411 51.7614C15.7744 51.4508 15.5414 51.2064 15.2422 51.0284C14.9467 50.8504 14.602 50.7614 14.2081 50.7614C13.7876 50.7614 13.4183 50.8636 13.1001 51.0682C12.782 51.2689 12.5339 51.5341 12.3558 51.8636C12.1816 52.1894 12.0926 52.5473 12.0888 52.9375V54.1477C12.0888 54.6553 12.1816 55.0909 12.3672 55.4545C12.5528 55.8144 12.8123 56.0909 13.1456 56.2841C13.4789 56.4735 13.8691 56.5682 14.3161 56.5682C14.6153 56.5682 14.8861 56.5265 15.1286 56.4432C15.371 56.3561 15.5812 56.2292 15.7592 56.0625C15.9373 55.8958 16.0717 55.6894 16.1626 55.4432L18.0831 55.6591C17.9619 56.1667 17.7308 56.6098 17.3899 56.9886C17.0528 57.3636 16.621 57.6553 16.0945 57.8636C15.5679 58.0682 14.9657 58.1705 14.2876 58.1705ZM24.2663 49.2727V50.8636H19.2493V49.2727H24.2663ZM20.4879 47.1818H22.5447V55.375C22.5447 55.6515 22.5864 55.8636 22.6697 56.0114C22.7569 56.1553 22.8705 56.2538 23.0107 56.3068C23.1508 56.3598 23.3061 56.3864 23.4766 56.3864C23.6054 56.3864 23.7228 56.3769 23.8288 56.358C23.9387 56.339 24.022 56.322 24.0788 56.3068L24.4254 57.9148C24.3156 57.9527 24.1584 57.9943 23.9538 58.0398C23.7531 58.0852 23.5069 58.1117 23.2152 58.1193C22.7 58.1345 22.236 58.0568 21.8232 57.8864C21.4103 57.7121 21.0826 57.4432 20.8402 57.0795C20.6016 56.7159 20.4841 56.2614 20.4879 55.7159V47.1818ZM28.4979 58.1761C27.9448 58.1761 27.4467 58.0777 27.0036 57.8807C26.5642 57.6799 26.2157 57.3845 25.9581 56.9943C25.7043 56.6042 25.5774 56.1231 25.5774 55.5511C25.5774 55.0587 25.6683 54.6515 25.8501 54.3295C26.032 54.0076 26.2801 53.75 26.5945 53.5568C26.9089 53.3636 27.263 53.2178 27.657 53.1193C28.0547 53.017 28.4657 52.9432 28.8899 52.8977C29.4013 52.8447 29.8161 52.7973 30.1342 52.7557C30.4524 52.7102 30.6835 52.642 30.8274 52.5511C30.9751 52.4564 31.049 52.3106 31.049 52.1136V52.0795C31.049 51.6515 30.9221 51.3201 30.6683 51.0852C30.4145 50.8504 30.049 50.733 29.5717 50.733C29.0679 50.733 28.6683 50.8428 28.3729 51.0625C28.0812 51.2822 27.8842 51.5417 27.782 51.8409L25.8615 51.5682C26.013 51.0379 26.263 50.5947 26.6115 50.2386C26.96 49.8788 27.3861 49.6098 27.8899 49.4318C28.3937 49.25 28.9505 49.1591 29.5604 49.1591C29.9808 49.1591 30.3994 49.2083 30.8161 49.3068C31.2327 49.4053 31.6134 49.5682 31.9581 49.7955C32.3028 50.0189 32.5793 50.3239 32.7876 50.7102C32.9998 51.0966 33.1058 51.5795 33.1058 52.1591V58H31.1286V56.8011H31.0604C30.9354 57.0436 30.7592 57.2708 30.532 57.483C30.3085 57.6913 30.0263 57.8598 29.6854 57.9886C29.3482 58.1136 28.9524 58.1761 28.4979 58.1761ZM29.032 56.6648C29.4448 56.6648 29.8028 56.5833 30.1058 56.4205C30.4089 56.2538 30.6418 56.0341 30.8047 55.7614C30.9714 55.4886 31.0547 55.1913 31.0547 54.8693V53.8409C30.9903 53.8939 30.8804 53.9432 30.7251 53.9886C30.5736 54.0341 30.4032 54.0739 30.2138 54.108C30.0244 54.142 29.8369 54.1723 29.6513 54.1989C29.4657 54.2254 29.3047 54.2481 29.1683 54.267C28.8615 54.3087 28.5869 54.3769 28.3445 54.4716C28.102 54.5663 27.9107 54.6989 27.7706 54.8693C27.6304 55.036 27.5604 55.2519 27.5604 55.517C27.5604 55.8958 27.6986 56.1818 27.9751 56.375C28.2517 56.5682 28.6039 56.6648 29.032 56.6648ZM35.174 58V49.2727H37.2308V58H35.174ZM36.2081 48.0341C35.8786 48.0341 35.5964 47.9261 35.3615 47.7102C35.1304 47.4905 35.0149 47.2273 35.0149 46.9205C35.0149 46.6098 35.1323 46.3466 35.3672 46.1307C35.602 45.911 35.8823 45.8011 36.2081 45.8011C36.5339 45.8011 36.8123 45.911 37.0433 46.1307C37.2782 46.3466 37.3956 46.6098 37.3956 46.9205C37.3956 47.2273 37.2782 47.4905 37.0433 47.7102C36.8123 47.9261 36.5339 48.0341 36.2081 48.0341ZM41.4027 46.3636V58H39.3459V46.3636H41.4027ZM47.5774 58V46.3636H52.032C52.8729 46.3636 53.5717 46.4962 54.1286 46.7614C54.6892 47.0227 55.1077 47.3807 55.3842 47.8352C55.6645 48.2898 55.8047 48.8049 55.8047 49.3807C55.8047 49.8542 55.7138 50.2595 55.532 50.5966C55.3501 50.9299 55.1058 51.2008 54.799 51.4091C54.4922 51.6174 54.1494 51.767 53.7706 51.858V51.9716C54.1835 51.9943 54.5793 52.1212 54.9581 52.3523C55.3407 52.5795 55.6532 52.9015 55.8956 53.3182C56.138 53.7348 56.2592 54.2386 56.2592 54.8295C56.2592 55.4318 56.1134 55.9735 55.8217 56.4545C55.5301 56.9318 55.0907 57.3087 54.5036 57.5852C53.9164 57.8617 53.1778 58 52.2876 58H47.5774ZM49.6854 56.2386H51.9524C52.7176 56.2386 53.2687 56.0928 53.6058 55.8011C53.9467 55.5057 54.1172 55.1269 54.1172 54.6648C54.1172 54.3201 54.032 54.0095 53.8615 53.733C53.6911 53.4527 53.4486 53.233 53.1342 53.0739C52.8198 52.911 52.4448 52.8295 52.0092 52.8295H49.6854V56.2386ZM49.6854 51.3125H51.7706C52.1342 51.3125 52.4619 51.2462 52.7536 51.1136C53.0452 50.9773 53.2744 50.786 53.4411 50.5398C53.6115 50.2898 53.6967 49.9943 53.6967 49.6534C53.6967 49.2027 53.5376 48.8314 53.2195 48.5398C52.9051 48.2481 52.4373 48.1023 51.8161 48.1023H49.6854V51.3125ZM60.5135 58.1761C59.9605 58.1761 59.4624 58.0777 59.0192 57.8807C58.5798 57.6799 58.2313 57.3845 57.9737 56.9943C57.7199 56.6042 57.593 56.1231 57.593 55.5511C57.593 55.0587 57.6839 54.6515 57.8658 54.3295C58.0476 54.0076 58.2957 53.75 58.6101 53.5568C58.9245 53.3636 59.2786 53.2178 59.6726 53.1193C60.0703 53.017 60.4813 52.9432 60.9055 52.8977C61.4169 52.8447 61.8317 52.7973 62.1499 52.7557C62.468 52.7102 62.6991 52.642 62.843 52.5511C62.9908 52.4564 63.0646 52.3106 63.0646 52.1136V52.0795C63.0646 51.6515 62.9377 51.3201 62.6839 51.0852C62.4302 50.8504 62.0646 50.733 61.5874 50.733C61.0836 50.733 60.6839 50.8428 60.3885 51.0625C60.0968 51.2822 59.8999 51.5417 59.7976 51.8409L57.8771 51.5682C58.0286 51.0379 58.2786 50.5947 58.6271 50.2386C58.9756 49.8788 59.4018 49.6098 59.9055 49.4318C60.4093 49.25 60.9661 49.1591 61.576 49.1591C61.9964 49.1591 62.415 49.2083 62.8317 49.3068C63.2483 49.4053 63.629 49.5682 63.9737 49.7955C64.3184 50.0189 64.5949 50.3239 64.8033 50.7102C65.0154 51.0966 65.1214 51.5795 65.1214 52.1591V58H63.1442V56.8011H63.076C62.951 57.0436 62.7749 57.2708 62.5476 57.483C62.3241 57.6913 62.0419 57.8598 61.701 57.9886C61.3639 58.1136 60.968 58.1761 60.5135 58.1761ZM61.0476 56.6648C61.4605 56.6648 61.8184 56.5833 62.1214 56.4205C62.4245 56.2538 62.6574 56.0341 62.8203 55.7614C62.987 55.4886 63.0703 55.1913 63.0703 54.8693V53.8409C63.0059 53.8939 62.8961 53.9432 62.7408 53.9886C62.5893 54.0341 62.4188 54.0739 62.2294 54.108C62.04 54.142 61.8525 54.1723 61.6669 54.1989C61.4813 54.2254 61.3203 54.2481 61.1839 54.267C60.8771 54.3087 60.6025 54.3769 60.3601 54.4716C60.1177 54.5663 59.9264 54.6989 59.7862 54.8693C59.6461 55.036 59.576 55.2519 59.576 55.517C59.576 55.8958 59.7143 56.1818 59.9908 56.375C60.2673 56.5682 60.6196 56.6648 61.0476 56.6648ZM69.2464 52.8864V58H67.1896V49.2727H69.1555V50.7557H69.2578C69.4586 50.267 69.7786 49.8788 70.218 49.5909C70.6612 49.303 71.2086 49.1591 71.8601 49.1591C72.4624 49.1591 72.987 49.2879 73.4339 49.5455C73.8847 49.803 74.2332 50.1761 74.4794 50.6648C74.7294 51.1534 74.8525 51.7462 74.8487 52.4432V58H72.7919V52.7614C72.7919 52.178 72.6404 51.7216 72.3374 51.392C72.0381 51.0625 71.6233 50.8977 71.093 50.8977C70.7332 50.8977 70.4131 50.9773 70.1328 51.1364C69.8563 51.2917 69.6385 51.517 69.4794 51.8125C69.3241 52.108 69.2464 52.4659 69.2464 52.8864ZM78.8146 55.2614L78.8089 52.7784H79.1385L82.2749 49.2727H84.6783L80.8203 53.5682H80.3942L78.8146 55.2614ZM76.9396 58V46.3636H78.9964V58H76.9396ZM82.4169 58L79.576 54.0284L80.9624 52.5795L84.8771 58H82.4169ZM86.049 58V49.2727H88.1058V58H86.049ZM87.0831 48.0341C86.7536 48.0341 86.4714 47.9261 86.2365 47.7102C86.0054 47.4905 85.8899 47.2273 85.8899 46.9205C85.8899 46.6098 86.0073 46.3466 86.2422 46.1307C86.477 45.911 86.7573 45.8011 87.0831 45.8011C87.4089 45.8011 87.6873 45.911 87.9183 46.1307C88.1532 46.3466 88.2706 46.6098 88.2706 46.9205C88.2706 47.2273 88.1532 47.4905 87.9183 47.7102C87.6873 47.9261 87.4089 48.0341 87.0831 48.0341ZM92.2777 52.8864V58H90.2209V49.2727H92.1868V50.7557H92.2891C92.4898 50.267 92.8099 49.8788 93.2493 49.5909C93.6925 49.303 94.2398 49.1591 94.8913 49.1591C95.4936 49.1591 96.0182 49.2879 96.4652 49.5455C96.916 49.803 97.2644 50.1761 97.5107 50.6648C97.7607 51.1534 97.8838 51.7462 97.88 52.4432V58H95.8232V52.7614C95.8232 52.178 95.6716 51.7216 95.3686 51.392C95.0694 51.0625 94.6546 50.8977 94.1243 50.8977C93.7644 50.8977 93.4444 50.9773 93.1641 51.1364C92.8875 51.2917 92.6697 51.517 92.5107 51.8125C92.3554 52.108 92.2777 52.4659 92.2777 52.8864ZM103.766 61.4205C103.028 61.4205 102.393 61.322 101.863 61.125C101.333 60.928 100.906 60.6648 100.585 60.3352C100.263 60.0057 100.039 59.6439 99.9141 59.25L101.766 58.8011C101.85 58.9564 101.971 59.1155 102.13 59.2784C102.289 59.4451 102.503 59.5833 102.772 59.6932C103.045 59.8068 103.388 59.8636 103.8 59.8636C104.384 59.8636 104.867 59.7235 105.249 59.4432C105.632 59.1629 105.823 58.7102 105.823 58.0852V56.4318H105.721C105.615 56.6439 105.46 56.8617 105.255 57.0852C105.054 57.3087 104.787 57.4962 104.454 57.6477C104.124 57.7992 103.71 57.875 103.21 57.875C102.539 57.875 101.931 57.7178 101.386 57.4034C100.844 57.0852 100.412 56.6117 100.09 55.983C99.772 55.3504 99.6129 54.5587 99.6129 53.608C99.6129 52.6496 99.772 51.8409 100.09 51.1818C100.412 50.5189 100.846 50.017 101.391 49.6761C101.937 49.3314 102.545 49.1591 103.215 49.1591C103.727 49.1591 104.147 49.2462 104.477 49.4205C104.81 49.5909 105.075 49.7973 105.272 50.0398C105.469 50.2784 105.619 50.5038 105.721 50.7159H105.835V49.2727H107.863V58.142C107.863 58.8731 107.685 59.4811 107.329 59.9659C106.973 60.4545 106.486 60.8182 105.869 61.0568C105.251 61.2992 104.55 61.4205 103.766 61.4205ZM103.783 56.2614C104.219 56.2614 104.59 56.1553 104.897 55.9432C105.204 55.7311 105.437 55.4261 105.596 55.0284C105.755 54.6307 105.835 54.1534 105.835 53.5966C105.835 53.0473 105.755 52.5663 105.596 52.1534C105.441 51.7405 105.21 51.4205 104.903 51.1932C104.6 50.9621 104.227 50.8466 103.783 50.8466C103.325 50.8466 102.942 50.9659 102.636 51.2045C102.329 51.4432 102.098 51.7708 101.942 52.1875C101.787 52.6004 101.71 53.0701 101.71 53.5966C101.71 54.1307 101.787 54.5985 101.942 55C102.102 55.3977 102.335 55.7083 102.641 55.9318C102.952 56.1515 103.333 56.2614 103.783 56.2614Z" fill="#2B5F4D"/>
<path d="M38.8295 79L42.5412 71.6534V71.5938H38.233V70.2727H44.1776V71.6236L40.4702 79H38.8295ZM45.881 77.8068L45.8256 78.2756C45.7859 78.6335 45.7148 78.9972 45.6126 79.3665C45.5131 79.7386 45.408 80.081 45.2972 80.3935C45.1864 80.706 45.0969 80.9517 45.0288 81.1307H43.989C44.0288 80.9574 44.0827 80.7216 44.1509 80.4233C44.2219 80.125 44.2901 79.7898 44.3555 79.4176C44.4208 79.0455 44.4648 78.6676 44.4876 78.2841L44.5174 77.8068H45.881ZM50.4482 79.1193C50.0305 79.1165 49.6229 79.044 49.2251 78.902C48.8303 78.7571 48.4737 78.5227 48.1555 78.1989C47.8374 77.8722 47.5845 77.4389 47.397 76.8991C47.2095 76.3565 47.1158 75.6847 47.1158 74.8835C47.1158 74.1307 47.1953 73.4602 47.3544 72.8722C47.5135 72.2841 47.7422 71.7869 48.0405 71.3807C48.3388 70.9716 48.6982 70.6605 49.1186 70.4474C49.5419 70.2344 50.0149 70.1278 50.5376 70.1278C51.0859 70.1278 51.5717 70.2372 51.995 70.456C52.4212 70.6719 52.7649 70.9687 53.0263 71.3466C53.2876 71.7216 53.4496 72.1477 53.5121 72.625H51.9567C51.8771 72.2784 51.7138 72.0043 51.4666 71.8026C51.2223 71.598 50.9126 71.4957 50.5376 71.4957C49.9325 71.4957 49.4666 71.7599 49.1399 72.2884C48.8161 72.8168 48.6527 73.5455 48.6499 74.4744H48.7095C48.8487 74.2244 49.0291 74.0099 49.2507 73.831C49.4723 73.652 49.7223 73.5142 50.0007 73.4176C50.282 73.3182 50.5788 73.2685 50.8913 73.2685C51.4027 73.2685 51.8615 73.3906 52.2678 73.6349C52.6768 73.8793 53.0007 74.2159 53.2393 74.6449C53.478 75.071 53.5959 75.5597 53.593 76.1108C53.5959 76.6847 53.4652 77.2003 53.201 77.6577C52.9368 78.1122 52.5689 78.4702 52.0973 78.7315C51.6257 78.9929 51.076 79.1222 50.4482 79.1193ZM50.4396 77.8409C50.7493 77.8409 51.0263 77.7656 51.2706 77.6151C51.5149 77.4645 51.7081 77.2614 51.8501 77.0057C51.9922 76.75 52.0618 76.4631 52.0589 76.1449C52.0618 75.8324 51.9936 75.5497 51.8544 75.2969C51.718 75.044 51.5291 74.8437 51.2876 74.696C51.0462 74.5483 50.7706 74.4744 50.4609 74.4744C50.2308 74.4744 50.0163 74.5185 49.8175 74.6065C49.6186 74.6946 49.4453 74.8168 49.2976 74.973C49.1499 75.1264 49.0334 75.3054 48.9482 75.5099C48.8658 75.7116 48.8232 75.9276 48.8203 76.1577C48.8232 76.4616 48.8942 76.7415 49.0334 76.9972C49.1726 77.2528 49.3643 77.4574 49.6087 77.6108C49.853 77.7642 50.13 77.8409 50.4396 77.8409ZM58.2592 79.1662C57.5575 79.1662 56.9553 78.9886 56.4524 78.6335C55.9524 78.2756 55.5675 77.7599 55.2976 77.0866C55.0305 76.4105 54.897 75.5966 54.897 74.6449C54.8999 73.6932 55.0348 72.8835 55.3018 72.2159C55.5717 71.5455 55.9567 71.0341 56.4567 70.6818C56.9595 70.3295 57.5604 70.1534 58.2592 70.1534C58.9581 70.1534 59.5589 70.3295 60.0618 70.6818C60.5646 71.0341 60.9496 71.5455 61.2166 72.2159C61.4865 72.8864 61.6214 73.696 61.6214 74.6449C61.6214 75.5994 61.4865 76.4148 61.2166 77.0909C60.9496 77.7642 60.5646 78.2784 60.0618 78.6335C59.5618 78.9886 58.9609 79.1662 58.2592 79.1662ZM58.2592 77.8324C58.8047 77.8324 59.2351 77.5639 59.5504 77.027C59.8686 76.4872 60.0277 75.6932 60.0277 74.6449C60.0277 73.9517 59.9553 73.3693 59.8104 72.8977C59.6655 72.4261 59.4609 72.071 59.1967 71.8324C58.9325 71.5909 58.62 71.4702 58.2592 71.4702C57.7166 71.4702 57.2876 71.7401 56.9723 72.2798C56.657 72.8168 56.4979 73.6051 56.495 74.6449C56.4922 75.3409 56.5618 75.9261 56.7038 76.4006C56.8487 76.875 57.0533 77.233 57.3175 77.4744C57.5817 77.7131 57.8956 77.8324 58.2592 77.8324ZM66.2631 79.1662C65.5614 79.1662 64.9592 78.9886 64.4563 78.6335C63.9563 78.2756 63.5714 77.7599 63.3015 77.0866C63.0344 76.4105 62.9009 75.5966 62.9009 74.6449C62.9038 73.6932 63.0387 72.8835 63.3058 72.2159C63.5756 71.5455 63.9606 71.0341 64.4606 70.6818C64.9634 70.3295 65.5643 70.1534 66.2631 70.1534C66.962 70.1534 67.5629 70.3295 68.0657 70.6818C68.5685 71.0341 68.9535 71.5455 69.2205 72.2159C69.4904 72.8864 69.6254 73.696 69.6254 74.6449C69.6254 75.5994 69.4904 76.4148 69.2205 77.0909C68.9535 77.7642 68.5685 78.2784 68.0657 78.6335C67.5657 78.9886 66.9648 79.1662 66.2631 79.1662ZM66.2631 77.8324C66.8086 77.8324 67.239 77.5639 67.5543 77.027C67.8725 76.4872 68.0316 75.6932 68.0316 74.6449C68.0316 73.9517 67.9592 73.3693 67.8143 72.8977C67.6694 72.4261 67.4648 72.071 67.2006 71.8324C66.9364 71.5909 66.6239 71.4702 66.2631 71.4702C65.7205 71.4702 65.2915 71.7401 64.9762 72.2798C64.6609 72.8168 64.5018 73.6051 64.4989 74.6449C64.4961 75.3409 64.5657 75.9261 64.7077 76.4006C64.8526 76.875 65.0572 77.233 65.3214 77.4744C65.5856 77.7131 65.8995 77.8324 66.2631 77.8324ZM30.3217 91H29.2649C29.2024 90.696 29.093 90.429 28.9368 90.1989C28.7834 89.9688 28.5959 89.7756 28.3743 89.6193C28.1555 89.4602 27.9126 89.3409 27.6456 89.2614C27.3786 89.1818 27.1001 89.142 26.8104 89.142C26.282 89.142 25.8033 89.2756 25.3743 89.5426C24.9482 89.8097 24.6087 90.2031 24.3558 90.723C24.1058 91.2429 23.9808 91.8807 23.9808 92.6364C23.9808 93.392 24.1058 94.0298 24.3558 94.5497C24.6087 95.0696 24.9482 95.4631 25.3743 95.7301C25.8033 95.9972 26.282 96.1307 26.8104 96.1307C27.1001 96.1307 27.3786 96.0909 27.6456 96.0114C27.9126 95.9318 28.1555 95.8139 28.3743 95.6577C28.5959 95.4986 28.7834 95.304 28.9368 95.0739C29.093 94.8409 29.2024 94.5739 29.2649 94.2727H30.3217C30.2422 94.7187 30.0973 95.1179 29.8871 95.4702C29.6768 95.8224 29.4155 96.1222 29.103 96.3693C28.7905 96.6136 28.4396 96.7997 28.0504 96.9276C27.6641 97.0554 27.2507 97.1193 26.8104 97.1193C26.0661 97.1193 25.4041 96.9375 24.8246 96.5739C24.245 96.2102 23.7891 95.6932 23.4567 95.0227C23.1243 94.3523 22.9581 93.5568 22.9581 92.6364C22.9581 91.7159 23.1243 90.9205 23.4567 90.25C23.7891 89.5795 24.245 89.0625 24.8246 88.6989C25.4041 88.3352 26.0661 88.1534 26.8104 88.1534C27.2507 88.1534 27.6641 88.2173 28.0504 88.3452C28.4396 88.473 28.7905 88.6605 29.103 88.9077C29.4155 89.152 29.6768 89.4503 29.8871 89.8026C30.0973 90.152 30.2422 90.5511 30.3217 91ZM34.5522 97.1364C33.9613 97.1364 33.4428 96.9957 32.9968 96.7145C32.5536 96.4332 32.207 96.0398 31.957 95.5341C31.7099 95.0284 31.5863 94.4375 31.5863 93.7614C31.5863 93.0795 31.7099 92.4844 31.957 91.9759C32.207 91.4673 32.5536 91.0724 32.9968 90.7912C33.4428 90.5099 33.9613 90.3693 34.5522 90.3693C35.1431 90.3693 35.6602 90.5099 36.1033 90.7912C36.5494 91.0724 36.896 91.4673 37.1431 91.9759C37.3931 92.4844 37.5181 93.0795 37.5181 93.7614C37.5181 94.4375 37.3931 95.0284 37.1431 95.5341C36.896 96.0398 36.5494 96.4332 36.1033 96.7145C35.6602 96.9957 35.1431 97.1364 34.5522 97.1364ZM34.5522 96.233C35.0011 96.233 35.3704 96.1179 35.6602 95.8878C35.9499 95.6577 36.1644 95.3551 36.3036 94.9801C36.4428 94.6051 36.5124 94.1989 36.5124 93.7614C36.5124 93.3239 36.4428 92.9162 36.3036 92.5384C36.1644 92.1605 35.9499 91.8551 35.6602 91.6222C35.3704 91.3892 35.0011 91.2727 34.5522 91.2727C34.1033 91.2727 33.734 91.3892 33.4442 91.6222C33.1545 91.8551 32.94 92.1605 32.8008 92.5384C32.6616 92.9162 32.592 93.3239 32.592 93.7614C32.592 94.1989 32.6616 94.6051 32.8008 94.9801C32.94 95.3551 33.1545 95.6577 33.4442 95.8878C33.734 96.1179 34.1033 96.233 34.5522 96.233ZM39.0533 97V90.4545H40.0249V91.4773H40.1101C40.2464 91.1278 40.4666 90.8565 40.7706 90.6634C41.0746 90.4673 41.4396 90.3693 41.8658 90.3693C42.2976 90.3693 42.657 90.4673 42.9439 90.6634C43.2337 90.8565 43.4595 91.1278 43.6214 91.4773H43.6896C43.8572 91.1392 44.1087 90.8707 44.4439 90.6719C44.7791 90.4702 45.1811 90.3693 45.6499 90.3693C46.2351 90.3693 46.7138 90.5526 47.0859 90.919C47.4581 91.2827 47.6442 91.8494 47.6442 92.6193V97H46.6385V92.6193C46.6385 92.1364 46.5064 91.7912 46.2422 91.5838C45.978 91.3764 45.6669 91.2727 45.3089 91.2727C44.8487 91.2727 44.4922 91.4119 44.2393 91.6903C43.9865 91.9659 43.8601 92.3153 43.8601 92.7386V97H42.8374V92.517C42.8374 92.1449 42.7166 91.8452 42.4751 91.6179C42.2337 91.3878 41.9226 91.2727 41.5419 91.2727C41.2805 91.2727 41.0362 91.3423 40.8089 91.4815C40.5845 91.6207 40.4027 91.8139 40.2635 92.0611C40.1271 92.3054 40.0589 92.5881 40.0589 92.9091V97H39.0533ZM49.483 99.4545V90.4545H50.4545V91.4943H50.5739C50.6477 91.3807 50.75 91.2358 50.8807 91.0597C51.0142 90.8807 51.2045 90.7216 51.4517 90.5824C51.7017 90.4403 52.0398 90.3693 52.4659 90.3693C53.017 90.3693 53.5028 90.5071 53.9233 90.7827C54.3438 91.0582 54.6719 91.4489 54.9077 91.9545C55.1435 92.4602 55.2614 93.0568 55.2614 93.7443C55.2614 94.4375 55.1435 95.0384 54.9077 95.5469C54.6719 96.0526 54.3452 96.4446 53.9276 96.723C53.5099 96.9986 53.0284 97.1364 52.483 97.1364C52.0625 97.1364 51.7259 97.0668 51.473 96.9276C51.2202 96.7855 51.0256 96.625 50.8892 96.446C50.7528 96.2642 50.6477 96.1136 50.5739 95.9943H50.4886V99.4545H49.483ZM50.4716 93.7273C50.4716 94.2216 50.544 94.6577 50.6889 95.0355C50.8338 95.4105 51.0455 95.7045 51.3239 95.9176C51.6023 96.1278 51.9432 96.233 52.3466 96.233C52.767 96.233 53.1179 96.1222 53.3991 95.9006C53.6832 95.6761 53.8963 95.375 54.0384 94.9972C54.1832 94.6165 54.2557 94.1932 54.2557 93.7273C54.2557 93.267 54.1847 92.8523 54.0426 92.483C53.9034 92.1108 53.6918 91.8168 53.4077 91.6009C53.1264 91.3821 52.7727 91.2727 52.3466 91.2727C51.9375 91.2727 51.5938 91.3764 51.3153 91.5838C51.0369 91.7884 50.8267 92.0753 50.6847 92.4446C50.5426 92.8111 50.4716 93.2386 50.4716 93.7273ZM58.7216 97.1534C58.3068 97.1534 57.9304 97.0753 57.5923 96.919C57.2543 96.7599 56.9858 96.5312 56.7869 96.233C56.5881 95.9318 56.4886 95.5682 56.4886 95.142C56.4886 94.767 56.5625 94.4631 56.7102 94.2301C56.858 93.9943 57.0554 93.8097 57.3026 93.6761C57.5497 93.5426 57.8224 93.4432 58.1207 93.3778C58.4219 93.3097 58.7244 93.2557 59.0284 93.2159C59.4261 93.1648 59.7486 93.1264 59.9957 93.1009C60.2457 93.0724 60.4276 93.0256 60.5412 92.9602C60.6577 92.8949 60.7159 92.7812 60.7159 92.6193V92.5852C60.7159 92.1648 60.6009 91.8381 60.3707 91.6051C60.1435 91.3722 59.7983 91.2557 59.3352 91.2557C58.8551 91.2557 58.4787 91.3608 58.206 91.571C57.9332 91.7812 57.7415 92.0057 57.6307 92.2443L56.6761 91.9034C56.8466 91.5057 57.0739 91.196 57.358 90.9744C57.6449 90.75 57.9574 90.5937 58.2955 90.5057C58.6364 90.4148 58.9716 90.3693 59.3011 90.3693C59.5114 90.3693 59.7528 90.3949 60.0256 90.446C60.3011 90.4943 60.5668 90.5952 60.8224 90.7486C61.081 90.902 61.2955 91.1335 61.4659 91.4432C61.6364 91.7528 61.7216 92.1676 61.7216 92.6875V97H60.7159V96.1136H60.6648C60.5966 96.2557 60.483 96.4077 60.3239 96.5696C60.1648 96.7315 59.9531 96.8693 59.6889 96.983C59.4247 97.0966 59.1023 97.1534 58.7216 97.1534ZM58.875 96.25C59.2727 96.25 59.608 96.1719 59.8807 96.0156C60.1563 95.8594 60.3636 95.6577 60.5028 95.4105C60.6449 95.1634 60.7159 94.9034 60.7159 94.6307V93.7102C60.6733 93.7614 60.5795 93.8082 60.4347 93.8509C60.2926 93.8906 60.1278 93.9261 59.9403 93.9574C59.7557 93.9858 59.5753 94.0114 59.3991 94.0341C59.2259 94.054 59.0852 94.071 58.9773 94.0852C58.7159 94.1193 58.4716 94.1747 58.2443 94.2514C58.0199 94.3253 57.8381 94.4375 57.6989 94.5881C57.5625 94.7358 57.4943 94.9375 57.4943 95.1932C57.4943 95.5426 57.6236 95.8068 57.8821 95.9858C58.1435 96.1619 58.4744 96.25 58.875 96.25ZM64.5629 93.0625V97H63.5572V90.4545H64.5288V91.4773H64.614C64.7674 91.1449 65.0004 90.8778 65.3129 90.6761C65.6254 90.4716 66.0288 90.3693 66.5231 90.3693C66.9663 90.3693 67.354 90.4602 67.6864 90.642C68.0188 90.821 68.2773 91.0938 68.462 91.4602C68.6467 91.8239 68.739 92.2841 68.739 92.8409V97H67.7333V92.9091C67.7333 92.3949 67.5998 91.9943 67.3327 91.7074C67.0657 91.4176 66.6992 91.2727 66.2333 91.2727C65.9123 91.2727 65.6254 91.3423 65.3725 91.4815C65.1225 91.6207 64.9251 91.8239 64.7802 92.0909C64.6353 92.358 64.5629 92.6818 64.5629 93.0625ZM70.5767 97V90.4545H71.5824V97H70.5767ZM71.0881 89.3636C70.892 89.3636 70.723 89.2969 70.581 89.1634C70.4418 89.0298 70.3722 88.8693 70.3722 88.6818C70.3722 88.4943 70.4418 88.3338 70.581 88.2003C70.723 88.0668 70.892 88 71.0881 88C71.2841 88 71.4517 88.0668 71.5909 88.2003C71.733 88.3338 71.804 88.4943 71.804 88.6818C71.804 88.8693 71.733 89.0298 71.5909 89.1634C71.4517 89.2969 71.2841 89.3636 71.0881 89.3636ZM76.1687 97.1364C75.538 97.1364 74.994 96.9972 74.5366 96.7188C74.082 96.4375 73.7312 96.0455 73.484 95.5426C73.2397 95.0369 73.1175 94.4489 73.1175 93.7784C73.1175 93.108 73.2397 92.517 73.484 92.0057C73.7312 91.4915 74.0749 91.0909 74.5153 90.804C74.9585 90.5142 75.4755 90.3693 76.0664 90.3693C76.4073 90.3693 76.744 90.4261 77.0763 90.5398C77.4087 90.6534 77.7113 90.8381 77.984 91.0938C78.2567 91.3466 78.4741 91.6818 78.636 92.0994C78.7979 92.517 78.8789 93.0312 78.8789 93.642V94.0682H73.8335V93.1989H77.8562C77.8562 92.8295 77.7823 92.5 77.6346 92.2102C77.4897 91.9205 77.2823 91.6918 77.0124 91.5241C76.7454 91.3565 76.43 91.2727 76.0664 91.2727C75.6658 91.2727 75.3192 91.3722 75.0266 91.571C74.7369 91.767 74.5138 92.0227 74.3576 92.3381C74.2013 92.6534 74.1232 92.9915 74.1232 93.3523V93.9318C74.1232 94.4261 74.2085 94.8452 74.3789 95.1889C74.5522 95.5298 74.7923 95.7898 75.0991 95.9688C75.4059 96.1449 75.7624 96.233 76.1687 96.233C76.4329 96.233 76.6715 96.196 76.8846 96.1222C77.1005 96.0455 77.2866 95.9318 77.4428 95.7812C77.5991 95.6278 77.7198 95.4375 77.805 95.2102L78.7766 95.483C78.6744 95.8125 78.5025 96.1023 78.261 96.3523C78.0195 96.5994 77.7212 96.7926 77.3661 96.9318C77.011 97.0682 76.6119 97.1364 76.1687 97.1364ZM85.0451 91.9205L84.1417 92.1761C84.0849 92.0256 84.0011 91.8793 83.8903 91.7372C83.7823 91.5923 83.6346 91.473 83.4471 91.3793C83.2596 91.2855 83.0195 91.2386 82.7269 91.2386C82.3263 91.2386 81.9925 91.331 81.7255 91.5156C81.4613 91.6974 81.3292 91.929 81.3292 92.2102C81.3292 92.4602 81.4201 92.6577 81.6019 92.8026C81.7837 92.9474 82.0678 93.0682 82.4542 93.1648L83.4258 93.4034C84.011 93.5455 84.4471 93.7628 84.734 94.0554C85.021 94.3452 85.1644 94.7187 85.1644 95.1761C85.1644 95.5511 85.0565 95.8864 84.8406 96.1818C84.6275 96.4773 84.3292 96.7102 83.9457 96.8807C83.5621 97.0511 83.1161 97.1364 82.6076 97.1364C81.94 97.1364 81.3874 96.9915 80.9499 96.7017C80.5124 96.4119 80.2354 95.9886 80.119 95.4318L81.0735 95.1932C81.1644 95.5455 81.3363 95.8097 81.5891 95.9858C81.8448 96.1619 82.1786 96.25 82.5906 96.25C83.0593 96.25 83.4315 96.1506 83.707 95.9517C83.9854 95.75 84.1246 95.5085 84.1246 95.2273C84.1246 95 84.0451 94.8097 83.886 94.6562C83.7269 94.5 83.4826 94.3835 83.1531 94.3068L82.0621 94.0511C81.4627 93.9091 81.0224 93.6889 80.7411 93.3906C80.4627 93.0895 80.3235 92.7131 80.3235 92.2614C80.3235 91.892 80.4272 91.5653 80.6346 91.2812C80.8448 90.9972 81.1303 90.7741 81.4911 90.6122C81.8548 90.4503 82.2667 90.3693 82.7269 90.3693C83.3746 90.3693 83.8832 90.5114 84.2525 90.7955C84.6246 91.0795 84.8888 91.4545 85.0451 91.9205Z" fill="#2B5F4D"/>
</svg>
