<svg width="16" height="16" viewBox="0 0 16 16" fill="none" xmlns="http://www.w3.org/2000/svg">
<path d="M0.833172 12.8485H3.16651C3.18842 12.8486 3.21013 12.8424 3.23039 12.8303C3.25065 12.8181 3.26906 12.8003 3.28455 12.7778C3.30005 12.7552 3.31232 12.7284 3.32066 12.699C3.32901 12.6695 3.33326 12.6379 3.33317 12.6061V10.6667C3.33317 10.4095 3.26293 10.1628 3.13791 9.98098C3.01289 9.79912 2.84332 9.69696 2.66651 9.69696H1.33317C1.15636 9.69696 0.986792 9.79912 0.861767 9.98098C0.736743 10.1628 0.666505 10.4095 0.666505 10.6667V12.6061C0.666417 12.6379 0.670668 12.6695 0.679012 12.699C0.687357 12.7284 0.69963 12.7552 0.715124 12.7778C0.730618 12.8003 0.749026 12.8181 0.769287 12.8303C0.789548 12.8424 0.81126 12.8486 0.833172 12.8485Z" fill="currentColor"/>
<path d="M5.33317 4.84845C5.15636 4.84845 4.98679 4.95061 4.86177 5.13247C4.73674 5.31432 4.66651 5.56097 4.66651 5.81815V12.606C4.66642 12.6379 4.67067 12.6695 4.67901 12.6989C4.68736 12.7284 4.69963 12.7552 4.71512 12.7777C4.73062 12.8003 4.74903 12.8181 4.76929 12.8303C4.78955 12.8424 4.81126 12.8486 4.83317 12.8484H7.16651C7.18842 12.8486 7.21013 12.8424 7.23039 12.8303C7.25065 12.8181 7.26906 12.8003 7.28455 12.7777C7.30005 12.7552 7.31232 12.7284 7.32066 12.6989C7.32901 12.6695 7.33326 12.6379 7.33317 12.606V5.81815C7.33317 5.56097 7.26293 5.31432 7.13791 5.13247C7.01289 4.95061 6.84332 4.84845 6.66651 4.84845H5.33317Z" fill="currentColor"/>
<path d="M9.33317 6.7879C9.15636 6.7879 8.98679 6.89007 8.86177 7.07192C8.73674 7.25377 8.66651 7.50042 8.66651 7.7576V12.6061C8.66642 12.638 8.67067 12.6695 8.67901 12.699C8.68736 12.7285 8.69963 12.7553 8.71512 12.7778C8.73062 12.8003 8.74903 12.8182 8.76929 12.8303C8.78955 12.8425 8.81126 12.8486 8.83317 12.8485H11.1665C11.1884 12.8486 11.2101 12.8425 11.2304 12.8303C11.2507 12.8182 11.2691 12.8003 11.2846 12.7778C11.3 12.7553 11.3123 12.7285 11.3207 12.699C11.329 12.6695 11.3333 12.638 11.3332 12.6061V7.7576C11.3332 7.50042 11.2629 7.25377 11.1379 7.07192C11.0129 6.89007 10.8433 6.7879 10.6665 6.7879H9.33317Z" fill="currentColor"/>
<path d="M12.8333 12.8485H15.1666C15.1885 12.8486 15.2103 12.8424 15.2305 12.8303C15.2508 12.8181 15.2692 12.8003 15.2847 12.7778C15.3002 12.7552 15.3124 12.7284 15.3208 12.699C15.3291 12.6695 15.3334 12.6379 15.3333 12.6061V0.969697C15.3333 0.712517 15.2631 0.465871 15.138 0.284018C15.013 0.102164 14.8434 0 14.6666 0H13.3333C13.1565 0 12.9869 0.102164 12.8619 0.284018C12.7369 0.465871 12.6666 0.712517 12.6666 0.969697V12.6061C12.6665 12.6379 12.6708 12.6695 12.6791 12.699C12.6875 12.7284 12.6998 12.7552 12.7152 12.7778C12.7307 12.8003 12.7491 12.8181 12.7694 12.8303C12.7897 12.8424 12.8114 12.8486 12.8333 12.8485Z" fill="currentColor"/>
<path d="M0.666667 16H15.3333C15.5101 16 15.6797 15.8978 15.8047 15.716C15.9298 15.5341 16 15.2875 16 15.0303C16 14.7731 15.9298 14.5265 15.8047 14.3446C15.6797 14.1628 15.5101 14.0606 15.3333 14.0606H0.666667C0.489856 14.0606 0.320286 14.1628 0.195262 14.3446C0.0702379 14.5265 0 14.7731 0 15.0303C0 15.2875 0.0702379 15.5341 0.195262 15.716C0.320286 15.8978 0.489856 16 0.666667 16Z" fill="currentColor"/>
</svg>
