<svg width="48" height="48" viewBox="0 0 48 48" fill="none" xmlns="http://www.w3.org/2000/svg">
<g clip-path="url(#clip0)">
<path d="M18 16H30C30.5304 16 31.0391 15.7893 31.4142 15.4142C31.7893 15.0391 32 14.5304 32 14C32 13.4696 31.7893 12.9609 31.4142 12.5858C31.0391 12.2107 30.5304 12 30 12H18C17.4696 12 16.9609 12.2107 16.5858 12.5858C16.2107 12.9609 16 13.4696 16 14C16 14.5304 16.2107 15.0391 16.5858 15.4142C16.9609 15.7893 17.4696 16 18 16Z" fill="currentColor"/>
<path d="M18.942 9C18.9724 9.24319 19.091 9.46675 19.2754 9.62823C19.4597 9.78972 19.697 9.87789 19.942 9.876H28.07C28.3151 9.87789 28.5523 9.78972 28.7367 9.62823C28.921 9.46675 29.0396 9.24319 29.07 9C29.5009 6.83887 30.318 4.77315 31.482 2.902C31.5832 2.71905 31.6244 2.50901 31.6 2.30139C31.5756 2.09377 31.4868 1.89903 31.346 1.74452C31.2051 1.59002 31.0194 1.48353 30.815 1.44003C30.6105 1.39653 30.3975 1.4182 30.206 1.502L26.482 3.102C26.4208 3.12808 26.355 3.14166 26.2884 3.14197C26.2218 3.14227 26.1559 3.12928 26.0944 3.10376C26.0329 3.07824 25.9772 3.0407 25.9304 2.99335C25.8836 2.946 25.8468 2.88978 25.822 2.828L24.94 0.628C24.8656 0.442734 24.7375 0.283972 24.5721 0.172154C24.4067 0.0603354 24.2117 0.000579834 24.012 0.000579834C23.8124 0.000579834 23.6173 0.0603354 23.4519 0.172154C23.2865 0.283972 23.1584 0.442734 23.084 0.628L22.202 2.828C22.1773 2.88978 22.1404 2.946 22.0936 2.99335C22.0469 3.0407 21.9911 3.07824 21.9296 3.10376C21.8682 3.12928 21.8022 3.14227 21.7357 3.14197C21.6691 3.14166 21.6033 3.12808 21.542 3.102L17.8 1.51C17.6085 1.4262 17.3955 1.40453 17.1911 1.44803C16.9866 1.49153 16.8009 1.59802 16.6601 1.75252C16.5193 1.90703 16.4304 2.10177 16.406 2.30939C16.3816 2.51701 16.4229 2.72705 16.524 2.91C17.6893 4.77829 18.5083 6.84125 18.942 9Z" fill="currentColor"/>
<path d="M30.876 18.242C30.6708 18.0856 30.42 18.0006 30.162 18H17.838C17.5798 17.9997 17.3288 18.0848 17.124 18.242C12.022 22.142 6.32398 29.042 6.32398 35.042C6.31998 43.5 11.036 48 24 48C36.964 48 41.68 43.5 41.68 35.036C41.68 29.046 35.98 22.142 30.876 18.242ZM25.91 40.26C25.7949 40.2811 25.6908 40.3418 25.6159 40.4317C25.5409 40.5216 25.4999 40.635 25.5 40.752V41.5C25.5 41.8978 25.3419 42.2794 25.0606 42.5607C24.7793 42.842 24.3978 43 24 43C23.6022 43 23.2206 42.842 22.9393 42.5607C22.658 42.2794 22.5 41.8978 22.5 41.5V40.854C22.5 40.7214 22.4473 40.5942 22.3535 40.5004C22.2598 40.4067 22.1326 40.354 22 40.354H20.824C20.4262 40.354 20.0446 40.196 19.7633 39.9147C19.482 39.6334 19.324 39.2518 19.324 38.854C19.324 38.4562 19.482 38.0746 19.7633 37.7933C20.0446 37.512 20.4262 37.354 20.824 37.354H25.128C25.44 37.3544 25.7424 37.246 25.9831 37.0475C26.2239 36.8491 26.388 36.5729 26.4472 36.2666C26.5064 35.9602 26.4569 35.6428 26.3074 35.369C26.1579 35.0951 25.9177 34.8819 25.628 34.766L21.258 33.02C20.3846 32.6722 19.6481 32.0494 19.1601 31.2459C18.672 30.4424 18.4589 29.5018 18.5529 28.5664C18.6469 27.631 19.0429 26.7516 19.6811 26.0612C20.3192 25.3709 21.1648 24.9071 22.09 24.74C22.2051 24.7189 22.3092 24.6582 22.3841 24.5683C22.459 24.4784 22.5 24.365 22.5 24.248V23.5C22.5 23.1022 22.658 22.7206 22.9393 22.4393C23.2206 22.158 23.6022 22 24 22C24.3978 22 24.7793 22.158 25.0606 22.4393C25.3419 22.7206 25.5 23.1022 25.5 23.5V24.146C25.5 24.2786 25.5527 24.4058 25.6464 24.4996C25.7402 24.5933 25.8674 24.646 26 24.646H27.176C27.5738 24.646 27.9553 24.804 28.2366 25.0853C28.5179 25.3666 28.676 25.7482 28.676 26.146C28.676 26.5438 28.5179 26.9254 28.2366 27.2067C27.9553 27.488 27.5738 27.646 27.176 27.646H22.872C22.56 27.6456 22.2576 27.754 22.0168 27.9525C21.7761 28.1509 21.612 28.4271 21.5528 28.7334C21.4936 29.0398 21.543 29.3572 21.6925 29.631C21.842 29.9049 22.0823 30.1181 22.372 30.234L26.742 31.98C27.6154 32.3278 28.3518 32.9506 28.8399 33.7541C29.3279 34.5576 29.5411 35.4982 29.4471 36.4336C29.3531 37.369 28.9571 38.2484 28.3189 38.9388C27.6807 39.6291 26.8351 40.0929 25.91 40.26Z" fill="currentColor"/>
</g>
<defs>
<clipPath id="clip0">
<rect width="48" height="48" fill="white"/>
</clipPath>
</defs>
</svg>
