<svg width="48" height="48" viewBox="0 0 48 48" fill="none" xmlns="http://www.w3.org/2000/svg">
<g clip-path="url(#clip0)">
<path d="M47.768 46.36L42.768 40.36C42.6742 40.2474 42.5568 40.1568 42.424 40.0945C42.2913 40.0323 42.1466 40.0001 42 40H5.99999C5.85342 40.0001 5.70865 40.0323 5.57593 40.0945C5.44322 40.1568 5.3258 40.2474 5.23199 40.36L0.231992 46.36C0.110383 46.506 0.032888 46.6836 0.00858192 46.8721C-0.0157241 47.0605 0.0141648 47.252 0.0947488 47.4241C0.175333 47.5962 0.303276 47.7417 0.463596 47.8437C0.623917 47.9457 0.809978 47.9999 0.999992 48H47C47.19 47.9999 47.3761 47.9457 47.5364 47.8437C47.6967 47.7417 47.8246 47.5962 47.9052 47.4241C47.9858 47.252 48.0157 47.0605 47.9914 46.8721C47.9671 46.6836 47.8896 46.506 47.768 46.36Z" fill="currentColor"/>
<path d="M13 21H7C6.44772 21 6 21.4477 6 22V37C6 37.5523 6.44772 38 7 38H13C13.5523 38 14 37.5523 14 37V22C14 21.4477 13.5523 21 13 21Z" fill="currentColor"/>
<path d="M27 21H21C20.4477 21 20 21.4477 20 22V37C20 37.5523 20.4477 38 21 38H27C27.5523 38 28 37.5523 28 37V22C28 21.4477 27.5523 21 27 21Z" fill="currentColor"/>
<path d="M41 21H35C34.4477 21 34 21.4477 34 22V37C34 37.5523 34.4477 38 35 38H41C41.5523 38 42 37.5523 42 37V22C42 21.4477 41.5523 21 41 21Z" fill="currentColor"/>
<path d="M4.16797 18.554C4.25921 18.6911 4.38289 18.8035 4.52803 18.8814C4.67318 18.9592 4.83529 18.9999 4.99997 19H43C43.1647 18.9999 43.3268 18.9592 43.4719 18.8814C43.6171 18.8035 43.7407 18.6911 43.832 18.554L45.832 15.554C45.9322 15.4034 45.9897 15.2285 45.9983 15.0478C46.007 14.8671 45.9664 14.6875 45.8811 14.528C45.7957 14.3685 45.6686 14.2352 45.5135 14.1422C45.3583 14.0492 45.1809 14.0001 45 14H2.99997C2.81909 14.0001 2.64162 14.0492 2.48646 14.1422C2.3313 14.2352 2.20427 14.3685 2.11889 14.528C2.03351 14.6875 1.99299 14.8671 2.00163 15.0478C2.01027 15.2285 2.06776 15.4034 2.16797 15.554L4.16797 18.554Z" fill="currentColor"/>
<path d="M3.00003 12H45C45.2274 12.0006 45.4482 11.9237 45.6259 11.7819C45.8037 11.6402 45.9279 11.4421 45.9779 11.2203C46.028 10.9985 46.001 10.7663 45.9014 10.5619C45.8018 10.3576 45.6356 10.1932 45.43 10.096L24.43 0.0960195C24.2955 0.0328636 24.1487 0.00012207 24 0.00012207C23.8514 0.00012207 23.7046 0.0328636 23.57 0.0960195L2.57003 10.096C2.3645 10.1932 2.19823 10.3576 2.09862 10.5619C1.99902 10.7663 1.97204 10.9985 2.02213 11.2203C2.07221 11.4421 2.19637 11.6402 2.37414 11.7819C2.55191 11.9237 2.77268 12.0006 3.00003 12Z" fill="currentColor"/>
</g>
<defs>
<clipPath id="clip0">
<rect width="48" height="48" fill="white"/>
</clipPath>
</defs>
</svg>
