<svg width="48" height="48" viewBox="0 0 48 48" fill="none" xmlns="http://www.w3.org/2000/svg">
<path d="M16.444 38.95C16.5727 38.9453 16.6946 38.8907 16.7838 38.7978C16.873 38.7048 16.9226 38.5808 16.922 38.452V33.77C16.922 33.7024 16.9084 33.6356 16.8819 33.5734C16.8554 33.5113 16.8166 33.4552 16.7678 33.4084C16.719 33.3617 16.6613 33.3253 16.5981 33.3016C16.5348 33.2778 16.4674 33.267 16.4 33.27C15.6 33.306 14.8 33.324 14 33.324C9.79458 33.4294 5.60178 32.8208 1.59995 31.524C1.52355 31.4949 1.44118 31.4849 1.36004 31.495C1.27891 31.5052 1.20149 31.535 1.13458 31.582C1.06766 31.629 1.01329 31.6916 0.976217 31.7645C0.939148 31.8374 0.920515 31.9182 0.921952 32V36.306C0.921952 37.8 6.77595 39 14 39C14.836 39 15.6506 38.9833 16.444 38.95Z" fill="currentColor"/>
<path d="M14 15.324C18.3784 15.5478 22.7525 14.8056 26.812 13.15C26.8925 13.1076 26.9598 13.044 27.0067 12.9661C27.0536 12.8882 27.0782 12.7989 27.078 12.708V8C27.078 7.9186 27.0582 7.83842 27.0202 7.76642C26.9823 7.69442 26.9273 7.63279 26.8601 7.58686C26.7929 7.54094 26.7155 7.51212 26.6346 7.50291C26.5537 7.49369 26.4718 7.50437 26.396 7.534C22.3942 8.8308 18.2014 9.43943 13.996 9.334C9.79062 9.43943 5.59782 8.8308 1.596 7.534C1.52061 7.50601 1.43958 7.49662 1.35978 7.50663C1.27999 7.51663 1.20379 7.54573 1.13764 7.59147C1.07149 7.6372 1.01735 7.69822 0.97981 7.76934C0.94227 7.84045 0.922438 7.91958 0.921997 8V12.71C0.922117 12.8006 0.94695 12.8894 0.993822 12.967C1.04069 13.0445 1.10783 13.1078 1.188 13.15C5.24753 14.8056 9.62157 15.5478 14 15.324Z" fill="currentColor"/>
<path d="M13.9999 7.324C18.3783 7.54777 22.7523 6.80557 26.8119 5.15C26.8923 5.10764 26.9597 5.04405 27.0066 4.96613C27.0535 4.88821 27.0781 4.79894 27.0779 4.708V3.866C27.0779 2.376 21.2239 1.164 13.9999 1.164C6.77588 1.164 0.921875 2.376 0.921875 3.866V4.71C0.921995 4.8006 0.946828 4.88945 0.9937 4.96698C1.04057 5.04452 1.10771 5.10779 1.18787 5.15C5.24741 6.80557 9.62145 7.54777 13.9999 7.324Z" fill="currentColor"/>
<path d="M14 31.324C14.854 31.324 15.668 31.302 16.446 31.266C16.5744 31.2598 16.6955 31.2044 16.7841 31.1113C16.8728 31.0182 16.9221 30.8945 16.922 30.766V27.702C16.9029 27.0988 17.0014 26.4976 17.212 25.932C17.2427 25.8543 17.2533 25.7702 17.2428 25.6873C17.2323 25.6044 17.2011 25.5256 17.152 25.458C17.102 25.3916 17.0365 25.3387 16.9611 25.3038C16.8857 25.2689 16.8029 25.2532 16.72 25.258C15.814 25.306 14.904 25.332 14 25.332C9.79462 25.4374 5.60182 24.8288 1.6 23.532C1.52423 23.5031 1.44259 23.4931 1.3621 23.5028C1.28161 23.5126 1.20468 23.5417 1.13796 23.5877C1.07124 23.6338 1.01671 23.6954 0.979092 23.7672C0.941469 23.839 0.921875 23.9189 0.921998 24V28.718C0.922118 28.8086 0.946951 28.8974 0.993823 28.975C1.04069 29.0525 1.10783 29.1158 1.188 29.158C5.24814 30.8108 9.62217 31.5503 14 31.324Z" fill="currentColor"/>
<path d="M14 23.324C18.3536 23.2672 22.6718 22.5337 26.8 21.15C26.8807 21.1077 26.9483 21.0442 26.9955 20.9663C27.0428 20.8884 27.0678 20.7991 27.068 20.708V16C27.068 15.9186 27.0482 15.8384 27.0102 15.7664C26.9723 15.6944 26.9173 15.6328 26.8501 15.5869C26.7829 15.5409 26.7055 15.5121 26.6246 15.5029C26.5437 15.4937 26.4618 15.5044 26.386 15.534C22.3842 16.8308 18.1914 17.4394 13.986 17.334C9.78062 17.4394 5.58782 16.8308 1.586 15.534C1.51116 15.508 1.43122 15.5002 1.35276 15.5111C1.2743 15.5221 1.19957 15.5515 1.13473 15.5971C1.06988 15.6426 1.01678 15.7028 0.979796 15.7729C0.942809 15.8429 0.922999 15.9208 0.921997 16V20.718C0.922117 20.8086 0.94695 20.8974 0.993822 20.975C1.04069 21.0525 1.10783 21.1158 1.188 21.158C5.24814 22.8108 9.62216 23.5503 14 23.324Z" fill="currentColor"/>
<path d="M21.6 31.362C21.5242 31.3324 21.4423 31.3217 21.3614 31.3309C21.2805 31.3401 21.2031 31.3689 21.1359 31.4149C21.0687 31.4608 21.0137 31.5224 20.9757 31.5944C20.9377 31.6664 20.9179 31.7466 20.918 31.828V36.544C20.9177 36.6349 20.9424 36.7242 20.9893 36.8021C21.0362 36.88 21.1035 36.9436 21.184 36.986C25.2447 38.6421 29.6202 39.3844 34 39.16C38.3784 39.3838 42.7524 38.6416 46.812 36.986C46.8923 36.9435 46.9595 36.8798 47.0064 36.802C47.0532 36.7241 47.078 36.6349 47.078 36.544V31.828C47.078 31.7466 47.0582 31.6664 47.0202 31.5944C46.9822 31.5224 46.9273 31.4608 46.8601 31.4149C46.7928 31.3689 46.7154 31.3401 46.6346 31.3309C46.5537 31.3217 46.4718 31.3324 46.396 31.362C42.3941 32.6588 38.2013 33.2674 33.996 33.162C29.7919 33.267 25.6005 32.6584 21.6 31.362Z" fill="currentColor"/>
<path d="M34 41.16C29.7946 41.2654 25.6018 40.6568 21.6 39.36C21.5242 39.3304 21.4423 39.3197 21.3614 39.3289C21.2805 39.3381 21.2031 39.3669 21.1359 39.4129C21.0687 39.4588 21.0137 39.5204 20.9757 39.5924C20.9377 39.6644 20.9179 39.7446 20.918 39.826V44.132C20.918 45.626 26.772 46.834 33.996 46.834C41.22 46.834 47.074 45.634 47.074 44.132V39.828C47.074 39.7466 47.0542 39.6664 47.0162 39.5944C46.9782 39.5224 46.9233 39.4608 46.8561 39.4149C46.7888 39.3689 46.7114 39.3401 46.6306 39.3309C46.5497 39.3217 46.4678 39.3324 46.392 39.362C42.3926 40.6572 38.2026 41.2652 34 41.16Z" fill="currentColor"/>
<path d="M20.922 27.702V28.544C20.9218 28.6349 20.9464 28.7242 20.9933 28.8021C21.0402 28.88 21.1075 28.9436 21.188 28.986C25.2475 30.6416 29.6216 31.3838 34 31.16C38.3784 31.3838 42.7525 30.6416 46.812 28.986C46.8925 28.9436 46.9598 28.88 47.0067 28.8021C47.0536 28.7242 47.0782 28.6349 47.078 28.544V27.702C47.078 26.212 41.224 25 34 25C26.776 25 20.922 26.212 20.922 27.702Z" fill="currentColor"/>
</svg>
