<svg width="16" height="16" viewBox="0 0 16 16" fill="none" xmlns="http://www.w3.org/2000/svg">
<path d="M15.4267 3.82326L13.6767 2.07326C13.6298 2.02639 13.5662 2.00006 13.4999 2.00006C13.4337 2.00006 13.3701 2.02639 13.3232 2.07326L5.74995 9.64651L2.6767 6.57326C2.62981 6.52639 2.56624 6.50006 2.49995 6.50006C2.43366 6.50006 2.37008 6.52639 2.3232 6.57326L0.573197 8.32326C0.526329 8.37014 0.5 8.43372 0.5 8.50001C0.5 8.5663 0.526329 8.62988 0.573197 8.67676L5.5732 13.6768C5.62008 13.7236 5.68366 13.75 5.74995 13.75C5.81624 13.75 5.87981 13.7236 5.9267 13.6768L15.4267 4.17676C15.4736 4.12988 15.4999 4.0663 15.4999 4.00001C15.4999 3.93372 15.4736 3.87014 15.4267 3.82326Z" fill="currentColor"/>
</svg>
