<svg width="16" height="16" viewBox="0 0 16 16" fill="none" xmlns="http://www.w3.org/2000/svg">
<path d="M15.3334 7H10.0001C9.81575 7 9.66675 7.149 9.66675 7.33333V15.3333C9.66675 15.5177 9.81575 15.6667 10.0001 15.6667H15.3334C15.5177 15.6667 15.6667 15.5177 15.6667 15.3333V7.33333C15.6667 7.149 15.5177 7 15.3334 7Z" fill="currentColor"/>
<path d="M12.0001 1.66671H8.33341V0.666707C8.33341 0.482374 8.18441 0.333374 8.00008 0.333374C7.81575 0.333374 7.66675 0.482374 7.66675 0.666707V1.66671H4.00008C3.81608 1.66671 3.66675 1.81604 3.66675 2.00004V8.33337H6.33341C6.70175 8.33337 7.00008 8.63171 7.00008 9.00004V15.6667H9.00008V7.00004C9.00008 6.63171 9.29841 6.33337 9.66675 6.33337H12.3334V2.00004C12.3334 1.81604 12.1841 1.66671 12.0001 1.66671ZM9.33341 5.00004H6.66675C6.48241 5.00004 6.33341 4.85104 6.33341 4.66671C6.33341 4.48237 6.48241 4.33337 6.66675 4.33337H9.33341C9.51775 4.33337 9.66675 4.48237 9.66675 4.66671C9.66675 4.85104 9.51775 5.00004 9.33341 5.00004Z" fill="currentColor"/>
<path d="M6.00004 9H0.666707C0.482374 9 0.333374 9.149 0.333374 9.33333V15.3333C0.333374 15.5177 0.482374 15.6667 0.666707 15.6667H6.00004C6.18437 15.6667 6.33337 15.5177 6.33337 15.3333V9.33333C6.33337 9.149 6.18437 9 6.00004 9Z" fill="currentColor"/>
</svg>
