<svg width="14" height="14" viewBox="0 0 14 14" fill="none" xmlns="http://www.w3.org/2000/svg">
<g clip-path="url(#clip0)">
<path d="M10.825 9.78916L11.1775 10.1416H3.85825V2.82244L4.21068 3.17488C4.53363 3.49782 5.05704 3.49777 5.37993 3.17488C5.70282 2.85204 5.70282 2.32852 5.37993 2.00563C3.5126 0.138294 3.52153 0.0755126 3.18127 0.0136135C3.05268 -0.0100879 2.91499 -0.00374879 2.77868 0.0397956C2.51345 0.125176 2.60698 0.0816861 0.683095 2.00563C0.360206 2.32846 0.360206 2.85199 0.683095 3.17488C1.00593 3.49771 1.52945 3.49771 1.85234 3.17488L2.20478 2.82244V10.1416H0.826791C0.370182 10.1416 0 10.5118 0 10.9684C0 11.425 0.370182 11.7952 0.826791 11.7952H2.20478V13.1732C2.20478 13.6298 2.57496 13.9999 3.03157 13.9999C3.48818 13.9999 3.85836 13.6298 3.85836 13.1732V11.7952H11.1775L10.8251 12.1476C10.3026 12.6699 10.6798 13.559 11.4097 13.559C11.6213 13.559 11.8329 13.4782 11.9943 13.3168C13.9315 11.3796 13.852 11.4907 13.9373 11.2848C14.0578 10.994 13.999 10.6672 13.8085 10.4396C13.7698 10.393 13.913 10.5387 11.9943 8.61996C11.6714 8.29713 11.1479 8.29713 10.825 8.61996C10.5021 8.9428 10.5021 9.46632 10.825 9.78916Z" fill="black"/>
</g>
<defs>
<clipPath id="clip0">
<rect width="14" height="14" fill="white"/>
</clipPath>
</defs>
</svg>
