<svg width="48" height="48" viewBox="0 0 48 48" fill="none" xmlns="http://www.w3.org/2000/svg">
<path d="M40 1H8C7.20435 1 6.44129 1.31607 5.87868 1.87868C5.31607 2.44129 5 3.20435 5 4V44C5 44.7957 5.31607 45.5587 5.87868 46.1213C6.44129 46.6839 7.20435 47 8 47H40C40.7957 47 41.5587 46.6839 42.1213 46.1213C42.6839 45.5587 43 44.7957 43 44V4C43 3.20435 42.6839 2.44129 42.1213 1.87868C41.5587 1.31607 40.7957 1 40 1ZM23 41H12C11.7348 41 11.4804 40.8946 11.2929 40.7071C11.1054 40.5196 11 40.2652 11 40C11 39.7348 11.1054 39.4804 11.2929 39.2929C11.4804 39.1054 11.7348 39 12 39H23C23.2652 39 23.5196 39.1054 23.7071 39.2929C23.8946 39.4804 24 39.7348 24 40C24 40.2652 23.8946 40.5196 23.7071 40.7071C23.5196 40.8946 23.2652 41 23 41ZM36 35H12C11.7348 35 11.4804 34.8946 11.2929 34.7071C11.1054 34.5196 11 34.2652 11 34C11 33.7348 11.1054 33.4804 11.2929 33.2929C11.4804 33.1054 11.7348 33 12 33H36C36.2652 33 36.5196 33.1054 36.7071 33.2929C36.8946 33.4804 37 33.7348 37 34C37 34.2652 36.8946 34.5196 36.7071 34.7071C36.5196 34.8946 36.2652 35 36 35ZM36 29H12C11.7348 29 11.4804 28.8946 11.2929 28.7071C11.1054 28.5196 11 28.2652 11 28C11 27.7348 11.1054 27.4804 11.2929 27.2929C11.4804 27.1054 11.7348 27 12 27H36C36.2652 27 36.5196 27.1054 36.7071 27.2929C36.8946 27.4804 37 27.7348 37 28C37 28.2652 36.8946 28.5196 36.7071 28.7071C36.5196 28.8946 36.2652 29 36 29ZM36 23H20C19.7348 23 19.4804 22.8946 19.2929 22.7071C19.1054 22.5196 19 22.2652 19 22C19 21.7348 19.1054 21.4804 19.2929 21.2929C19.4804 21.1054 19.7348 21 20 21H21V15H23V21H25V15H27V21H29V15H31V21H33V15H35V21H36C36.2652 21 36.5196 21.1054 36.7071 21.2929C36.8946 21.4804 37 21.7348 37 22C37 22.2652 36.8946 22.5196 36.7071 22.7071C36.5196 22.8946 36.2652 23 36 23ZM37 12C37 12.2652 36.8946 12.5196 36.7071 12.7071C36.5196 12.8946 36.2652 13 36 13H20C19.7348 13 19.4804 12.8946 19.2929 12.7071C19.1054 12.5196 19 12.2652 19 12V11C18.9999 10.8142 19.0516 10.632 19.1493 10.4739C19.247 10.3158 19.3868 10.1881 19.553 10.105L27.553 6.105C27.6918 6.03564 27.8448 5.99953 28 5.99953C28.1552 5.99953 28.3082 6.03564 28.447 6.105L36.447 10.105C36.6132 10.1881 36.753 10.3158 36.8507 10.4739C36.9484 10.632 37.0001 10.8142 37 11V12Z" fill="currentColor"/>
</svg>
