<svg width="48" height="48" viewBox="0 0 48 48" fill="none" xmlns="http://www.w3.org/2000/svg">
<path d="M41.6055 26.3557C40.0059 26.3557 38.5851 27.131 37.6963 28.3244L33.9785 26.7391C34.235 25.8363 34.3724 24.8835 34.3724 23.8994C34.3724 22.9911 34.2554 22.1105 34.0356 21.2706L37.8509 19.7369C38.7455 20.8177 40.0965 21.5088 41.6055 21.5088C44.2917 21.5088 46.4766 19.3228 46.4766 16.6377C46.4766 13.9518 44.2917 11.7666 41.6055 11.7666C38.9196 11.7666 36.7347 13.9518 36.7347 16.6377C36.7347 16.8706 36.7523 17.1002 36.7839 17.3241L33.0496 18.8253C32.1435 17.2101 30.8197 15.859 29.2253 14.9211L30.8161 11.1929C30.9806 11.2094 31.1465 11.2184 31.3154 11.2184C34.0013 11.2184 36.1865 9.03351 36.1865 6.34763C36.1865 3.66147 34.0013 1.47656 31.3154 1.47656C28.6295 1.47656 26.4444 3.66147 26.4444 6.34763C26.4444 7.92416 27.1986 9.32877 28.3651 10.2189L26.8014 13.8823C25.8989 13.6263 24.9461 13.4887 23.9615 13.4887C23.0548 13.4887 22.1737 13.6066 21.3338 13.8252L19.8344 10.0951C20.932 9.18292 21.5966 7.81265 21.5966 6.34763C21.5966 3.66147 19.4115 1.47656 16.7267 1.47656C14.0405 1.47656 11.8556 3.66147 11.8556 6.34763C11.8556 9.03351 14.0405 11.2184 16.7267 11.2184C16.9621 11.2184 17.1939 11.1997 17.4235 11.1676L18.8885 14.8112C17.2733 15.7176 15.9222 17.0412 14.9837 18.6356L11.2077 17.0252C11.2137 16.9266 11.2184 16.8267 11.2184 16.7267C11.2184 14.0405 9.03351 11.8556 6.34763 11.8556C3.66147 11.8556 1.47656 14.0405 1.47656 16.7267C1.47656 19.4123 3.66147 21.5975 6.34763 21.5975C7.99448 21.5975 9.45264 20.7746 10.3343 19.5194L13.9458 21.0594C13.689 21.963 13.5519 22.915 13.5519 23.8994C13.5519 24.8071 13.6686 25.6877 13.8878 26.527L10.0519 28.0695C9.1582 27.022 7.82941 26.3557 6.34763 26.3557C3.66147 26.3557 1.47656 28.5408 1.47656 31.2264C1.47656 33.9126 3.66147 36.0975 6.34763 36.0975C9.03351 36.0975 11.2184 33.9126 11.2184 31.2264C11.2184 30.9683 11.1973 30.7142 11.1585 30.4665L14.8747 28.9723C15.7797 30.5887 17.1035 31.9395 18.6979 32.8771L17.0483 36.7454C16.9409 36.7383 16.8338 36.7339 16.7267 36.7339C14.0405 36.7339 11.8556 38.9196 11.8556 41.6055C11.8556 44.2917 14.0405 46.4766 16.7267 46.4766C19.4115 46.4766 21.5966 44.2917 21.5966 41.6055C21.5966 39.9919 20.8073 38.5225 19.5392 37.6268L21.1218 33.9162C22.0254 34.1719 22.9782 34.3098 23.9615 34.3098C24.8695 34.3098 25.7503 34.1922 26.5897 33.973L28.1321 37.8105C27.0483 38.7043 26.3557 40.0573 26.3557 41.5687C26.3557 44.2546 28.5408 46.4395 31.2264 46.4395C33.9126 46.4395 36.0975 44.2546 36.0975 41.5687C36.0975 38.8828 33.9126 36.6976 31.2264 36.6976C30.9955 36.6976 30.7689 36.7155 30.5464 36.746L29.0347 32.987C30.651 32.0812 32.0018 30.7573 32.9403 29.1632L36.7559 30.7897C36.7427 30.9339 36.7347 31.0789 36.7347 31.2264C36.7347 33.9126 38.9196 36.0975 41.6055 36.0975C44.2917 36.0975 46.4766 33.9126 46.4766 31.2264C46.4766 28.5408 44.2917 26.3557 41.6055 26.3557ZM22.7032 29.1497C22.4594 29.5735 22.0158 29.81 21.5596 29.81C21.3365 29.81 21.1105 29.7526 20.902 29.6331C19.0047 28.5389 17.8231 26.5001 17.819 24.3105C17.8174 23.5827 18.4062 22.9911 19.1346 22.9894H19.1374C19.8644 22.9894 20.4541 23.5783 20.4557 24.3051C20.4582 25.5569 21.1341 26.7231 22.2198 27.3491C22.8507 27.713 23.0669 28.5189 22.7032 29.1497ZM23.057 20.9015C22.7601 20.9814 22.4736 21.0992 22.2075 21.2547C21.9979 21.3769 21.7705 21.4338 21.5445 21.4338C21.0913 21.4338 20.6491 21.1992 20.4046 20.7793C20.0382 20.15 20.2508 19.3431 20.8801 18.9764C21.8164 18.4315 22.8859 18.1431 23.9738 18.1431C24.5108 18.1431 25.0444 18.2137 25.5597 18.3505C26.0747 18.4867 26.571 18.6908 27.0341 18.9572C27.6663 19.3195 27.8844 20.1253 27.521 20.7573C27.1593 21.3882 26.3529 21.6063 25.722 21.244C25.193 20.941 24.5885 20.7798 23.9738 20.7798C23.6629 20.7798 23.3545 20.8213 23.057 20.9015ZM30.1289 24.3073C30.1289 26.4867 28.952 28.5282 27.056 29.6268C26.8489 29.7474 26.6212 29.8045 26.3969 29.8045C25.9417 29.8045 25.4995 29.5689 25.2554 29.147C24.8898 28.5169 25.1051 27.7103 25.7344 27.3452C26.819 26.7171 27.4922 25.5498 27.4922 24.2982C27.4878 23.5703 28.0742 22.9702 28.8018 22.9658H28.8105C29.5345 22.9658 30.1245 23.5451 30.1289 24.2702V24.3073Z" fill="currentColor"/>
</svg>
