<svg width="16" height="16" viewBox="0 0 16 16" fill="none" xmlns="http://www.w3.org/2000/svg">
<path fill-rule="evenodd" clip-rule="evenodd" d="M2.35265 2.3467C5.47399 -0.775305 10.5353 -0.777305 13.6587 2.34336C16.7773 5.47003 16.7773 10.53 13.6587 13.6567C10.5353 16.7767 5.47399 16.776 2.35199 13.6534C-0.769347 10.5307 -0.769347 5.46936 2.35199 2.3467H2.35265ZM11.116 11.102C11.2362 10.9813 11.3056 10.819 11.31 10.6487C11.3143 10.4783 11.2532 10.3128 11.1393 10.186L9.06599 8.11336C9.03484 8.08212 9.01736 8.03981 9.01736 7.9957C9.01736 7.95158 9.03484 7.90927 9.06599 7.87803L11.1393 5.8047C11.2644 5.67969 11.3347 5.51011 11.3348 5.33326C11.3349 5.15642 11.2647 4.98679 11.1397 4.8617C11.0146 4.7366 10.8451 4.66629 10.6682 4.66623C10.4914 4.66616 10.3217 4.73636 10.1967 4.86136L8.12332 6.9347C8.10784 6.95022 8.08945 6.96253 8.0692 6.97093C8.04895 6.97933 8.02724 6.98366 8.00532 6.98366C7.9834 6.98366 7.96169 6.97933 7.94144 6.97093C7.92119 6.96253 7.9028 6.95022 7.88732 6.9347L5.81465 4.86136C5.68763 4.74667 5.52138 4.68523 5.3503 4.68974C5.17922 4.69425 5.01644 4.76438 4.89564 4.8856C4.77484 5.00683 4.70529 5.16986 4.70139 5.34095C4.69748 5.51204 4.75952 5.67808 4.87465 5.8047L6.94799 7.87803C6.97913 7.90927 6.99662 7.95158 6.99662 7.9957C6.99662 8.03981 6.97913 8.08212 6.94799 8.11336L4.87465 10.1867C4.74967 10.3117 4.67946 10.4813 4.67946 10.658C4.67946 10.8348 4.74967 11.0043 4.87465 11.1294C5.13799 11.3834 5.55465 11.3834 5.81799 11.1294L7.89065 9.05603C7.92209 9.02501 7.96448 9.00761 8.00865 9.00761C8.05282 9.00761 8.09521 9.02501 8.12665 9.05603L10.2 11.1294C10.3272 11.2426 10.4929 11.3028 10.6631 11.2977C10.8333 11.2926 10.9951 11.2226 11.1153 11.102H11.116Z" fill="currentColor"/>
</svg>
