<svg width="16" height="16" viewBox="0 0 16 16" fill="none" xmlns="http://www.w3.org/2000/svg">
<path d="M15.5 13.5004H8.5C8.224 13.5004 8 13.2764 8 13.0004C8 12.7244 8 3.27637 8 3.00037C8 2.72437 8.224 2.50037 8.5 2.50037H15.5C15.776 2.50037 16 2.72437 16 3.00037V13.0004C16 13.2764 15.776 13.5004 15.5 13.5004Z" fill="#ECEFF1"/>
<path d="M10.5 5.50037H8.5C8.224 5.50037 8 5.27637 8 5.00037C8 4.72437 8.224 4.50037 8.5 4.50037H10.5C10.776 4.50037 11 4.72437 11 5.00037C11 5.27637 10.776 5.50037 10.5 5.50037Z" fill="currentColor"/>
<path d="M10.5 7.50037H8.5C8.224 7.50037 8 7.27637 8 7.00037C8 6.72437 8.224 6.50037 8.5 6.50037H10.5C10.776 6.50037 11 6.72437 11 7.00037C11 7.27637 10.776 7.50037 10.5 7.50037Z" fill="currentColor"/>
<path d="M10.5 9.50037H8.5C8.224 9.50037 8 9.27637 8 9.00037C8 8.72437 8.224 8.50037 8.5 8.50037H10.5C10.776 8.50037 11 8.72437 11 9.00037C11 9.27637 10.776 9.50037 10.5 9.50037Z" fill="currentColor"/>
<path d="M10.5 11.5004H8.5C8.224 11.5004 8 11.2764 8 11.0004C8 10.7244 8.224 10.5004 8.5 10.5004H10.5C10.776 10.5004 11 10.7244 11 11.0004C11 11.2764 10.776 11.5004 10.5 11.5004Z" fill="currentColor"/>
<path d="M13.5 5.50037H12.5C12.224 5.50037 12 5.27637 12 5.00037C12 4.72437 12.224 4.50037 12.5 4.50037H13.5C13.776 4.50037 14 4.72437 14 5.00037C14 5.27637 13.776 5.50037 13.5 5.50037Z" fill="currentColor"/>
<path d="M13.5 7.50037H12.5C12.224 7.50037 12 7.27637 12 7.00037C12 6.72437 12.224 6.50037 12.5 6.50037H13.5C13.776 6.50037 14 6.72437 14 7.00037C14 7.27637 13.776 7.50037 13.5 7.50037Z" fill="currentColor"/>
<path d="M13.5 9.50037H12.5C12.224 9.50037 12 9.27637 12 9.00037C12 8.72437 12.224 8.50037 12.5 8.50037H13.5C13.776 8.50037 14 8.72437 14 9.00037C14 9.27637 13.776 9.50037 13.5 9.50037Z" fill="currentColor"/>
<path d="M13.5 11.5004H12.5C12.224 11.5004 12 11.2764 12 11.0004C12 10.7244 12.224 10.5004 12.5 10.5004H13.5C13.776 10.5004 14 10.7244 14 11.0004C14 11.2764 13.776 11.5004 13.5 11.5004Z" fill="currentColor"/>
<path d="M8.819 0.61543C8.705 0.52043 8.552 0.47943 8.408 0.50943L0.408 2.00943C0.171 2.05343 0 2.25943 0 2.50043V13.5004C0 13.7404 0.171 13.9474 0.408 13.9914L8.408 15.4914C8.438 15.4974 8.469 15.5004 8.5 15.5004C8.616 15.5004 8.729 15.4604 8.819 15.3854C8.934 15.2904 9 15.1484 9 15.0004V1.00043C9 0.85143 8.934 0.71043 8.819 0.61543Z" fill="currentColor"/>
<path d="M6.87603 9.67137L5.29503 7.86437L6.89403 5.80837C7.06403 5.59037 7.02403 5.27637 6.80703 5.10637C6.59003 4.93637 6.27603 4.97637 6.10503 5.19337L4.62403 7.09737L3.37603 5.67137C3.19303 5.46137 2.87703 5.44237 2.67103 5.62437C2.46303 5.80637 2.44203 6.12237 2.62403 6.32937L3.99903 7.90137L2.60503 9.69337C2.43503 9.91137 2.47503 10.2254 2.69203 10.3954C2.78403 10.4664 2.89303 10.5004 3.00003 10.5004C3.14903 10.5004 3.29603 10.4344 3.39503 10.3074L4.67003 8.66737L6.12403 10.3284C6.22303 10.4424 6.36103 10.5004 6.50003 10.5004C6.61703 10.5004 6.73403 10.4594 6.82903 10.3764C7.03703 10.1944 7.05803 9.87837 6.87603 9.67137Z" fill="#FAFAFA"/>
</svg>
