<svg width="16" height="16" viewBox="0 0 16 16" fill="none" xmlns="http://www.w3.org/2000/svg">
<path d="M12.314 9.90515C12.314 9.3582 12.757 8.91514 13.304 8.91514C13.8509 8.91514 14.294 9.3582 14.294 9.90515V14.2186C14.294 14.459 14.2471 14.6922 14.1534 14.9122C14.0638 15.1241 13.9354 15.3145 13.7725 15.4775C13.6095 15.6405 13.4191 15.7688 13.2072 15.8584C12.9872 15.9511 12.754 15.999 12.5136 15.999H1.7814C1.54103 15.999 1.30779 15.9521 1.08778 15.8584C0.875931 15.7688 0.685467 15.6405 0.522503 15.4775C0.359539 15.3145 0.231205 15.1241 0.141575 14.9122C0.0468521 14.6922 0 14.459 0 14.2186V3.48641C0 3.24604 0.0468521 3.0128 0.140556 2.79279C0.230187 2.58094 0.358521 2.39048 0.521484 2.22751C0.684448 2.06455 0.874912 1.93621 1.08677 1.84658C1.30677 1.7539 1.54001 1.70603 1.78038 1.70603H6.09383C6.64078 1.70603 7.08384 2.14909 7.08384 2.69603C7.08384 3.24298 6.64078 3.68604 6.09383 3.68604H1.98001V14.02H12.314V9.90515ZM15.8594 1.08778C15.7698 0.875931 15.6415 0.685467 15.4785 0.522503C15.3155 0.359539 15.1251 0.231205 14.9132 0.141575C14.6922 0.0468521 14.459 0 14.2186 0H9.77987C9.23394 0 8.78987 0.443058 8.78987 0.990006C8.78987 1.53695 9.23292 1.98001 9.77987 1.98001H12.6195L7.0981 7.50143C6.71106 7.88847 6.71106 8.51486 7.0981 8.9019C7.29162 9.09542 7.54523 9.19218 7.79782 9.19218C8.05143 9.19218 8.30505 9.09542 8.49755 8.9019L14.019 3.38048V6.21911C14.019 6.76606 14.462 7.20912 15.009 7.20912C15.5559 7.20912 15.999 6.76606 15.999 6.21911V1.7814C16 1.54103 15.9521 1.30779 15.8594 1.08778Z" fill="currentColor"/>
</svg>
