<svg width="16" height="16" viewBox="0 0 16 16" fill="none" xmlns="http://www.w3.org/2000/svg">
<path d="M11.941 1.26401C11.8983 1.1842 11.8347 1.11749 11.757 1.071C11.6793 1.0245 11.5905 0.999964 11.5 1H0.499753C0.409309 1.00005 0.320571 1.02462 0.24299 1.07112C0.16541 1.11761 0.101892 1.18427 0.0592024 1.26401C0.0165127 1.34374 -0.00375044 1.43356 0.000571247 1.5239C0.00489294 1.61424 0.0336376 1.70172 0.0837436 1.77702L3.99983 7.65114V15.2695C3.99983 15.4021 4.05251 15.5293 4.14628 15.6231C4.24005 15.7169 4.36723 15.7695 4.49984 15.7695H7.49991C7.63252 15.7695 7.7597 15.7169 7.85347 15.6231C7.94724 15.5293 7.99992 15.4021 7.99992 15.2695V7.65114L11.916 1.77702C11.9662 1.70176 11.995 1.61431 11.9994 1.52397C12.0038 1.43363 11.9836 1.34378 11.941 1.26401Z" fill="currentColor"/>
<rect x="9" y="10" width="5" height="2" rx="1" fill="currentColor"/>
<rect x="9" y="14" width="7" height="2" rx="1" fill="currentColor"/>
</svg>
