<svg width="14" height="14" viewBox="0 0 14 14" fill="none" xmlns="http://www.w3.org/2000/svg">
<path d="M13.6526 0.0689697H8.97432C8.78245 0.0689697 8.62692 0.2245 8.62692 0.416368V1.07729C8.62692 1.26916 8.78245 1.42469 8.97432 1.42469H11.6856L7.81488 5.29543C7.67922 5.43109 7.67922 5.65106 7.81488 5.78672L8.28223 6.25408C8.35008 6.32193 8.43898 6.35583 8.52784 6.35583C8.61678 6.35583 8.70568 6.32189 8.77349 6.25408L12.6443 2.3833V5.09464C12.6443 5.28651 12.7999 5.44204 12.9917 5.44204H13.6526C13.8445 5.44204 14 5.28651 14 5.09464V0.416368C14 0.2245 13.8445 0.0689697 13.6526 0.0689697Z" fill="black"/>
<path d="M2.31437 1.42469H5.02567C5.21754 1.42469 5.37307 1.26916 5.37307 1.07729V0.416368C5.37307 0.2245 5.21754 0.0689697 5.02567 0.0689697H0.347398C0.15553 0.0689697 0 0.2245 0 0.416368V5.09464C0 5.28651 0.15553 5.44204 0.347398 5.44204H1.00829C1.20016 5.44204 1.35569 5.28651 1.35569 5.09464V2.3833L5.22646 6.25404C5.29428 6.32189 5.38321 6.3558 5.47211 6.3558C5.56101 6.3558 5.64994 6.32186 5.71775 6.25404L6.18511 5.78669C6.32077 5.65103 6.32077 5.43106 6.18511 5.2954L2.31437 1.42469Z" fill="black"/>
<path d="M13.6526 8.55792H12.9917C12.7999 8.55792 12.6443 8.71349 12.6443 8.90532V11.6167L8.77352 7.74591C8.63793 7.61025 8.41789 7.61025 8.28223 7.74591L7.81488 8.21327C7.67922 8.34889 7.67922 8.56886 7.81488 8.70456L11.6856 12.5753H8.97432C8.78245 12.5753 8.62692 12.7309 8.62692 12.9227V13.5836C8.62692 13.7754 8.78245 13.931 8.97432 13.931H13.6526C13.8445 13.931 14 13.7754 14 13.5836V8.90532C14 8.71345 13.8445 8.55792 13.6526 8.55792Z" fill="black"/>
<path d="M5.71775 7.74591C5.5821 7.61025 5.36209 7.61025 5.22646 7.74591L1.35569 11.6167V8.90535C1.35569 8.71348 1.20016 8.55795 1.00829 8.55795H0.347398C0.15553 8.55795 0 8.71348 0 8.90535V13.5836C0 13.7755 0.15553 13.931 0.347398 13.931H5.02567C5.21754 13.931 5.37307 13.7755 5.37307 13.5836V12.9228C5.37307 12.7309 5.21754 12.5754 5.02567 12.5754H2.31437L6.18511 8.70459C6.32077 8.56896 6.32077 8.34899 6.18511 8.21326L5.71775 7.74591Z" fill="black"/>
</svg>
