<svg width="24" height="24" viewBox="0 0 24 24" fill="none" xmlns="http://www.w3.org/2000/svg">
<path d="M11.8652 19.0145C11.6745 18.824 11.4325 18.6931 11.1687 18.6378C10.9049 18.5824 10.6306 18.605 10.3794 18.7027C10.4861 18.4348 10.5143 18.1421 10.4608 17.8588C10.4073 17.5755 10.2742 17.3133 10.0772 17.1028C9.88015 16.8923 9.62728 16.7423 9.34812 16.6702C9.06897 16.5981 8.77506 16.607 8.50075 16.6957C8.64409 16.4171 8.69662 16.1005 8.65098 15.7905C8.60534 15.4804 8.46382 15.1924 8.24626 14.9669C8.0287 14.7413 7.746 14.5895 7.43781 14.5327C7.12962 14.4759 6.81138 14.517 6.52771 14.6502C6.64479 14.3268 6.64801 13.9731 6.53683 13.6475C6.42566 13.322 6.20675 13.0442 5.91629 12.8599C5.62582 12.6756 5.28118 12.596 4.93931 12.6341C4.59745 12.6723 4.27883 12.8259 4.03611 13.0696L3.73029 13.3755C3.48655 13.6182 3.33291 13.9368 3.29478 14.2787C3.25664 14.6205 3.33629 14.9652 3.52055 15.2556C3.70481 15.5461 3.98266 15.765 4.30818 15.8762C4.63371 15.9874 4.98742 15.9841 5.31086 15.8671C5.18447 16.1404 5.14289 16.4454 5.19148 16.7426C5.24007 17.0398 5.37661 17.3156 5.58347 17.5345C5.79033 17.7533 6.05802 17.9052 6.35202 17.9704C6.64602 18.0357 6.95283 18.0114 7.23286 17.9006C7.12445 18.1791 7.10033 18.4833 7.16351 18.7754C7.22669 19.0675 7.37438 19.3345 7.5882 19.5433C7.80201 19.7521 8.07251 19.8934 8.36602 19.9496C8.65953 20.0058 8.9631 19.9745 9.23893 19.8595C9.12993 20.1562 9.12545 20.4813 9.22622 20.781C9.32699 21.0806 9.52698 21.3369 9.79314 21.5075C10.0593 21.6781 10.3757 21.7528 10.6901 21.7193C11.0044 21.6857 11.2979 21.5459 11.5221 21.3229L11.8652 20.9824C11.9944 20.8532 12.0969 20.6998 12.1669 20.531C12.2368 20.3621 12.2728 20.1812 12.2728 19.9984C12.2728 19.8157 12.2368 19.6347 12.1669 19.4659C12.0969 19.2971 11.9944 19.1437 11.8652 19.0145Z" fill="currentColor"/>
<path d="M17.3618 9.4808C16.8871 9.63948 16.3899 9.72045 15.8893 9.72056C15.0184 9.72636 14.1643 9.4803 13.4299 9.01199L10.4322 10.8787C10.0102 11.1421 9.50647 11.2423 9.01581 11.1603C8.52514 11.0782 8.08137 10.8197 7.76801 10.4334C7.45464 10.047 7.2933 9.55942 7.31433 9.06239C7.33537 8.56536 7.53734 8.09316 7.88223 7.73466L11.2411 4.2368C11.3226 4.15531 11.4088 4.08067 11.495 4.00604C11.033 3.81445 10.5377 3.71577 10.0376 3.71566H8.6114L7.87923 2.98349C7.7988 2.90308 7.68972 2.85791 7.57598 2.85791C7.46225 2.85791 7.35317 2.90308 7.27274 2.98349L2.5546 7.70163C2.47419 7.78207 2.42902 7.89114 2.42902 8.00488C2.42902 8.11861 2.47419 8.22769 2.5546 8.30813L3.28677 9.04029V10.5248C3.30122 11.1129 3.46016 11.6884 3.74957 12.2006C4.071 11.9738 4.44399 11.8309 4.83467 11.7849C5.22535 11.7389 5.62134 11.7912 5.98667 11.9371C6.35199 12.083 6.67507 12.3179 6.92656 12.6204C7.17804 12.9229 7.34997 13.2834 7.42672 13.6692C7.97082 13.7308 8.47654 13.9798 8.85718 14.3734C9.23782 14.767 9.46968 15.2808 9.51299 15.8267C9.97569 15.9364 10.3949 16.1823 10.7164 16.5327C11.038 16.883 11.2472 17.3216 11.317 17.792C11.7122 17.8702 12.0791 18.0532 12.3793 18.3218C12.6794 18.5905 12.9018 18.935 13.023 19.3191C13.1443 19.7033 13.16 20.113 13.0685 20.5053C12.977 20.8976 12.7817 21.2581 12.503 21.5489C12.8033 21.6304 13.1199 21.6303 13.4201 21.5487C13.7203 21.467 13.9933 21.3067 14.211 21.0844C14.5269 20.767 14.7118 20.3422 14.7287 19.8946C14.9855 20.0974 15.3031 20.208 15.6303 20.2085C15.9576 20.2091 16.2755 20.0995 16.533 19.8974C16.7904 19.6954 16.9724 19.4126 17.0497 19.0946C17.127 18.7766 17.0951 18.4418 16.9591 18.1442C17.2705 18.258 17.6074 18.2829 17.9321 18.2159C18.2568 18.149 18.5565 17.9929 18.7975 17.7652C19.0384 17.5374 19.2112 17.2471 19.2963 16.9266C19.3815 16.6062 19.3757 16.2684 19.2795 15.9511C19.6513 16.001 20.0293 15.9328 20.3602 15.7562C20.6911 15.5796 20.9581 15.3035 21.1236 14.9669C21.289 14.6303 21.3445 14.2502 21.2822 13.8804C21.22 13.5105 21.043 13.1696 20.7765 12.9057L17.3618 9.4808Z" fill="currentColor"/>
<path d="M22.0336 7.70163L17.3155 2.98349C17.2351 2.90308 17.126 2.85791 17.0123 2.85791C16.8985 2.85791 16.7894 2.90308 16.709 2.98349L15.9768 3.71566H14.5507C13.5413 3.716 12.5734 4.11712 11.8596 4.83086L8.50073 8.32957C8.38487 8.45026 8.29595 8.59417 8.23984 8.75179C8.18373 8.90941 8.16172 9.07714 8.17527 9.2439C8.18881 9.41065 8.23759 9.57263 8.31839 9.71913C8.3992 9.86563 8.51018 9.99331 8.64399 10.0937C8.83483 10.2364 9.0643 10.318 9.30234 10.328C9.54038 10.3379 9.77587 10.2757 9.97794 10.1495L13.4779 7.96842C14.1439 8.5537 15.0028 8.8722 15.8893 8.86272C16.471 8.86496 17.045 8.73099 17.5656 8.47154L21.3015 12.219V9.04029L22.0336 8.30813C22.1141 8.22769 22.1592 8.11861 22.1592 8.00488C22.1592 7.89114 22.1141 7.78206 22.0336 7.70163Z" fill="currentColor"/>
</svg>
