<svg width="48" height="48" viewBox="0 0 48 48" fill="none" xmlns="http://www.w3.org/2000/svg">
<path d="M46 7.286C40.069 7.286 31.321 5.679 24.555 1.168C24.3907 1.05836 24.1975 0.999847 24 0.999847C23.8025 0.999847 23.6093 1.05836 23.445 1.168C16.679 5.679 7.931 7.286 2 7.286C1.73478 7.286 1.48043 7.39135 1.29289 7.57889C1.10536 7.76643 1 8.02078 1 8.286C1 26.411 9.451 40.853 23.606 46.919C23.7305 46.9724 23.8645 46.9999 24 46.9999C24.1355 46.9999 24.2695 46.9724 24.394 46.919C38.549 40.853 47 26.411 47 8.286C47 8.02078 46.8946 7.76643 46.7071 7.57889C46.5196 7.39135 46.2652 7.286 46 7.286ZM23 3.8V23H5.178C3.79895 18.5517 3.06843 13.9278 3.009 9.271C10.0142 9.07183 16.8696 7.19571 23 3.8ZM25 44.421V25H42.132C39.1801 33.4636 33.03 40.4339 25 44.417V44.421Z" fill="currentColor"/>
</svg>
