<svg width="16" height="16" viewBox="0 0 16 16" fill="none" xmlns="http://www.w3.org/2000/svg">
<path d="M0.99997 16C0.80222 16 0.608921 15.9413 0.444512 15.8314C0.280102 15.7216 0.151962 15.5654 0.0762921 15.3827C0.000622012 15.2 -0.019181 14.999 0.0193866 14.805C0.0579542 14.6111 0.153161 14.4329 0.29297 14.293L5.29297 9.29304C5.48157 9.11088 5.73417 9.01009 5.99637 9.01237C6.25857 9.01465 6.50938 9.11981 6.69479 9.30522C6.8802 9.49063 6.98537 9.74144 6.98764 10.0036C6.98992 10.2658 6.88913 10.5184 6.70697 10.707L1.70697 15.707C1.51948 15.8946 1.26516 16 0.99997 16Z" fill="currentColor"/>
<path d="M0.965968 10.7921L2.48797 9.26906L2.43297 9.14106C2.42697 9.12506 1.85697 7.55706 2.70797 6.70606L6.73797 2.67606C7.57997 1.83406 9.13797 2.38906 9.13797 2.38806L9.30097 2.45806L10.823 0.935065L9.88997 0.535065C9.77697 0.491065 7.09997 -0.510935 5.32297 1.26306L1.29297 5.29307C-0.480032 7.06406 0.522968 9.74607 0.580968 9.89406L0.965968 10.7921Z" fill="currentColor"/>
<path d="M5.20795 15.034L6.73095 13.512L6.85895 13.567C6.87495 13.573 8.44295 14.143 9.29395 13.292L13.3239 9.26203C14.1659 8.42003 13.6109 6.86203 13.6119 6.86203L13.5419 6.69903L15.0649 5.17603L15.4649 6.10903C15.5089 6.22203 16.5109 8.90302 14.7369 10.676L10.7069 14.706C8.93595 16.479 6.25395 15.476 6.10695 15.418L5.20795 15.034Z" fill="currentColor"/>
<path d="M9.99997 7.00004C9.80222 7 9.60892 6.94133 9.44451 6.83144C9.2801 6.72156 9.15196 6.5654 9.07629 6.3827C9.00062 6.2 8.98082 5.99896 9.01939 5.80501C9.05795 5.61106 9.15316 5.43289 9.29297 5.29304L14.293 0.293041C14.4816 0.110883 14.7342 0.0100885 14.9964 0.0123669C15.2586 0.0146453 15.5094 0.119814 15.6948 0.305222C15.8802 0.49063 15.9854 0.741443 15.9876 1.00364C15.9899 1.26584 15.8891 1.51844 15.707 1.70704L10.707 6.70704C10.5195 6.89459 10.2652 6.99998 9.99997 7.00004Z" fill="currentColor"/>
</svg>
