<svg width="16" height="16" viewBox="0 0 16 16" fill="none" xmlns="http://www.w3.org/2000/svg">
<path d="M9.06129 10.376C9.21596 10.2673 9.42129 10.066 9.42129 9.56663C9.42129 9.21196 9.18063 8.9993 8.66663 8.7793V10.552C8.81663 10.506 8.95463 10.4513 9.06129 10.376Z" fill="currentColor"/>
<path d="M8 0C3.58867 0 0 3.58867 0 8C0 12.4113 3.58867 16 8 16C12.4113 16 16 12.4113 16 8C16 3.58867 12.4113 0 8 0ZM10.7547 9.56733C10.7547 10.6 10.2507 11.1707 9.82733 11.468C9.496 11.7007 9.09667 11.8393 8.66667 11.9193V13.3333H7.33333V11.9753C6.566 11.9173 5.78333 11.7347 5.10667 11.4907L4.48 11.2647L4.93267 10.0107L5.56 10.2373C6.17333 10.4587 6.78267 10.5907 7.33333 10.6413V8.302C6.274 7.922 5.09867 7.32867 5.09867 5.82067C5.09867 5.06867 5.44733 4.448 6.08133 4.07333C6.44267 3.86 6.87733 3.74467 7.33333 3.69067V2.66667H8.66667V3.70067C9.45133 3.792 10.17 4.00733 10.5707 4.22867L11.1553 4.54933L10.5133 5.718L9.92933 5.39667C9.64067 5.238 9.16933 5.10867 8.66667 5.03867V7.348C9.68533 7.708 10.7547 8.22933 10.7547 9.56733Z" fill="currentColor"/>
<path d="M6.76067 5.22202C6.53067 5.35802 6.43201 5.53669 6.43201 5.82069C6.43201 6.32535 6.71801 6.60069 7.33334 6.86802V5.03735C7.11467 5.07535 6.91334 5.13135 6.76067 5.22202Z" fill="currentColor"/>
</svg>
