<svg width="48" height="48" viewBox="0 0 48 48" fill="none" xmlns="http://www.w3.org/2000/svg">
<path d="M28.6321 23.7488C35.1796 23.7488 40.5055 18.4219 40.5055 11.8744C40.5055 5.32688 35.1796 0 28.6321 0C22.0846 0 16.7577 5.32688 16.7577 11.8744C16.7577 18.4219 22.0846 23.7488 28.6321 23.7488ZM27.2258 4.89469V4.57219C27.2258 3.795 27.8549 3.16594 28.6321 3.16594C29.4083 3.16594 30.0383 3.795 30.0383 4.57219V4.89656C31.7118 5.25562 32.9708 6.74625 32.9708 8.52563C32.9708 9.30188 32.3408 9.93188 31.5646 9.93188C30.7874 9.93188 30.1583 9.30188 30.1583 8.52563C30.1583 8.02969 29.7543 7.62562 29.2583 7.62562H27.9974C27.5014 7.62562 27.0974 8.02969 27.0974 8.52563C27.0974 8.80969 27.2333 9.07969 27.4621 9.24844L28.6321 10.1147L31.4746 12.2184C32.4083 12.9094 32.9708 14.0147 32.9783 15.1772V15.1903C32.9849 16.1822 32.6052 17.1178 31.9077 17.8237C31.3902 18.3478 30.7433 18.6994 30.0383 18.8475V19.1766C30.0383 19.9538 29.4083 20.5828 28.6321 20.5828C27.8549 20.5828 27.2258 19.9538 27.2258 19.1766V18.8522C26.5396 18.7059 25.9086 18.3684 25.3986 17.8641C24.6927 17.1675 24.3008 16.2375 24.2952 15.2456C24.2905 14.4694 24.9158 13.8356 25.6921 13.8309H25.7014C26.4739 13.8309 27.103 14.4553 27.1077 15.2288C27.1096 15.7141 27.5 16.1231 28.0124 16.1231C28.7894 16.1184 28.5 16.1201 29.2714 16.1156C29.7706 16.1117 30.1697 15.7066 30.1658 15.2091V15.1959C30.1639 14.9147 30.028 14.6466 29.8011 14.4788L28.6321 13.6134L25.7886 11.5097C24.8474 10.8122 24.2849 9.69656 24.2849 8.52563C24.2849 6.7425 25.5477 5.25094 27.2258 4.89469Z" fill="currentColor"/>
<path d="M9.39262 30.5055C9.03216 29.8806 8.23144 29.6631 7.60265 30.0259L0.987843 33.8443C0.361499 34.2068 0.146624 35.0079 0.508218 35.6351L7.26891 47.3447C7.63078 47.9708 8.4314 48.1859 9.05887 47.8243L15.6737 44.0049C16.301 43.6432 16.515 42.8421 16.1533 42.215L9.39262 30.5055Z" fill="currentColor"/>
<path d="M47.2948 28.1681C46.6583 27.284 45.4264 27.0844 44.5433 27.7209C41.8639 29.6512 36.7189 33.3581 36.3101 33.6534C36.1217 33.8137 35.9239 33.959 35.7176 34.0875C34.9086 34.5965 33.9701 34.8684 32.9905 34.8684H26.2545C25.4783 34.8684 24.8483 34.2394 24.8483 33.4622C24.8483 32.684 25.4792 32.0559 26.2545 32.0559H33.4583C34.5167 32.0559 35.3642 31.1747 35.3201 30.1144C35.2789 29.1084 34.4201 28.3284 33.4133 28.3284H27.9298C27.5586 27.9356 27.1517 27.5756 26.7158 27.254C25.2167 26.1487 23.3642 25.4953 21.3589 25.4953C17.7936 25.4953 14.2461 27.7416 12.7751 30.7397L18.5276 40.7025H29.3183C31.437 40.7025 33.5239 40.1606 35.3605 39.104C35.997 38.7384 36.6786 38.2987 37.4173 37.7681C40.513 35.5444 46.842 30.9244 46.8467 30.9215C47.7317 30.2859 47.9323 29.0522 47.2948 28.1681Z" fill="currentColor"/>
</svg>
