<svg width="16" height="16" viewBox="0 0 16 16" fill="none" xmlns="http://www.w3.org/2000/svg">
<g clip-path="url(#clip0)">
<path d="M11.6667 3.66797C11.4826 3.66797 11.3334 3.81722 11.3334 4.00131V6.00131C11.3334 6.18541 11.4826 6.33466 11.6667 6.33466H13.6667C13.8508 6.33466 14.0001 6.18541 14.0001 6.00131C14 4.71266 12.9554 3.66797 11.6667 3.66797Z" fill="currentColor"/>
<path d="M11.6667 7.00131C11.1144 7.00131 10.6667 6.55359 10.6667 6.00131V4.36865C9.39379 4.54971 8.50869 5.7284 8.68975 7.00131C8.87082 8.27422 10.0495 9.15931 11.3224 8.97825C12.3478 8.83237 13.1535 8.02668 13.2994 7.00131H11.6667Z" fill="currentColor"/>
<path d="M9.20802 0.406665C9.12892 0.342415 9.0248 0.317852 8.92536 0.340008L0.258702 2.34001C0.106171 2.37507 -0.0014539 2.51151 1.48502e-05 2.66801V14.0014C7.73502e-05 14.1658 0.120109 14.3057 0.282671 14.3307L8.94933 15.664C9.1313 15.692 9.30148 15.5672 9.32945 15.3853C9.33202 15.3685 9.33333 15.3516 9.33333 15.3347V0.668008C9.33364 0.566352 9.28748 0.470133 9.20802 0.406665Z" fill="currentColor"/>
<path d="M15.6667 14.3347H8.99997C8.81588 14.3347 8.66663 14.1854 8.66663 14.0013C8.66663 13.8172 8.81588 13.668 8.99997 13.668H15.3333V2.33469H8.99997C8.81588 2.33469 8.66663 2.18544 8.66663 2.00134C8.66663 1.81725 8.81588 1.66803 8.99997 1.66803H15.6666C15.8507 1.66803 16 1.81728 16 2.00137V14.0014C16 14.1855 15.8508 14.3347 15.6667 14.3347Z" fill="currentColor"/>
<path d="M13.6667 12.3347H8.99997C8.81588 12.3347 8.66663 12.1855 8.66663 12.0014C8.66663 11.8173 8.81588 11.668 8.99997 11.668H13.6666C13.8507 11.668 14 11.8173 14 12.0014C14 12.1855 13.8508 12.3347 13.6667 12.3347Z" fill="currentColor"/>
<path d="M13.6667 10.3347H8.99997C8.81588 10.3347 8.66663 10.1855 8.66663 10.0014C8.66663 9.81728 8.81588 9.66803 8.99997 9.66803H13.6666C13.8507 9.66803 14 9.81728 14 10.0014C14 10.1855 13.8508 10.3347 13.6667 10.3347Z" fill="currentColor"/>
<path d="M2.99997 11.0014C2.81588 11.0014 2.66663 10.8521 2.66663 10.668V5.33469C2.66663 5.15059 2.81588 5.00134 2.99997 5.00134H4.33332C5.25379 5.00134 5.99998 5.74753 5.99998 6.668V7.33466C5.99998 8.25512 5.25379 9.00131 4.33332 9.00131H3.33331V10.668C3.33331 10.8521 3.1841 11.0014 2.99997 11.0014ZM3.33331 8.33469H4.33332C4.8856 8.33469 5.33332 7.88697 5.33332 7.33469V6.66803C5.33332 6.11575 4.8856 5.66803 4.33332 5.66803H3.33331V8.33469Z" fill="#FAFAFA"/>
</g>
<defs>
<clipPath id="clip0">
<rect width="16" height="16" fill="white"/>
</clipPath>
</defs>
</svg>
