<svg width="32" height="32" viewBox="0 0 32 32" fill="none" xmlns="http://www.w3.org/2000/svg">
<g clip-path="url(#clip0)">
<path d="M17.0822 5.42893C18.523 4.83175 19.2068 3.17972 18.6096 1.73903C18.0125 0.298333 16.3604 -0.385467 14.9197 0.211717C13.479 0.808901 12.7951 2.46093 13.3923 3.90162C13.9895 5.34232 15.6415 6.02612 17.0822 5.42893Z" fill="currentColor"/>
<path d="M11.0593 13.8752H20.9371C21.4534 13.8752 21.8324 13.3902 21.7075 12.8891L20.9699 9.93077C20.6171 8.51594 19.3463 7.52306 17.8881 7.52306H14.1082C12.6501 7.52306 11.3792 8.51594 11.0265 9.93077L10.2889 12.8891C10.1639 13.3901 10.543 13.8752 11.0593 13.8752Z" fill="currentColor"/>
<path d="M29.8861 15.6189C29.3485 15.6189 28.8087 15.8224 28.3934 16.2378L25.4915 19.1398C25.7329 19.5992 25.8702 20.1215 25.8702 20.6755C25.8702 22.5031 24.3834 23.9899 22.5558 23.9899H14.6233C14.1056 23.9899 13.6859 23.5702 13.6859 23.0525C13.6859 22.5349 14.1056 22.1152 14.6233 22.1152H22.5557C23.3496 22.1152 23.9954 21.4694 23.9954 20.6755C23.9954 19.8817 23.3496 19.2359 22.5557 19.2359H18.6751C17.9705 19.2359 17.315 18.9193 16.877 18.3673L16.4492 17.8284C16.0287 17.4477 15.4788 17.232 14.9028 17.232H12.0999C11.2808 17.232 10.4883 17.5229 9.86366 18.0528L6.07129 21.2706L10.0636 28.1856C10.084 28.2209 10.1029 28.2567 10.1218 28.2924H20.9192C21.8387 28.2924 22.7202 27.9261 23.3689 27.2745L31.3846 19.2221C32.1319 18.4713 32.2077 17.2832 31.5618 16.4435C31.1424 15.8983 30.5158 15.619 29.8861 15.6189Z" fill="currentColor"/>
<path d="M8.44008 29.1229L4.06478 21.5448C3.8333 21.1438 3.41317 20.9197 2.98122 20.9197C2.76918 20.9197 2.55433 20.9737 2.35748 21.0873L0.625118 22.0875C0.0273131 22.4327 -0.177475 23.1971 0.167672 23.7948L4.54291 31.373C4.77438 31.774 5.19452 31.9981 5.62647 31.9981C5.83851 31.9981 6.05342 31.9441 6.25021 31.8305L7.98257 30.8303C8.58037 30.4851 8.78516 29.7207 8.44008 29.1229Z" fill="currentColor"/>
</g>
<defs>
<clipPath id="clip0">
<rect width="32" height="32" fill="white"/>
</clipPath>
</defs>
</svg>
