<svg width="16" height="16" viewBox="0 0 16 16" fill="none" xmlns="http://www.w3.org/2000/svg">
<g clip-path="url(#clip0)">
<path d="M7.69998 1.20001L8.39997 7.60001L10.5 5.50001C12.4 7.40001 12.4 10.6 10.5 12.5C9.59998 13.5 8.29998 14 6.99998 14C5.69998 14 4.39998 13.5 3.49998 12.5C1.59998 10.6 1.59998 7.40001 3.49998 5.50001C4.09998 4.90001 4.89998 4.40001 5.79998 4.20001L5.19998 2.30001C3.99998 2.60001 2.89998 3.20001 1.99998 4.10001C-0.700024 6.80001 -0.700024 11.2 1.99998 14C3.29998 15.3 5.09998 16 6.89998 16C8.79998 16 10.5 15.3 11.8 14C14.5 11.3 14.5 6.90001 11.8 4.10001L14 1.90001L7.69998 1.20001Z" fill="currentColor"/>
</g>
<defs>
<clipPath id="clip0">
<rect width="16" height="16" fill="white"/>
</clipPath>
</defs>
</svg>
