<svg width="48" height="48" viewBox="0 0 48 48" fill="none" xmlns="http://www.w3.org/2000/svg">
<path d="M46.0435 27.5217H42.2392V26.064C42.2392 23.4613 40.2799 21.1852 37.6832 21.0113C34.8353 20.82 32.4565 23.0836 32.4565 25.8912V27.5217H28.6521C28.0516 27.5217 27.5652 28.0081 27.5652 28.6086V44.913C27.5652 45.5136 28.0516 46 28.6521 46H46.0435C46.6441 46 47.1305 45.5136 47.1305 44.913V28.6086C47.1305 28.0081 46.6441 27.5217 46.0435 27.5217ZM33.5435 25.8912C33.5435 23.7934 35.25 22.0868 37.3478 22.0868C39.4457 22.0868 41.1522 23.7934 41.1522 25.8912V27.5217H33.5435V25.8912Z" fill="currentColor"/>
<path d="M24 33.6022C24.002 32.5693 24 29.8786 24 28.9157C23.3979 28.2935 22.8977 28.0089 21.238 28C16.4839 28.022 11.862 29.5947 8.05066 32.4872C4.23931 35.3796 1.43927 39.4396 0.0615553 44.071C-0.00408972 44.2949 -0.0174516 44.5313 0.0225347 44.7613C0.0625209 44.9914 0.15475 45.2087 0.29187 45.3961C0.428991 45.5835 0.607212 45.7356 0.812329 45.8405C1.01745 45.9453 1.24379 45.9999 1.47332 46L22.5263 45.6022C22.9172 45.6022 23.292 45.4441 23.5684 45.1628C23.8447 44.8815 24 44.5 24 44.1022V33.6022Z" fill="currentColor"/>
<path d="M21 24C26.5228 24 31 19.5228 31 14C31 8.47715 26.5228 4 21 4C15.4772 4 11 8.47715 11 14C11 19.5228 15.4772 24 21 24Z" fill="currentColor"/>
</svg>
