<svg width="16" height="16" viewBox="0 0 16 16" fill="none" xmlns="http://www.w3.org/2000/svg">
<path d="M15.7033 5.81936C15.6321 5.62803 15.5042 5.46298 15.3367 5.34624C15.1692 5.2295 14.9701 5.16663 14.766 5.16603H10.708C10.6389 5.16608 10.5715 5.14468 10.5152 5.10479C10.4588 5.06491 10.4162 5.0085 10.3933 4.94336L8.93663 0.814695C8.86528 0.623869 8.73735 0.459389 8.56995 0.343266C8.40256 0.227142 8.20369 0.164917 7.99996 0.164917C7.79623 0.164917 7.59737 0.227142 7.42997 0.343266C7.26258 0.459389 7.13465 0.623869 7.0633 0.814695L7.05996 0.825362L5.60663 4.94336C5.58374 5.00839 5.54125 5.06472 5.48502 5.1046C5.42878 5.14448 5.36157 5.16594 5.29263 5.16603H1.2333C1.02784 5.16587 0.827325 5.22901 0.659018 5.34684C0.490712 5.46467 0.362785 5.63149 0.292637 5.8246C0.222488 6.01771 0.213523 6.22774 0.26696 6.42612C0.320397 6.6245 0.433643 6.80161 0.591296 6.93336L4.0473 9.80003C4.09899 9.84293 4.13652 9.90045 4.15496 9.96504C4.1734 10.0296 4.17189 10.0983 4.15063 10.162L2.69863 14.516C2.63153 14.7173 2.6302 14.9348 2.69485 15.1369C2.75949 15.339 2.88675 15.5153 3.05823 15.6403C3.2297 15.7653 3.43649 15.8325 3.64869 15.8323C3.8609 15.832 4.0675 15.7642 4.23863 15.6387L7.80263 13.0254C7.85978 12.9835 7.92878 12.9609 7.99963 12.9609C8.07048 12.9609 8.13948 12.9835 8.19663 13.0254L11.7593 15.638C11.9304 15.7639 12.137 15.8321 12.3494 15.8327C12.5618 15.8332 12.7689 15.7661 12.9406 15.6411C13.1123 15.5161 13.2398 15.3397 13.3045 15.1374C13.3692 14.9351 13.3679 14.7175 13.3006 14.516L11.8486 10.1594C11.8274 10.0956 11.8259 10.027 11.8443 9.96238C11.8627 9.89778 11.9003 9.84026 11.952 9.79736L15.4146 6.92669C15.5703 6.79383 15.6814 6.61642 15.733 6.4184C15.7846 6.22038 15.7743 6.0113 15.7033 5.81936Z" fill="currentColor"/>
</svg>
