<svg width="48" height="48" viewBox="0 0 48 48" fill="none" xmlns="http://www.w3.org/2000/svg">
<path d="M46.5 0.75H21C20.5853 0.75 20.25 1.086 20.25 1.5V22.5C20.25 22.788 20.4157 23.0512 20.6745 23.1757C20.7788 23.2253 20.8898 23.25 21 23.25C21.1672 23.25 21.333 23.1938 21.4688 23.0858L28.7633 17.25H46.5C46.9147 17.25 47.25 16.914 47.25 16.5V1.5C47.25 1.086 46.9147 0.75 46.5 0.75Z" fill="currentColor"/>
<path d="M37.5 32.25C40.3995 32.25 42.75 29.8995 42.75 27C42.75 24.1005 40.3995 21.75 37.5 21.75C34.6005 21.75 32.25 24.1005 32.25 27C32.25 29.8995 34.6005 32.25 37.5 32.25Z" fill="currentColor"/>
<path d="M10.5 32.25C13.3995 32.25 15.75 29.8995 15.75 27C15.75 24.1005 13.3995 21.75 10.5 21.75C7.60051 21.75 5.25 24.1005 5.25 27C5.25 29.8995 7.60051 32.25 10.5 32.25Z" fill="currentColor"/>
<path d="M18.4072 37.2945C16.8315 36.3615 14.1803 35.25 10.5 35.25C6.771 35.25 4.13325 36.3585 2.577 37.2877C1.4505 37.9597 0.75 39.195 0.75 40.5105V45C0.75 45.4148 1.08525 45.75 1.5 45.75H19.5C19.9147 45.75 20.25 45.4148 20.25 45V40.5262C20.25 39.204 19.5442 37.9658 18.4072 37.2945Z" fill="currentColor"/>
<path d="M45.4072 37.2945C43.8315 36.3615 41.1803 35.25 37.5 35.25C33.771 35.25 31.1333 36.3585 29.577 37.2877C28.4505 37.9597 27.75 39.195 27.75 40.5105V45C27.75 45.4148 28.0853 45.75 28.5 45.75H46.5C46.9147 45.75 47.25 45.4148 47.25 45V40.5262C47.25 39.204 46.5442 37.9658 45.4072 37.2945Z" fill="currentColor"/>
</svg>
