<svg width="16" height="16" viewBox="0 0 16 16" fill="none" xmlns="http://www.w3.org/2000/svg">
<g clip-path="url(#clip0)">
<path d="M15.275 10.293L13.087 9.66802C12.9102 9.61746 12.7507 9.51911 12.6262 9.38379C12.5016 9.24848 12.4168 9.08143 12.381 8.90102L12.247 8.22602C12.7696 7.98721 13.2125 7.60336 13.5233 7.12012C13.8341 6.63687 13.9995 6.07456 14 5.50002V4.12602C14.0121 3.33047 13.7163 2.56101 13.1744 1.97846C12.6325 1.3959 11.8864 1.04534 11.092 1.00002C10.499 0.98213 9.91406 1.14045 9.41105 1.45497C8.90803 1.76948 8.50956 2.22608 8.26601 2.76702C8.74306 3.4613 8.99893 4.28365 9.00001 5.12602V6.50002C8.99822 6.86379 8.94605 7.22556 8.84501 7.57502C9.10424 7.84696 9.41225 8.06779 9.75301 8.22602L9.61901 8.90002C9.58324 9.08043 9.49842 9.24748 9.37386 9.3828C9.2493 9.51811 9.08984 9.61646 8.91301 9.66702L8.07001 9.90802L9.55001 10.331C9.96721 10.4515 10.3341 10.7041 10.5955 11.0509C10.857 11.3976 10.9989 11.8198 11 12.254V14.5C10.9984 14.6707 10.9672 14.8399 10.908 15H15.5C15.6326 15 15.7598 14.9473 15.8536 14.8536C15.9473 14.7598 16 14.6326 16 14.5V11.254C15.9999 11.0368 15.9291 10.8256 15.7983 10.6522C15.6675 10.4788 15.4838 10.3527 15.275 10.293Z" fill="currentColor"/>
<path d="M9.275 11.2931L7.087 10.6681C6.91004 10.6174 6.75049 10.5189 6.62592 10.3834C6.50135 10.2479 6.4166 10.0807 6.381 9.90007L6.247 9.22507C6.7694 8.98632 7.21228 8.60263 7.52303 8.11958C7.83377 7.63654 7.99932 7.07444 8 6.50007V5.12607C8.01213 4.33051 7.71632 3.56106 7.17439 2.9785C6.63246 2.39595 5.88636 2.04538 5.092 2.00007C4.69036 1.98775 4.29034 2.05624 3.91568 2.20147C3.54101 2.34671 3.19935 2.56573 2.91095 2.84555C2.62256 3.12536 2.39332 3.46026 2.23683 3.83036C2.08035 4.20047 1.99981 4.59824 2 5.00007V6.50007C2.00049 7.07461 2.16595 7.63692 2.4767 8.12016C2.78746 8.60341 3.23045 8.98725 3.753 9.22607L3.619 9.90007C3.58323 10.0805 3.49841 10.2475 3.37385 10.3828C3.24929 10.5182 3.08983 10.6165 2.913 10.6671L0.725 11.2921C0.516025 11.3518 0.332214 11.4781 0.201397 11.6517C0.0705796 11.8252 -0.000120636 12.0367 1.54521e-07 12.2541V14.5001C1.54521e-07 14.6327 0.0526786 14.7599 0.146447 14.8536C0.240215 14.9474 0.367392 15.0001 0.5 15.0001H9.5C9.63261 15.0001 9.75979 14.9474 9.85355 14.8536C9.94732 14.7599 10 14.6327 10 14.5001V12.2541C9.9999 12.0369 9.9291 11.8256 9.7983 11.6523C9.6675 11.4789 9.48381 11.3528 9.275 11.2931Z" fill="currentColor"/>
</g>
<defs>
<clipPath id="clip0">
<rect width="16" height="16" fill="white"/>
</clipPath>
</defs>
</svg>
