<svg width="48" height="48" viewBox="0 0 48 48" fill="none" xmlns="http://www.w3.org/2000/svg">
<path d="M24 31C23.0111 31 22.0444 30.7068 21.2222 30.1574C20.3999 29.6079 19.759 28.8271 19.3806 27.9134C19.0022 26.9998 18.9031 25.9945 19.0961 25.0246C19.289 24.0546 19.7652 23.1637 20.4645 22.4645C21.1637 21.7652 22.0546 21.289 23.0246 21.0961C23.9945 20.9031 24.9998 21.0022 25.9134 21.3806C26.8271 21.759 27.6079 22.3999 28.1574 23.2222C28.7068 24.0444 29 25.0111 29 26C28.9984 27.3256 28.4711 28.5964 27.5338 29.5338C26.5964 30.4711 25.3256 30.9984 24 31Z" fill="currentColor"/>
<path d="M42 15C40.811 15.0045 39.6634 15.4369 38.767 16.218L28.467 8.206C28.8136 7.52203 28.996 6.76675 29 6C29 4.67392 28.4732 3.40215 27.5355 2.46447C26.5979 1.52678 25.3261 1 24 1C22.6739 1 21.4021 1.52678 20.4645 2.46447C19.5268 3.40215 19 4.67392 19 6C19.0049 6.76699 19.1884 7.52229 19.536 8.206L9.236 16.218C8.33881 15.4362 7.19001 15.0038 6 15C4.67392 15 3.40215 15.5268 2.46447 16.4645C1.52678 17.4021 1 18.6739 1 20C1 21.3261 1.52678 22.5979 2.46447 23.5355C3.40215 24.4732 4.67392 25 6 25C6.109 25 6.211 24.975 6.318 24.968L9.752 37.558C8.99836 37.9403 8.35417 38.5078 7.87983 39.2072C7.40548 39.9065 7.11652 40.7149 7.04005 41.5565C6.96358 42.3981 7.10209 43.2454 7.44261 44.0188C7.78312 44.7922 8.31448 45.4665 8.98686 45.9784C9.65924 46.4903 10.4506 46.8231 11.2868 46.9455C12.1229 47.0679 12.9765 46.9759 13.7674 46.6783C14.5583 46.3806 15.2606 45.8869 15.8085 45.2435C16.3565 44.6002 16.732 43.8282 16.9 43H31.1C31.2652 43.8324 31.6394 44.609 32.1876 45.2567C32.7358 45.9045 33.4398 46.4021 34.2333 46.7027C35.0269 47.0033 35.8839 47.0969 36.7237 46.9748C37.5634 46.8528 38.3583 46.519 39.0334 46.0049C39.7086 45.4908 40.2418 44.8134 40.5828 44.0364C40.9239 43.2593 41.0615 42.4083 40.9829 41.5634C40.9042 40.7184 40.6118 39.9074 40.1332 39.2067C39.6545 38.506 39.0054 37.9386 38.247 37.558L41.681 24.968C41.788 24.975 41.89 25 41.999 25C43.3251 25 44.5969 24.4732 45.5345 23.5355C46.4722 22.5979 46.999 21.3261 46.999 20C46.999 18.6739 46.4722 17.4021 45.5345 16.4645C44.5969 15.5268 43.3251 15 41.999 15H42ZM36.319 37.032C36.211 37.025 36.109 37 36 37C35.2261 37.005 34.4642 37.192 33.776 37.546L29 30.894C28.5306 31.3729 27.9952 31.7824 27.41 32.11L32.2 38.784C31.6527 39.4183 31.2743 40.1805 31.1 41H16.9C16.7263 40.18 16.3479 39.4174 15.8 38.783L20.593 32.11C20.0066 31.7829 19.4701 31.3734 19 30.894L14.223 37.545C13.5348 37.1919 12.7734 37.0053 12 37C11.891 37 11.789 37.025 11.681 37.032L8.247 24.442C9.05838 24.0328 9.74317 23.4106 10.228 22.642L17.128 24.671C17.2551 24.0125 17.4771 23.3758 17.787 22.781L10.923 20.76C11.1133 19.7479 10.9513 18.7012 10.464 17.794L20.764 9.782C21.4014 10.3398 22.1713 10.7248 23 10.9V19.08C23.6624 18.9733 24.3376 18.9733 25 19.08V10.9C25.8276 10.7246 26.5963 10.34 27.233 9.783L37.533 17.795C37.1867 18.4787 37.0042 19.2336 37 20C37.0058 20.2546 37.0315 20.5084 37.077 20.759L30.211 22.779C30.5209 23.3738 30.7429 24.0105 30.87 24.669L37.77 22.639C38.2551 23.4078 38.9402 24.03 39.752 24.439L36.319 37.032Z" fill="currentColor"/>
</svg>
