<svg width="48" height="48" viewBox="0 0 48 48" fill="none" xmlns="http://www.w3.org/2000/svg">
<path d="M32.0255 18.787L30.037 20.7755L35.25 25.9885L40.463 20.7755L38.4745 18.787L36.6563 20.6052V11.3438H28.2188V14.1562H33.8438V20.6052L32.0255 18.787Z" fill="currentColor"/>
<path d="M10.3495 34.838L12.3379 32.8495L7.12496 27.6365L1.91199 32.8495L3.90042 34.838L5.71871 33.0198V42.2813H14.1562V39.4688H8.53121V33.0198L10.3495 34.838Z" fill="currentColor"/>
<path d="M12.75 14.1562C13.5267 14.1562 14.1562 13.5267 14.1562 12.75C14.1562 11.9733 13.5267 11.3438 12.75 11.3438C11.9733 11.3438 11.3438 11.9733 11.3438 12.75C11.3438 13.5267 11.9733 14.1562 12.75 14.1562Z" fill="currentColor"/>
<path d="M3.90975 22.4647L6.08147 21.8438C6.72863 22.3127 7.50956 22.7262 8.25047 23.0505L8.83884 25.4062H16.6612L17.2496 23.0505C17.9907 22.726 18.6778 22.3123 19.3252 21.8434L21.4965 22.4647L25.4062 15.6916L23.8548 14.1908C23.9164 13.714 24 13.2435 24 12.75C24 12.2565 23.9164 11.786 23.8548 11.3092L25.4062 9.80841L21.4965 3.03534L19.325 3.65644C18.6776 3.1875 17.9904 2.77378 17.2496 2.4495L16.6612 0H8.83884L8.25037 2.4495C7.50956 2.77369 6.72881 3.18722 6.08147 3.65625L3.90975 3.03534L0 9.80841L1.55147 11.3091C1.48987 11.786 1.40625 12.2565 1.40625 12.75C1.40625 13.2435 1.48987 13.714 1.55147 14.1908L0 15.6916L3.90975 22.4647ZM12.75 8.53125C15.0763 8.53125 16.9688 10.4237 16.9688 12.75C16.9688 15.0763 15.0763 16.9688 12.75 16.9688C10.4237 16.9688 8.53125 15.0763 8.53125 12.75C8.53125 10.4237 10.4237 8.53125 12.75 8.53125Z" fill="currentColor"/>
<path d="M32.4375 39.4688C33.2142 39.4688 33.8438 38.8392 33.8438 38.0625C33.8438 37.2858 33.2142 36.6562 32.4375 36.6562C31.6608 36.6562 31.0312 37.2858 31.0312 38.0625C31.0312 38.8392 31.6608 39.4688 32.4375 39.4688Z" fill="currentColor"/>
<path d="M16.9688 48H48V28.2188H16.9688V48ZM39.4688 36.6562H42.2812V39.4688H39.4688V36.6562ZM32.4375 33.8438C34.7638 33.8438 36.6562 35.7362 36.6562 38.0625C36.6562 40.3888 34.7638 42.2812 32.4375 42.2812C30.1112 42.2812 28.2188 40.3888 28.2188 38.0625C28.2188 35.7362 30.1112 33.8438 32.4375 33.8438ZM22.5938 36.6562H25.4062V39.4688H22.5938V36.6562Z" fill="currentColor"/>
</svg>
