<svg width="48" height="48" viewBox="0 0 48 48" fill="none" xmlns="http://www.w3.org/2000/svg">
<path d="M36.038 17.672C35.9287 17.6719 35.8224 17.7077 35.7353 17.7738C35.6483 17.8399 35.5853 17.9327 35.556 18.038L28.782 42.238C28.7511 42.351 28.761 42.4713 28.8097 42.5779C28.8585 42.6844 28.9432 42.7704 29.0489 42.8209C29.1546 42.8714 29.2748 42.8831 29.3883 42.8541C29.5018 42.825 29.6015 42.7571 29.67 42.662L46.95 18.474C47.0049 18.3995 47.0382 18.3113 47.0462 18.2191C47.0541 18.1269 47.0364 18.0343 46.995 17.9515C46.9536 17.8687 46.8902 17.799 46.8116 17.75C46.7331 17.701 46.6425 17.6747 46.55 17.674L36.038 17.672Z" fill="currentColor"/>
<path d="M32.364 18.308C32.385 18.2337 32.3885 18.1556 32.3742 18.0798C32.36 18.0039 32.3284 17.9324 32.2819 17.8708C32.2354 17.8092 32.1753 17.7592 32.1063 17.7247C32.0372 17.6902 31.9611 17.6722 31.884 17.672H16.118C16.0406 17.6719 15.9643 17.6897 15.895 17.724C15.8257 17.7584 15.7654 17.8084 15.7186 17.87C15.6719 17.9316 15.6401 18.0033 15.6258 18.0793C15.6115 18.1553 15.6149 18.2336 15.636 18.308L23.518 46.462C23.5471 46.5675 23.61 46.6605 23.6971 46.7268C23.7841 46.7931 23.8905 46.829 24 46.829C24.1094 46.829 24.2158 46.7931 24.3029 46.7268C24.39 46.6605 24.4529 46.5675 24.482 46.462L32.364 18.308Z" fill="currentColor"/>
<path d="M29.876 14.672C29.9603 14.672 30.0433 14.6507 30.1172 14.61C30.1911 14.5694 30.2535 14.5107 30.2986 14.4394C30.3437 14.3682 30.37 14.2867 30.3752 14.2025C30.3803 14.1183 30.3641 14.0342 30.328 13.958L24.348 1.4C24.3178 1.33273 24.269 1.27551 24.2074 1.2351C24.1457 1.1947 24.0737 1.1728 24 1.172C23.9274 1.17199 23.8563 1.19268 23.795 1.23164C23.7337 1.27061 23.6848 1.32623 23.654 1.392L17.672 13.958C17.6359 14.0342 17.6197 14.1183 17.6248 14.2025C17.63 14.2867 17.6563 14.3682 17.7014 14.4394C17.7465 14.5107 17.8089 14.5694 17.8828 14.61C17.9567 14.6507 18.0397 14.672 18.124 14.672H29.876Z" fill="currentColor"/>
<path d="M18.33 42.654C18.3985 42.7491 18.4982 42.817 18.6117 42.8461C18.7252 42.8751 18.8453 42.8634 18.9511 42.8129C19.0568 42.7624 19.1415 42.6764 19.1903 42.5699C19.239 42.4633 19.2489 42.343 19.218 42.23L12.444 18.038C12.4151 17.9329 12.3525 17.8401 12.2658 17.774C12.1791 17.7079 12.073 17.672 11.964 17.672H1.45799C1.36544 17.6727 1.2749 17.699 1.19636 17.748C1.11782 17.797 1.05435 17.8667 1.01296 17.9495C0.971568 18.0323 0.953868 18.1249 0.961815 18.2171C0.969763 18.3093 1.00305 18.3975 1.05799 18.472L18.33 42.654Z" fill="currentColor"/>
<path d="M36.676 14.038C36.6549 14.1123 36.6514 14.1905 36.6657 14.2664C36.68 14.3424 36.7118 14.4139 36.7586 14.4754C36.8054 14.5369 36.8658 14.5867 36.9351 14.6208C37.0044 14.6549 37.0807 14.6725 37.158 14.672H46.51C46.6028 14.672 46.6939 14.6461 46.7728 14.5973C46.8518 14.5485 46.9157 14.4787 46.9572 14.3956C46.9987 14.3126 47.0163 14.2196 47.008 14.1271C46.9996 14.0346 46.9657 13.9463 46.91 13.872L40.124 4.712C40.0683 4.63716 39.9927 4.57942 39.9059 4.54528C39.819 4.51115 39.7244 4.50199 39.6326 4.51885C39.5409 4.5357 39.4556 4.5779 39.3866 4.64066C39.3176 4.70342 39.2675 4.78425 39.242 4.874L36.676 14.038Z" fill="currentColor"/>
<path d="M10.844 14.672C10.9211 14.6721 10.9971 14.6544 11.0662 14.6201C11.1353 14.5859 11.1954 14.5361 11.242 14.4746C11.2885 14.4131 11.3201 14.3417 11.3343 14.266C11.3486 14.1902 11.345 14.1122 11.324 14.038L8.75998 4.874C8.73475 4.78378 8.68468 4.70247 8.61547 4.63932C8.54627 4.57618 8.46073 4.53374 8.36858 4.51686C8.27644 4.49997 8.1814 4.50931 8.09431 4.54381C8.00721 4.57831 7.93156 4.63659 7.87598 4.712L1.08798 13.876C1.03226 13.9503 0.998336 14.0386 0.989997 14.1311C0.981658 14.2236 0.999236 14.3166 1.04076 14.3996C1.08229 14.4827 1.14612 14.5525 1.22511 14.6013C1.3041 14.6501 1.39512 14.676 1.48798 14.676L10.844 14.672Z" fill="currentColor"/>
<path d="M14.032 12.584C14.0601 12.6816 14.1172 12.7683 14.1957 12.8328C14.2741 12.8972 14.3703 12.9364 14.4715 12.9451C14.5727 12.9537 14.6741 12.9315 14.7624 12.8813C14.8507 12.8311 14.9216 12.7554 14.966 12.664L20.094 1.888C20.1305 1.81185 20.147 1.72771 20.1422 1.64341C20.1374 1.55912 20.1113 1.47742 20.0664 1.40593C20.0214 1.33445 19.9591 1.2755 19.8853 1.2346C19.8114 1.19369 19.7284 1.17216 19.644 1.172H11.49C11.4125 1.1729 11.3363 1.19137 11.267 1.22602C11.1977 1.26066 11.1372 1.31057 11.09 1.372C11.0464 1.43324 11.0171 1.5035 11.0043 1.57758C10.9915 1.65166 10.9955 1.72767 11.016 1.8L14.032 12.584Z" fill="currentColor"/>
<path d="M33.034 12.664C33.0776 12.7563 33.1483 12.833 33.2368 12.8839C33.3252 12.9348 33.4271 12.9574 33.5288 12.9487C33.6305 12.94 33.7271 12.9004 33.8056 12.8352C33.8841 12.77 33.9408 12.6823 33.968 12.584L36.984 1.8C37.0048 1.72638 37.0085 1.64897 36.9947 1.57371C36.9809 1.49846 36.95 1.42738 36.9044 1.36594C36.8588 1.3045 36.7997 1.25435 36.7317 1.21934C36.6637 1.18433 36.5885 1.1654 36.512 1.164H28.356C28.2716 1.16416 28.1885 1.1857 28.1147 1.2266C28.0408 1.26751 27.9785 1.32645 27.9336 1.39794C27.8887 1.46942 27.8626 1.55112 27.8578 1.63542C27.8529 1.71971 27.8695 1.80385 27.906 1.88L33.034 12.664Z" fill="currentColor"/>
</svg>
