<svg width="14" height="14" viewBox="0 0 14 14" fill="none" xmlns="http://www.w3.org/2000/svg">
<path fill-rule="evenodd" clip-rule="evenodd" d="M7.81199 2.91593L11.0843 6.18827L5.33109 11.9415C5.27875 11.9938 5.21268 12.0302 5.14052 12.0465L1.64026 12.8243C1.61251 12.8302 1.58423 12.8333 1.55587 12.8333C1.43784 12.8333 1.32616 12.7799 1.25227 12.6878C1.17838 12.5958 1.15028 12.4752 1.1759 12.36L1.95373 8.85973C1.97005 8.78758 2.00646 8.72151 2.05874 8.66917L7.81199 2.91593ZM9.22026 1.50727C9.67641 1.05308 10.4139 1.05308 10.87 1.50727L12.4926 3.13022C12.9467 3.58635 12.9469 4.32366 12.493 4.78L11.6343 5.63834L8.36192 2.366L9.22026 1.50727Z" fill="#0F172A"/>
</svg>
