<svg width="17" height="16" viewBox="0 0 17 16" fill="none" xmlns="http://www.w3.org/2000/svg">
<path d="M16.8416 0.155988C16.6336 -0.0519959 16.2923 -0.0519959 16.0843 0.155988L12.2286 4.01168C11.3327 3.52639 10.2661 3.20108 8.99685 3.20108C4.6452 3.20108 2.54936 7.0781 2.11207 8.0007C2.37871 8.57132 3.23731 10.2032 4.83718 11.4031L1.46145 14.7788L1.15214 15.0881C0.944159 15.2961 0.944159 15.6374 1.15214 15.8454C1.2588 15.9467 1.39212 16.0001 1.53078 16.0001C1.66943 16.0001 1.80276 15.9467 1.90942 15.8454L16.8416 0.913261C17.0495 0.705277 17.0495 0.363971 16.8416 0.155988ZM6.77303 9.46725C6.49572 9.04595 6.3304 8.54465 6.3304 8.0007C6.3304 6.52881 7.52497 5.33424 8.99685 5.33424C9.54081 5.33424 10.0421 5.49956 10.4634 5.77687L6.77303 9.46725Z" fill="currentColor"/>
<path d="M12.4739 6.6568L11.6158 7.51539C11.6473 7.67005 11.6633 7.83537 11.6633 8.00069C11.6633 9.47257 10.4687 10.6671 8.99683 10.6671C8.83151 10.6671 8.66619 10.6511 8.51154 10.6191L7.65347 11.4777L6.72021 12.411C7.39696 12.6563 8.15423 12.8003 8.99683 12.8003C13.3485 12.8003 15.4443 8.92328 15.8816 8.00069C15.6576 7.52606 15.0278 6.31549 13.8978 5.23291L12.4739 6.6568Z" fill="currentColor"/>
</svg>
