<svg width="12" height="12" viewBox="0 0 12 12" fill="none" xmlns="http://www.w3.org/2000/svg">
<g clip-path="url(#clip0)">
<path d="M2.5 6H6M6 6V9.2C6 9.36569 6.13431 9.5 6.3 9.5H9M6 6V2.8C6 2.63431 6.13431 2.5 6.3 2.5H9" stroke="black" stroke-width="1.4"/>
<rect y="4.19995" width="3.6" height="3.6" rx="0.5" fill="black"/>
<path d="M8.4 0.5C8.4 0.223858 8.62386 0 8.9 0H11.5C11.7761 0 12 0.223858 12 0.5V3.1C12 3.37614 11.7761 3.6 11.5 3.6H8.9C8.62386 3.6 8.4 3.37614 8.4 3.1V0.5Z" fill="black"/>
<path d="M8.4 8.9C8.4 8.62386 8.62386 8.4 8.9 8.4H11.5C11.7761 8.4 12 8.62386 12 8.9V11.5C12 11.7761 11.7761 12 11.5 12H8.9C8.62386 12 8.4 11.7761 8.4 11.5V8.9Z" fill="black"/>
</g>
<defs>
<clipPath id="clip0">
<rect width="12" height="12" fill="white" transform="matrix(1 0 0 -1 0 12)"/>
</clipPath>
</defs>
</svg>
