<svg width="32" height="32" viewBox="0 0 32 32" fill="none" xmlns="http://www.w3.org/2000/svg">
<g clip-path="url(#clip0)">
<path d="M22 14.6667C20.2859 14.6667 18.6103 15.175 17.1851 16.1273C15.7599 17.0796 14.649 18.4331 13.9931 20.0167C13.3371 21.6004 13.1655 23.343 13.4999 25.0241C13.8343 26.7053 14.6597 28.2495 15.8718 29.4616C17.0838 30.6737 18.6281 31.4991 20.3093 31.8335C21.9904 32.1679 23.733 31.9963 25.3166 31.3403C26.9003 30.6843 28.2538 29.5735 29.2061 28.1483C30.1584 26.7231 30.6667 25.0474 30.6667 23.3333C30.6639 21.0357 29.7499 18.8329 28.1252 17.2082C26.5005 15.5835 24.2977 14.6695 22 14.6667ZM23.4827 28.2107C23.3437 28.2506 23.2215 28.3346 23.1344 28.45C23.0474 28.5655 23.0002 28.7061 23 28.8507V29C23 29.2652 22.8947 29.5196 22.7072 29.7071C22.5196 29.8946 22.2653 30 22 30C21.7348 30 21.4805 29.8946 21.2929 29.7071C21.1054 29.5196 21 29.2652 21 29C21 28.8232 20.9298 28.6536 20.8048 28.5286C20.6798 28.4036 20.5102 28.3333 20.3334 28.3333H20C19.7348 28.3333 19.4805 28.228 19.2929 28.0404C19.1054 27.8529 19 27.5986 19 27.3333C19 27.0681 19.1054 26.8138 19.2929 26.6262C19.4805 26.4387 19.7348 26.3333 20 26.3333H22.7107C22.8944 26.3336 23.0724 26.2699 23.2141 26.1531C23.3558 26.0363 23.4524 25.8737 23.4871 25.6933C23.5219 25.513 23.4926 25.3262 23.4045 25.165C23.3163 25.0039 23.1747 24.8786 23.004 24.8107L20.2534 23.7107C19.7141 23.4962 19.2556 23.1183 18.942 22.63C18.6285 22.1417 18.4757 21.5674 18.5051 20.9878C18.5345 20.4083 18.7446 19.8524 19.106 19.3984C19.4674 18.9443 19.9619 18.6148 20.52 18.456C20.659 18.4161 20.7812 18.3321 20.8683 18.2167C20.9554 18.1012 21.0025 17.9606 21.0027 17.816V17.6667C21.0027 17.4015 21.1081 17.1471 21.2956 16.9596C21.4831 16.772 21.7375 16.6667 22.0027 16.6667C22.2679 16.6667 22.5223 16.772 22.7098 16.9596C22.8974 17.1471 23.0027 17.4015 23.0027 17.6667C23.0027 17.8435 23.0729 18.0131 23.198 18.1381C23.323 18.2631 23.4926 18.3333 23.6694 18.3333H24C24.2653 18.3333 24.5196 18.4387 24.7072 18.6262C24.8947 18.8138 25 19.0681 25 19.3333C25 19.5986 24.8947 19.8529 24.7072 20.0404C24.5196 20.228 24.2653 20.3333 24 20.3333H21.2907C21.1076 20.3338 20.9304 20.3979 20.7894 20.5146C20.6484 20.6313 20.5523 20.7935 20.5176 20.9732C20.483 21.153 20.5119 21.3392 20.5994 21.5C20.6869 21.6608 20.8276 21.7862 20.9974 21.8547L23.748 22.9547C24.2871 23.1695 24.7455 23.5475 25.0588 24.0359C25.3722 24.5243 25.5249 25.0986 25.4955 25.6781C25.4661 26.2576 25.2561 26.8134 24.8949 27.2676C24.5337 27.7218 24.0394 28.0516 23.4814 28.2107H23.4827Z" fill="currentColor"/>
<path d="M11.3333 25H9.66534C8.9581 25 8.27982 24.719 7.77972 24.219C7.27962 23.7189 6.99867 23.0406 6.99867 22.3333V21.3333C6.99867 21.1565 7.06891 20.987 7.19393 20.8619C7.31896 20.7369 7.48853 20.6667 7.66534 20.6667H8.99867C9.19633 20.6665 9.38949 20.6078 9.55378 20.4979C9.71807 20.388 9.84611 20.2319 9.92172 20.0492C9.99734 19.8666 10.0171 19.6657 9.97863 19.4718C9.94011 19.278 9.84501 19.0999 9.70534 18.96L6.37201 15.6267C6.27925 15.5338 6.1691 15.4601 6.04784 15.4098C5.92658 15.3595 5.79661 15.3337 5.66534 15.3337C5.53407 15.3337 5.40409 15.3595 5.28284 15.4098C5.16158 15.4601 5.05143 15.5338 4.95867 15.6267L1.62534 18.96C1.48566 19.0999 1.39057 19.278 1.35205 19.4718C1.31354 19.6657 1.33334 19.8666 1.40896 20.0492C1.48457 20.2319 1.61261 20.388 1.7769 20.4979C1.94118 20.6078 2.13435 20.6665 2.33201 20.6667H3.66534C3.84215 20.6667 4.01172 20.7369 4.13674 20.8619C4.26177 20.987 4.33201 21.1565 4.33201 21.3333V22.3333C4.33201 23.7478 4.89391 25.1044 5.8941 26.1046C6.8943 27.1048 8.25085 27.6667 9.66534 27.6667H11.3333C11.687 27.6667 12.0261 27.5262 12.2761 27.2761C12.5262 27.0261 12.6667 26.687 12.6667 26.3333C12.6667 25.9797 12.5262 25.6406 12.2761 25.3905C12.0261 25.1405 11.687 25 11.3333 25Z" fill="currentColor"/>
<path d="M14.3374 3.66667C14.3374 4.02029 14.4779 4.35943 14.7279 4.60948C14.978 4.85953 15.3171 5 15.6707 5H19.6707C20.378 5 21.0563 5.28095 21.5564 5.78105C22.0564 6.28115 22.3374 6.95943 22.3374 7.66667C22.3374 7.71078 22.3287 7.75446 22.3117 7.79516C22.2946 7.83587 22.2697 7.87279 22.2384 7.9038C22.207 7.9348 22.1698 7.95927 22.1289 7.97579C22.088 7.9923 22.0442 8.00053 22.0001 8H20.3334C20.1357 8.00018 19.9426 8.05892 19.7783 8.16881C19.614 8.27871 19.486 8.43482 19.4104 8.61744C19.3347 8.80006 19.3149 9.00099 19.3534 9.19485C19.392 9.38872 19.4871 9.56682 19.6267 9.70667L22.9601 13.04C23.0527 13.133 23.1629 13.2069 23.2841 13.2573C23.4054 13.3076 23.5354 13.3336 23.6667 13.3336C23.7981 13.3336 23.9281 13.3076 24.0493 13.2573C24.1706 13.2069 24.2807 13.133 24.3734 13.04L27.7067 9.70667C27.8462 9.56706 27.9412 9.38932 27.9798 9.19583C28.0185 9.00234 27.999 8.80173 27.9239 8.61928C27.8488 8.43682 27.7214 8.28067 27.5577 8.17047C27.394 8.06027 27.2014 8.00096 27.0041 8H25.3334C25.245 8 25.1602 7.96488 25.0977 7.90237C25.0352 7.83986 25.0001 7.75507 25.0001 7.66667C25.0001 6.25218 24.4382 4.89563 23.438 3.89543C22.4378 2.89524 21.0812 2.33334 19.6667 2.33334H15.6667C15.3138 2.33439 14.9757 2.47534 14.7265 2.72527C14.4773 2.97521 14.3374 3.31374 14.3374 3.66667Z" fill="currentColor"/>
<path d="M1.99992 13.3333H3.99992C4.17673 13.3333 4.3463 13.2631 4.47132 13.1381C4.59635 13.013 4.66659 12.8435 4.66659 12.6667V11.3333C4.66659 11.1565 4.73682 10.987 4.86185 10.8619C4.98687 10.7369 5.15644 10.6667 5.33325 10.6667H6.66659C6.8434 10.6667 7.01297 10.7369 7.13799 10.8619C7.26301 10.987 7.33325 11.1565 7.33325 11.3333V12.6667C7.33325 12.8435 7.40349 13.013 7.52851 13.1381C7.65354 13.2631 7.82311 13.3333 7.99992 13.3333H9.99992C10.1767 13.3333 10.3463 13.2631 10.4713 13.1381C10.5963 13.013 10.6666 12.8435 10.6666 12.6667V2.66667C10.6666 2.54296 10.6322 2.4217 10.5672 2.31644C10.5022 2.21119 10.4092 2.12609 10.2986 2.07067L6.29859 0.0706672C6.20588 0.0242119 6.10361 2.28882e-05 5.99992 2.28882e-05C5.89622 2.28882e-05 5.79396 0.0242119 5.70125 0.0706672L1.70125 2.07067C1.59066 2.12609 1.49766 2.21119 1.43267 2.31644C1.36768 2.4217 1.33326 2.54296 1.33325 2.66667V12.6667C1.33325 12.8435 1.40349 13.013 1.52851 13.1381C1.65354 13.2631 1.82311 13.3333 1.99992 13.3333ZM3.99992 3.33333H7.99992C8.17673 3.33333 8.3463 3.40357 8.47132 3.5286C8.59635 3.65362 8.66659 3.82319 8.66659 4C8.66659 4.17681 8.59635 4.34638 8.47132 4.47141C8.3463 4.59643 8.17673 4.66667 7.99992 4.66667H3.99992C3.82311 4.66667 3.65354 4.59643 3.52851 4.47141C3.40349 4.34638 3.33325 4.17681 3.33325 4C3.33325 3.82319 3.40349 3.65362 3.52851 3.5286C3.65354 3.40357 3.82311 3.33333 3.99992 3.33333ZM3.99992 6.66667H7.99992C8.17673 6.66667 8.3463 6.73691 8.47132 6.86193C8.59635 6.98695 8.66659 7.15652 8.66659 7.33333C8.66659 7.51015 8.59635 7.67971 8.47132 7.80474C8.3463 7.92976 8.17673 8 7.99992 8H3.99992C3.82311 8 3.65354 7.92976 3.52851 7.80474C3.40349 7.67971 3.33325 7.51015 3.33325 7.33333C3.33325 7.15652 3.40349 6.98695 3.52851 6.86193C3.65354 6.73691 3.82311 6.66667 3.99992 6.66667Z" fill="currentColor"/>
</g>
<defs>
<clipPath id="clip0">
<rect width="32" height="32" fill="white"/>
</clipPath>
</defs>
</svg>
